<?xml version="1.0" encoding="utf-8" standalone="no"?>
<!DOCTYPE svg PUBLIC "-//W3C//DTD SVG 1.1//EN"
  "http://www.w3.org/Graphics/SVG/1.1/DTD/svg11.dtd">
<svg xmlns:xlink="http://www.w3.org/1999/xlink" width="864pt" height="360pt" viewBox="0 0 864 360" xmlns="http://www.w3.org/2000/svg" version="1.1">
 <metadata>
  <rdf:RDF xmlns:dc="http://purl.org/dc/elements/1.1/" xmlns:cc="http://creativecommons.org/ns#" xmlns:rdf="http://www.w3.org/1999/02/22-rdf-syntax-ns#">
   <cc:Work>
    <dc:type rdf:resource="http://purl.org/dc/dcmitype/StillImage"/>
    <dc:date>2025-12-24T20:07:45.712420</dc:date>
    <dc:format>image/svg+xml</dc:format>
    <dc:creator>
     <cc:Agent>
      <dc:title>Matplotlib v3.10.8, https://matplotlib.org/</dc:title>
     </cc:Agent>
    </dc:creator>
   </cc:Work>
  </rdf:RDF>
 </metadata>
 <defs>
  <style type="text/css">*{stroke-linejoin: round; stroke-linecap: butt}</style>
 </defs>
 <g id="figure_1">
  <g id="patch_1">
   <path d="M 0 360 
L 864 360 
L 864 0 
L 0 0 
L 0 360 
z
" style="fill: none; opacity: 0"/>
  </g>
  <g id="axes_1">
   <g id="patch_2">
    <path d="M 108 320.4 
L 777.6 320.4 
L 777.6 43.2 
L 108 43.2 
L 108 320.4 
z
" style="fill: none; opacity: 0"/>
   </g>
   <g id="matplotlib.axis_1">
    <g id="xtick_1">
     <g id="line2d_1">
      <path d="M 129.761811 320.4 
L 129.761811 43.2 
" clip-path="url(#p5a45a4c1dd)" style="fill: none; stroke-dasharray: 5.12,1.28,0.8,1.28; stroke-dashoffset: 0; stroke: #b0b0b0; stroke-width: 0.8"/>
     </g>
     <g id="line2d_2">
      <defs>
       <path id="mfcfc5e7d82" d="M 0 0 
L 0 3.5 
" style="stroke: #a9a9a9; stroke-width: 0.8"/>
      </defs>
      <g>
       <use xlink:href="#mfcfc5e7d82" x="129.761811" y="320.4" style="fill: #a9a9a9; stroke: #a9a9a9; stroke-width: 0.8"/>
      </g>
     </g>
     <g id="text_1">
      <!-- 2021-07 -->
      <g style="fill: #a9a9a9" transform="translate(108.870405 334.998438) scale(0.1 -0.1)">
       <defs>
        <path id="DejaVuSans-32" d="M 1228 531 
L 3431 531 
L 3431 0 
L 469 0 
L 469 531 
Q 828 903 1448 1529 
Q 2069 2156 2228 2338 
Q 2531 2678 2651 2914 
Q 2772 3150 2772 3378 
Q 2772 3750 2511 3984 
Q 2250 4219 1831 4219 
Q 1534 4219 1204 4116 
Q 875 4013 500 3803 
L 500 4441 
Q 881 4594 1212 4672 
Q 1544 4750 1819 4750 
Q 2544 4750 2975 4387 
Q 3406 4025 3406 3419 
Q 3406 3131 3298 2873 
Q 3191 2616 2906 2266 
Q 2828 2175 2409 1742 
Q 1991 1309 1228 531 
z
" transform="scale(0.015625)"/>
        <path id="DejaVuSans-30" d="M 2034 4250 
Q 1547 4250 1301 3770 
Q 1056 3291 1056 2328 
Q 1056 1369 1301 889 
Q 1547 409 2034 409 
Q 2525 409 2770 889 
Q 3016 1369 3016 2328 
Q 3016 3291 2770 3770 
Q 2525 4250 2034 4250 
z
M 2034 4750 
Q 2819 4750 3233 4129 
Q 3647 3509 3647 2328 
Q 3647 1150 3233 529 
Q 2819 -91 2034 -91 
Q 1250 -91 836 529 
Q 422 1150 422 2328 
Q 422 3509 836 4129 
Q 1250 4750 2034 4750 
z
" transform="scale(0.015625)"/>
        <path id="DejaVuSans-31" d="M 794 531 
L 1825 531 
L 1825 4091 
L 703 3866 
L 703 4441 
L 1819 4666 
L 2450 4666 
L 2450 531 
L 3481 531 
L 3481 0 
L 794 0 
L 794 531 
z
" transform="scale(0.015625)"/>
        <path id="DejaVuSans-2d" d="M 313 2009 
L 1997 2009 
L 1997 1497 
L 313 1497 
L 313 2009 
z
" transform="scale(0.015625)"/>
        <path id="DejaVuSans-37" d="M 525 4666 
L 3525 4666 
L 3525 4397 
L 1831 0 
L 1172 0 
L 2766 4134 
L 525 4134 
L 525 4666 
z
" transform="scale(0.015625)"/>
       </defs>
       <use xlink:href="#DejaVuSans-32"/>
       <use xlink:href="#DejaVuSans-30" transform="translate(63.623047 0)"/>
       <use xlink:href="#DejaVuSans-32" transform="translate(127.246094 0)"/>
       <use xlink:href="#DejaVuSans-31" transform="translate(190.869141 0)"/>
       <use xlink:href="#DejaVuSans-2d" transform="translate(254.492188 0)"/>
       <use xlink:href="#DejaVuSans-30" transform="translate(290.576172 0)"/>
       <use xlink:href="#DejaVuSans-37" transform="translate(354.199219 0)"/>
      </g>
     </g>
    </g>
    <g id="xtick_2">
     <g id="line2d_3">
      <path d="M 199.158229 320.4 
L 199.158229 43.2 
" clip-path="url(#p5a45a4c1dd)" style="fill: none; stroke-dasharray: 5.12,1.28,0.8,1.28; stroke-dashoffset: 0; stroke: #b0b0b0; stroke-width: 0.8"/>
     </g>
     <g id="line2d_4">
      <g>
       <use xlink:href="#mfcfc5e7d82" x="199.158229" y="320.4" style="fill: #a9a9a9; stroke: #a9a9a9; stroke-width: 0.8"/>
      </g>
     </g>
     <g id="text_2">
      <!-- 2022-01 -->
      <g style="fill: #a9a9a9" transform="translate(178.266823 334.998438) scale(0.1 -0.1)">
       <use xlink:href="#DejaVuSans-32"/>
       <use xlink:href="#DejaVuSans-30" transform="translate(63.623047 0)"/>
       <use xlink:href="#DejaVuSans-32" transform="translate(127.246094 0)"/>
       <use xlink:href="#DejaVuSans-32" transform="translate(190.869141 0)"/>
       <use xlink:href="#DejaVuSans-2d" transform="translate(254.492188 0)"/>
       <use xlink:href="#DejaVuSans-30" transform="translate(290.576172 0)"/>
       <use xlink:href="#DejaVuSans-31" transform="translate(354.199219 0)"/>
      </g>
     </g>
    </g>
    <g id="xtick_3">
     <g id="line2d_5">
      <path d="M 267.423184 320.4 
L 267.423184 43.2 
" clip-path="url(#p5a45a4c1dd)" style="fill: none; stroke-dasharray: 5.12,1.28,0.8,1.28; stroke-dashoffset: 0; stroke: #b0b0b0; stroke-width: 0.8"/>
     </g>
     <g id="line2d_6">
      <g>
       <use xlink:href="#mfcfc5e7d82" x="267.423184" y="320.4" style="fill: #a9a9a9; stroke: #a9a9a9; stroke-width: 0.8"/>
      </g>
     </g>
     <g id="text_3">
      <!-- 2022-07 -->
      <g style="fill: #a9a9a9" transform="translate(246.531777 334.998438) scale(0.1 -0.1)">
       <use xlink:href="#DejaVuSans-32"/>
       <use xlink:href="#DejaVuSans-30" transform="translate(63.623047 0)"/>
       <use xlink:href="#DejaVuSans-32" transform="translate(127.246094 0)"/>
       <use xlink:href="#DejaVuSans-32" transform="translate(190.869141 0)"/>
       <use xlink:href="#DejaVuSans-2d" transform="translate(254.492188 0)"/>
       <use xlink:href="#DejaVuSans-30" transform="translate(290.576172 0)"/>
       <use xlink:href="#DejaVuSans-37" transform="translate(354.199219 0)"/>
      </g>
     </g>
    </g>
    <g id="xtick_4">
     <g id="line2d_7">
      <path d="M 336.819601 320.4 
L 336.819601 43.2 
" clip-path="url(#p5a45a4c1dd)" style="fill: none; stroke-dasharray: 5.12,1.28,0.8,1.28; stroke-dashoffset: 0; stroke: #b0b0b0; stroke-width: 0.8"/>
     </g>
     <g id="line2d_8">
      <g>
       <use xlink:href="#mfcfc5e7d82" x="336.819601" y="320.4" style="fill: #a9a9a9; stroke: #a9a9a9; stroke-width: 0.8"/>
      </g>
     </g>
     <g id="text_4">
      <!-- 2023-01 -->
      <g style="fill: #a9a9a9" transform="translate(315.928195 334.998438) scale(0.1 -0.1)">
       <defs>
        <path id="DejaVuSans-33" d="M 2597 2516 
Q 3050 2419 3304 2112 
Q 3559 1806 3559 1356 
Q 3559 666 3084 287 
Q 2609 -91 1734 -91 
Q 1441 -91 1130 -33 
Q 819 25 488 141 
L 488 750 
Q 750 597 1062 519 
Q 1375 441 1716 441 
Q 2309 441 2620 675 
Q 2931 909 2931 1356 
Q 2931 1769 2642 2001 
Q 2353 2234 1838 2234 
L 1294 2234 
L 1294 2753 
L 1863 2753 
Q 2328 2753 2575 2939 
Q 2822 3125 2822 3475 
Q 2822 3834 2567 4026 
Q 2313 4219 1838 4219 
Q 1578 4219 1281 4162 
Q 984 4106 628 3988 
L 628 4550 
Q 988 4650 1302 4700 
Q 1616 4750 1894 4750 
Q 2613 4750 3031 4423 
Q 3450 4097 3450 3541 
Q 3450 3153 3228 2886 
Q 3006 2619 2597 2516 
z
" transform="scale(0.015625)"/>
       </defs>
       <use xlink:href="#DejaVuSans-32"/>
       <use xlink:href="#DejaVuSans-30" transform="translate(63.623047 0)"/>
       <use xlink:href="#DejaVuSans-32" transform="translate(127.246094 0)"/>
       <use xlink:href="#DejaVuSans-33" transform="translate(190.869141 0)"/>
       <use xlink:href="#DejaVuSans-2d" transform="translate(254.492188 0)"/>
       <use xlink:href="#DejaVuSans-30" transform="translate(290.576172 0)"/>
       <use xlink:href="#DejaVuSans-31" transform="translate(354.199219 0)"/>
      </g>
     </g>
    </g>
    <g id="xtick_5">
     <g id="line2d_9">
      <path d="M 405.084556 320.4 
L 405.084556 43.2 
" clip-path="url(#p5a45a4c1dd)" style="fill: none; stroke-dasharray: 5.12,1.28,0.8,1.28; stroke-dashoffset: 0; stroke: #b0b0b0; stroke-width: 0.8"/>
     </g>
     <g id="line2d_10">
      <g>
       <use xlink:href="#mfcfc5e7d82" x="405.084556" y="320.4" style="fill: #a9a9a9; stroke: #a9a9a9; stroke-width: 0.8"/>
      </g>
     </g>
     <g id="text_5">
      <!-- 2023-07 -->
      <g style="fill: #a9a9a9" transform="translate(384.193149 334.998438) scale(0.1 -0.1)">
       <use xlink:href="#DejaVuSans-32"/>
       <use xlink:href="#DejaVuSans-30" transform="translate(63.623047 0)"/>
       <use xlink:href="#DejaVuSans-32" transform="translate(127.246094 0)"/>
       <use xlink:href="#DejaVuSans-33" transform="translate(190.869141 0)"/>
       <use xlink:href="#DejaVuSans-2d" transform="translate(254.492188 0)"/>
       <use xlink:href="#DejaVuSans-30" transform="translate(290.576172 0)"/>
       <use xlink:href="#DejaVuSans-37" transform="translate(354.199219 0)"/>
      </g>
     </g>
    </g>
    <g id="xtick_6">
     <g id="line2d_11">
      <path d="M 474.480973 320.4 
L 474.480973 43.2 
" clip-path="url(#p5a45a4c1dd)" style="fill: none; stroke-dasharray: 5.12,1.28,0.8,1.28; stroke-dashoffset: 0; stroke: #b0b0b0; stroke-width: 0.8"/>
     </g>
     <g id="line2d_12">
      <g>
       <use xlink:href="#mfcfc5e7d82" x="474.480973" y="320.4" style="fill: #a9a9a9; stroke: #a9a9a9; stroke-width: 0.8"/>
      </g>
     </g>
     <g id="text_6">
      <!-- 2024-01 -->
      <g style="fill: #a9a9a9" transform="translate(453.589567 334.998438) scale(0.1 -0.1)">
       <defs>
        <path id="DejaVuSans-34" d="M 2419 4116 
L 825 1625 
L 2419 1625 
L 2419 4116 
z
M 2253 4666 
L 3047 4666 
L 3047 1625 
L 3713 1625 
L 3713 1100 
L 3047 1100 
L 3047 0 
L 2419 0 
L 2419 1100 
L 313 1100 
L 313 1709 
L 2253 4666 
z
" transform="scale(0.015625)"/>
       </defs>
       <use xlink:href="#DejaVuSans-32"/>
       <use xlink:href="#DejaVuSans-30" transform="translate(63.623047 0)"/>
       <use xlink:href="#DejaVuSans-32" transform="translate(127.246094 0)"/>
       <use xlink:href="#DejaVuSans-34" transform="translate(190.869141 0)"/>
       <use xlink:href="#DejaVuSans-2d" transform="translate(254.492188 0)"/>
       <use xlink:href="#DejaVuSans-30" transform="translate(290.576172 0)"/>
       <use xlink:href="#DejaVuSans-31" transform="translate(354.199219 0)"/>
      </g>
     </g>
    </g>
    <g id="xtick_7">
     <g id="line2d_13">
      <path d="M 543.123082 320.4 
L 543.123082 43.2 
" clip-path="url(#p5a45a4c1dd)" style="fill: none; stroke-dasharray: 5.12,1.28,0.8,1.28; stroke-dashoffset: 0; stroke: #b0b0b0; stroke-width: 0.8"/>
     </g>
     <g id="line2d_14">
      <g>
       <use xlink:href="#mfcfc5e7d82" x="543.123082" y="320.4" style="fill: #a9a9a9; stroke: #a9a9a9; stroke-width: 0.8"/>
      </g>
     </g>
     <g id="text_7">
      <!-- 2024-07 -->
      <g style="fill: #a9a9a9" transform="translate(522.231676 334.998438) scale(0.1 -0.1)">
       <use xlink:href="#DejaVuSans-32"/>
       <use xlink:href="#DejaVuSans-30" transform="translate(63.623047 0)"/>
       <use xlink:href="#DejaVuSans-32" transform="translate(127.246094 0)"/>
       <use xlink:href="#DejaVuSans-34" transform="translate(190.869141 0)"/>
       <use xlink:href="#DejaVuSans-2d" transform="translate(254.492188 0)"/>
       <use xlink:href="#DejaVuSans-30" transform="translate(290.576172 0)"/>
       <use xlink:href="#DejaVuSans-37" transform="translate(354.199219 0)"/>
      </g>
     </g>
    </g>
    <g id="xtick_8">
     <g id="line2d_15">
      <path d="M 612.5195 320.4 
L 612.5195 43.2 
" clip-path="url(#p5a45a4c1dd)" style="fill: none; stroke-dasharray: 5.12,1.28,0.8,1.28; stroke-dashoffset: 0; stroke: #b0b0b0; stroke-width: 0.8"/>
     </g>
     <g id="line2d_16">
      <g>
       <use xlink:href="#mfcfc5e7d82" x="612.5195" y="320.4" style="fill: #a9a9a9; stroke: #a9a9a9; stroke-width: 0.8"/>
      </g>
     </g>
     <g id="text_8">
      <!-- 2025-01 -->
      <g style="fill: #a9a9a9" transform="translate(591.628094 334.998438) scale(0.1 -0.1)">
       <defs>
        <path id="DejaVuSans-35" d="M 691 4666 
L 3169 4666 
L 3169 4134 
L 1269 4134 
L 1269 2991 
Q 1406 3038 1543 3061 
Q 1681 3084 1819 3084 
Q 2600 3084 3056 2656 
Q 3513 2228 3513 1497 
Q 3513 744 3044 326 
Q 2575 -91 1722 -91 
Q 1428 -91 1123 -41 
Q 819 9 494 109 
L 494 744 
Q 775 591 1075 516 
Q 1375 441 1709 441 
Q 2250 441 2565 725 
Q 2881 1009 2881 1497 
Q 2881 1984 2565 2268 
Q 2250 2553 1709 2553 
Q 1456 2553 1204 2497 
Q 953 2441 691 2322 
L 691 4666 
z
" transform="scale(0.015625)"/>
       </defs>
       <use xlink:href="#DejaVuSans-32"/>
       <use xlink:href="#DejaVuSans-30" transform="translate(63.623047 0)"/>
       <use xlink:href="#DejaVuSans-32" transform="translate(127.246094 0)"/>
       <use xlink:href="#DejaVuSans-35" transform="translate(190.869141 0)"/>
       <use xlink:href="#DejaVuSans-2d" transform="translate(254.492188 0)"/>
       <use xlink:href="#DejaVuSans-30" transform="translate(290.576172 0)"/>
       <use xlink:href="#DejaVuSans-31" transform="translate(354.199219 0)"/>
      </g>
     </g>
    </g>
    <g id="xtick_9">
     <g id="line2d_17">
      <path d="M 680.784454 320.4 
L 680.784454 43.2 
" clip-path="url(#p5a45a4c1dd)" style="fill: none; stroke-dasharray: 5.12,1.28,0.8,1.28; stroke-dashoffset: 0; stroke: #b0b0b0; stroke-width: 0.8"/>
     </g>
     <g id="line2d_18">
      <g>
       <use xlink:href="#mfcfc5e7d82" x="680.784454" y="320.4" style="fill: #a9a9a9; stroke: #a9a9a9; stroke-width: 0.8"/>
      </g>
     </g>
     <g id="text_9">
      <!-- 2025-07 -->
      <g style="fill: #a9a9a9" transform="translate(659.893048 334.998438) scale(0.1 -0.1)">
       <use xlink:href="#DejaVuSans-32"/>
       <use xlink:href="#DejaVuSans-30" transform="translate(63.623047 0)"/>
       <use xlink:href="#DejaVuSans-32" transform="translate(127.246094 0)"/>
       <use xlink:href="#DejaVuSans-35" transform="translate(190.869141 0)"/>
       <use xlink:href="#DejaVuSans-2d" transform="translate(254.492188 0)"/>
       <use xlink:href="#DejaVuSans-30" transform="translate(290.576172 0)"/>
       <use xlink:href="#DejaVuSans-37" transform="translate(354.199219 0)"/>
      </g>
     </g>
    </g>
    <g id="xtick_10">
     <g id="line2d_19">
      <path d="M 750.180872 320.4 
L 750.180872 43.2 
" clip-path="url(#p5a45a4c1dd)" style="fill: none; stroke-dasharray: 5.12,1.28,0.8,1.28; stroke-dashoffset: 0; stroke: #b0b0b0; stroke-width: 0.8"/>
     </g>
     <g id="line2d_20">
      <g>
       <use xlink:href="#mfcfc5e7d82" x="750.180872" y="320.4" style="fill: #a9a9a9; stroke: #a9a9a9; stroke-width: 0.8"/>
      </g>
     </g>
     <g id="text_10">
      <!-- 2026-01 -->
      <g style="fill: #a9a9a9" transform="translate(729.289466 334.998438) scale(0.1 -0.1)">
       <defs>
        <path id="DejaVuSans-36" d="M 2113 2584 
Q 1688 2584 1439 2293 
Q 1191 2003 1191 1497 
Q 1191 994 1439 701 
Q 1688 409 2113 409 
Q 2538 409 2786 701 
Q 3034 994 3034 1497 
Q 3034 2003 2786 2293 
Q 2538 2584 2113 2584 
z
M 3366 4563 
L 3366 3988 
Q 3128 4100 2886 4159 
Q 2644 4219 2406 4219 
Q 1781 4219 1451 3797 
Q 1122 3375 1075 2522 
Q 1259 2794 1537 2939 
Q 1816 3084 2150 3084 
Q 2853 3084 3261 2657 
Q 3669 2231 3669 1497 
Q 3669 778 3244 343 
Q 2819 -91 2113 -91 
Q 1303 -91 875 529 
Q 447 1150 447 2328 
Q 447 3434 972 4092 
Q 1497 4750 2381 4750 
Q 2619 4750 2861 4703 
Q 3103 4656 3366 4563 
z
" transform="scale(0.015625)"/>
       </defs>
       <use xlink:href="#DejaVuSans-32"/>
       <use xlink:href="#DejaVuSans-30" transform="translate(63.623047 0)"/>
       <use xlink:href="#DejaVuSans-32" transform="translate(127.246094 0)"/>
       <use xlink:href="#DejaVuSans-36" transform="translate(190.869141 0)"/>
       <use xlink:href="#DejaVuSans-2d" transform="translate(254.492188 0)"/>
       <use xlink:href="#DejaVuSans-30" transform="translate(290.576172 0)"/>
       <use xlink:href="#DejaVuSans-31" transform="translate(354.199219 0)"/>
      </g>
     </g>
    </g>
   </g>
   <g id="matplotlib.axis_2">
    <g id="ytick_1">
     <g id="line2d_21">
      <path d="M 108 307.829745 
L 777.6 307.829745 
" clip-path="url(#p5a45a4c1dd)" style="fill: none; stroke-dasharray: 5.12,1.28,0.8,1.28; stroke-dashoffset: 0; stroke: #b0b0b0; stroke-width: 0.8"/>
     </g>
     <g id="line2d_22">
      <defs>
       <path id="ma99b45aa29" d="M 0 0 
L -3.5 0 
" style="stroke: #a9a9a9; stroke-width: 0.8"/>
      </defs>
      <g>
       <use xlink:href="#ma99b45aa29" x="108" y="307.829745" style="fill: #a9a9a9; stroke: #a9a9a9; stroke-width: 0.8"/>
      </g>
     </g>
     <g id="text_11">
      <!-- 0 -->
      <g style="fill: #a9a9a9" transform="translate(94.6375 311.628964) scale(0.1 -0.1)">
       <use xlink:href="#DejaVuSans-30"/>
      </g>
     </g>
    </g>
    <g id="ytick_2">
     <g id="line2d_23">
      <path d="M 108 278.084703 
L 777.6 278.084703 
" clip-path="url(#p5a45a4c1dd)" style="fill: none; stroke-dasharray: 5.12,1.28,0.8,1.28; stroke-dashoffset: 0; stroke: #b0b0b0; stroke-width: 0.8"/>
     </g>
     <g id="line2d_24">
      <g>
       <use xlink:href="#ma99b45aa29" x="108" y="278.084703" style="fill: #a9a9a9; stroke: #a9a9a9; stroke-width: 0.8"/>
      </g>
     </g>
     <g id="text_12">
      <!-- 1000 -->
      <g style="fill: #a9a9a9" transform="translate(75.55 281.883921) scale(0.1 -0.1)">
       <use xlink:href="#DejaVuSans-31"/>
       <use xlink:href="#DejaVuSans-30" transform="translate(63.623047 0)"/>
       <use xlink:href="#DejaVuSans-30" transform="translate(127.246094 0)"/>
       <use xlink:href="#DejaVuSans-30" transform="translate(190.869141 0)"/>
      </g>
     </g>
    </g>
    <g id="ytick_3">
     <g id="line2d_25">
      <path d="M 108 248.33966 
L 777.6 248.33966 
" clip-path="url(#p5a45a4c1dd)" style="fill: none; stroke-dasharray: 5.12,1.28,0.8,1.28; stroke-dashoffset: 0; stroke: #b0b0b0; stroke-width: 0.8"/>
     </g>
     <g id="line2d_26">
      <g>
       <use xlink:href="#ma99b45aa29" x="108" y="248.33966" style="fill: #a9a9a9; stroke: #a9a9a9; stroke-width: 0.8"/>
      </g>
     </g>
     <g id="text_13">
      <!-- 2000 -->
      <g style="fill: #a9a9a9" transform="translate(75.55 252.138879) scale(0.1 -0.1)">
       <use xlink:href="#DejaVuSans-32"/>
       <use xlink:href="#DejaVuSans-30" transform="translate(63.623047 0)"/>
       <use xlink:href="#DejaVuSans-30" transform="translate(127.246094 0)"/>
       <use xlink:href="#DejaVuSans-30" transform="translate(190.869141 0)"/>
      </g>
     </g>
    </g>
    <g id="ytick_4">
     <g id="line2d_27">
      <path d="M 108 218.594618 
L 777.6 218.594618 
" clip-path="url(#p5a45a4c1dd)" style="fill: none; stroke-dasharray: 5.12,1.28,0.8,1.28; stroke-dashoffset: 0; stroke: #b0b0b0; stroke-width: 0.8"/>
     </g>
     <g id="line2d_28">
      <g>
       <use xlink:href="#ma99b45aa29" x="108" y="218.594618" style="fill: #a9a9a9; stroke: #a9a9a9; stroke-width: 0.8"/>
      </g>
     </g>
     <g id="text_14">
      <!-- 3000 -->
      <g style="fill: #a9a9a9" transform="translate(75.55 222.393836) scale(0.1 -0.1)">
       <use xlink:href="#DejaVuSans-33"/>
       <use xlink:href="#DejaVuSans-30" transform="translate(63.623047 0)"/>
       <use xlink:href="#DejaVuSans-30" transform="translate(127.246094 0)"/>
       <use xlink:href="#DejaVuSans-30" transform="translate(190.869141 0)"/>
      </g>
     </g>
    </g>
    <g id="ytick_5">
     <g id="line2d_29">
      <path d="M 108 188.849575 
L 777.6 188.849575 
" clip-path="url(#p5a45a4c1dd)" style="fill: none; stroke-dasharray: 5.12,1.28,0.8,1.28; stroke-dashoffset: 0; stroke: #b0b0b0; stroke-width: 0.8"/>
     </g>
     <g id="line2d_30">
      <g>
       <use xlink:href="#ma99b45aa29" x="108" y="188.849575" style="fill: #a9a9a9; stroke: #a9a9a9; stroke-width: 0.8"/>
      </g>
     </g>
     <g id="text_15">
      <!-- 4000 -->
      <g style="fill: #a9a9a9" transform="translate(75.55 192.648794) scale(0.1 -0.1)">
       <use xlink:href="#DejaVuSans-34"/>
       <use xlink:href="#DejaVuSans-30" transform="translate(63.623047 0)"/>
       <use xlink:href="#DejaVuSans-30" transform="translate(127.246094 0)"/>
       <use xlink:href="#DejaVuSans-30" transform="translate(190.869141 0)"/>
      </g>
     </g>
    </g>
    <g id="ytick_6">
     <g id="line2d_31">
      <path d="M 108 159.104533 
L 777.6 159.104533 
" clip-path="url(#p5a45a4c1dd)" style="fill: none; stroke-dasharray: 5.12,1.28,0.8,1.28; stroke-dashoffset: 0; stroke: #b0b0b0; stroke-width: 0.8"/>
     </g>
     <g id="line2d_32">
      <g>
       <use xlink:href="#ma99b45aa29" x="108" y="159.104533" style="fill: #a9a9a9; stroke: #a9a9a9; stroke-width: 0.8"/>
      </g>
     </g>
     <g id="text_16">
      <!-- 5000 -->
      <g style="fill: #a9a9a9" transform="translate(75.55 162.903751) scale(0.1 -0.1)">
       <use xlink:href="#DejaVuSans-35"/>
       <use xlink:href="#DejaVuSans-30" transform="translate(63.623047 0)"/>
       <use xlink:href="#DejaVuSans-30" transform="translate(127.246094 0)"/>
       <use xlink:href="#DejaVuSans-30" transform="translate(190.869141 0)"/>
      </g>
     </g>
    </g>
    <g id="ytick_7">
     <g id="line2d_33">
      <path d="M 108 129.35949 
L 777.6 129.35949 
" clip-path="url(#p5a45a4c1dd)" style="fill: none; stroke-dasharray: 5.12,1.28,0.8,1.28; stroke-dashoffset: 0; stroke: #b0b0b0; stroke-width: 0.8"/>
     </g>
     <g id="line2d_34">
      <g>
       <use xlink:href="#ma99b45aa29" x="108" y="129.35949" style="fill: #a9a9a9; stroke: #a9a9a9; stroke-width: 0.8"/>
      </g>
     </g>
     <g id="text_17">
      <!-- 6000 -->
      <g style="fill: #a9a9a9" transform="translate(75.55 133.158709) scale(0.1 -0.1)">
       <use xlink:href="#DejaVuSans-36"/>
       <use xlink:href="#DejaVuSans-30" transform="translate(63.623047 0)"/>
       <use xlink:href="#DejaVuSans-30" transform="translate(127.246094 0)"/>
       <use xlink:href="#DejaVuSans-30" transform="translate(190.869141 0)"/>
      </g>
     </g>
    </g>
    <g id="ytick_8">
     <g id="line2d_35">
      <path d="M 108 99.614448 
L 777.6 99.614448 
" clip-path="url(#p5a45a4c1dd)" style="fill: none; stroke-dasharray: 5.12,1.28,0.8,1.28; stroke-dashoffset: 0; stroke: #b0b0b0; stroke-width: 0.8"/>
     </g>
     <g id="line2d_36">
      <g>
       <use xlink:href="#ma99b45aa29" x="108" y="99.614448" style="fill: #a9a9a9; stroke: #a9a9a9; stroke-width: 0.8"/>
      </g>
     </g>
     <g id="text_18">
      <!-- 7000 -->
      <g style="fill: #a9a9a9" transform="translate(75.55 103.413666) scale(0.1 -0.1)">
       <use xlink:href="#DejaVuSans-37"/>
       <use xlink:href="#DejaVuSans-30" transform="translate(63.623047 0)"/>
       <use xlink:href="#DejaVuSans-30" transform="translate(127.246094 0)"/>
       <use xlink:href="#DejaVuSans-30" transform="translate(190.869141 0)"/>
      </g>
     </g>
    </g>
    <g id="ytick_9">
     <g id="line2d_37">
      <path d="M 108 69.869405 
L 777.6 69.869405 
" clip-path="url(#p5a45a4c1dd)" style="fill: none; stroke-dasharray: 5.12,1.28,0.8,1.28; stroke-dashoffset: 0; stroke: #b0b0b0; stroke-width: 0.8"/>
     </g>
     <g id="line2d_38">
      <g>
       <use xlink:href="#ma99b45aa29" x="108" y="69.869405" style="fill: #a9a9a9; stroke: #a9a9a9; stroke-width: 0.8"/>
      </g>
     </g>
     <g id="text_19">
      <!-- 8000 -->
      <g style="fill: #a9a9a9" transform="translate(75.55 73.668624) scale(0.1 -0.1)">
       <defs>
        <path id="DejaVuSans-38" d="M 2034 2216 
Q 1584 2216 1326 1975 
Q 1069 1734 1069 1313 
Q 1069 891 1326 650 
Q 1584 409 2034 409 
Q 2484 409 2743 651 
Q 3003 894 3003 1313 
Q 3003 1734 2745 1975 
Q 2488 2216 2034 2216 
z
M 1403 2484 
Q 997 2584 770 2862 
Q 544 3141 544 3541 
Q 544 4100 942 4425 
Q 1341 4750 2034 4750 
Q 2731 4750 3128 4425 
Q 3525 4100 3525 3541 
Q 3525 3141 3298 2862 
Q 3072 2584 2669 2484 
Q 3125 2378 3379 2068 
Q 3634 1759 3634 1313 
Q 3634 634 3220 271 
Q 2806 -91 2034 -91 
Q 1263 -91 848 271 
Q 434 634 434 1313 
Q 434 1759 690 2068 
Q 947 2378 1403 2484 
z
M 1172 3481 
Q 1172 3119 1398 2916 
Q 1625 2713 2034 2713 
Q 2441 2713 2670 2916 
Q 2900 3119 2900 3481 
Q 2900 3844 2670 4047 
Q 2441 4250 2034 4250 
Q 1625 4250 1398 4047 
Q 1172 3844 1172 3481 
z
" transform="scale(0.015625)"/>
       </defs>
       <use xlink:href="#DejaVuSans-38"/>
       <use xlink:href="#DejaVuSans-30" transform="translate(63.623047 0)"/>
       <use xlink:href="#DejaVuSans-30" transform="translate(127.246094 0)"/>
       <use xlink:href="#DejaVuSans-30" transform="translate(190.869141 0)"/>
      </g>
     </g>
    </g>
   </g>
   <g id="line2d_39">
    <path d="M 138.436364 307.74051 
L 140.69929 307.532295 
L 141.076445 307.353824 
L 142.585063 307.145609 
L 144.09368 306.818414 
L 144.847989 306.699433 
L 146.733761 306.520963 
L 147.48807 306.223513 
L 147.865225 305.688102 
L 148.242379 305.420397 
L 148.619534 304.528045 
L 148.996688 304.468555 
L 149.750997 303.992635 
L 150.505306 303.427479 
L 152.013924 302.297167 
L 152.391078 302.148442 
L 153.145387 301.672521 
L 154.27685 301.107365 
L 154.654005 300.452975 
L 155.408314 299.858074 
L 156.162623 299.620113 
L 157.294086 299.441643 
L 159.557013 299.084703 
L 159.934167 298.906232 
L 162.574248 298.668272 
L 164.082866 298.281586 
L 167.100101 297.835411 
L 167.477256 297.627195 
L 167.85441 297.567705 
L 168.608719 297.3 
L 171.2488 296.824079 
L 172.003109 296.586119 
L 175.397499 295.991218 
L 176.151808 295.812748 
L 177.660426 295.604533 
L 178.414735 295.366572 
L 178.791889 294.801416 
L 179.923352 294.325496 
L 181.054816 293.9983 
L 181.43197 293.790085 
L 182.186279 293.64136 
L 183.694897 293.165439 
L 184.449206 293.105949 
L 185.203515 292.897734 
L 186.712132 292.481303 
L 187.089287 292.451558 
L 187.843596 292.064873 
L 188.22075 292.005382 
L 188.597905 291.797167 
L 192.746604 291.083286 
L 194.255221 290.607365 
L 194.632376 290.33966 
L 196.518148 289.685269 
L 197.272457 289.120113 
L 198.40392 288.882153 
L 203.306928 287.394901 
L 203.684082 287.335411 
L 205.1927 286.710765 
L 205.569855 286.651275 
L 206.324164 286.324079 
L 207.078472 286.294334 
L 208.209936 285.937394 
L 208.58709 285.937394 
L 208.964245 285.758924 
L 209.718554 285.669688 
L 210.095708 285.520963 
L 211.98148 285.431728 
L 212.358635 285.342493 
L 213.112944 284.926062 
L 214.244407 284.509632 
L 214.998716 284.093201 
L 216.130179 283.587535 
L 217.638797 282.814164 
L 218.015951 282.367989 
L 218.77026 281.118697 
L 219.147415 280.999717 
L 219.524569 280.999717 
L 221.033187 280.13711 
L 221.410341 280.047875 
L 221.787496 279.66119 
L 222.541805 279.333994 
L 223.296114 278.977054 
L 225.55904 276.270255 
L 225.936195 276.151275 
L 227.821967 274.842493 
L 228.576276 274.307082 
L 228.95343 273.741926 
L 229.330585 272.81983 
L 229.707739 272.224929 
L 230.084894 271.897734 
L 230.462048 271.719263 
L 234.987901 267.525212 
L 236.496519 266.543626 
L 237.250828 266.127195 
L 238.759446 265.264589 
L 240.645218 263.420397 
L 241.399527 263.093201 
L 242.153836 262.55779 
L 242.53099 262.31983 
L 242.908145 262.26034 
L 244.039608 261.576204 
L 244.416762 261.130028 
L 246.302535 260.029462 
L 246.679689 259.880737 
L 247.811152 259.047875 
L 253.468469 256.906232 
L 254.222778 256.162606 
L 255.354241 255.567705 
L 256.10855 255.06204 
L 256.862859 254.824079 
L 257.240014 254.556374 
L 257.617168 254.437394 
L 258.748631 253.634278 
L 260.634404 253.188102 
L 261.765867 252.474221 
L 262.89733 252.206516 
L 263.274485 252.11728 
L 264.405948 251.254674 
L 265.914566 250.808499 
L 266.29172 250.481303 
L 268.554647 249.648442 
L 269.308956 249.499717 
L 270.063265 249.172521 
L 272.703346 248.16119 
L 273.457655 248.071955 
L 274.589118 247.655524 
L 276.47489 246.673938 
L 278.737817 245.335411 
L 279.492126 245.127195 
L 280.623589 244.532295 
L 281.377898 244.383569 
L 282.132207 243.907649 
L 282.886516 243.699433 
L 284.017979 243.223513 
L 285.526597 243.015297 
L 286.280906 242.598867 
L 286.65806 242.241926 
L 287.035215 241.528045 
L 288.543832 241.08187 
L 290.05245 240.367989 
L 293.44684 238.791501 
L 294.201149 238.613031 
L 295.332612 238.01813 
L 295.709767 237.95864 
L 297.595539 236.977054 
L 298.349848 236.471388 
L 299.481311 236.233428 
L 302.121392 235.341076 
L 308.155863 232.455807 
L 308.533018 232.039377 
L 308.910172 231.801416 
L 309.287327 231.712181 
L 310.041636 231.05779 
L 310.41879 230.9983 
L 310.795945 230.343909 
L 311.173099 230.195184 
L 311.550253 229.867989 
L 311.927408 229.808499 
L 312.681717 229.302833 
L 313.436026 229.035127 
L 313.81318 228.737677 
L 314.567489 228.321246 
L 315.698952 227.607365 
L 316.830416 227.012465 
L 317.584725 226.804249 
L 318.339033 226.358074 
L 318.716188 225.673938 
L 319.470497 225.079037 
L 319.847651 224.989802 
L 322.110578 223.85949 
L 322.864887 223.532295 
L 323.619196 222.967139 
L 324.750659 221.866572 
L 325.504968 221.390652 
L 325.882122 220.944476 
L 327.39074 219.873654 
L 328.145049 219.070538 
L 329.276512 218.505382 
L 330.030821 218.059207 
L 330.407976 217.940227 
L 330.78513 217.642776 
L 331.162285 217.583286 
L 334.556675 215.798584 
L 335.310983 215.590368 
L 336.819601 215.054958 
L 337.196756 214.727762 
L 338.705373 214.103116 
L 339.082528 213.984136 
L 339.836837 213.47847 
L 340.591146 213.151275 
L 341.345455 212.586119 
L 342.099763 211.009632 
L 342.854072 210.11728 
L 343.985536 209.492635 
L 344.739845 209.165439 
L 345.116999 209.105949 
L 345.871308 208.749008 
L 347.379926 208.213598 
L 348.134235 207.767422 
L 348.888543 207.410482 
L 349.265698 207.291501 
L 351.528625 205.863739 
L 351.905779 205.417564 
L 353.037242 204.733428 
L 353.414397 204.584703 
L 354.168706 204.108782 
L 355.677323 203.246176 
L 356.054478 203.156941 
L 356.431632 202.829745 
L 359.071713 201.937394 
L 359.448868 201.669688 
L 360.203177 201.431728 
L 363.220412 199.944476 
L 363.974721 199.528045 
L 364.351876 199.349575 
L 365.106185 198.724929 
L 365.860493 198.516714 
L 366.237648 198.159773 
L 366.614802 198.100283 
L 367.369111 197.505382 
L 369.254883 196.345326 
L 370.009192 196.107365 
L 370.386347 195.869405 
L 370.763501 195.809915 
L 372.272119 195.066289 
L 373.403582 194.679603 
L 374.157891 194.560623 
L 375.666509 193.965722 
L 376.043663 193.935977 
L 377.929436 193.073371 
L 378.683745 192.53796 
L 379.438053 192.12153 
L 380.946671 191.377904 
L 382.078135 190.604533 
L 382.832443 190.426062 
L 383.963907 189.712181 
L 385.09537 189.295751 
L 385.849679 189.028045 
L 387.358297 188.492635 
L 388.112606 188.224929 
L 389.621223 187.897734 
L 390.375532 187.659773 
L 392.261304 187.005382 
L 393.392768 186.648442 
L 394.147077 186.469972 
L 396.410003 186.053541 
L 397.164312 185.904816 
L 398.295776 185.63711 
L 398.67293 185.45864 
L 399.427239 185.309915 
L 400.181548 185.1017 
L 400.935857 184.744759 
L 401.313011 184.596034 
L 401.690166 184.596034 
L 405.838864 183.257507 
L 406.216019 183.049292 
L 406.593173 183.049292 
L 407.347482 182.751841 
L 407.724637 182.335411 
L 409.987563 181.353824 
L 411.496181 180.818414 
L 411.873336 180.580453 
L 413.004799 180.223513 
L 413.759108 180.015297 
L 414.136262 179.747592 
L 414.513417 179.658357 
L 414.890571 179.331161 
L 416.022034 179.093201 
L 416.776343 178.736261 
L 417.153498 178.26034 
L 421.302197 177.308499 
L 421.679351 177.308499 
L 422.43366 177.070538 
L 425.82805 176.207932 
L 426.582359 176.029462 
L 430.353903 174.928895 
L 430.731058 174.83966 
L 431.108212 174.631445 
L 431.862521 174.423229 
L 432.61683 174.096034 
L 433.371139 173.798584 
L 433.748293 173.530878 
L 434.502602 173.292918 
L 437.519838 172.222096 
L 438.274147 172.162606 
L 439.782764 171.716431 
L 440.159919 171.47847 
L 440.914228 171.24051 
L 443.177154 170.288669 
L 447.703008 168.622946 
L 449.58878 167.968555 
L 450.343089 167.730595 
L 451.097398 167.52238 
L 452.606016 166.243343 
L 455.246097 165.083286 
L 457.886178 163.923229 
L 458.640487 163.715014 
L 462.034877 162.019547 
L 462.789186 161.573371 
L 466.183576 159.907649 
L 466.56073 159.610198 
L 471.086583 157.855241 
L 471.840892 157.736261 
L 472.218047 157.468555 
L 473.726664 157.171105 
L 474.480973 156.843909 
L 476.366746 155.921813 
L 481.269753 153.690935 
L 482.401217 153.304249 
L 482.778371 153.036544 
L 483.53268 152.947309 
L 483.909834 152.679603 
L 484.664143 152.560623 
L 489.567151 150.746176 
L 490.698614 150.47847 
L 492.207232 149.824079 
L 492.961541 149.407649 
L 494.470159 148.604533 
L 495.224468 148.426062 
L 495.601622 148.188102 
L 495.978777 148.098867 
L 497.864549 147.147025 
L 502.767557 145.273088 
L 503.144711 145.213598 
L 504.653329 144.469972 
L 505.407638 144.321246 
L 506.161947 143.875071 
L 507.670564 143.131445 
L 511.442109 141.584703 
L 512.196418 141.198017 
L 512.573572 141.108782 
L 513.327881 140.811331 
L 513.705035 140.811331 
L 514.459344 140.454391 
L 515.967962 139.145609 
L 516.345117 139.026629 
L 516.722271 138.788669 
L 517.853734 138.461473 
L 518.230889 138.164023 
L 518.985198 137.896317 
L 520.116661 137.122946 
L 520.87097 136.914731 
L 521.625279 136.4983 
L 522.756742 136.230595 
L 528.791213 133.732011 
L 530.676985 132.95864 
L 532.562758 132.363739 
L 533.694221 131.620113 
L 534.071375 131.530878 
L 534.825684 131.144193 
L 535.579993 130.906232 
L 535.957148 130.549292 
L 537.088611 130.103116 
L 537.465765 130.043626 
L 538.974383 129.329745 
L 540.105847 128.972805 
L 541.23731 128.556374 
L 542.368773 128.229178 
L 542.745928 128.169688 
L 543.500237 127.753258 
L 543.877391 127.604533 
L 544.254545 127.307082 
L 545.386009 127.009632 
L 546.140318 126.712181 
L 546.894627 126.384986 
L 548.403244 125.76034 
L 551.043325 125.046459 
L 551.797634 124.749008 
L 553.306252 124.451558 
L 554.060561 124.302833 
L 555.192024 123.856657 
L 556.323488 123.618697 
L 558.586414 122.250425 
L 559.717878 121.536544 
L 561.980804 120.822663 
L 562.357959 120.525212 
L 565.375194 119.424646 
L 566.506658 119.067705 
L 567.260967 118.651275 
L 568.015275 118.443059 
L 568.39243 118.234844 
L 569.146739 118.086119 
L 570.655357 117.491218 
L 571.409665 116.985552 
L 572.541129 116.688102 
L 573.672592 115.914731 
L 574.049747 115.855241 
L 575.558364 115.230595 
L 577.066982 114.843909 
L 577.444137 114.784419 
L 577.821291 114.605949 
L 578.198445 114.576204 
L 578.952754 114.308499 
L 579.329909 114.278754 
L 580.461372 113.832578 
L 581.96999 113.386402 
L 582.724299 112.791501 
L 584.232917 111.928895 
L 584.610071 111.83966 
L 584.987225 111.631445 
L 585.36438 111.571955 
L 588.75877 109.846742 
L 589.135924 109.489802 
L 591.021697 109.013881 
L 592.15316 108.47847 
L 592.907469 108.270255 
L 593.284623 108.091785 
L 593.661778 107.764589 
L 595.54755 107.080453 
L 600.450558 105.236261 
L 601.204867 105.087535 
L 603.090639 104.46289 
L 604.222102 103.957224 
L 606.862183 103.154108 
L 607.616492 102.707932 
L 620.439743 98.722096 
L 621.194052 98.513881 
L 622.325515 98.09745 
L 622.70267 98.09745 
L 623.834133 97.829745 
L 624.588442 97.68102 
L 625.342751 97.472805 
L 626.474214 96.848159 
L 627.605678 96.491218 
L 630.245759 95.569122 
L 631.754376 94.795751 
L 632.88584 94.528045 
L 633.640149 94.290085 
L 634.394458 93.903399 
L 634.771612 93.576204 
L 635.525921 93.338244 
L 635.903075 93.100283 
L 636.657384 93.011048 
L 639.297465 92.237677 
L 640.428929 91.999717 
L 641.560392 91.702266 
L 642.314701 91.523796 
L 643.446164 90.928895 
L 648.349172 89.054958 
L 649.103481 88.935977 
L 649.85779 88.787252 
L 650.234944 88.787252 
L 651.366408 88.430312 
L 652.497871 88.073371 
L 655.892261 87.091785 
L 656.64657 86.883569 
L 657.023724 86.794334 
L 657.400879 86.556374 
L 658.155188 86.407649 
L 658.909496 86.318414 
L 659.286651 86.110198 
L 659.663805 86.080453 
L 660.795269 85.545042 
L 661.926732 85.277337 
L 662.681041 84.950142 
L 664.943968 84.147025 
L 665.321122 84.087535 
L 666.075431 83.81983 
L 670.601284 82.659773 
L 672.864211 81.886402 
L 673.61852 81.826912 
L 675.881446 81.261756 
L 676.635755 80.934561 
L 677.01291 80.875071 
L 677.390064 80.696601 
L 678.144373 80.04221 
L 681.915918 78.644193 
L 684.178844 78.049292 
L 684.933153 77.632861 
L 685.310308 77.543626 
L 686.441771 76.91898 
L 686.818925 76.829745 
L 687.19608 76.532295 
L 688.327543 76.205099 
L 694.362014 73.468555 
L 694.739169 73.409065 
L 697.002095 72.249008 
L 697.37925 72.011048 
L 698.510713 71.683853 
L 700.019331 71.059207 
L 700.396485 71.029462 
L 702.282258 70.315581 
L 703.036566 70.166856 
L 703.790875 69.6017 
L 704.16803 69.6017 
L 705.676648 69.066289 
L 707.185265 68.768839 
L 708.693883 68.114448 
L 709.071038 68.114448 
L 710.202501 67.727762 
L 710.95681 67.608782 
L 712.088273 66.954391 
L 712.842582 66.567705 
L 714.728354 65.943059 
L 715.482663 65.615864 
L 717.368435 65.110198 
L 719.631362 64.485552 
L 724.157215 63.147025 
L 727.174451 62.373654 
L 728.683069 61.659773 
L 729.814532 61.302833 
L 732.454613 60.767422 
L 733.208922 60.648442 
L 735.849003 59.726346 
L 736.603312 59.488385 
L 737.357621 59.190935 
L 738.11193 59.131445 
L 738.489084 58.833994 
L 739.243393 58.596034 
L 739.620547 58.596034 
L 743.014937 57.465722 
L 744.523555 56.811331 
L 744.90071 56.751841 
L 745.655019 56.394901 
L 746.409327 56.067705 
L 746.786482 55.85949 
L 747.163636 55.8 
L 747.163636 55.8 
" clip-path="url(#p5a45a4c1dd)" style="fill: none; stroke: #1f77b4; stroke-width: 1.5; stroke-linecap: square"/>
   </g>
   <g id="line2d_40">
    <path d="M 138.813518 307.8 
L 142.207908 307.710765 
L 145.225144 307.56204 
L 146.733761 307.56204 
L 147.110916 307.443059 
L 148.996688 307.353824 
L 151.259615 307.086119 
L 153.522541 306.996884 
L 154.27685 306.907649 
L 156.916931 306.788669 
L 159.557013 306.699433 
L 161.442785 306.639943 
L 166.345792 306.550708 
L 168.231565 306.491218 
L 171.625955 306.401983 
L 173.134572 306.372238 
L 176.906117 306.283003 
L 178.414735 306.134278 
L 179.923352 306.104533 
L 182.186279 306.015297 
L 183.694897 305.985552 
L 185.580669 305.926062 
L 187.089287 305.777337 
L 190.483677 305.688102 
L 191.237986 305.628612 
L 192.746604 305.539377 
L 195.00953 305.450142 
L 196.518148 305.360907 
L 203.306928 304.914731 
L 205.947009 304.825496 
L 207.078472 304.706516 
L 208.964245 304.61728 
L 212.735789 304.409065 
L 216.507334 304.349575 
L 218.015951 304.171105 
L 219.901724 304.08187 
L 223.673268 303.695184 
L 225.936195 303.397734 
L 227.444812 303.338244 
L 230.462048 302.921813 
L 232.724975 302.862323 
L 233.856438 302.743343 
L 234.987901 302.654108 
L 254.599932 301.196601 
L 257.240014 301.107365 
L 258.748631 300.928895 
L 260.634404 300.83966 
L 262.89733 300.750425 
L 264.783102 300.66119 
L 266.29172 300.631445 
L 268.177492 300.571955 
L 268.931801 300.48272 
L 274.211964 300.393484 
L 274.966272 300.304249 
L 279.492126 300.215014 
L 282.886516 300.036544 
L 285.526597 299.947309 
L 287.035215 299.768839 
L 289.675296 299.679603 
L 290.429605 299.560623 
L 292.315377 299.501133 
L 296.086921 299.441643 
L 297.595539 299.292918 
L 299.104157 299.263173 
L 300.23562 299.173938 
L 301.744238 299.025212 
L 305.515782 298.816997 
L 309.287327 298.727762 
L 312.681717 298.549292 
L 313.81318 298.519547 
L 314.567489 298.400567 
L 316.453261 298.311331 
L 317.20757 298.251841 
L 319.093342 298.162606 
L 320.60196 298.132861 
L 323.242041 298.043626 
L 333.048057 297.35949 
L 335.310983 297.270255 
L 337.196756 297.210765 
L 342.476918 297.12153 
L 343.231227 297.032295 
L 348.511389 296.943059 
L 352.282933 296.734844 
L 353.037242 296.705099 
L 353.791551 296.615864 
L 355.677323 296.526629 
L 357.563096 296.467139 
L 359.448868 296.377904 
L 361.33464 296.318414 
L 364.72903 296.229178 
L 366.991957 296.139943 
L 372.272119 296.050708 
L 376.420818 295.812748 
L 377.929436 295.753258 
L 379.060899 295.664023 
L 384.341061 295.574788 
L 386.603988 295.485552 
L 393.392768 295.396317 
L 394.901386 295.366572 
L 399.427239 295.307082 
L 400.181548 295.247592 
L 405.46171 295.158357 
L 406.970328 295.128612 
L 416.776343 295.039377 
L 419.03927 294.950142 
L 434.879757 294.860907 
L 436.765529 294.801416 
L 446.571544 294.741926 
L 447.325853 294.682436 
L 449.211626 294.622946 
L 450.343089 294.503966 
L 452.606016 294.414731 
L 455.246097 294.295751 
L 458.640487 294.206516 
L 460.526259 294.147025 
L 463.16634 294.05779 
L 466.183576 293.909065 
L 468.069348 293.81983 
L 469.577966 293.790085 
L 475.989591 293.70085 
L 478.252518 293.611615 
L 482.401217 293.52238 
L 485.041298 293.403399 
L 487.681379 293.343909 
L 488.435688 293.284419 
L 497.487394 293.195184 
L 501.258939 292.986969 
L 503.89902 292.897734 
L 508.047719 292.659773 
L 510.6878 292.570538 
L 512.196418 292.540793 
L 514.836499 292.451558 
L 516.722271 292.243343 
L 520.493815 292.154108 
L 521.248124 292.064873 
L 525.019669 291.975637 
L 526.905441 291.916147 
L 531.05414 291.886402 
L 531.808449 291.797167 
L 535.957148 291.707932 
L 536.711457 291.648442 
L 545.008854 291.559207 
L 547.271781 291.469972 
L 552.929098 291.380737 
L 554.437715 291.350992 
L 557.832105 291.291501 
L 558.586414 291.202266 
L 563.489422 291.113031 
L 565.375194 291.053541 
L 572.163974 290.964306 
L 573.295438 290.875071 
L 574.426901 290.785836 
L 575.558364 290.696601 
L 581.215681 290.607365 
L 583.478608 290.51813 
L 594.416087 290.428895 
L 597.810477 290.250425 
L 603.090639 290.16119 
L 604.599257 290.131445 
L 609.12511 290.04221 
L 611.010882 289.98272 
L 618.931125 289.893484 
L 621.571206 289.774504 
L 628.359986 289.685269 
L 629.868604 289.655524 
L 633.640149 289.566289 
L 636.28023 289.447309 
L 640.428929 289.358074 
L 643.06901 289.239093 
L 646.4634 289.179603 
L 647.217709 289.120113 
L 655.515106 289.030878 
L 657.778033 288.941643 
L 660.418114 288.852408 
L 662.303886 288.792918 
L 673.241365 288.703683 
L 675.504292 288.614448 
L 681.538763 288.525212 
L 683.80169 288.435977 
L 688.704698 288.346742 
L 690.967624 288.257507 
L 693.98486 288.168272 
L 696.247786 288.079037 
L 711.333964 287.989802 
L 714.3512 287.841076 
L 723.025752 287.751841 
L 724.53437 287.722096 
L 733.586076 287.632861 
L 735.471849 287.573371 
L 747.163636 287.484136 
L 747.163636 287.484136 
" clip-path="url(#p5a45a4c1dd)" style="fill: none; stroke: #ff7f0e; stroke-width: 1.5; stroke-linecap: square"/>
   </g>
   <g id="patch_3">
    <path d="M 108 320.4 
L 108 43.2 
" style="fill: none; stroke: #a9a9a9; stroke-width: 0.8; stroke-linejoin: miter; stroke-linecap: square"/>
   </g>
   <g id="patch_4">
    <path d="M 777.6 320.4 
L 777.6 43.2 
" style="fill: none"/>
   </g>
   <g id="patch_5">
    <path d="M 108 320.4 
L 777.6 320.4 
" style="fill: none; stroke: #a9a9a9; stroke-width: 0.8; stroke-linejoin: miter; stroke-linecap: square"/>
   </g>
   <g id="patch_6">
    <path d="M 108 43.2 
L 777.6 43.2 
" style="fill: none"/>
   </g>
   <g id="text_20">
    <!-- get_subscribe history -->
    <g style="fill: #a9a9a9" transform="translate(378.6075 37.2) scale(0.12 -0.12)">
     <defs>
      <path id="DejaVuSans-67" d="M 2906 1791 
Q 2906 2416 2648 2759 
Q 2391 3103 1925 3103 
Q 1463 3103 1205 2759 
Q 947 2416 947 1791 
Q 947 1169 1205 825 
Q 1463 481 1925 481 
Q 2391 481 2648 825 
Q 2906 1169 2906 1791 
z
M 3481 434 
Q 3481 -459 3084 -895 
Q 2688 -1331 1869 -1331 
Q 1566 -1331 1297 -1286 
Q 1028 -1241 775 -1147 
L 775 -588 
Q 1028 -725 1275 -790 
Q 1522 -856 1778 -856 
Q 2344 -856 2625 -561 
Q 2906 -266 2906 331 
L 2906 616 
Q 2728 306 2450 153 
Q 2172 0 1784 0 
Q 1141 0 747 490 
Q 353 981 353 1791 
Q 353 2603 747 3093 
Q 1141 3584 1784 3584 
Q 2172 3584 2450 3431 
Q 2728 3278 2906 2969 
L 2906 3500 
L 3481 3500 
L 3481 434 
z
" transform="scale(0.015625)"/>
      <path id="DejaVuSans-65" d="M 3597 1894 
L 3597 1613 
L 953 1613 
Q 991 1019 1311 708 
Q 1631 397 2203 397 
Q 2534 397 2845 478 
Q 3156 559 3463 722 
L 3463 178 
Q 3153 47 2828 -22 
Q 2503 -91 2169 -91 
Q 1331 -91 842 396 
Q 353 884 353 1716 
Q 353 2575 817 3079 
Q 1281 3584 2069 3584 
Q 2775 3584 3186 3129 
Q 3597 2675 3597 1894 
z
M 3022 2063 
Q 3016 2534 2758 2815 
Q 2500 3097 2075 3097 
Q 1594 3097 1305 2825 
Q 1016 2553 972 2059 
L 3022 2063 
z
" transform="scale(0.015625)"/>
      <path id="DejaVuSans-74" d="M 1172 4494 
L 1172 3500 
L 2356 3500 
L 2356 3053 
L 1172 3053 
L 1172 1153 
Q 1172 725 1289 603 
Q 1406 481 1766 481 
L 2356 481 
L 2356 0 
L 1766 0 
Q 1100 0 847 248 
Q 594 497 594 1153 
L 594 3053 
L 172 3053 
L 172 3500 
L 594 3500 
L 594 4494 
L 1172 4494 
z
" transform="scale(0.015625)"/>
      <path id="DejaVuSans-5f" d="M 3263 -1063 
L 3263 -1509 
L -63 -1509 
L -63 -1063 
L 3263 -1063 
z
" transform="scale(0.015625)"/>
      <path id="DejaVuSans-73" d="M 2834 3397 
L 2834 2853 
Q 2591 2978 2328 3040 
Q 2066 3103 1784 3103 
Q 1356 3103 1142 2972 
Q 928 2841 928 2578 
Q 928 2378 1081 2264 
Q 1234 2150 1697 2047 
L 1894 2003 
Q 2506 1872 2764 1633 
Q 3022 1394 3022 966 
Q 3022 478 2636 193 
Q 2250 -91 1575 -91 
Q 1294 -91 989 -36 
Q 684 19 347 128 
L 347 722 
Q 666 556 975 473 
Q 1284 391 1588 391 
Q 1994 391 2212 530 
Q 2431 669 2431 922 
Q 2431 1156 2273 1281 
Q 2116 1406 1581 1522 
L 1381 1569 
Q 847 1681 609 1914 
Q 372 2147 372 2553 
Q 372 3047 722 3315 
Q 1072 3584 1716 3584 
Q 2034 3584 2315 3537 
Q 2597 3491 2834 3397 
z
" transform="scale(0.015625)"/>
      <path id="DejaVuSans-75" d="M 544 1381 
L 544 3500 
L 1119 3500 
L 1119 1403 
Q 1119 906 1312 657 
Q 1506 409 1894 409 
Q 2359 409 2629 706 
Q 2900 1003 2900 1516 
L 2900 3500 
L 3475 3500 
L 3475 0 
L 2900 0 
L 2900 538 
Q 2691 219 2414 64 
Q 2138 -91 1772 -91 
Q 1169 -91 856 284 
Q 544 659 544 1381 
z
M 1991 3584 
L 1991 3584 
z
" transform="scale(0.015625)"/>
      <path id="DejaVuSans-62" d="M 3116 1747 
Q 3116 2381 2855 2742 
Q 2594 3103 2138 3103 
Q 1681 3103 1420 2742 
Q 1159 2381 1159 1747 
Q 1159 1113 1420 752 
Q 1681 391 2138 391 
Q 2594 391 2855 752 
Q 3116 1113 3116 1747 
z
M 1159 2969 
Q 1341 3281 1617 3432 
Q 1894 3584 2278 3584 
Q 2916 3584 3314 3078 
Q 3713 2572 3713 1747 
Q 3713 922 3314 415 
Q 2916 -91 2278 -91 
Q 1894 -91 1617 61 
Q 1341 213 1159 525 
L 1159 0 
L 581 0 
L 581 4863 
L 1159 4863 
L 1159 2969 
z
" transform="scale(0.015625)"/>
      <path id="DejaVuSans-63" d="M 3122 3366 
L 3122 2828 
Q 2878 2963 2633 3030 
Q 2388 3097 2138 3097 
Q 1578 3097 1268 2742 
Q 959 2388 959 1747 
Q 959 1106 1268 751 
Q 1578 397 2138 397 
Q 2388 397 2633 464 
Q 2878 531 3122 666 
L 3122 134 
Q 2881 22 2623 -34 
Q 2366 -91 2075 -91 
Q 1284 -91 818 406 
Q 353 903 353 1747 
Q 353 2603 823 3093 
Q 1294 3584 2113 3584 
Q 2378 3584 2631 3529 
Q 2884 3475 3122 3366 
z
" transform="scale(0.015625)"/>
      <path id="DejaVuSans-72" d="M 2631 2963 
Q 2534 3019 2420 3045 
Q 2306 3072 2169 3072 
Q 1681 3072 1420 2755 
Q 1159 2438 1159 1844 
L 1159 0 
L 581 0 
L 581 3500 
L 1159 3500 
L 1159 2956 
Q 1341 3275 1631 3429 
Q 1922 3584 2338 3584 
Q 2397 3584 2469 3576 
Q 2541 3569 2628 3553 
L 2631 2963 
z
" transform="scale(0.015625)"/>
      <path id="DejaVuSans-69" d="M 603 3500 
L 1178 3500 
L 1178 0 
L 603 0 
L 603 3500 
z
M 603 4863 
L 1178 4863 
L 1178 4134 
L 603 4134 
L 603 4863 
z
" transform="scale(0.015625)"/>
      <path id="DejaVuSans-20" transform="scale(0.015625)"/>
      <path id="DejaVuSans-68" d="M 3513 2113 
L 3513 0 
L 2938 0 
L 2938 2094 
Q 2938 2591 2744 2837 
Q 2550 3084 2163 3084 
Q 1697 3084 1428 2787 
Q 1159 2491 1159 1978 
L 1159 0 
L 581 0 
L 581 4863 
L 1159 4863 
L 1159 2956 
Q 1366 3272 1645 3428 
Q 1925 3584 2291 3584 
Q 2894 3584 3203 3211 
Q 3513 2838 3513 2113 
z
" transform="scale(0.015625)"/>
      <path id="DejaVuSans-6f" d="M 1959 3097 
Q 1497 3097 1228 2736 
Q 959 2375 959 1747 
Q 959 1119 1226 758 
Q 1494 397 1959 397 
Q 2419 397 2687 759 
Q 2956 1122 2956 1747 
Q 2956 2369 2687 2733 
Q 2419 3097 1959 3097 
z
M 1959 3584 
Q 2709 3584 3137 3096 
Q 3566 2609 3566 1747 
Q 3566 888 3137 398 
Q 2709 -91 1959 -91 
Q 1206 -91 779 398 
Q 353 888 353 1747 
Q 353 2609 779 3096 
Q 1206 3584 1959 3584 
z
" transform="scale(0.015625)"/>
      <path id="DejaVuSans-79" d="M 2059 -325 
Q 1816 -950 1584 -1140 
Q 1353 -1331 966 -1331 
L 506 -1331 
L 506 -850 
L 844 -850 
Q 1081 -850 1212 -737 
Q 1344 -625 1503 -206 
L 1606 56 
L 191 3500 
L 800 3500 
L 1894 763 
L 2988 3500 
L 3597 3500 
L 2059 -325 
z
" transform="scale(0.015625)"/>
     </defs>
     <use xlink:href="#DejaVuSans-67"/>
     <use xlink:href="#DejaVuSans-65" transform="translate(63.476562 0)"/>
     <use xlink:href="#DejaVuSans-74" transform="translate(125 0)"/>
     <use xlink:href="#DejaVuSans-5f" transform="translate(164.208984 0)"/>
     <use xlink:href="#DejaVuSans-73" transform="translate(214.208984 0)"/>
     <use xlink:href="#DejaVuSans-75" transform="translate(266.308594 0)"/>
     <use xlink:href="#DejaVuSans-62" transform="translate(329.6875 0)"/>
     <use xlink:href="#DejaVuSans-73" transform="translate(393.164062 0)"/>
     <use xlink:href="#DejaVuSans-63" transform="translate(445.263672 0)"/>
     <use xlink:href="#DejaVuSans-72" transform="translate(500.244141 0)"/>
     <use xlink:href="#DejaVuSans-69" transform="translate(541.357422 0)"/>
     <use xlink:href="#DejaVuSans-62" transform="translate(569.140625 0)"/>
     <use xlink:href="#DejaVuSans-65" transform="translate(632.617188 0)"/>
     <use xlink:href="#DejaVuSans-20" transform="translate(694.140625 0)"/>
     <use xlink:href="#DejaVuSans-68" transform="translate(725.927734 0)"/>
     <use xlink:href="#DejaVuSans-69" transform="translate(789.306641 0)"/>
     <use xlink:href="#DejaVuSans-73" transform="translate(817.089844 0)"/>
     <use xlink:href="#DejaVuSans-74" transform="translate(869.189453 0)"/>
     <use xlink:href="#DejaVuSans-6f" transform="translate(908.398438 0)"/>
     <use xlink:href="#DejaVuSans-72" transform="translate(969.580078 0)"/>
     <use xlink:href="#DejaVuSans-79" transform="translate(1010.693359 0)"/>
    </g>
   </g>
   <g id="legend_1">
    <g id="line2d_41">
     <path d="M 815.08 328.498438 
L 825.08 328.498438 
L 835.08 328.498438 
" style="fill: none; stroke: #1f77b4; stroke-width: 1.5; stroke-linecap: square"/>
    </g>
    <g id="text_21">
     <!-- star -->
     <g style="fill: #a9a9a9" transform="translate(843.08 331.998438) scale(0.1 -0.1)">
      <defs>
       <path id="DejaVuSans-61" d="M 2194 1759 
Q 1497 1759 1228 1600 
Q 959 1441 959 1056 
Q 959 750 1161 570 
Q 1363 391 1709 391 
Q 2188 391 2477 730 
Q 2766 1069 2766 1631 
L 2766 1759 
L 2194 1759 
z
M 3341 1997 
L 3341 0 
L 2766 0 
L 2766 531 
Q 2569 213 2275 61 
Q 1981 -91 1556 -91 
Q 1019 -91 701 211 
Q 384 513 384 1019 
Q 384 1609 779 1909 
Q 1175 2209 1959 2209 
L 2766 2209 
L 2766 2266 
Q 2766 2663 2505 2880 
Q 2244 3097 1772 3097 
Q 1472 3097 1187 3025 
Q 903 2953 641 2809 
L 641 3341 
Q 956 3463 1253 3523 
Q 1550 3584 1831 3584 
Q 2591 3584 2966 3190 
Q 3341 2797 3341 1997 
z
" transform="scale(0.015625)"/>
      </defs>
      <use xlink:href="#DejaVuSans-73"/>
      <use xlink:href="#DejaVuSans-74" transform="translate(52.099609 0)"/>
      <use xlink:href="#DejaVuSans-61" transform="translate(91.308594 0)"/>
      <use xlink:href="#DejaVuSans-72" transform="translate(152.587891 0)"/>
     </g>
    </g>
    <g id="line2d_42">
     <path d="M 815.08 343.176562 
L 825.08 343.176562 
L 835.08 343.176562 
" style="fill: none; stroke: #ff7f0e; stroke-width: 1.5; stroke-linecap: square"/>
    </g>
    <g id="text_22">
     <!-- fork -->
     <g style="fill: #a9a9a9" transform="translate(843.08 346.676562) scale(0.1 -0.1)">
      <defs>
       <path id="DejaVuSans-66" d="M 2375 4863 
L 2375 4384 
L 1825 4384 
Q 1516 4384 1395 4259 
Q 1275 4134 1275 3809 
L 1275 3500 
L 2222 3500 
L 2222 3053 
L 1275 3053 
L 1275 0 
L 697 0 
L 697 3053 
L 147 3053 
L 147 3500 
L 697 3500 
L 697 3744 
Q 697 4328 969 4595 
Q 1241 4863 1831 4863 
L 2375 4863 
z
" transform="scale(0.015625)"/>
       <path id="DejaVuSans-6b" d="M 581 4863 
L 1159 4863 
L 1159 1991 
L 2875 3500 
L 3609 3500 
L 1753 1863 
L 3688 0 
L 2938 0 
L 1159 1709 
L 1159 0 
L 581 0 
L 581 4863 
z
" transform="scale(0.015625)"/>
      </defs>
      <use xlink:href="#DejaVuSans-66"/>
      <use xlink:href="#DejaVuSans-6f" transform="translate(35.205078 0)"/>
      <use xlink:href="#DejaVuSans-72" transform="translate(96.386719 0)"/>
      <use xlink:href="#DejaVuSans-6b" transform="translate(137.5 0)"/>
     </g>
    </g>
   </g>
  </g>
 </g>
 <defs>
  <clipPath id="p5a45a4c1dd">
   <rect x="108" y="43.2" width="669.6" height="277.2"/>
  </clipPath>
 </defs>
</svg>
