<?xml version="1.0" encoding="utf-8" standalone="no"?>
<!DOCTYPE svg PUBLIC "-//W3C//DTD SVG 1.1//EN"
  "http://www.w3.org/Graphics/SVG/1.1/DTD/svg11.dtd">
<svg xmlns:xlink="http://www.w3.org/1999/xlink" width="864pt" height="360pt" viewBox="0 0 864 360" xmlns="http://www.w3.org/2000/svg" version="1.1">
 <metadata>
  <rdf:RDF xmlns:dc="http://purl.org/dc/elements/1.1/" xmlns:cc="http://creativecommons.org/ns#" xmlns:rdf="http://www.w3.org/1999/02/22-rdf-syntax-ns#">
   <cc:Work>
    <dc:type rdf:resource="http://purl.org/dc/dcmitype/StillImage"/>
    <dc:date>2025-12-23T08:17:56.532861</dc:date>
    <dc:format>image/svg+xml</dc:format>
    <dc:creator>
     <cc:Agent>
      <dc:title>Matplotlib v3.10.8, https://matplotlib.org/</dc:title>
     </cc:Agent>
    </dc:creator>
   </cc:Work>
  </rdf:RDF>
 </metadata>
 <defs>
  <style type="text/css">*{stroke-linejoin: round; stroke-linecap: butt}</style>
 </defs>
 <g id="figure_1">
  <g id="patch_1">
   <path d="M 0 360 
L 864 360 
L 864 0 
L 0 0 
L 0 360 
z
" style="fill: none; opacity: 0"/>
  </g>
  <g id="axes_1">
   <g id="patch_2">
    <path d="M 108 320.4 
L 777.6 320.4 
L 777.6 43.2 
L 108 43.2 
L 108 320.4 
z
" style="fill: none; opacity: 0"/>
   </g>
   <g id="matplotlib.axis_1">
    <g id="xtick_1">
     <g id="line2d_1">
      <path d="M 129.756434 320.4 
L 129.756434 43.2 
" clip-path="url(#p8341da5cae)" style="fill: none; stroke-dasharray: 5.12,1.28,0.8,1.28; stroke-dashoffset: 0; stroke: #b0b0b0; stroke-width: 0.8"/>
     </g>
     <g id="line2d_2">
      <defs>
       <path id="m32254a3a16" d="M 0 0 
L 0 3.5 
" style="stroke: #a9a9a9; stroke-width: 0.8"/>
      </defs>
      <g>
       <use xlink:href="#m32254a3a16" x="129.756434" y="320.4" style="fill: #a9a9a9; stroke: #a9a9a9; stroke-width: 0.8"/>
      </g>
     </g>
     <g id="text_1">
      <!-- 2021-07 -->
      <g style="fill: #a9a9a9" transform="translate(108.865027 334.998438) scale(0.1 -0.1)">
       <defs>
        <path id="DejaVuSans-32" d="M 1228 531 
L 3431 531 
L 3431 0 
L 469 0 
L 469 531 
Q 828 903 1448 1529 
Q 2069 2156 2228 2338 
Q 2531 2678 2651 2914 
Q 2772 3150 2772 3378 
Q 2772 3750 2511 3984 
Q 2250 4219 1831 4219 
Q 1534 4219 1204 4116 
Q 875 4013 500 3803 
L 500 4441 
Q 881 4594 1212 4672 
Q 1544 4750 1819 4750 
Q 2544 4750 2975 4387 
Q 3406 4025 3406 3419 
Q 3406 3131 3298 2873 
Q 3191 2616 2906 2266 
Q 2828 2175 2409 1742 
Q 1991 1309 1228 531 
z
" transform="scale(0.015625)"/>
        <path id="DejaVuSans-30" d="M 2034 4250 
Q 1547 4250 1301 3770 
Q 1056 3291 1056 2328 
Q 1056 1369 1301 889 
Q 1547 409 2034 409 
Q 2525 409 2770 889 
Q 3016 1369 3016 2328 
Q 3016 3291 2770 3770 
Q 2525 4250 2034 4250 
z
M 2034 4750 
Q 2819 4750 3233 4129 
Q 3647 3509 3647 2328 
Q 3647 1150 3233 529 
Q 2819 -91 2034 -91 
Q 1250 -91 836 529 
Q 422 1150 422 2328 
Q 422 3509 836 4129 
Q 1250 4750 2034 4750 
z
" transform="scale(0.015625)"/>
        <path id="DejaVuSans-31" d="M 794 531 
L 1825 531 
L 1825 4091 
L 703 3866 
L 703 4441 
L 1819 4666 
L 2450 4666 
L 2450 531 
L 3481 531 
L 3481 0 
L 794 0 
L 794 531 
z
" transform="scale(0.015625)"/>
        <path id="DejaVuSans-2d" d="M 313 2009 
L 1997 2009 
L 1997 1497 
L 313 1497 
L 313 2009 
z
" transform="scale(0.015625)"/>
        <path id="DejaVuSans-37" d="M 525 4666 
L 3525 4666 
L 3525 4397 
L 1831 0 
L 1172 0 
L 2766 4134 
L 525 4134 
L 525 4666 
z
" transform="scale(0.015625)"/>
       </defs>
       <use xlink:href="#DejaVuSans-32"/>
       <use xlink:href="#DejaVuSans-30" transform="translate(63.623047 0)"/>
       <use xlink:href="#DejaVuSans-32" transform="translate(127.246094 0)"/>
       <use xlink:href="#DejaVuSans-31" transform="translate(190.869141 0)"/>
       <use xlink:href="#DejaVuSans-2d" transform="translate(254.492188 0)"/>
       <use xlink:href="#DejaVuSans-30" transform="translate(290.576172 0)"/>
       <use xlink:href="#DejaVuSans-37" transform="translate(354.199219 0)"/>
      </g>
     </g>
    </g>
    <g id="xtick_2">
     <g id="line2d_3">
      <path d="M 199.195874 320.4 
L 199.195874 43.2 
" clip-path="url(#p8341da5cae)" style="fill: none; stroke-dasharray: 5.12,1.28,0.8,1.28; stroke-dashoffset: 0; stroke: #b0b0b0; stroke-width: 0.8"/>
     </g>
     <g id="line2d_4">
      <g>
       <use xlink:href="#m32254a3a16" x="199.195874" y="320.4" style="fill: #a9a9a9; stroke: #a9a9a9; stroke-width: 0.8"/>
      </g>
     </g>
     <g id="text_2">
      <!-- 2022-01 -->
      <g style="fill: #a9a9a9" transform="translate(178.304468 334.998438) scale(0.1 -0.1)">
       <use xlink:href="#DejaVuSans-32"/>
       <use xlink:href="#DejaVuSans-30" transform="translate(63.623047 0)"/>
       <use xlink:href="#DejaVuSans-32" transform="translate(127.246094 0)"/>
       <use xlink:href="#DejaVuSans-32" transform="translate(190.869141 0)"/>
       <use xlink:href="#DejaVuSans-2d" transform="translate(254.492188 0)"/>
       <use xlink:href="#DejaVuSans-30" transform="translate(290.576172 0)"/>
       <use xlink:href="#DejaVuSans-31" transform="translate(354.199219 0)"/>
      </g>
     </g>
    </g>
    <g id="xtick_3">
     <g id="line2d_5">
      <path d="M 267.503151 320.4 
L 267.503151 43.2 
" clip-path="url(#p8341da5cae)" style="fill: none; stroke-dasharray: 5.12,1.28,0.8,1.28; stroke-dashoffset: 0; stroke: #b0b0b0; stroke-width: 0.8"/>
     </g>
     <g id="line2d_6">
      <g>
       <use xlink:href="#m32254a3a16" x="267.503151" y="320.4" style="fill: #a9a9a9; stroke: #a9a9a9; stroke-width: 0.8"/>
      </g>
     </g>
     <g id="text_3">
      <!-- 2022-07 -->
      <g style="fill: #a9a9a9" transform="translate(246.611744 334.998438) scale(0.1 -0.1)">
       <use xlink:href="#DejaVuSans-32"/>
       <use xlink:href="#DejaVuSans-30" transform="translate(63.623047 0)"/>
       <use xlink:href="#DejaVuSans-32" transform="translate(127.246094 0)"/>
       <use xlink:href="#DejaVuSans-32" transform="translate(190.869141 0)"/>
       <use xlink:href="#DejaVuSans-2d" transform="translate(254.492188 0)"/>
       <use xlink:href="#DejaVuSans-30" transform="translate(290.576172 0)"/>
       <use xlink:href="#DejaVuSans-37" transform="translate(354.199219 0)"/>
      </g>
     </g>
    </g>
    <g id="xtick_4">
     <g id="line2d_7">
      <path d="M 336.942591 320.4 
L 336.942591 43.2 
" clip-path="url(#p8341da5cae)" style="fill: none; stroke-dasharray: 5.12,1.28,0.8,1.28; stroke-dashoffset: 0; stroke: #b0b0b0; stroke-width: 0.8"/>
     </g>
     <g id="line2d_8">
      <g>
       <use xlink:href="#m32254a3a16" x="336.942591" y="320.4" style="fill: #a9a9a9; stroke: #a9a9a9; stroke-width: 0.8"/>
      </g>
     </g>
     <g id="text_4">
      <!-- 2023-01 -->
      <g style="fill: #a9a9a9" transform="translate(316.051185 334.998438) scale(0.1 -0.1)">
       <defs>
        <path id="DejaVuSans-33" d="M 2597 2516 
Q 3050 2419 3304 2112 
Q 3559 1806 3559 1356 
Q 3559 666 3084 287 
Q 2609 -91 1734 -91 
Q 1441 -91 1130 -33 
Q 819 25 488 141 
L 488 750 
Q 750 597 1062 519 
Q 1375 441 1716 441 
Q 2309 441 2620 675 
Q 2931 909 2931 1356 
Q 2931 1769 2642 2001 
Q 2353 2234 1838 2234 
L 1294 2234 
L 1294 2753 
L 1863 2753 
Q 2328 2753 2575 2939 
Q 2822 3125 2822 3475 
Q 2822 3834 2567 4026 
Q 2313 4219 1838 4219 
Q 1578 4219 1281 4162 
Q 984 4106 628 3988 
L 628 4550 
Q 988 4650 1302 4700 
Q 1616 4750 1894 4750 
Q 2613 4750 3031 4423 
Q 3450 4097 3450 3541 
Q 3450 3153 3228 2886 
Q 3006 2619 2597 2516 
z
" transform="scale(0.015625)"/>
       </defs>
       <use xlink:href="#DejaVuSans-32"/>
       <use xlink:href="#DejaVuSans-30" transform="translate(63.623047 0)"/>
       <use xlink:href="#DejaVuSans-32" transform="translate(127.246094 0)"/>
       <use xlink:href="#DejaVuSans-33" transform="translate(190.869141 0)"/>
       <use xlink:href="#DejaVuSans-2d" transform="translate(254.492188 0)"/>
       <use xlink:href="#DejaVuSans-30" transform="translate(290.576172 0)"/>
       <use xlink:href="#DejaVuSans-31" transform="translate(354.199219 0)"/>
      </g>
     </g>
    </g>
    <g id="xtick_5">
     <g id="line2d_9">
      <path d="M 405.249868 320.4 
L 405.249868 43.2 
" clip-path="url(#p8341da5cae)" style="fill: none; stroke-dasharray: 5.12,1.28,0.8,1.28; stroke-dashoffset: 0; stroke: #b0b0b0; stroke-width: 0.8"/>
     </g>
     <g id="line2d_10">
      <g>
       <use xlink:href="#m32254a3a16" x="405.249868" y="320.4" style="fill: #a9a9a9; stroke: #a9a9a9; stroke-width: 0.8"/>
      </g>
     </g>
     <g id="text_5">
      <!-- 2023-07 -->
      <g style="fill: #a9a9a9" transform="translate(384.358461 334.998438) scale(0.1 -0.1)">
       <use xlink:href="#DejaVuSans-32"/>
       <use xlink:href="#DejaVuSans-30" transform="translate(63.623047 0)"/>
       <use xlink:href="#DejaVuSans-32" transform="translate(127.246094 0)"/>
       <use xlink:href="#DejaVuSans-33" transform="translate(190.869141 0)"/>
       <use xlink:href="#DejaVuSans-2d" transform="translate(254.492188 0)"/>
       <use xlink:href="#DejaVuSans-30" transform="translate(290.576172 0)"/>
       <use xlink:href="#DejaVuSans-37" transform="translate(354.199219 0)"/>
      </g>
     </g>
    </g>
    <g id="xtick_6">
     <g id="line2d_11">
      <path d="M 474.689308 320.4 
L 474.689308 43.2 
" clip-path="url(#p8341da5cae)" style="fill: none; stroke-dasharray: 5.12,1.28,0.8,1.28; stroke-dashoffset: 0; stroke: #b0b0b0; stroke-width: 0.8"/>
     </g>
     <g id="line2d_12">
      <g>
       <use xlink:href="#m32254a3a16" x="474.689308" y="320.4" style="fill: #a9a9a9; stroke: #a9a9a9; stroke-width: 0.8"/>
      </g>
     </g>
     <g id="text_6">
      <!-- 2024-01 -->
      <g style="fill: #a9a9a9" transform="translate(453.797902 334.998438) scale(0.1 -0.1)">
       <defs>
        <path id="DejaVuSans-34" d="M 2419 4116 
L 825 1625 
L 2419 1625 
L 2419 4116 
z
M 2253 4666 
L 3047 4666 
L 3047 1625 
L 3713 1625 
L 3713 1100 
L 3047 1100 
L 3047 0 
L 2419 0 
L 2419 1100 
L 313 1100 
L 313 1709 
L 2253 4666 
z
" transform="scale(0.015625)"/>
       </defs>
       <use xlink:href="#DejaVuSans-32"/>
       <use xlink:href="#DejaVuSans-30" transform="translate(63.623047 0)"/>
       <use xlink:href="#DejaVuSans-32" transform="translate(127.246094 0)"/>
       <use xlink:href="#DejaVuSans-34" transform="translate(190.869141 0)"/>
       <use xlink:href="#DejaVuSans-2d" transform="translate(254.492188 0)"/>
       <use xlink:href="#DejaVuSans-30" transform="translate(290.576172 0)"/>
       <use xlink:href="#DejaVuSans-31" transform="translate(354.199219 0)"/>
      </g>
     </g>
    </g>
    <g id="xtick_7">
     <g id="line2d_13">
      <path d="M 543.373973 320.4 
L 543.373973 43.2 
" clip-path="url(#p8341da5cae)" style="fill: none; stroke-dasharray: 5.12,1.28,0.8,1.28; stroke-dashoffset: 0; stroke: #b0b0b0; stroke-width: 0.8"/>
     </g>
     <g id="line2d_14">
      <g>
       <use xlink:href="#m32254a3a16" x="543.373973" y="320.4" style="fill: #a9a9a9; stroke: #a9a9a9; stroke-width: 0.8"/>
      </g>
     </g>
     <g id="text_7">
      <!-- 2024-07 -->
      <g style="fill: #a9a9a9" transform="translate(522.482567 334.998438) scale(0.1 -0.1)">
       <use xlink:href="#DejaVuSans-32"/>
       <use xlink:href="#DejaVuSans-30" transform="translate(63.623047 0)"/>
       <use xlink:href="#DejaVuSans-32" transform="translate(127.246094 0)"/>
       <use xlink:href="#DejaVuSans-34" transform="translate(190.869141 0)"/>
       <use xlink:href="#DejaVuSans-2d" transform="translate(254.492188 0)"/>
       <use xlink:href="#DejaVuSans-30" transform="translate(290.576172 0)"/>
       <use xlink:href="#DejaVuSans-37" transform="translate(354.199219 0)"/>
      </g>
     </g>
    </g>
    <g id="xtick_8">
     <g id="line2d_15">
      <path d="M 612.813414 320.4 
L 612.813414 43.2 
" clip-path="url(#p8341da5cae)" style="fill: none; stroke-dasharray: 5.12,1.28,0.8,1.28; stroke-dashoffset: 0; stroke: #b0b0b0; stroke-width: 0.8"/>
     </g>
     <g id="line2d_16">
      <g>
       <use xlink:href="#m32254a3a16" x="612.813414" y="320.4" style="fill: #a9a9a9; stroke: #a9a9a9; stroke-width: 0.8"/>
      </g>
     </g>
     <g id="text_8">
      <!-- 2025-01 -->
      <g style="fill: #a9a9a9" transform="translate(591.922007 334.998438) scale(0.1 -0.1)">
       <defs>
        <path id="DejaVuSans-35" d="M 691 4666 
L 3169 4666 
L 3169 4134 
L 1269 4134 
L 1269 2991 
Q 1406 3038 1543 3061 
Q 1681 3084 1819 3084 
Q 2600 3084 3056 2656 
Q 3513 2228 3513 1497 
Q 3513 744 3044 326 
Q 2575 -91 1722 -91 
Q 1428 -91 1123 -41 
Q 819 9 494 109 
L 494 744 
Q 775 591 1075 516 
Q 1375 441 1709 441 
Q 2250 441 2565 725 
Q 2881 1009 2881 1497 
Q 2881 1984 2565 2268 
Q 2250 2553 1709 2553 
Q 1456 2553 1204 2497 
Q 953 2441 691 2322 
L 691 4666 
z
" transform="scale(0.015625)"/>
       </defs>
       <use xlink:href="#DejaVuSans-32"/>
       <use xlink:href="#DejaVuSans-30" transform="translate(63.623047 0)"/>
       <use xlink:href="#DejaVuSans-32" transform="translate(127.246094 0)"/>
       <use xlink:href="#DejaVuSans-35" transform="translate(190.869141 0)"/>
       <use xlink:href="#DejaVuSans-2d" transform="translate(254.492188 0)"/>
       <use xlink:href="#DejaVuSans-30" transform="translate(290.576172 0)"/>
       <use xlink:href="#DejaVuSans-31" transform="translate(354.199219 0)"/>
      </g>
     </g>
    </g>
    <g id="xtick_9">
     <g id="line2d_17">
      <path d="M 681.12069 320.4 
L 681.12069 43.2 
" clip-path="url(#p8341da5cae)" style="fill: none; stroke-dasharray: 5.12,1.28,0.8,1.28; stroke-dashoffset: 0; stroke: #b0b0b0; stroke-width: 0.8"/>
     </g>
     <g id="line2d_18">
      <g>
       <use xlink:href="#m32254a3a16" x="681.12069" y="320.4" style="fill: #a9a9a9; stroke: #a9a9a9; stroke-width: 0.8"/>
      </g>
     </g>
     <g id="text_9">
      <!-- 2025-07 -->
      <g style="fill: #a9a9a9" transform="translate(660.229284 334.998438) scale(0.1 -0.1)">
       <use xlink:href="#DejaVuSans-32"/>
       <use xlink:href="#DejaVuSans-30" transform="translate(63.623047 0)"/>
       <use xlink:href="#DejaVuSans-32" transform="translate(127.246094 0)"/>
       <use xlink:href="#DejaVuSans-35" transform="translate(190.869141 0)"/>
       <use xlink:href="#DejaVuSans-2d" transform="translate(254.492188 0)"/>
       <use xlink:href="#DejaVuSans-30" transform="translate(290.576172 0)"/>
       <use xlink:href="#DejaVuSans-37" transform="translate(354.199219 0)"/>
      </g>
     </g>
    </g>
    <g id="xtick_10">
     <g id="line2d_19">
      <path d="M 750.560131 320.4 
L 750.560131 43.2 
" clip-path="url(#p8341da5cae)" style="fill: none; stroke-dasharray: 5.12,1.28,0.8,1.28; stroke-dashoffset: 0; stroke: #b0b0b0; stroke-width: 0.8"/>
     </g>
     <g id="line2d_20">
      <g>
       <use xlink:href="#m32254a3a16" x="750.560131" y="320.4" style="fill: #a9a9a9; stroke: #a9a9a9; stroke-width: 0.8"/>
      </g>
     </g>
     <g id="text_10">
      <!-- 2026-01 -->
      <g style="fill: #a9a9a9" transform="translate(729.668725 334.998438) scale(0.1 -0.1)">
       <defs>
        <path id="DejaVuSans-36" d="M 2113 2584 
Q 1688 2584 1439 2293 
Q 1191 2003 1191 1497 
Q 1191 994 1439 701 
Q 1688 409 2113 409 
Q 2538 409 2786 701 
Q 3034 994 3034 1497 
Q 3034 2003 2786 2293 
Q 2538 2584 2113 2584 
z
M 3366 4563 
L 3366 3988 
Q 3128 4100 2886 4159 
Q 2644 4219 2406 4219 
Q 1781 4219 1451 3797 
Q 1122 3375 1075 2522 
Q 1259 2794 1537 2939 
Q 1816 3084 2150 3084 
Q 2853 3084 3261 2657 
Q 3669 2231 3669 1497 
Q 3669 778 3244 343 
Q 2819 -91 2113 -91 
Q 1303 -91 875 529 
Q 447 1150 447 2328 
Q 447 3434 972 4092 
Q 1497 4750 2381 4750 
Q 2619 4750 2861 4703 
Q 3103 4656 3366 4563 
z
" transform="scale(0.015625)"/>
       </defs>
       <use xlink:href="#DejaVuSans-32"/>
       <use xlink:href="#DejaVuSans-30" transform="translate(63.623047 0)"/>
       <use xlink:href="#DejaVuSans-32" transform="translate(127.246094 0)"/>
       <use xlink:href="#DejaVuSans-36" transform="translate(190.869141 0)"/>
       <use xlink:href="#DejaVuSans-2d" transform="translate(254.492188 0)"/>
       <use xlink:href="#DejaVuSans-30" transform="translate(290.576172 0)"/>
       <use xlink:href="#DejaVuSans-31" transform="translate(354.199219 0)"/>
      </g>
     </g>
    </g>
   </g>
   <g id="matplotlib.axis_2">
    <g id="ytick_1">
     <g id="line2d_21">
      <path d="M 108 307.829777 
L 777.6 307.829777 
" clip-path="url(#p8341da5cae)" style="fill: none; stroke-dasharray: 5.12,1.28,0.8,1.28; stroke-dashoffset: 0; stroke: #b0b0b0; stroke-width: 0.8"/>
     </g>
     <g id="line2d_22">
      <defs>
       <path id="md197231cec" d="M 0 0 
L -3.5 0 
" style="stroke: #a9a9a9; stroke-width: 0.8"/>
      </defs>
      <g>
       <use xlink:href="#md197231cec" x="108" y="307.829777" style="fill: #a9a9a9; stroke: #a9a9a9; stroke-width: 0.8"/>
      </g>
     </g>
     <g id="text_11">
      <!-- 0 -->
      <g style="fill: #a9a9a9" transform="translate(94.6375 311.628995) scale(0.1 -0.1)">
       <use xlink:href="#DejaVuSans-30"/>
      </g>
     </g>
    </g>
    <g id="ytick_2">
     <g id="line2d_23">
      <path d="M 108 278.053102 
L 777.6 278.053102 
" clip-path="url(#p8341da5cae)" style="fill: none; stroke-dasharray: 5.12,1.28,0.8,1.28; stroke-dashoffset: 0; stroke: #b0b0b0; stroke-width: 0.8"/>
     </g>
     <g id="line2d_24">
      <g>
       <use xlink:href="#md197231cec" x="108" y="278.053102" style="fill: #a9a9a9; stroke: #a9a9a9; stroke-width: 0.8"/>
      </g>
     </g>
     <g id="text_12">
      <!-- 1000 -->
      <g style="fill: #a9a9a9" transform="translate(75.55 281.85232) scale(0.1 -0.1)">
       <use xlink:href="#DejaVuSans-31"/>
       <use xlink:href="#DejaVuSans-30" transform="translate(63.623047 0)"/>
       <use xlink:href="#DejaVuSans-30" transform="translate(127.246094 0)"/>
       <use xlink:href="#DejaVuSans-30" transform="translate(190.869141 0)"/>
      </g>
     </g>
    </g>
    <g id="ytick_3">
     <g id="line2d_25">
      <path d="M 108 248.276427 
L 777.6 248.276427 
" clip-path="url(#p8341da5cae)" style="fill: none; stroke-dasharray: 5.12,1.28,0.8,1.28; stroke-dashoffset: 0; stroke: #b0b0b0; stroke-width: 0.8"/>
     </g>
     <g id="line2d_26">
      <g>
       <use xlink:href="#md197231cec" x="108" y="248.276427" style="fill: #a9a9a9; stroke: #a9a9a9; stroke-width: 0.8"/>
      </g>
     </g>
     <g id="text_13">
      <!-- 2000 -->
      <g style="fill: #a9a9a9" transform="translate(75.55 252.075646) scale(0.1 -0.1)">
       <use xlink:href="#DejaVuSans-32"/>
       <use xlink:href="#DejaVuSans-30" transform="translate(63.623047 0)"/>
       <use xlink:href="#DejaVuSans-30" transform="translate(127.246094 0)"/>
       <use xlink:href="#DejaVuSans-30" transform="translate(190.869141 0)"/>
      </g>
     </g>
    </g>
    <g id="ytick_4">
     <g id="line2d_27">
      <path d="M 108 218.499752 
L 777.6 218.499752 
" clip-path="url(#p8341da5cae)" style="fill: none; stroke-dasharray: 5.12,1.28,0.8,1.28; stroke-dashoffset: 0; stroke: #b0b0b0; stroke-width: 0.8"/>
     </g>
     <g id="line2d_28">
      <g>
       <use xlink:href="#md197231cec" x="108" y="218.499752" style="fill: #a9a9a9; stroke: #a9a9a9; stroke-width: 0.8"/>
      </g>
     </g>
     <g id="text_14">
      <!-- 3000 -->
      <g style="fill: #a9a9a9" transform="translate(75.55 222.298971) scale(0.1 -0.1)">
       <use xlink:href="#DejaVuSans-33"/>
       <use xlink:href="#DejaVuSans-30" transform="translate(63.623047 0)"/>
       <use xlink:href="#DejaVuSans-30" transform="translate(127.246094 0)"/>
       <use xlink:href="#DejaVuSans-30" transform="translate(190.869141 0)"/>
      </g>
     </g>
    </g>
    <g id="ytick_5">
     <g id="line2d_29">
      <path d="M 108 188.723077 
L 777.6 188.723077 
" clip-path="url(#p8341da5cae)" style="fill: none; stroke-dasharray: 5.12,1.28,0.8,1.28; stroke-dashoffset: 0; stroke: #b0b0b0; stroke-width: 0.8"/>
     </g>
     <g id="line2d_30">
      <g>
       <use xlink:href="#md197231cec" x="108" y="188.723077" style="fill: #a9a9a9; stroke: #a9a9a9; stroke-width: 0.8"/>
      </g>
     </g>
     <g id="text_15">
      <!-- 4000 -->
      <g style="fill: #a9a9a9" transform="translate(75.55 192.522296) scale(0.1 -0.1)">
       <use xlink:href="#DejaVuSans-34"/>
       <use xlink:href="#DejaVuSans-30" transform="translate(63.623047 0)"/>
       <use xlink:href="#DejaVuSans-30" transform="translate(127.246094 0)"/>
       <use xlink:href="#DejaVuSans-30" transform="translate(190.869141 0)"/>
      </g>
     </g>
    </g>
    <g id="ytick_6">
     <g id="line2d_31">
      <path d="M 108 158.946402 
L 777.6 158.946402 
" clip-path="url(#p8341da5cae)" style="fill: none; stroke-dasharray: 5.12,1.28,0.8,1.28; stroke-dashoffset: 0; stroke: #b0b0b0; stroke-width: 0.8"/>
     </g>
     <g id="line2d_32">
      <g>
       <use xlink:href="#md197231cec" x="108" y="158.946402" style="fill: #a9a9a9; stroke: #a9a9a9; stroke-width: 0.8"/>
      </g>
     </g>
     <g id="text_16">
      <!-- 5000 -->
      <g style="fill: #a9a9a9" transform="translate(75.55 162.745621) scale(0.1 -0.1)">
       <use xlink:href="#DejaVuSans-35"/>
       <use xlink:href="#DejaVuSans-30" transform="translate(63.623047 0)"/>
       <use xlink:href="#DejaVuSans-30" transform="translate(127.246094 0)"/>
       <use xlink:href="#DejaVuSans-30" transform="translate(190.869141 0)"/>
      </g>
     </g>
    </g>
    <g id="ytick_7">
     <g id="line2d_33">
      <path d="M 108 129.169727 
L 777.6 129.169727 
" clip-path="url(#p8341da5cae)" style="fill: none; stroke-dasharray: 5.12,1.28,0.8,1.28; stroke-dashoffset: 0; stroke: #b0b0b0; stroke-width: 0.8"/>
     </g>
     <g id="line2d_34">
      <g>
       <use xlink:href="#md197231cec" x="108" y="129.169727" style="fill: #a9a9a9; stroke: #a9a9a9; stroke-width: 0.8"/>
      </g>
     </g>
     <g id="text_17">
      <!-- 6000 -->
      <g style="fill: #a9a9a9" transform="translate(75.55 132.968946) scale(0.1 -0.1)">
       <use xlink:href="#DejaVuSans-36"/>
       <use xlink:href="#DejaVuSans-30" transform="translate(63.623047 0)"/>
       <use xlink:href="#DejaVuSans-30" transform="translate(127.246094 0)"/>
       <use xlink:href="#DejaVuSans-30" transform="translate(190.869141 0)"/>
      </g>
     </g>
    </g>
    <g id="ytick_8">
     <g id="line2d_35">
      <path d="M 108 99.393052 
L 777.6 99.393052 
" clip-path="url(#p8341da5cae)" style="fill: none; stroke-dasharray: 5.12,1.28,0.8,1.28; stroke-dashoffset: 0; stroke: #b0b0b0; stroke-width: 0.8"/>
     </g>
     <g id="line2d_36">
      <g>
       <use xlink:href="#md197231cec" x="108" y="99.393052" style="fill: #a9a9a9; stroke: #a9a9a9; stroke-width: 0.8"/>
      </g>
     </g>
     <g id="text_18">
      <!-- 7000 -->
      <g style="fill: #a9a9a9" transform="translate(75.55 103.192271) scale(0.1 -0.1)">
       <use xlink:href="#DejaVuSans-37"/>
       <use xlink:href="#DejaVuSans-30" transform="translate(63.623047 0)"/>
       <use xlink:href="#DejaVuSans-30" transform="translate(127.246094 0)"/>
       <use xlink:href="#DejaVuSans-30" transform="translate(190.869141 0)"/>
      </g>
     </g>
    </g>
    <g id="ytick_9">
     <g id="line2d_37">
      <path d="M 108 69.616377 
L 777.6 69.616377 
" clip-path="url(#p8341da5cae)" style="fill: none; stroke-dasharray: 5.12,1.28,0.8,1.28; stroke-dashoffset: 0; stroke: #b0b0b0; stroke-width: 0.8"/>
     </g>
     <g id="line2d_38">
      <g>
       <use xlink:href="#md197231cec" x="108" y="69.616377" style="fill: #a9a9a9; stroke: #a9a9a9; stroke-width: 0.8"/>
      </g>
     </g>
     <g id="text_19">
      <!-- 8000 -->
      <g style="fill: #a9a9a9" transform="translate(75.55 73.415596) scale(0.1 -0.1)">
       <defs>
        <path id="DejaVuSans-38" d="M 2034 2216 
Q 1584 2216 1326 1975 
Q 1069 1734 1069 1313 
Q 1069 891 1326 650 
Q 1584 409 2034 409 
Q 2484 409 2743 651 
Q 3003 894 3003 1313 
Q 3003 1734 2745 1975 
Q 2488 2216 2034 2216 
z
M 1403 2484 
Q 997 2584 770 2862 
Q 544 3141 544 3541 
Q 544 4100 942 4425 
Q 1341 4750 2034 4750 
Q 2731 4750 3128 4425 
Q 3525 4100 3525 3541 
Q 3525 3141 3298 2862 
Q 3072 2584 2669 2484 
Q 3125 2378 3379 2068 
Q 3634 1759 3634 1313 
Q 3634 634 3220 271 
Q 2806 -91 2034 -91 
Q 1263 -91 848 271 
Q 434 634 434 1313 
Q 434 1759 690 2068 
Q 947 2378 1403 2484 
z
M 1172 3481 
Q 1172 3119 1398 2916 
Q 1625 2713 2034 2713 
Q 2441 2713 2670 2916 
Q 2900 3119 2900 3481 
Q 2900 3844 2670 4047 
Q 2441 4250 2034 4250 
Q 1625 4250 1398 4047 
Q 1172 3844 1172 3481 
z
" transform="scale(0.015625)"/>
       </defs>
       <use xlink:href="#DejaVuSans-38"/>
       <use xlink:href="#DejaVuSans-30" transform="translate(63.623047 0)"/>
       <use xlink:href="#DejaVuSans-30" transform="translate(127.246094 0)"/>
       <use xlink:href="#DejaVuSans-30" transform="translate(190.869141 0)"/>
      </g>
     </g>
    </g>
   </g>
   <g id="line2d_39">
    <path d="M 138.436364 307.740447 
L 140.700693 307.53201 
L 141.078081 307.35335 
L 142.587635 307.144913 
L 144.097188 306.81737 
L 144.851964 306.698263 
L 146.738905 306.519603 
L 147.493682 306.221836 
L 147.87107 305.685856 
L 148.248459 305.417866 
L 148.625847 304.524566 
L 149.003235 304.465012 
L 149.758012 303.988586 
L 150.512788 303.422829 
L 152.022341 302.291315 
L 152.399729 302.142432 
L 153.154506 301.666005 
L 154.286671 301.100248 
L 154.664059 300.445161 
L 155.418836 299.849628 
L 156.173612 299.611414 
L 157.305777 299.432754 
L 159.570107 299.075434 
L 159.947495 298.896774 
L 162.589213 298.658561 
L 164.098766 298.271464 
L 167.117872 297.824814 
L 167.49526 297.616377 
L 167.872648 297.556824 
L 168.627425 297.288834 
L 171.269143 296.812407 
L 172.023919 296.574194 
L 175.420414 295.97866 
L 176.17519 295.8 
L 177.684743 295.591563 
L 178.43952 295.35335 
L 178.816908 294.787593 
L 179.949073 294.311166 
L 181.081238 293.983623 
L 181.458626 293.775186 
L 182.213402 293.626303 
L 183.722956 293.149876 
L 184.477732 293.090323 
L 185.232509 292.881886 
L 186.742062 292.465012 
L 187.11945 292.435236 
L 187.874226 292.048139 
L 188.251615 291.988586 
L 188.629003 291.780149 
L 192.780274 291.065509 
L 194.289827 290.589082 
L 194.667215 290.321092 
L 196.554157 289.666005 
L 197.308933 289.100248 
L 198.441098 288.862035 
L 203.347145 287.373201 
L 203.724534 287.313648 
L 205.234087 286.688337 
L 205.611475 286.628784 
L 206.366251 286.301241 
L 207.121028 286.271464 
L 208.253193 285.914144 
L 208.630581 285.914144 
L 209.007969 285.735484 
L 209.762746 285.646154 
L 210.140134 285.49727 
L 212.027075 285.40794 
L 212.404464 285.31861 
L 213.15924 284.901737 
L 214.291405 284.484864 
L 215.046182 284.06799 
L 216.178346 283.561787 
L 217.687899 282.787593 
L 218.065288 282.340943 
L 218.820064 281.090323 
L 219.197453 280.971216 
L 219.574841 280.971216 
L 221.084394 280.107692 
L 221.461782 280.018362 
L 221.83917 279.631266 
L 222.593947 279.303722 
L 223.348723 278.946402 
L 225.613053 276.236725 
L 225.990441 276.117618 
L 227.877383 274.807444 
L 228.632159 274.271464 
L 229.009547 273.705707 
L 229.386936 272.78263 
L 229.764324 272.187097 
L 230.141712 271.859553 
L 230.5191 271.680893 
L 235.04776 267.482382 
L 236.557313 266.499752 
L 237.312089 266.082878 
L 238.821642 265.219355 
L 240.708584 263.373201 
L 241.46336 263.045658 
L 242.218137 262.509677 
L 242.595525 262.271464 
L 242.972913 262.211911 
L 244.105078 261.527047 
L 244.482466 261.080397 
L 246.369408 259.97866 
L 246.746796 259.829777 
L 247.878961 258.99603 
L 253.539785 256.852109 
L 254.294561 256.107692 
L 255.426726 255.512159 
L 256.181503 255.005955 
L 256.936279 254.767742 
L 257.313667 254.499752 
L 257.691056 254.380645 
L 258.82322 253.576675 
L 260.710162 253.130025 
L 261.842327 252.415385 
L 262.974491 252.147395 
L 263.35188 252.058065 
L 264.484044 251.194541 
L 265.993597 250.747891 
L 266.370986 250.420347 
L 268.635315 249.5866 
L 269.390092 249.437717 
L 270.144868 249.110174 
L 272.786586 248.097767 
L 273.541363 248.008437 
L 274.673528 247.591563 
L 276.560469 246.608933 
L 278.824799 245.268983 
L 279.579575 245.060546 
L 280.71174 244.465012 
L 281.466516 244.316129 
L 282.221293 243.839702 
L 282.976069 243.631266 
L 284.108234 243.154839 
L 285.617787 242.946402 
L 286.372564 242.529529 
L 286.749952 242.172208 
L 287.12734 241.457568 
L 288.636893 241.010918 
L 290.146446 240.296278 
L 293.542941 238.718114 
L 294.297717 238.539454 
L 295.429882 237.943921 
L 295.80727 237.884367 
L 297.694212 236.901737 
L 298.448988 236.395533 
L 299.581153 236.15732 
L 302.222871 235.26402 
L 308.261083 232.375682 
L 308.638472 231.958809 
L 309.01586 231.720596 
L 309.393248 231.631266 
L 310.148025 230.976179 
L 310.525413 230.916625 
L 310.902801 230.261538 
L 311.280189 230.112655 
L 311.657578 229.785112 
L 312.034966 229.725558 
L 312.789742 229.219355 
L 313.544519 228.981141 
L 313.921907 228.683375 
L 314.676684 228.266501 
L 315.808849 227.551861 
L 316.941013 226.956328 
L 317.69579 226.747891 
L 318.450566 226.301241 
L 318.827955 225.616377 
L 319.582731 225.020844 
L 319.960119 224.931514 
L 322.224449 223.8 
L 322.979226 223.472457 
L 323.734002 222.9067 
L 324.866167 221.804963 
L 325.620943 221.328536 
L 325.998332 220.881886 
L 327.507885 219.809926 
L 328.262661 219.005955 
L 329.394826 218.440199 
L 330.149603 217.993548 
L 330.526991 217.874442 
L 330.904379 217.576675 
L 331.281767 217.517122 
L 334.678262 215.730521 
L 335.433038 215.522084 
L 336.942591 214.986104 
L 337.31998 214.658561 
L 338.829533 214.033251 
L 339.206921 213.914144 
L 339.961698 213.40794 
L 340.716474 213.080397 
L 341.471251 212.51464 
L 342.226027 210.936476 
L 342.980804 210.043176 
L 344.112968 209.417866 
L 344.867745 209.090323 
L 345.245133 209.030769 
L 345.99991 208.673449 
L 347.509463 208.137469 
L 348.264239 207.690819 
L 349.019016 207.333499 
L 349.396404 207.214392 
L 351.660734 205.785112 
L 352.038122 205.338462 
L 353.170287 204.653598 
L 353.547675 204.504715 
L 354.302452 204.028288 
L 355.812005 203.164764 
L 356.189393 203.075434 
L 356.566781 202.747891 
L 359.208499 201.854591 
L 359.585887 201.5866 
L 360.340664 201.348387 
L 363.35977 199.859553 
L 364.114547 199.44268 
L 364.491935 199.26402 
L 365.246711 198.63871 
L 366.001488 198.430273 
L 366.378876 198.072953 
L 366.756264 198.0134 
L 367.511041 197.417866 
L 369.397982 196.256576 
L 370.152759 196.018362 
L 370.530147 195.780149 
L 370.907535 195.720596 
L 372.417088 194.976179 
L 373.549253 194.589082 
L 374.30403 194.469975 
L 375.813583 193.874442 
L 376.190971 193.844665 
L 378.077912 192.981141 
L 378.832689 192.445161 
L 379.587465 192.028288 
L 381.097019 191.283871 
L 382.229183 190.509677 
L 382.98396 190.331017 
L 384.116125 189.616377 
L 385.248289 189.199504 
L 386.003066 188.931514 
L 387.512619 188.395533 
L 388.267396 188.127543 
L 389.776949 187.8 
L 390.531725 187.561787 
L 392.418667 186.9067 
L 393.550831 186.54938 
L 394.305608 186.37072 
L 396.569937 185.953846 
L 397.324714 185.804963 
L 398.456879 185.536973 
L 398.834267 185.358313 
L 399.589044 185.209429 
L 400.34382 185.000993 
L 401.098597 184.643672 
L 401.475985 184.494789 
L 401.853373 184.494789 
L 406.004644 183.154839 
L 406.382032 182.946402 
L 406.759421 182.946402 
L 407.514197 182.648635 
L 407.891585 182.231762 
L 410.155915 181.249132 
L 411.665468 180.713151 
L 412.042856 180.474938 
L 413.175021 180.117618 
L 413.929798 179.909181 
L 414.307186 179.641191 
L 414.684574 179.551861 
L 415.061962 179.224318 
L 416.194127 178.986104 
L 416.948904 178.628784 
L 417.326292 178.152357 
L 421.477563 177.199504 
L 421.854951 177.199504 
L 422.609728 176.96129 
L 426.006222 176.097767 
L 426.760999 175.919107 
L 430.534881 174.81737 
L 430.91227 174.72804 
L 431.289658 174.519603 
L 432.044434 174.311166 
L 432.799211 173.983623 
L 433.553987 173.685856 
L 433.931376 173.417866 
L 434.686152 173.179653 
L 437.705258 172.107692 
L 438.460035 172.048139 
L 439.969588 171.601489 
L 440.346976 171.363275 
L 441.101753 171.125062 
L 443.366082 170.172208 
L 447.894742 168.504715 
L 449.781683 167.849628 
L 450.536459 167.611414 
L 451.291236 167.402978 
L 452.800789 166.122581 
L 455.442507 164.96129 
L 458.084225 163.8 
L 458.839001 163.591563 
L 462.235496 161.894293 
L 462.990272 161.447643 
L 466.386767 159.780149 
L 466.764155 159.482382 
L 471.292814 157.725558 
L 472.047591 157.606452 
L 472.424979 157.338462 
L 473.934532 157.040695 
L 474.689308 156.713151 
L 476.57625 155.790074 
L 481.482297 153.556824 
L 482.614462 153.169727 
L 482.99185 152.901737 
L 483.746627 152.812407 
L 484.124015 152.544417 
L 484.878792 152.42531 
L 489.784839 150.608933 
L 490.917004 150.340943 
L 492.426557 149.685856 
L 493.181333 149.268983 
L 494.690887 148.465012 
L 495.445663 148.286352 
L 495.823051 148.048139 
L 496.20044 147.958809 
L 498.087381 147.005955 
L 502.993428 145.130025 
L 503.370817 145.070471 
L 504.88037 144.326055 
L 505.635146 144.177171 
L 506.389923 143.730521 
L 507.899476 142.986104 
L 511.673359 141.437717 
L 512.428135 141.05062 
L 512.805523 140.96129 
L 513.5603 140.663524 
L 513.937688 140.663524 
L 514.692465 140.306203 
L 516.202018 138.99603 
L 516.579406 138.876923 
L 516.956794 138.63871 
L 518.088959 138.311166 
L 518.466347 138.0134 
L 519.221124 137.745409 
L 520.353289 136.971216 
L 521.108065 136.762779 
L 521.862842 136.345906 
L 522.995006 136.077916 
L 529.033219 133.576675 
L 530.92016 132.802481 
L 532.807101 132.206948 
L 533.939266 131.462531 
L 534.316654 131.373201 
L 535.071431 130.986104 
L 535.826208 130.747891 
L 536.203596 130.390571 
L 537.335761 129.943921 
L 537.713149 129.884367 
L 539.222702 129.169727 
L 540.354867 128.812407 
L 541.487032 128.395533 
L 542.619196 128.06799 
L 542.996585 128.008437 
L 543.751361 127.591563 
L 544.128749 127.44268 
L 544.506138 127.144913 
L 545.638302 126.847146 
L 546.393079 126.54938 
L 547.147855 126.221836 
L 548.657409 125.596526 
L 551.299126 124.881886 
L 552.053903 124.584119 
L 553.563456 124.286352 
L 554.318233 124.137469 
L 555.450397 123.690819 
L 556.582562 123.452605 
L 558.846892 122.082878 
L 559.979057 121.368238 
L 562.243386 120.653598 
L 562.620774 120.355831 
L 565.639881 119.254094 
L 566.772045 118.896774 
L 567.526822 118.479901 
L 568.281598 118.271464 
L 568.658987 118.063027 
L 569.413763 117.914144 
L 570.923316 117.31861 
L 571.678093 116.812407 
L 572.810258 116.51464 
L 573.942422 115.740447 
L 574.319811 115.680893 
L 575.829364 115.055583 
L 577.338917 114.668486 
L 577.716305 114.608933 
L 578.093693 114.430273 
L 578.471082 114.400496 
L 579.225858 114.132506 
L 579.603246 114.10273 
L 580.735411 113.656079 
L 582.244964 113.209429 
L 582.999741 112.613896 
L 584.509294 111.750372 
L 584.886682 111.661042 
L 585.26407 111.452605 
L 585.641459 111.393052 
L 589.037953 109.666005 
L 589.415341 109.308685 
L 591.302283 108.832258 
L 592.434447 108.296278 
L 593.189224 108.087841 
L 593.566612 107.909181 
L 593.944 107.581638 
L 595.830942 106.896774 
L 600.736989 105.05062 
L 601.491766 104.901737 
L 603.378707 104.276427 
L 604.510872 103.770223 
L 607.15259 102.966253 
L 607.907366 102.519603 
L 620.738567 98.529529 
L 621.493344 98.321092 
L 622.625509 97.904218 
L 623.002897 97.904218 
L 624.135062 97.636228 
L 624.889838 97.487345 
L 625.644615 97.278908 
L 626.77678 96.653598 
L 627.908944 96.296278 
L 630.550662 95.373201 
L 632.060215 94.599007 
L 633.19238 94.331017 
L 633.947157 94.092804 
L 634.701933 93.705707 
L 635.079321 93.378164 
L 635.834098 93.13995 
L 636.211486 92.901737 
L 636.966263 92.812407 
L 639.607981 92.038213 
L 640.740145 91.8 
L 641.87231 91.502233 
L 642.627087 91.323573 
L 643.759252 90.72804 
L 648.665299 88.852109 
L 649.420076 88.733002 
L 650.174852 88.584119 
L 650.55224 88.584119 
L 651.684405 88.226799 
L 652.81657 87.869479 
L 656.213064 86.886849 
L 656.967841 86.678412 
L 657.345229 86.589082 
L 657.722617 86.350868 
L 658.477394 86.201985 
L 659.23217 86.112655 
L 659.609559 85.904218 
L 659.986947 85.874442 
L 661.119112 85.338462 
L 662.251277 85.070471 
L 663.006053 84.742928 
L 665.270383 83.938958 
L 665.647771 83.879404 
L 666.402547 83.611414 
L 670.931207 82.450124 
L 673.195536 81.675931 
L 673.950313 81.616377 
L 676.214642 81.05062 
L 676.969419 80.723077 
L 677.346807 80.663524 
L 677.724195 80.484864 
L 678.478972 79.829777 
L 682.252855 78.430273 
L 684.517184 77.834739 
L 685.271961 77.417866 
L 685.649349 77.328536 
L 686.781514 76.703226 
L 687.158902 76.613896 
L 687.53629 76.316129 
L 688.668455 75.988586 
L 694.706667 73.249132 
L 695.084056 73.189578 
L 697.348385 72.028288 
L 697.725774 71.790074 
L 698.857938 71.462531 
L 700.367491 70.837221 
L 700.74488 70.807444 
L 702.631821 70.092804 
L 703.386598 69.943921 
L 704.141374 69.378164 
L 704.518762 69.378164 
L 706.028315 68.842184 
L 707.537868 68.544417 
L 709.047422 67.88933 
L 709.42481 67.88933 
L 710.556975 67.502233 
L 711.311751 67.383127 
L 712.443916 66.72804 
L 713.198692 66.340943 
L 715.085634 65.715633 
L 715.84041 65.388089 
L 717.727352 64.881886 
L 719.991681 64.256576 
L 724.52034 62.916625 
L 727.539447 62.142432 
L 729.049 61.427792 
L 730.181164 61.070471 
L 732.822882 60.534491 
L 733.577659 60.415385 
L 736.219377 59.492308 
L 736.974153 59.254094 
L 737.72893 58.956328 
L 738.483706 58.896774 
L 738.861095 58.599007 
L 739.615871 58.360794 
L 739.993259 58.360794 
L 741.125424 57.973697 
L 741.880201 57.675931 
L 742.634977 57.527047 
L 744.899307 56.544417 
L 745.276695 56.484864 
L 746.031472 56.127543 
L 747.163636 55.8 
L 747.163636 55.8 
" clip-path="url(#p8341da5cae)" style="fill: none; stroke: #1f77b4; stroke-width: 1.5; stroke-linecap: square"/>
   </g>
   <g id="line2d_40">
    <path d="M 138.813752 307.8 
L 142.210246 307.71067 
L 145.229352 307.561787 
L 146.738905 307.561787 
L 147.116294 307.44268 
L 149.003235 307.35335 
L 151.267565 307.08536 
L 153.531894 306.99603 
L 154.286671 306.9067 
L 156.928389 306.787593 
L 159.570107 306.698263 
L 161.457048 306.63871 
L 166.363095 306.54938 
L 168.250037 306.489826 
L 171.646531 306.400496 
L 173.156084 306.37072 
L 176.929967 306.28139 
L 178.43952 306.132506 
L 179.949073 306.10273 
L 182.213402 306.0134 
L 183.722956 305.983623 
L 185.609897 305.924069 
L 187.11945 305.775186 
L 190.515944 305.685856 
L 191.270721 305.626303 
L 192.780274 305.536973 
L 195.044604 305.447643 
L 196.554157 305.358313 
L 203.347145 304.911663 
L 205.988863 304.822333 
L 207.121028 304.703226 
L 209.007969 304.613896 
L 212.781852 304.405459 
L 216.555735 304.345906 
L 218.065288 304.167246 
L 219.952229 304.077916 
L 223.726112 303.690819 
L 225.990441 303.393052 
L 227.499994 303.333499 
L 230.5191 302.916625 
L 232.78343 302.857072 
L 233.915595 302.737965 
L 235.04776 302.648635 
L 254.67195 301.189578 
L 257.313667 301.100248 
L 258.82322 300.921588 
L 260.710162 300.832258 
L 262.974491 300.742928 
L 264.861433 300.653598 
L 266.370986 300.623821 
L 268.257927 300.564268 
L 269.012704 300.474938 
L 274.296139 300.385608 
L 275.050916 300.296278 
L 279.579575 300.206948 
L 282.976069 300.028288 
L 285.617787 299.938958 
L 287.12734 299.760298 
L 289.769058 299.670968 
L 290.523835 299.551861 
L 292.410776 299.492308 
L 296.184659 299.432754 
L 297.694212 299.283871 
L 299.203765 299.254094 
L 300.33593 299.164764 
L 301.845483 299.015881 
L 305.619365 298.807444 
L 309.393248 298.718114 
L 312.789742 298.539454 
L 313.921907 298.509677 
L 314.676684 298.390571 
L 316.563625 298.301241 
L 317.318402 298.241687 
L 319.205343 298.152357 
L 320.714896 298.122581 
L 323.356614 298.033251 
L 333.168709 297.348387 
L 335.433038 297.259057 
L 337.31998 297.199504 
L 342.603415 297.110174 
L 343.358192 297.020844 
L 348.641628 296.931514 
L 352.41551 296.723077 
L 353.170287 296.6933 
L 353.925063 296.60397 
L 355.812005 296.51464 
L 357.698946 296.455087 
L 359.585887 296.365757 
L 361.472829 296.306203 
L 364.869323 296.216873 
L 367.133653 296.127543 
L 372.417088 296.038213 
L 376.568359 295.8 
L 378.077912 295.740447 
L 379.210077 295.651117 
L 384.493513 295.561787 
L 386.757843 295.472457 
L 393.550831 295.383127 
L 395.060384 295.35335 
L 399.589044 295.293797 
L 400.34382 295.234243 
L 405.627256 295.144913 
L 407.136809 295.115136 
L 416.948904 295.025806 
L 419.213233 294.936476 
L 435.063541 294.847146 
L 436.950482 294.787593 
L 446.762577 294.72804 
L 447.517353 294.668486 
L 449.404295 294.608933 
L 450.536459 294.489826 
L 452.800789 294.400496 
L 455.442507 294.28139 
L 458.839001 294.19206 
L 460.725943 294.132506 
L 463.36766 294.043176 
L 466.386767 293.894293 
L 468.273708 293.804963 
L 469.783261 293.775186 
L 476.198862 293.685856 
L 478.463191 293.596526 
L 482.614462 293.507196 
L 485.25618 293.388089 
L 487.897898 293.328536 
L 488.652674 293.268983 
L 497.709993 293.179653 
L 501.483875 292.971216 
L 504.125593 292.881886 
L 508.276864 292.643672 
L 510.918582 292.554342 
L 512.428135 292.524566 
L 515.069853 292.435236 
L 516.956794 292.226799 
L 520.730677 292.137469 
L 521.485453 292.048139 
L 525.259336 291.958809 
L 527.146277 291.899256 
L 531.297548 291.869479 
L 532.052325 291.780149 
L 536.203596 291.690819 
L 536.958372 291.631266 
L 545.260914 291.541935 
L 547.525244 291.452605 
L 553.186068 291.363275 
L 554.695621 291.333499 
L 558.092115 291.273945 
L 558.846892 291.184615 
L 563.752939 291.095285 
L 565.639881 291.035732 
L 572.432869 290.946402 
L 573.565034 290.857072 
L 574.697199 290.767742 
L 575.829364 290.678412 
L 581.490188 290.589082 
L 583.754517 290.499752 
L 594.698777 290.410422 
L 598.095271 290.231762 
L 603.378707 290.142432 
L 604.88826 290.112655 
L 609.416919 290.023325 
L 611.303861 289.963772 
L 619.229014 289.874442 
L 621.870732 289.755335 
L 628.663721 289.666005 
L 630.173274 289.636228 
L 633.947157 289.546898 
L 636.588874 289.427792 
L 640.740145 289.338462 
L 643.381863 289.219355 
L 646.778358 289.159801 
L 647.533134 289.100248 
L 655.835676 289.010918 
L 658.100006 288.921588 
L 660.741723 288.832258 
L 662.628665 288.772705 
L 673.572925 288.683375 
L 675.837254 288.594045 
L 681.875466 288.504715 
L 684.139796 288.415385 
L 689.045843 288.326055 
L 691.310173 288.236725 
L 694.329279 288.147395 
L 696.593609 288.058065 
L 711.689139 287.968734 
L 714.708246 287.819851 
L 723.388176 287.730521 
L 724.897729 287.700744 
L 733.955047 287.611414 
L 735.841988 287.551861 
L 747.163636 287.492308 
L 747.163636 287.492308 
" clip-path="url(#p8341da5cae)" style="fill: none; stroke: #ff7f0e; stroke-width: 1.5; stroke-linecap: square"/>
   </g>
   <g id="patch_3">
    <path d="M 108 320.4 
L 108 43.2 
" style="fill: none; stroke: #a9a9a9; stroke-width: 0.8; stroke-linejoin: miter; stroke-linecap: square"/>
   </g>
   <g id="patch_4">
    <path d="M 777.6 320.4 
L 777.6 43.2 
" style="fill: none"/>
   </g>
   <g id="patch_5">
    <path d="M 108 320.4 
L 777.6 320.4 
" style="fill: none; stroke: #a9a9a9; stroke-width: 0.8; stroke-linejoin: miter; stroke-linecap: square"/>
   </g>
   <g id="patch_6">
    <path d="M 108 43.2 
L 777.6 43.2 
" style="fill: none"/>
   </g>
   <g id="text_20">
    <!-- get_subscribe history -->
    <g style="fill: #a9a9a9" transform="translate(378.6075 37.2) scale(0.12 -0.12)">
     <defs>
      <path id="DejaVuSans-67" d="M 2906 1791 
Q 2906 2416 2648 2759 
Q 2391 3103 1925 3103 
Q 1463 3103 1205 2759 
Q 947 2416 947 1791 
Q 947 1169 1205 825 
Q 1463 481 1925 481 
Q 2391 481 2648 825 
Q 2906 1169 2906 1791 
z
M 3481 434 
Q 3481 -459 3084 -895 
Q 2688 -1331 1869 -1331 
Q 1566 -1331 1297 -1286 
Q 1028 -1241 775 -1147 
L 775 -588 
Q 1028 -725 1275 -790 
Q 1522 -856 1778 -856 
Q 2344 -856 2625 -561 
Q 2906 -266 2906 331 
L 2906 616 
Q 2728 306 2450 153 
Q 2172 0 1784 0 
Q 1141 0 747 490 
Q 353 981 353 1791 
Q 353 2603 747 3093 
Q 1141 3584 1784 3584 
Q 2172 3584 2450 3431 
Q 2728 3278 2906 2969 
L 2906 3500 
L 3481 3500 
L 3481 434 
z
" transform="scale(0.015625)"/>
      <path id="DejaVuSans-65" d="M 3597 1894 
L 3597 1613 
L 953 1613 
Q 991 1019 1311 708 
Q 1631 397 2203 397 
Q 2534 397 2845 478 
Q 3156 559 3463 722 
L 3463 178 
Q 3153 47 2828 -22 
Q 2503 -91 2169 -91 
Q 1331 -91 842 396 
Q 353 884 353 1716 
Q 353 2575 817 3079 
Q 1281 3584 2069 3584 
Q 2775 3584 3186 3129 
Q 3597 2675 3597 1894 
z
M 3022 2063 
Q 3016 2534 2758 2815 
Q 2500 3097 2075 3097 
Q 1594 3097 1305 2825 
Q 1016 2553 972 2059 
L 3022 2063 
z
" transform="scale(0.015625)"/>
      <path id="DejaVuSans-74" d="M 1172 4494 
L 1172 3500 
L 2356 3500 
L 2356 3053 
L 1172 3053 
L 1172 1153 
Q 1172 725 1289 603 
Q 1406 481 1766 481 
L 2356 481 
L 2356 0 
L 1766 0 
Q 1100 0 847 248 
Q 594 497 594 1153 
L 594 3053 
L 172 3053 
L 172 3500 
L 594 3500 
L 594 4494 
L 1172 4494 
z
" transform="scale(0.015625)"/>
      <path id="DejaVuSans-5f" d="M 3263 -1063 
L 3263 -1509 
L -63 -1509 
L -63 -1063 
L 3263 -1063 
z
" transform="scale(0.015625)"/>
      <path id="DejaVuSans-73" d="M 2834 3397 
L 2834 2853 
Q 2591 2978 2328 3040 
Q 2066 3103 1784 3103 
Q 1356 3103 1142 2972 
Q 928 2841 928 2578 
Q 928 2378 1081 2264 
Q 1234 2150 1697 2047 
L 1894 2003 
Q 2506 1872 2764 1633 
Q 3022 1394 3022 966 
Q 3022 478 2636 193 
Q 2250 -91 1575 -91 
Q 1294 -91 989 -36 
Q 684 19 347 128 
L 347 722 
Q 666 556 975 473 
Q 1284 391 1588 391 
Q 1994 391 2212 530 
Q 2431 669 2431 922 
Q 2431 1156 2273 1281 
Q 2116 1406 1581 1522 
L 1381 1569 
Q 847 1681 609 1914 
Q 372 2147 372 2553 
Q 372 3047 722 3315 
Q 1072 3584 1716 3584 
Q 2034 3584 2315 3537 
Q 2597 3491 2834 3397 
z
" transform="scale(0.015625)"/>
      <path id="DejaVuSans-75" d="M 544 1381 
L 544 3500 
L 1119 3500 
L 1119 1403 
Q 1119 906 1312 657 
Q 1506 409 1894 409 
Q 2359 409 2629 706 
Q 2900 1003 2900 1516 
L 2900 3500 
L 3475 3500 
L 3475 0 
L 2900 0 
L 2900 538 
Q 2691 219 2414 64 
Q 2138 -91 1772 -91 
Q 1169 -91 856 284 
Q 544 659 544 1381 
z
M 1991 3584 
L 1991 3584 
z
" transform="scale(0.015625)"/>
      <path id="DejaVuSans-62" d="M 3116 1747 
Q 3116 2381 2855 2742 
Q 2594 3103 2138 3103 
Q 1681 3103 1420 2742 
Q 1159 2381 1159 1747 
Q 1159 1113 1420 752 
Q 1681 391 2138 391 
Q 2594 391 2855 752 
Q 3116 1113 3116 1747 
z
M 1159 2969 
Q 1341 3281 1617 3432 
Q 1894 3584 2278 3584 
Q 2916 3584 3314 3078 
Q 3713 2572 3713 1747 
Q 3713 922 3314 415 
Q 2916 -91 2278 -91 
Q 1894 -91 1617 61 
Q 1341 213 1159 525 
L 1159 0 
L 581 0 
L 581 4863 
L 1159 4863 
L 1159 2969 
z
" transform="scale(0.015625)"/>
      <path id="DejaVuSans-63" d="M 3122 3366 
L 3122 2828 
Q 2878 2963 2633 3030 
Q 2388 3097 2138 3097 
Q 1578 3097 1268 2742 
Q 959 2388 959 1747 
Q 959 1106 1268 751 
Q 1578 397 2138 397 
Q 2388 397 2633 464 
Q 2878 531 3122 666 
L 3122 134 
Q 2881 22 2623 -34 
Q 2366 -91 2075 -91 
Q 1284 -91 818 406 
Q 353 903 353 1747 
Q 353 2603 823 3093 
Q 1294 3584 2113 3584 
Q 2378 3584 2631 3529 
Q 2884 3475 3122 3366 
z
" transform="scale(0.015625)"/>
      <path id="DejaVuSans-72" d="M 2631 2963 
Q 2534 3019 2420 3045 
Q 2306 3072 2169 3072 
Q 1681 3072 1420 2755 
Q 1159 2438 1159 1844 
L 1159 0 
L 581 0 
L 581 3500 
L 1159 3500 
L 1159 2956 
Q 1341 3275 1631 3429 
Q 1922 3584 2338 3584 
Q 2397 3584 2469 3576 
Q 2541 3569 2628 3553 
L 2631 2963 
z
" transform="scale(0.015625)"/>
      <path id="DejaVuSans-69" d="M 603 3500 
L 1178 3500 
L 1178 0 
L 603 0 
L 603 3500 
z
M 603 4863 
L 1178 4863 
L 1178 4134 
L 603 4134 
L 603 4863 
z
" transform="scale(0.015625)"/>
      <path id="DejaVuSans-20" transform="scale(0.015625)"/>
      <path id="DejaVuSans-68" d="M 3513 2113 
L 3513 0 
L 2938 0 
L 2938 2094 
Q 2938 2591 2744 2837 
Q 2550 3084 2163 3084 
Q 1697 3084 1428 2787 
Q 1159 2491 1159 1978 
L 1159 0 
L 581 0 
L 581 4863 
L 1159 4863 
L 1159 2956 
Q 1366 3272 1645 3428 
Q 1925 3584 2291 3584 
Q 2894 3584 3203 3211 
Q 3513 2838 3513 2113 
z
" transform="scale(0.015625)"/>
      <path id="DejaVuSans-6f" d="M 1959 3097 
Q 1497 3097 1228 2736 
Q 959 2375 959 1747 
Q 959 1119 1226 758 
Q 1494 397 1959 397 
Q 2419 397 2687 759 
Q 2956 1122 2956 1747 
Q 2956 2369 2687 2733 
Q 2419 3097 1959 3097 
z
M 1959 3584 
Q 2709 3584 3137 3096 
Q 3566 2609 3566 1747 
Q 3566 888 3137 398 
Q 2709 -91 1959 -91 
Q 1206 -91 779 398 
Q 353 888 353 1747 
Q 353 2609 779 3096 
Q 1206 3584 1959 3584 
z
" transform="scale(0.015625)"/>
      <path id="DejaVuSans-79" d="M 2059 -325 
Q 1816 -950 1584 -1140 
Q 1353 -1331 966 -1331 
L 506 -1331 
L 506 -850 
L 844 -850 
Q 1081 -850 1212 -737 
Q 1344 -625 1503 -206 
L 1606 56 
L 191 3500 
L 800 3500 
L 1894 763 
L 2988 3500 
L 3597 3500 
L 2059 -325 
z
" transform="scale(0.015625)"/>
     </defs>
     <use xlink:href="#DejaVuSans-67"/>
     <use xlink:href="#DejaVuSans-65" transform="translate(63.476562 0)"/>
     <use xlink:href="#DejaVuSans-74" transform="translate(125 0)"/>
     <use xlink:href="#DejaVuSans-5f" transform="translate(164.208984 0)"/>
     <use xlink:href="#DejaVuSans-73" transform="translate(214.208984 0)"/>
     <use xlink:href="#DejaVuSans-75" transform="translate(266.308594 0)"/>
     <use xlink:href="#DejaVuSans-62" transform="translate(329.6875 0)"/>
     <use xlink:href="#DejaVuSans-73" transform="translate(393.164062 0)"/>
     <use xlink:href="#DejaVuSans-63" transform="translate(445.263672 0)"/>
     <use xlink:href="#DejaVuSans-72" transform="translate(500.244141 0)"/>
     <use xlink:href="#DejaVuSans-69" transform="translate(541.357422 0)"/>
     <use xlink:href="#DejaVuSans-62" transform="translate(569.140625 0)"/>
     <use xlink:href="#DejaVuSans-65" transform="translate(632.617188 0)"/>
     <use xlink:href="#DejaVuSans-20" transform="translate(694.140625 0)"/>
     <use xlink:href="#DejaVuSans-68" transform="translate(725.927734 0)"/>
     <use xlink:href="#DejaVuSans-69" transform="translate(789.306641 0)"/>
     <use xlink:href="#DejaVuSans-73" transform="translate(817.089844 0)"/>
     <use xlink:href="#DejaVuSans-74" transform="translate(869.189453 0)"/>
     <use xlink:href="#DejaVuSans-6f" transform="translate(908.398438 0)"/>
     <use xlink:href="#DejaVuSans-72" transform="translate(969.580078 0)"/>
     <use xlink:href="#DejaVuSans-79" transform="translate(1010.693359 0)"/>
    </g>
   </g>
   <g id="legend_1">
    <g id="line2d_41">
     <path d="M 815.08 328.498438 
L 825.08 328.498438 
L 835.08 328.498438 
" style="fill: none; stroke: #1f77b4; stroke-width: 1.5; stroke-linecap: square"/>
    </g>
    <g id="text_21">
     <!-- star -->
     <g style="fill: #a9a9a9" transform="translate(843.08 331.998438) scale(0.1 -0.1)">
      <defs>
       <path id="DejaVuSans-61" d="M 2194 1759 
Q 1497 1759 1228 1600 
Q 959 1441 959 1056 
Q 959 750 1161 570 
Q 1363 391 1709 391 
Q 2188 391 2477 730 
Q 2766 1069 2766 1631 
L 2766 1759 
L 2194 1759 
z
M 3341 1997 
L 3341 0 
L 2766 0 
L 2766 531 
Q 2569 213 2275 61 
Q 1981 -91 1556 -91 
Q 1019 -91 701 211 
Q 384 513 384 1019 
Q 384 1609 779 1909 
Q 1175 2209 1959 2209 
L 2766 2209 
L 2766 2266 
Q 2766 2663 2505 2880 
Q 2244 3097 1772 3097 
Q 1472 3097 1187 3025 
Q 903 2953 641 2809 
L 641 3341 
Q 956 3463 1253 3523 
Q 1550 3584 1831 3584 
Q 2591 3584 2966 3190 
Q 3341 2797 3341 1997 
z
" transform="scale(0.015625)"/>
      </defs>
      <use xlink:href="#DejaVuSans-73"/>
      <use xlink:href="#DejaVuSans-74" transform="translate(52.099609 0)"/>
      <use xlink:href="#DejaVuSans-61" transform="translate(91.308594 0)"/>
      <use xlink:href="#DejaVuSans-72" transform="translate(152.587891 0)"/>
     </g>
    </g>
    <g id="line2d_42">
     <path d="M 815.08 343.176562 
L 825.08 343.176562 
L 835.08 343.176562 
" style="fill: none; stroke: #ff7f0e; stroke-width: 1.5; stroke-linecap: square"/>
    </g>
    <g id="text_22">
     <!-- fork -->
     <g style="fill: #a9a9a9" transform="translate(843.08 346.676562) scale(0.1 -0.1)">
      <defs>
       <path id="DejaVuSans-66" d="M 2375 4863 
L 2375 4384 
L 1825 4384 
Q 1516 4384 1395 4259 
Q 1275 4134 1275 3809 
L 1275 3500 
L 2222 3500 
L 2222 3053 
L 1275 3053 
L 1275 0 
L 697 0 
L 697 3053 
L 147 3053 
L 147 3500 
L 697 3500 
L 697 3744 
Q 697 4328 969 4595 
Q 1241 4863 1831 4863 
L 2375 4863 
z
" transform="scale(0.015625)"/>
       <path id="DejaVuSans-6b" d="M 581 4863 
L 1159 4863 
L 1159 1991 
L 2875 3500 
L 3609 3500 
L 1753 1863 
L 3688 0 
L 2938 0 
L 1159 1709 
L 1159 0 
L 581 0 
L 581 4863 
z
" transform="scale(0.015625)"/>
      </defs>
      <use xlink:href="#DejaVuSans-66"/>
      <use xlink:href="#DejaVuSans-6f" transform="translate(35.205078 0)"/>
      <use xlink:href="#DejaVuSans-72" transform="translate(96.386719 0)"/>
      <use xlink:href="#DejaVuSans-6b" transform="translate(137.5 0)"/>
     </g>
    </g>
   </g>
  </g>
 </g>
 <defs>
  <clipPath id="p8341da5cae">
   <rect x="108" y="43.2" width="669.6" height="277.2"/>
  </clipPath>
 </defs>
</svg>
