<?xml version="1.0" encoding="utf-8" standalone="no"?>
<!DOCTYPE svg PUBLIC "-//W3C//DTD SVG 1.1//EN"
  "http://www.w3.org/Graphics/SVG/1.1/DTD/svg11.dtd">
<svg xmlns:xlink="http://www.w3.org/1999/xlink" width="864pt" height="360pt" viewBox="0 0 864 360" xmlns="http://www.w3.org/2000/svg" version="1.1">
 <metadata>
  <rdf:RDF xmlns:dc="http://purl.org/dc/elements/1.1/" xmlns:cc="http://creativecommons.org/ns#" xmlns:rdf="http://www.w3.org/1999/02/22-rdf-syntax-ns#">
   <cc:Work>
    <dc:type rdf:resource="http://purl.org/dc/dcmitype/StillImage"/>
    <dc:date>2025-12-22T20:08:11.581124</dc:date>
    <dc:format>image/svg+xml</dc:format>
    <dc:creator>
     <cc:Agent>
      <dc:title>Matplotlib v3.10.8, https://matplotlib.org/</dc:title>
     </cc:Agent>
    </dc:creator>
   </cc:Work>
  </rdf:RDF>
 </metadata>
 <defs>
  <style type="text/css">*{stroke-linejoin: round; stroke-linecap: butt}</style>
 </defs>
 <g id="figure_1">
  <g id="patch_1">
   <path d="M 0 360 
L 864 360 
L 864 0 
L 0 0 
L 0 360 
z
" style="fill: none; opacity: 0"/>
  </g>
  <g id="axes_1">
   <g id="patch_2">
    <path d="M 108 320.4 
L 777.6 320.4 
L 777.6 43.2 
L 108 43.2 
L 108 320.4 
z
" style="fill: none; opacity: 0"/>
   </g>
   <g id="matplotlib.axis_1">
    <g id="xtick_1">
     <g id="line2d_1">
      <path d="M 129.751049 320.4 
L 129.751049 43.2 
" clip-path="url(#p766c475ca7)" style="fill: none; stroke-dasharray: 5.12,1.28,0.8,1.28; stroke-dashoffset: 0; stroke: #b0b0b0; stroke-width: 0.8"/>
     </g>
     <g id="line2d_2">
      <defs>
       <path id="md71727db05" d="M 0 0 
L 0 3.5 
" style="stroke: #a9a9a9; stroke-width: 0.8"/>
      </defs>
      <g>
       <use xlink:href="#md71727db05" x="129.751049" y="320.4" style="fill: #a9a9a9; stroke: #a9a9a9; stroke-width: 0.8"/>
      </g>
     </g>
     <g id="text_1">
      <!-- 2021-07 -->
      <g style="fill: #a9a9a9" transform="translate(108.859643 334.998438) scale(0.1 -0.1)">
       <defs>
        <path id="DejaVuSans-32" d="M 1228 531 
L 3431 531 
L 3431 0 
L 469 0 
L 469 531 
Q 828 903 1448 1529 
Q 2069 2156 2228 2338 
Q 2531 2678 2651 2914 
Q 2772 3150 2772 3378 
Q 2772 3750 2511 3984 
Q 2250 4219 1831 4219 
Q 1534 4219 1204 4116 
Q 875 4013 500 3803 
L 500 4441 
Q 881 4594 1212 4672 
Q 1544 4750 1819 4750 
Q 2544 4750 2975 4387 
Q 3406 4025 3406 3419 
Q 3406 3131 3298 2873 
Q 3191 2616 2906 2266 
Q 2828 2175 2409 1742 
Q 1991 1309 1228 531 
z
" transform="scale(0.015625)"/>
        <path id="DejaVuSans-30" d="M 2034 4250 
Q 1547 4250 1301 3770 
Q 1056 3291 1056 2328 
Q 1056 1369 1301 889 
Q 1547 409 2034 409 
Q 2525 409 2770 889 
Q 3016 1369 3016 2328 
Q 3016 3291 2770 3770 
Q 2525 4250 2034 4250 
z
M 2034 4750 
Q 2819 4750 3233 4129 
Q 3647 3509 3647 2328 
Q 3647 1150 3233 529 
Q 2819 -91 2034 -91 
Q 1250 -91 836 529 
Q 422 1150 422 2328 
Q 422 3509 836 4129 
Q 1250 4750 2034 4750 
z
" transform="scale(0.015625)"/>
        <path id="DejaVuSans-31" d="M 794 531 
L 1825 531 
L 1825 4091 
L 703 3866 
L 703 4441 
L 1819 4666 
L 2450 4666 
L 2450 531 
L 3481 531 
L 3481 0 
L 794 0 
L 794 531 
z
" transform="scale(0.015625)"/>
        <path id="DejaVuSans-2d" d="M 313 2009 
L 1997 2009 
L 1997 1497 
L 313 1497 
L 313 2009 
z
" transform="scale(0.015625)"/>
        <path id="DejaVuSans-37" d="M 525 4666 
L 3525 4666 
L 3525 4397 
L 1831 0 
L 1172 0 
L 2766 4134 
L 525 4134 
L 525 4666 
z
" transform="scale(0.015625)"/>
       </defs>
       <use xlink:href="#DejaVuSans-32"/>
       <use xlink:href="#DejaVuSans-30" transform="translate(63.623047 0)"/>
       <use xlink:href="#DejaVuSans-32" transform="translate(127.246094 0)"/>
       <use xlink:href="#DejaVuSans-31" transform="translate(190.869141 0)"/>
       <use xlink:href="#DejaVuSans-2d" transform="translate(254.492188 0)"/>
       <use xlink:href="#DejaVuSans-30" transform="translate(290.576172 0)"/>
       <use xlink:href="#DejaVuSans-37" transform="translate(354.199219 0)"/>
      </g>
     </g>
    </g>
    <g id="xtick_2">
     <g id="line2d_3">
      <path d="M 199.233566 320.4 
L 199.233566 43.2 
" clip-path="url(#p766c475ca7)" style="fill: none; stroke-dasharray: 5.12,1.28,0.8,1.28; stroke-dashoffset: 0; stroke: #b0b0b0; stroke-width: 0.8"/>
     </g>
     <g id="line2d_4">
      <g>
       <use xlink:href="#md71727db05" x="199.233566" y="320.4" style="fill: #a9a9a9; stroke: #a9a9a9; stroke-width: 0.8"/>
      </g>
     </g>
     <g id="text_2">
      <!-- 2022-01 -->
      <g style="fill: #a9a9a9" transform="translate(178.34216 334.998438) scale(0.1 -0.1)">
       <use xlink:href="#DejaVuSans-32"/>
       <use xlink:href="#DejaVuSans-30" transform="translate(63.623047 0)"/>
       <use xlink:href="#DejaVuSans-32" transform="translate(127.246094 0)"/>
       <use xlink:href="#DejaVuSans-32" transform="translate(190.869141 0)"/>
       <use xlink:href="#DejaVuSans-2d" transform="translate(254.492188 0)"/>
       <use xlink:href="#DejaVuSans-30" transform="translate(290.576172 0)"/>
       <use xlink:href="#DejaVuSans-31" transform="translate(354.199219 0)"/>
      </g>
     </g>
    </g>
    <g id="xtick_3">
     <g id="line2d_5">
      <path d="M 267.583217 320.4 
L 267.583217 43.2 
" clip-path="url(#p766c475ca7)" style="fill: none; stroke-dasharray: 5.12,1.28,0.8,1.28; stroke-dashoffset: 0; stroke: #b0b0b0; stroke-width: 0.8"/>
     </g>
     <g id="line2d_6">
      <g>
       <use xlink:href="#md71727db05" x="267.583217" y="320.4" style="fill: #a9a9a9; stroke: #a9a9a9; stroke-width: 0.8"/>
      </g>
     </g>
     <g id="text_3">
      <!-- 2022-07 -->
      <g style="fill: #a9a9a9" transform="translate(246.691811 334.998438) scale(0.1 -0.1)">
       <use xlink:href="#DejaVuSans-32"/>
       <use xlink:href="#DejaVuSans-30" transform="translate(63.623047 0)"/>
       <use xlink:href="#DejaVuSans-32" transform="translate(127.246094 0)"/>
       <use xlink:href="#DejaVuSans-32" transform="translate(190.869141 0)"/>
       <use xlink:href="#DejaVuSans-2d" transform="translate(254.492188 0)"/>
       <use xlink:href="#DejaVuSans-30" transform="translate(290.576172 0)"/>
       <use xlink:href="#DejaVuSans-37" transform="translate(354.199219 0)"/>
      </g>
     </g>
    </g>
    <g id="xtick_4">
     <g id="line2d_7">
      <path d="M 337.065734 320.4 
L 337.065734 43.2 
" clip-path="url(#p766c475ca7)" style="fill: none; stroke-dasharray: 5.12,1.28,0.8,1.28; stroke-dashoffset: 0; stroke: #b0b0b0; stroke-width: 0.8"/>
     </g>
     <g id="line2d_8">
      <g>
       <use xlink:href="#md71727db05" x="337.065734" y="320.4" style="fill: #a9a9a9; stroke: #a9a9a9; stroke-width: 0.8"/>
      </g>
     </g>
     <g id="text_4">
      <!-- 2023-01 -->
      <g style="fill: #a9a9a9" transform="translate(316.174328 334.998438) scale(0.1 -0.1)">
       <defs>
        <path id="DejaVuSans-33" d="M 2597 2516 
Q 3050 2419 3304 2112 
Q 3559 1806 3559 1356 
Q 3559 666 3084 287 
Q 2609 -91 1734 -91 
Q 1441 -91 1130 -33 
Q 819 25 488 141 
L 488 750 
Q 750 597 1062 519 
Q 1375 441 1716 441 
Q 2309 441 2620 675 
Q 2931 909 2931 1356 
Q 2931 1769 2642 2001 
Q 2353 2234 1838 2234 
L 1294 2234 
L 1294 2753 
L 1863 2753 
Q 2328 2753 2575 2939 
Q 2822 3125 2822 3475 
Q 2822 3834 2567 4026 
Q 2313 4219 1838 4219 
Q 1578 4219 1281 4162 
Q 984 4106 628 3988 
L 628 4550 
Q 988 4650 1302 4700 
Q 1616 4750 1894 4750 
Q 2613 4750 3031 4423 
Q 3450 4097 3450 3541 
Q 3450 3153 3228 2886 
Q 3006 2619 2597 2516 
z
" transform="scale(0.015625)"/>
       </defs>
       <use xlink:href="#DejaVuSans-32"/>
       <use xlink:href="#DejaVuSans-30" transform="translate(63.623047 0)"/>
       <use xlink:href="#DejaVuSans-32" transform="translate(127.246094 0)"/>
       <use xlink:href="#DejaVuSans-33" transform="translate(190.869141 0)"/>
       <use xlink:href="#DejaVuSans-2d" transform="translate(254.492188 0)"/>
       <use xlink:href="#DejaVuSans-30" transform="translate(290.576172 0)"/>
       <use xlink:href="#DejaVuSans-31" transform="translate(354.199219 0)"/>
      </g>
     </g>
    </g>
    <g id="xtick_5">
     <g id="line2d_9">
      <path d="M 405.415385 320.4 
L 405.415385 43.2 
" clip-path="url(#p766c475ca7)" style="fill: none; stroke-dasharray: 5.12,1.28,0.8,1.28; stroke-dashoffset: 0; stroke: #b0b0b0; stroke-width: 0.8"/>
     </g>
     <g id="line2d_10">
      <g>
       <use xlink:href="#md71727db05" x="405.415385" y="320.4" style="fill: #a9a9a9; stroke: #a9a9a9; stroke-width: 0.8"/>
      </g>
     </g>
     <g id="text_5">
      <!-- 2023-07 -->
      <g style="fill: #a9a9a9" transform="translate(384.523978 334.998438) scale(0.1 -0.1)">
       <use xlink:href="#DejaVuSans-32"/>
       <use xlink:href="#DejaVuSans-30" transform="translate(63.623047 0)"/>
       <use xlink:href="#DejaVuSans-32" transform="translate(127.246094 0)"/>
       <use xlink:href="#DejaVuSans-33" transform="translate(190.869141 0)"/>
       <use xlink:href="#DejaVuSans-2d" transform="translate(254.492188 0)"/>
       <use xlink:href="#DejaVuSans-30" transform="translate(290.576172 0)"/>
       <use xlink:href="#DejaVuSans-37" transform="translate(354.199219 0)"/>
      </g>
     </g>
    </g>
    <g id="xtick_6">
     <g id="line2d_11">
      <path d="M 474.897902 320.4 
L 474.897902 43.2 
" clip-path="url(#p766c475ca7)" style="fill: none; stroke-dasharray: 5.12,1.28,0.8,1.28; stroke-dashoffset: 0; stroke: #b0b0b0; stroke-width: 0.8"/>
     </g>
     <g id="line2d_12">
      <g>
       <use xlink:href="#md71727db05" x="474.897902" y="320.4" style="fill: #a9a9a9; stroke: #a9a9a9; stroke-width: 0.8"/>
      </g>
     </g>
     <g id="text_6">
      <!-- 2024-01 -->
      <g style="fill: #a9a9a9" transform="translate(454.006496 334.998438) scale(0.1 -0.1)">
       <defs>
        <path id="DejaVuSans-34" d="M 2419 4116 
L 825 1625 
L 2419 1625 
L 2419 4116 
z
M 2253 4666 
L 3047 4666 
L 3047 1625 
L 3713 1625 
L 3713 1100 
L 3047 1100 
L 3047 0 
L 2419 0 
L 2419 1100 
L 313 1100 
L 313 1709 
L 2253 4666 
z
" transform="scale(0.015625)"/>
       </defs>
       <use xlink:href="#DejaVuSans-32"/>
       <use xlink:href="#DejaVuSans-30" transform="translate(63.623047 0)"/>
       <use xlink:href="#DejaVuSans-32" transform="translate(127.246094 0)"/>
       <use xlink:href="#DejaVuSans-34" transform="translate(190.869141 0)"/>
       <use xlink:href="#DejaVuSans-2d" transform="translate(254.492188 0)"/>
       <use xlink:href="#DejaVuSans-30" transform="translate(290.576172 0)"/>
       <use xlink:href="#DejaVuSans-31" transform="translate(354.199219 0)"/>
      </g>
     </g>
    </g>
    <g id="xtick_7">
     <g id="line2d_13">
      <path d="M 543.625175 320.4 
L 543.625175 43.2 
" clip-path="url(#p766c475ca7)" style="fill: none; stroke-dasharray: 5.12,1.28,0.8,1.28; stroke-dashoffset: 0; stroke: #b0b0b0; stroke-width: 0.8"/>
     </g>
     <g id="line2d_14">
      <g>
       <use xlink:href="#md71727db05" x="543.625175" y="320.4" style="fill: #a9a9a9; stroke: #a9a9a9; stroke-width: 0.8"/>
      </g>
     </g>
     <g id="text_7">
      <!-- 2024-07 -->
      <g style="fill: #a9a9a9" transform="translate(522.733769 334.998438) scale(0.1 -0.1)">
       <use xlink:href="#DejaVuSans-32"/>
       <use xlink:href="#DejaVuSans-30" transform="translate(63.623047 0)"/>
       <use xlink:href="#DejaVuSans-32" transform="translate(127.246094 0)"/>
       <use xlink:href="#DejaVuSans-34" transform="translate(190.869141 0)"/>
       <use xlink:href="#DejaVuSans-2d" transform="translate(254.492188 0)"/>
       <use xlink:href="#DejaVuSans-30" transform="translate(290.576172 0)"/>
       <use xlink:href="#DejaVuSans-37" transform="translate(354.199219 0)"/>
      </g>
     </g>
    </g>
    <g id="xtick_8">
     <g id="line2d_15">
      <path d="M 613.107692 320.4 
L 613.107692 43.2 
" clip-path="url(#p766c475ca7)" style="fill: none; stroke-dasharray: 5.12,1.28,0.8,1.28; stroke-dashoffset: 0; stroke: #b0b0b0; stroke-width: 0.8"/>
     </g>
     <g id="line2d_16">
      <g>
       <use xlink:href="#md71727db05" x="613.107692" y="320.4" style="fill: #a9a9a9; stroke: #a9a9a9; stroke-width: 0.8"/>
      </g>
     </g>
     <g id="text_8">
      <!-- 2025-01 -->
      <g style="fill: #a9a9a9" transform="translate(592.216286 334.998438) scale(0.1 -0.1)">
       <defs>
        <path id="DejaVuSans-35" d="M 691 4666 
L 3169 4666 
L 3169 4134 
L 1269 4134 
L 1269 2991 
Q 1406 3038 1543 3061 
Q 1681 3084 1819 3084 
Q 2600 3084 3056 2656 
Q 3513 2228 3513 1497 
Q 3513 744 3044 326 
Q 2575 -91 1722 -91 
Q 1428 -91 1123 -41 
Q 819 9 494 109 
L 494 744 
Q 775 591 1075 516 
Q 1375 441 1709 441 
Q 2250 441 2565 725 
Q 2881 1009 2881 1497 
Q 2881 1984 2565 2268 
Q 2250 2553 1709 2553 
Q 1456 2553 1204 2497 
Q 953 2441 691 2322 
L 691 4666 
z
" transform="scale(0.015625)"/>
       </defs>
       <use xlink:href="#DejaVuSans-32"/>
       <use xlink:href="#DejaVuSans-30" transform="translate(63.623047 0)"/>
       <use xlink:href="#DejaVuSans-32" transform="translate(127.246094 0)"/>
       <use xlink:href="#DejaVuSans-35" transform="translate(190.869141 0)"/>
       <use xlink:href="#DejaVuSans-2d" transform="translate(254.492188 0)"/>
       <use xlink:href="#DejaVuSans-30" transform="translate(290.576172 0)"/>
       <use xlink:href="#DejaVuSans-31" transform="translate(354.199219 0)"/>
      </g>
     </g>
    </g>
    <g id="xtick_9">
     <g id="line2d_17">
      <path d="M 681.457343 320.4 
L 681.457343 43.2 
" clip-path="url(#p766c475ca7)" style="fill: none; stroke-dasharray: 5.12,1.28,0.8,1.28; stroke-dashoffset: 0; stroke: #b0b0b0; stroke-width: 0.8"/>
     </g>
     <g id="line2d_18">
      <g>
       <use xlink:href="#md71727db05" x="681.457343" y="320.4" style="fill: #a9a9a9; stroke: #a9a9a9; stroke-width: 0.8"/>
      </g>
     </g>
     <g id="text_9">
      <!-- 2025-07 -->
      <g style="fill: #a9a9a9" transform="translate(660.565936 334.998438) scale(0.1 -0.1)">
       <use xlink:href="#DejaVuSans-32"/>
       <use xlink:href="#DejaVuSans-30" transform="translate(63.623047 0)"/>
       <use xlink:href="#DejaVuSans-32" transform="translate(127.246094 0)"/>
       <use xlink:href="#DejaVuSans-35" transform="translate(190.869141 0)"/>
       <use xlink:href="#DejaVuSans-2d" transform="translate(254.492188 0)"/>
       <use xlink:href="#DejaVuSans-30" transform="translate(290.576172 0)"/>
       <use xlink:href="#DejaVuSans-37" transform="translate(354.199219 0)"/>
      </g>
     </g>
    </g>
    <g id="xtick_10">
     <g id="line2d_19">
      <path d="M 750.93986 320.4 
L 750.93986 43.2 
" clip-path="url(#p766c475ca7)" style="fill: none; stroke-dasharray: 5.12,1.28,0.8,1.28; stroke-dashoffset: 0; stroke: #b0b0b0; stroke-width: 0.8"/>
     </g>
     <g id="line2d_20">
      <g>
       <use xlink:href="#md71727db05" x="750.93986" y="320.4" style="fill: #a9a9a9; stroke: #a9a9a9; stroke-width: 0.8"/>
      </g>
     </g>
     <g id="text_10">
      <!-- 2026-01 -->
      <g style="fill: #a9a9a9" transform="translate(730.048454 334.998438) scale(0.1 -0.1)">
       <defs>
        <path id="DejaVuSans-36" d="M 2113 2584 
Q 1688 2584 1439 2293 
Q 1191 2003 1191 1497 
Q 1191 994 1439 701 
Q 1688 409 2113 409 
Q 2538 409 2786 701 
Q 3034 994 3034 1497 
Q 3034 2003 2786 2293 
Q 2538 2584 2113 2584 
z
M 3366 4563 
L 3366 3988 
Q 3128 4100 2886 4159 
Q 2644 4219 2406 4219 
Q 1781 4219 1451 3797 
Q 1122 3375 1075 2522 
Q 1259 2794 1537 2939 
Q 1816 3084 2150 3084 
Q 2853 3084 3261 2657 
Q 3669 2231 3669 1497 
Q 3669 778 3244 343 
Q 2819 -91 2113 -91 
Q 1303 -91 875 529 
Q 447 1150 447 2328 
Q 447 3434 972 4092 
Q 1497 4750 2381 4750 
Q 2619 4750 2861 4703 
Q 3103 4656 3366 4563 
z
" transform="scale(0.015625)"/>
       </defs>
       <use xlink:href="#DejaVuSans-32"/>
       <use xlink:href="#DejaVuSans-30" transform="translate(63.623047 0)"/>
       <use xlink:href="#DejaVuSans-32" transform="translate(127.246094 0)"/>
       <use xlink:href="#DejaVuSans-36" transform="translate(190.869141 0)"/>
       <use xlink:href="#DejaVuSans-2d" transform="translate(254.492188 0)"/>
       <use xlink:href="#DejaVuSans-30" transform="translate(290.576172 0)"/>
       <use xlink:href="#DejaVuSans-31" transform="translate(354.199219 0)"/>
      </g>
     </g>
    </g>
   </g>
   <g id="matplotlib.axis_2">
    <g id="ytick_1">
     <g id="line2d_21">
      <path d="M 108 307.829777 
L 777.6 307.829777 
" clip-path="url(#p766c475ca7)" style="fill: none; stroke-dasharray: 5.12,1.28,0.8,1.28; stroke-dashoffset: 0; stroke: #b0b0b0; stroke-width: 0.8"/>
     </g>
     <g id="line2d_22">
      <defs>
       <path id="m49c1d6cee6" d="M 0 0 
L -3.5 0 
" style="stroke: #a9a9a9; stroke-width: 0.8"/>
      </defs>
      <g>
       <use xlink:href="#m49c1d6cee6" x="108" y="307.829777" style="fill: #a9a9a9; stroke: #a9a9a9; stroke-width: 0.8"/>
      </g>
     </g>
     <g id="text_11">
      <!-- 0 -->
      <g style="fill: #a9a9a9" transform="translate(94.6375 311.628995) scale(0.1 -0.1)">
       <use xlink:href="#DejaVuSans-30"/>
      </g>
     </g>
    </g>
    <g id="ytick_2">
     <g id="line2d_23">
      <path d="M 108 278.053102 
L 777.6 278.053102 
" clip-path="url(#p766c475ca7)" style="fill: none; stroke-dasharray: 5.12,1.28,0.8,1.28; stroke-dashoffset: 0; stroke: #b0b0b0; stroke-width: 0.8"/>
     </g>
     <g id="line2d_24">
      <g>
       <use xlink:href="#m49c1d6cee6" x="108" y="278.053102" style="fill: #a9a9a9; stroke: #a9a9a9; stroke-width: 0.8"/>
      </g>
     </g>
     <g id="text_12">
      <!-- 1000 -->
      <g style="fill: #a9a9a9" transform="translate(75.55 281.85232) scale(0.1 -0.1)">
       <use xlink:href="#DejaVuSans-31"/>
       <use xlink:href="#DejaVuSans-30" transform="translate(63.623047 0)"/>
       <use xlink:href="#DejaVuSans-30" transform="translate(127.246094 0)"/>
       <use xlink:href="#DejaVuSans-30" transform="translate(190.869141 0)"/>
      </g>
     </g>
    </g>
    <g id="ytick_3">
     <g id="line2d_25">
      <path d="M 108 248.276427 
L 777.6 248.276427 
" clip-path="url(#p766c475ca7)" style="fill: none; stroke-dasharray: 5.12,1.28,0.8,1.28; stroke-dashoffset: 0; stroke: #b0b0b0; stroke-width: 0.8"/>
     </g>
     <g id="line2d_26">
      <g>
       <use xlink:href="#m49c1d6cee6" x="108" y="248.276427" style="fill: #a9a9a9; stroke: #a9a9a9; stroke-width: 0.8"/>
      </g>
     </g>
     <g id="text_13">
      <!-- 2000 -->
      <g style="fill: #a9a9a9" transform="translate(75.55 252.075646) scale(0.1 -0.1)">
       <use xlink:href="#DejaVuSans-32"/>
       <use xlink:href="#DejaVuSans-30" transform="translate(63.623047 0)"/>
       <use xlink:href="#DejaVuSans-30" transform="translate(127.246094 0)"/>
       <use xlink:href="#DejaVuSans-30" transform="translate(190.869141 0)"/>
      </g>
     </g>
    </g>
    <g id="ytick_4">
     <g id="line2d_27">
      <path d="M 108 218.499752 
L 777.6 218.499752 
" clip-path="url(#p766c475ca7)" style="fill: none; stroke-dasharray: 5.12,1.28,0.8,1.28; stroke-dashoffset: 0; stroke: #b0b0b0; stroke-width: 0.8"/>
     </g>
     <g id="line2d_28">
      <g>
       <use xlink:href="#m49c1d6cee6" x="108" y="218.499752" style="fill: #a9a9a9; stroke: #a9a9a9; stroke-width: 0.8"/>
      </g>
     </g>
     <g id="text_14">
      <!-- 3000 -->
      <g style="fill: #a9a9a9" transform="translate(75.55 222.298971) scale(0.1 -0.1)">
       <use xlink:href="#DejaVuSans-33"/>
       <use xlink:href="#DejaVuSans-30" transform="translate(63.623047 0)"/>
       <use xlink:href="#DejaVuSans-30" transform="translate(127.246094 0)"/>
       <use xlink:href="#DejaVuSans-30" transform="translate(190.869141 0)"/>
      </g>
     </g>
    </g>
    <g id="ytick_5">
     <g id="line2d_29">
      <path d="M 108 188.723077 
L 777.6 188.723077 
" clip-path="url(#p766c475ca7)" style="fill: none; stroke-dasharray: 5.12,1.28,0.8,1.28; stroke-dashoffset: 0; stroke: #b0b0b0; stroke-width: 0.8"/>
     </g>
     <g id="line2d_30">
      <g>
       <use xlink:href="#m49c1d6cee6" x="108" y="188.723077" style="fill: #a9a9a9; stroke: #a9a9a9; stroke-width: 0.8"/>
      </g>
     </g>
     <g id="text_15">
      <!-- 4000 -->
      <g style="fill: #a9a9a9" transform="translate(75.55 192.522296) scale(0.1 -0.1)">
       <use xlink:href="#DejaVuSans-34"/>
       <use xlink:href="#DejaVuSans-30" transform="translate(63.623047 0)"/>
       <use xlink:href="#DejaVuSans-30" transform="translate(127.246094 0)"/>
       <use xlink:href="#DejaVuSans-30" transform="translate(190.869141 0)"/>
      </g>
     </g>
    </g>
    <g id="ytick_6">
     <g id="line2d_31">
      <path d="M 108 158.946402 
L 777.6 158.946402 
" clip-path="url(#p766c475ca7)" style="fill: none; stroke-dasharray: 5.12,1.28,0.8,1.28; stroke-dashoffset: 0; stroke: #b0b0b0; stroke-width: 0.8"/>
     </g>
     <g id="line2d_32">
      <g>
       <use xlink:href="#m49c1d6cee6" x="108" y="158.946402" style="fill: #a9a9a9; stroke: #a9a9a9; stroke-width: 0.8"/>
      </g>
     </g>
     <g id="text_16">
      <!-- 5000 -->
      <g style="fill: #a9a9a9" transform="translate(75.55 162.745621) scale(0.1 -0.1)">
       <use xlink:href="#DejaVuSans-35"/>
       <use xlink:href="#DejaVuSans-30" transform="translate(63.623047 0)"/>
       <use xlink:href="#DejaVuSans-30" transform="translate(127.246094 0)"/>
       <use xlink:href="#DejaVuSans-30" transform="translate(190.869141 0)"/>
      </g>
     </g>
    </g>
    <g id="ytick_7">
     <g id="line2d_33">
      <path d="M 108 129.169727 
L 777.6 129.169727 
" clip-path="url(#p766c475ca7)" style="fill: none; stroke-dasharray: 5.12,1.28,0.8,1.28; stroke-dashoffset: 0; stroke: #b0b0b0; stroke-width: 0.8"/>
     </g>
     <g id="line2d_34">
      <g>
       <use xlink:href="#m49c1d6cee6" x="108" y="129.169727" style="fill: #a9a9a9; stroke: #a9a9a9; stroke-width: 0.8"/>
      </g>
     </g>
     <g id="text_17">
      <!-- 6000 -->
      <g style="fill: #a9a9a9" transform="translate(75.55 132.968946) scale(0.1 -0.1)">
       <use xlink:href="#DejaVuSans-36"/>
       <use xlink:href="#DejaVuSans-30" transform="translate(63.623047 0)"/>
       <use xlink:href="#DejaVuSans-30" transform="translate(127.246094 0)"/>
       <use xlink:href="#DejaVuSans-30" transform="translate(190.869141 0)"/>
      </g>
     </g>
    </g>
    <g id="ytick_8">
     <g id="line2d_35">
      <path d="M 108 99.393052 
L 777.6 99.393052 
" clip-path="url(#p766c475ca7)" style="fill: none; stroke-dasharray: 5.12,1.28,0.8,1.28; stroke-dashoffset: 0; stroke: #b0b0b0; stroke-width: 0.8"/>
     </g>
     <g id="line2d_36">
      <g>
       <use xlink:href="#m49c1d6cee6" x="108" y="99.393052" style="fill: #a9a9a9; stroke: #a9a9a9; stroke-width: 0.8"/>
      </g>
     </g>
     <g id="text_18">
      <!-- 7000 -->
      <g style="fill: #a9a9a9" transform="translate(75.55 103.192271) scale(0.1 -0.1)">
       <use xlink:href="#DejaVuSans-37"/>
       <use xlink:href="#DejaVuSans-30" transform="translate(63.623047 0)"/>
       <use xlink:href="#DejaVuSans-30" transform="translate(127.246094 0)"/>
       <use xlink:href="#DejaVuSans-30" transform="translate(190.869141 0)"/>
      </g>
     </g>
    </g>
    <g id="ytick_9">
     <g id="line2d_37">
      <path d="M 108 69.616377 
L 777.6 69.616377 
" clip-path="url(#p766c475ca7)" style="fill: none; stroke-dasharray: 5.12,1.28,0.8,1.28; stroke-dashoffset: 0; stroke: #b0b0b0; stroke-width: 0.8"/>
     </g>
     <g id="line2d_38">
      <g>
       <use xlink:href="#m49c1d6cee6" x="108" y="69.616377" style="fill: #a9a9a9; stroke: #a9a9a9; stroke-width: 0.8"/>
      </g>
     </g>
     <g id="text_19">
      <!-- 8000 -->
      <g style="fill: #a9a9a9" transform="translate(75.55 73.415596) scale(0.1 -0.1)">
       <defs>
        <path id="DejaVuSans-38" d="M 2034 2216 
Q 1584 2216 1326 1975 
Q 1069 1734 1069 1313 
Q 1069 891 1326 650 
Q 1584 409 2034 409 
Q 2484 409 2743 651 
Q 3003 894 3003 1313 
Q 3003 1734 2745 1975 
Q 2488 2216 2034 2216 
z
M 1403 2484 
Q 997 2584 770 2862 
Q 544 3141 544 3541 
Q 544 4100 942 4425 
Q 1341 4750 2034 4750 
Q 2731 4750 3128 4425 
Q 3525 4100 3525 3541 
Q 3525 3141 3298 2862 
Q 3072 2584 2669 2484 
Q 3125 2378 3379 2068 
Q 3634 1759 3634 1313 
Q 3634 634 3220 271 
Q 2806 -91 2034 -91 
Q 1263 -91 848 271 
Q 434 634 434 1313 
Q 434 1759 690 2068 
Q 947 2378 1403 2484 
z
M 1172 3481 
Q 1172 3119 1398 2916 
Q 1625 2713 2034 2713 
Q 2441 2713 2670 2916 
Q 2900 3119 2900 3481 
Q 2900 3844 2670 4047 
Q 2441 4250 2034 4250 
Q 1625 4250 1398 4047 
Q 1172 3844 1172 3481 
z
" transform="scale(0.015625)"/>
       </defs>
       <use xlink:href="#DejaVuSans-38"/>
       <use xlink:href="#DejaVuSans-30" transform="translate(63.623047 0)"/>
       <use xlink:href="#DejaVuSans-30" transform="translate(127.246094 0)"/>
       <use xlink:href="#DejaVuSans-30" transform="translate(190.869141 0)"/>
      </g>
     </g>
    </g>
   </g>
   <g id="line2d_39">
    <path d="M 138.436364 307.740447 
L 140.702098 307.53201 
L 141.07972 307.35335 
L 142.59021 307.144913 
L 144.100699 306.81737 
L 144.855944 306.698263 
L 146.744056 306.519603 
L 147.499301 306.221836 
L 147.876923 305.685856 
L 148.254545 305.417866 
L 148.632168 304.524566 
L 149.00979 304.465012 
L 149.765035 303.988586 
L 150.52028 303.422829 
L 152.030769 302.291315 
L 152.408392 302.142432 
L 153.163636 301.666005 
L 154.296503 301.100248 
L 154.674126 300.445161 
L 155.429371 299.849628 
L 156.184615 299.611414 
L 157.317483 299.432754 
L 159.583217 299.075434 
L 159.960839 298.896774 
L 162.604196 298.658561 
L 164.114685 298.271464 
L 167.135664 297.824814 
L 167.513287 297.616377 
L 167.890909 297.556824 
L 168.646154 297.288834 
L 171.28951 296.812407 
L 172.044755 296.574194 
L 175.443357 295.97866 
L 176.198601 295.8 
L 177.709091 295.591563 
L 178.464336 295.35335 
L 178.841958 294.787593 
L 179.974825 294.311166 
L 181.107692 293.983623 
L 181.485315 293.775186 
L 182.240559 293.626303 
L 183.751049 293.149876 
L 184.506294 293.090323 
L 185.261538 292.881886 
L 186.772028 292.465012 
L 187.14965 292.435236 
L 187.904895 292.048139 
L 188.282517 291.988586 
L 188.66014 291.780149 
L 192.813986 291.065509 
L 194.324476 290.589082 
L 194.702098 290.321092 
L 196.59021 289.666005 
L 197.345455 289.100248 
L 198.478322 288.862035 
L 203.387413 287.373201 
L 203.765035 287.313648 
L 205.275524 286.688337 
L 205.653147 286.628784 
L 206.408392 286.301241 
L 207.163636 286.271464 
L 208.296503 285.914144 
L 208.674126 285.914144 
L 209.051748 285.735484 
L 209.806993 285.646154 
L 210.184615 285.49727 
L 212.072727 285.40794 
L 212.45035 285.31861 
L 213.205594 284.901737 
L 214.338462 284.484864 
L 215.093706 284.06799 
L 216.226573 283.561787 
L 217.737063 282.787593 
L 218.114685 282.340943 
L 218.86993 281.090323 
L 219.247552 280.971216 
L 219.625175 280.971216 
L 221.135664 280.107692 
L 221.513287 280.018362 
L 221.890909 279.631266 
L 222.646154 279.303722 
L 223.401399 278.946402 
L 225.667133 276.236725 
L 226.044755 276.117618 
L 227.932867 274.807444 
L 228.688112 274.271464 
L 229.065734 273.705707 
L 229.443357 272.78263 
L 229.820979 272.187097 
L 230.198601 271.859553 
L 230.576224 271.680893 
L 235.107692 267.482382 
L 236.618182 266.499752 
L 237.373427 266.082878 
L 238.883916 265.219355 
L 240.772028 263.373201 
L 241.527273 263.045658 
L 242.282517 262.509677 
L 242.66014 262.271464 
L 243.037762 262.211911 
L 244.170629 261.527047 
L 244.548252 261.080397 
L 246.436364 259.97866 
L 246.813986 259.829777 
L 247.946853 258.99603 
L 253.611189 256.852109 
L 254.366434 256.107692 
L 255.499301 255.512159 
L 256.254545 255.005955 
L 257.00979 254.767742 
L 257.387413 254.499752 
L 257.765035 254.380645 
L 258.897902 253.576675 
L 260.786014 253.130025 
L 261.918881 252.415385 
L 263.051748 252.147395 
L 263.429371 252.058065 
L 264.562238 251.194541 
L 266.072727 250.747891 
L 266.45035 250.420347 
L 268.716084 249.5866 
L 269.471329 249.437717 
L 270.226573 249.110174 
L 272.86993 248.097767 
L 273.625175 248.008437 
L 274.758042 247.591563 
L 276.646154 246.608933 
L 278.911888 245.268983 
L 279.667133 245.060546 
L 280.8 244.465012 
L 281.555245 244.316129 
L 282.31049 243.839702 
L 283.065734 243.631266 
L 284.198601 243.154839 
L 285.709091 242.946402 
L 286.464336 242.529529 
L 286.841958 242.172208 
L 287.21958 241.457568 
L 288.73007 241.010918 
L 290.240559 240.296278 
L 293.639161 238.718114 
L 294.394406 238.539454 
L 295.527273 237.943921 
L 295.904895 237.884367 
L 297.793007 236.901737 
L 298.548252 236.395533 
L 299.681119 236.15732 
L 302.324476 235.26402 
L 308.366434 232.375682 
L 308.744056 231.958809 
L 309.121678 231.720596 
L 309.499301 231.631266 
L 310.254545 230.976179 
L 310.632168 230.916625 
L 311.00979 230.261538 
L 311.387413 230.112655 
L 311.765035 229.785112 
L 312.142657 229.725558 
L 312.897902 229.219355 
L 313.653147 228.981141 
L 314.030769 228.683375 
L 314.786014 228.266501 
L 315.918881 227.551861 
L 317.051748 226.956328 
L 317.806993 226.747891 
L 318.562238 226.301241 
L 318.93986 225.616377 
L 319.695105 225.020844 
L 320.072727 224.931514 
L 322.338462 223.8 
L 323.093706 223.472457 
L 323.848951 222.9067 
L 324.981818 221.804963 
L 325.737063 221.328536 
L 326.114685 220.881886 
L 327.625175 219.809926 
L 328.38042 219.005955 
L 329.513287 218.440199 
L 330.268531 217.993548 
L 330.646154 217.874442 
L 331.023776 217.576675 
L 331.401399 217.517122 
L 334.8 215.730521 
L 335.555245 215.522084 
L 337.065734 214.986104 
L 337.443357 214.658561 
L 338.953846 214.033251 
L 339.331469 213.914144 
L 340.086713 213.40794 
L 340.841958 213.080397 
L 341.597203 212.51464 
L 342.352448 210.936476 
L 343.107692 210.043176 
L 344.240559 209.417866 
L 344.995804 209.090323 
L 345.373427 209.030769 
L 346.128671 208.673449 
L 347.639161 208.137469 
L 348.394406 207.690819 
L 349.14965 207.333499 
L 349.527273 207.214392 
L 351.793007 205.785112 
L 352.170629 205.338462 
L 353.303497 204.653598 
L 353.681119 204.504715 
L 354.436364 204.028288 
L 355.946853 203.164764 
L 356.324476 203.075434 
L 356.702098 202.747891 
L 359.345455 201.854591 
L 359.723077 201.5866 
L 360.478322 201.348387 
L 363.499301 199.859553 
L 364.254545 199.44268 
L 364.632168 199.26402 
L 365.387413 198.63871 
L 366.142657 198.430273 
L 366.52028 198.072953 
L 366.897902 198.0134 
L 367.653147 197.417866 
L 369.541259 196.256576 
L 370.296503 196.018362 
L 370.674126 195.780149 
L 371.051748 195.720596 
L 372.562238 194.976179 
L 373.695105 194.589082 
L 374.45035 194.469975 
L 375.960839 193.874442 
L 376.338462 193.844665 
L 378.226573 192.981141 
L 378.981818 192.445161 
L 379.737063 192.028288 
L 381.247552 191.283871 
L 382.38042 190.509677 
L 383.135664 190.331017 
L 384.268531 189.616377 
L 385.401399 189.199504 
L 386.156643 188.931514 
L 387.667133 188.395533 
L 388.422378 188.127543 
L 389.932867 187.8 
L 390.688112 187.561787 
L 392.576224 186.9067 
L 393.709091 186.54938 
L 394.464336 186.37072 
L 396.73007 185.953846 
L 397.485315 185.804963 
L 398.618182 185.536973 
L 398.995804 185.358313 
L 399.751049 185.209429 
L 400.506294 185.000993 
L 401.261538 184.643672 
L 401.639161 184.494789 
L 402.016783 184.494789 
L 406.170629 183.154839 
L 406.548252 182.946402 
L 406.925874 182.946402 
L 407.681119 182.648635 
L 408.058741 182.231762 
L 410.324476 181.249132 
L 411.834965 180.713151 
L 412.212587 180.474938 
L 413.345455 180.117618 
L 414.100699 179.909181 
L 414.478322 179.641191 
L 414.855944 179.551861 
L 415.233566 179.224318 
L 416.366434 178.986104 
L 417.121678 178.628784 
L 417.499301 178.152357 
L 421.653147 177.199504 
L 422.030769 177.199504 
L 422.786014 176.96129 
L 426.184615 176.097767 
L 426.93986 175.919107 
L 430.716084 174.81737 
L 431.093706 174.72804 
L 431.471329 174.519603 
L 432.226573 174.311166 
L 432.981818 173.983623 
L 433.737063 173.685856 
L 434.114685 173.417866 
L 434.86993 173.179653 
L 437.890909 172.107692 
L 438.646154 172.048139 
L 440.156643 171.601489 
L 440.534266 171.363275 
L 441.28951 171.125062 
L 443.555245 170.172208 
L 448.086713 168.504715 
L 449.974825 167.849628 
L 450.73007 167.611414 
L 451.485315 167.402978 
L 452.995804 166.122581 
L 455.639161 164.96129 
L 458.282517 163.8 
L 459.037762 163.591563 
L 462.436364 161.894293 
L 463.191608 161.447643 
L 466.59021 159.780149 
L 466.967832 159.482382 
L 471.499301 157.725558 
L 472.254545 157.606452 
L 472.632168 157.338462 
L 474.142657 157.040695 
L 474.897902 156.713151 
L 476.786014 155.790074 
L 481.695105 153.556824 
L 482.827972 153.169727 
L 483.205594 152.901737 
L 483.960839 152.812407 
L 484.338462 152.544417 
L 485.093706 152.42531 
L 490.002797 150.608933 
L 491.135664 150.340943 
L 492.646154 149.685856 
L 493.401399 149.268983 
L 494.911888 148.465012 
L 495.667133 148.286352 
L 496.044755 148.048139 
L 496.422378 147.958809 
L 498.31049 147.005955 
L 503.21958 145.130025 
L 503.597203 145.070471 
L 505.107692 144.326055 
L 505.862937 144.177171 
L 506.618182 143.730521 
L 508.128671 142.986104 
L 511.904895 141.437717 
L 512.66014 141.05062 
L 513.037762 140.96129 
L 513.793007 140.663524 
L 514.170629 140.663524 
L 514.925874 140.306203 
L 516.436364 138.99603 
L 516.813986 138.876923 
L 517.191608 138.63871 
L 518.324476 138.311166 
L 518.702098 138.0134 
L 519.457343 137.745409 
L 520.59021 136.971216 
L 521.345455 136.762779 
L 522.100699 136.345906 
L 523.233566 136.077916 
L 529.275524 133.576675 
L 531.163636 132.802481 
L 533.051748 132.206948 
L 534.184615 131.462531 
L 534.562238 131.373201 
L 535.317483 130.986104 
L 536.072727 130.747891 
L 536.45035 130.390571 
L 537.583217 129.943921 
L 537.960839 129.884367 
L 539.471329 129.169727 
L 540.604196 128.812407 
L 541.737063 128.395533 
L 542.86993 128.06799 
L 543.247552 128.008437 
L 544.002797 127.591563 
L 544.38042 127.44268 
L 544.758042 127.144913 
L 545.890909 126.847146 
L 546.646154 126.54938 
L 547.401399 126.221836 
L 548.911888 125.596526 
L 551.555245 124.881886 
L 552.31049 124.584119 
L 553.820979 124.286352 
L 554.576224 124.137469 
L 555.709091 123.690819 
L 556.841958 123.452605 
L 559.107692 122.082878 
L 560.240559 121.368238 
L 562.506294 120.653598 
L 562.883916 120.355831 
L 565.904895 119.254094 
L 567.037762 118.896774 
L 567.793007 118.479901 
L 568.548252 118.271464 
L 568.925874 118.063027 
L 569.681119 117.914144 
L 571.191608 117.31861 
L 571.946853 116.812407 
L 573.07972 116.51464 
L 574.212587 115.740447 
L 574.59021 115.680893 
L 576.100699 115.055583 
L 577.611189 114.668486 
L 577.988811 114.608933 
L 578.366434 114.430273 
L 578.744056 114.400496 
L 579.499301 114.132506 
L 579.876923 114.10273 
L 581.00979 113.656079 
L 582.52028 113.209429 
L 583.275524 112.613896 
L 584.786014 111.750372 
L 585.163636 111.661042 
L 585.541259 111.452605 
L 585.918881 111.393052 
L 589.317483 109.666005 
L 589.695105 109.308685 
L 591.583217 108.832258 
L 592.716084 108.296278 
L 593.471329 108.087841 
L 593.848951 107.909181 
L 594.226573 107.581638 
L 596.114685 106.896774 
L 601.023776 105.05062 
L 601.779021 104.901737 
L 603.667133 104.276427 
L 604.8 103.770223 
L 607.443357 102.966253 
L 608.198601 102.519603 
L 621.037762 98.529529 
L 621.793007 98.321092 
L 622.925874 97.904218 
L 623.303497 97.904218 
L 624.436364 97.636228 
L 625.191608 97.487345 
L 625.946853 97.278908 
L 627.07972 96.653598 
L 628.212587 96.296278 
L 630.855944 95.373201 
L 632.366434 94.599007 
L 633.499301 94.331017 
L 634.254545 94.092804 
L 635.00979 93.705707 
L 635.387413 93.378164 
L 636.142657 93.13995 
L 636.52028 92.901737 
L 637.275524 92.812407 
L 639.918881 92.038213 
L 641.051748 91.8 
L 642.184615 91.502233 
L 642.93986 91.323573 
L 644.072727 90.72804 
L 648.981818 88.852109 
L 649.737063 88.733002 
L 650.492308 88.584119 
L 650.86993 88.584119 
L 652.002797 88.226799 
L 653.135664 87.869479 
L 656.534266 86.886849 
L 657.28951 86.678412 
L 657.667133 86.589082 
L 658.044755 86.350868 
L 658.8 86.201985 
L 659.555245 86.112655 
L 659.932867 85.904218 
L 660.31049 85.874442 
L 661.443357 85.338462 
L 662.576224 85.070471 
L 663.331469 84.742928 
L 665.597203 83.938958 
L 665.974825 83.879404 
L 666.73007 83.611414 
L 671.261538 82.450124 
L 673.527273 81.675931 
L 674.282517 81.616377 
L 676.548252 81.05062 
L 677.303497 80.723077 
L 677.681119 80.663524 
L 678.058741 80.484864 
L 678.813986 79.829777 
L 682.59021 78.430273 
L 684.855944 77.834739 
L 685.611189 77.417866 
L 685.988811 77.328536 
L 687.121678 76.703226 
L 687.499301 76.613896 
L 687.876923 76.316129 
L 689.00979 75.988586 
L 695.051748 73.249132 
L 695.429371 73.189578 
L 697.695105 72.028288 
L 698.072727 71.790074 
L 699.205594 71.462531 
L 700.716084 70.837221 
L 701.093706 70.807444 
L 702.981818 70.092804 
L 703.737063 69.943921 
L 704.492308 69.378164 
L 704.86993 69.378164 
L 706.38042 68.842184 
L 707.890909 68.544417 
L 709.401399 67.88933 
L 709.779021 67.88933 
L 710.911888 67.502233 
L 711.667133 67.383127 
L 712.8 66.72804 
L 713.555245 66.340943 
L 715.443357 65.715633 
L 716.198601 65.388089 
L 718.086713 64.881886 
L 720.352448 64.256576 
L 724.883916 62.916625 
L 727.904895 62.142432 
L 729.415385 61.427792 
L 730.548252 61.070471 
L 733.191608 60.534491 
L 733.946853 60.415385 
L 736.59021 59.492308 
L 737.345455 59.254094 
L 738.100699 58.956328 
L 738.855944 58.896774 
L 739.233566 58.599007 
L 739.988811 58.360794 
L 740.366434 58.360794 
L 741.499301 57.973697 
L 742.254545 57.675931 
L 743.00979 57.527047 
L 745.275524 56.544417 
L 745.653147 56.484864 
L 746.786014 55.97866 
L 747.163636 55.8 
L 747.163636 55.8 
" clip-path="url(#p766c475ca7)" style="fill: none; stroke: #1f77b4; stroke-width: 1.5; stroke-linecap: square"/>
   </g>
   <g id="line2d_40">
    <path d="M 138.813986 307.8 
L 142.212587 307.71067 
L 145.233566 307.561787 
L 146.744056 307.561787 
L 147.121678 307.44268 
L 149.00979 307.35335 
L 151.275524 307.08536 
L 153.541259 306.99603 
L 154.296503 306.9067 
L 156.93986 306.787593 
L 159.583217 306.698263 
L 161.471329 306.63871 
L 166.38042 306.54938 
L 168.268531 306.489826 
L 171.667133 306.400496 
L 173.177622 306.37072 
L 176.953846 306.28139 
L 178.464336 306.132506 
L 179.974825 306.10273 
L 182.240559 306.0134 
L 183.751049 305.983623 
L 185.639161 305.924069 
L 187.14965 305.775186 
L 190.548252 305.685856 
L 191.303497 305.626303 
L 192.813986 305.536973 
L 195.07972 305.447643 
L 196.59021 305.358313 
L 203.387413 304.911663 
L 206.030769 304.822333 
L 207.163636 304.703226 
L 209.051748 304.613896 
L 212.827972 304.405459 
L 216.604196 304.345906 
L 218.114685 304.167246 
L 220.002797 304.077916 
L 223.779021 303.690819 
L 226.044755 303.393052 
L 227.555245 303.333499 
L 230.576224 302.916625 
L 232.841958 302.857072 
L 233.974825 302.737965 
L 235.107692 302.648635 
L 254.744056 301.189578 
L 257.387413 301.100248 
L 258.897902 300.921588 
L 260.786014 300.832258 
L 263.051748 300.742928 
L 264.93986 300.653598 
L 266.45035 300.623821 
L 268.338462 300.564268 
L 269.093706 300.474938 
L 274.38042 300.385608 
L 275.135664 300.296278 
L 279.667133 300.206948 
L 283.065734 300.028288 
L 285.709091 299.938958 
L 287.21958 299.760298 
L 289.862937 299.670968 
L 290.618182 299.551861 
L 292.506294 299.492308 
L 296.282517 299.432754 
L 297.793007 299.283871 
L 299.303497 299.254094 
L 300.436364 299.164764 
L 301.946853 299.015881 
L 305.723077 298.807444 
L 309.499301 298.718114 
L 312.897902 298.539454 
L 314.030769 298.509677 
L 314.786014 298.390571 
L 316.674126 298.301241 
L 317.429371 298.241687 
L 319.317483 298.152357 
L 320.827972 298.122581 
L 323.471329 298.033251 
L 333.28951 297.348387 
L 335.555245 297.259057 
L 337.443357 297.199504 
L 342.73007 297.110174 
L 343.485315 297.020844 
L 348.772028 296.931514 
L 352.548252 296.723077 
L 353.303497 296.6933 
L 354.058741 296.60397 
L 355.946853 296.51464 
L 357.834965 296.455087 
L 359.723077 296.365757 
L 361.611189 296.306203 
L 365.00979 296.216873 
L 367.275524 296.127543 
L 372.562238 296.038213 
L 376.716084 295.8 
L 378.226573 295.740447 
L 379.359441 295.651117 
L 384.646154 295.561787 
L 386.911888 295.472457 
L 393.709091 295.383127 
L 395.21958 295.35335 
L 399.751049 295.293797 
L 400.506294 295.234243 
L 405.793007 295.144913 
L 407.303497 295.115136 
L 417.121678 295.025806 
L 419.387413 294.936476 
L 435.247552 294.847146 
L 437.135664 294.787593 
L 446.953846 294.72804 
L 447.709091 294.668486 
L 449.597203 294.608933 
L 450.73007 294.489826 
L 452.995804 294.400496 
L 455.639161 294.28139 
L 459.037762 294.19206 
L 460.925874 294.132506 
L 463.569231 294.043176 
L 466.59021 293.894293 
L 468.478322 293.804963 
L 469.988811 293.775186 
L 476.408392 293.685856 
L 478.674126 293.596526 
L 482.827972 293.507196 
L 485.471329 293.388089 
L 488.114685 293.328536 
L 488.86993 293.268983 
L 497.932867 293.179653 
L 501.709091 292.971216 
L 504.352448 292.881886 
L 508.506294 292.643672 
L 511.14965 292.554342 
L 512.66014 292.524566 
L 515.303497 292.435236 
L 517.191608 292.226799 
L 520.967832 292.137469 
L 521.723077 292.048139 
L 525.499301 291.958809 
L 527.387413 291.899256 
L 531.541259 291.869479 
L 532.296503 291.780149 
L 536.45035 291.690819 
L 537.205594 291.631266 
L 545.513287 291.541935 
L 547.779021 291.452605 
L 553.443357 291.363275 
L 554.953846 291.333499 
L 558.352448 291.273945 
L 559.107692 291.184615 
L 564.016783 291.095285 
L 565.904895 291.035732 
L 572.702098 290.946402 
L 573.834965 290.857072 
L 574.967832 290.767742 
L 576.100699 290.678412 
L 581.765035 290.589082 
L 584.030769 290.499752 
L 594.981818 290.410422 
L 598.38042 290.231762 
L 603.667133 290.142432 
L 605.177622 290.112655 
L 609.709091 290.023325 
L 611.597203 289.963772 
L 619.527273 289.874442 
L 622.170629 289.755335 
L 628.967832 289.666005 
L 630.478322 289.636228 
L 634.254545 289.546898 
L 636.897902 289.427792 
L 641.051748 289.338462 
L 643.695105 289.219355 
L 647.093706 289.159801 
L 647.848951 289.100248 
L 656.156643 289.010918 
L 658.422378 288.921588 
L 661.065734 288.832258 
L 662.953846 288.772705 
L 673.904895 288.683375 
L 676.170629 288.594045 
L 682.212587 288.504715 
L 684.478322 288.415385 
L 689.387413 288.326055 
L 691.653147 288.236725 
L 694.674126 288.147395 
L 696.93986 288.058065 
L 712.044755 287.968734 
L 715.065734 287.819851 
L 723.751049 287.730521 
L 725.261538 287.700744 
L 734.324476 287.611414 
L 736.212587 287.551861 
L 747.163636 287.492308 
L 747.163636 287.492308 
" clip-path="url(#p766c475ca7)" style="fill: none; stroke: #ff7f0e; stroke-width: 1.5; stroke-linecap: square"/>
   </g>
   <g id="patch_3">
    <path d="M 108 320.4 
L 108 43.2 
" style="fill: none; stroke: #a9a9a9; stroke-width: 0.8; stroke-linejoin: miter; stroke-linecap: square"/>
   </g>
   <g id="patch_4">
    <path d="M 777.6 320.4 
L 777.6 43.2 
" style="fill: none"/>
   </g>
   <g id="patch_5">
    <path d="M 108 320.4 
L 777.6 320.4 
" style="fill: none; stroke: #a9a9a9; stroke-width: 0.8; stroke-linejoin: miter; stroke-linecap: square"/>
   </g>
   <g id="patch_6">
    <path d="M 108 43.2 
L 777.6 43.2 
" style="fill: none"/>
   </g>
   <g id="text_20">
    <!-- get_subscribe history -->
    <g style="fill: #a9a9a9" transform="translate(378.6075 37.2) scale(0.12 -0.12)">
     <defs>
      <path id="DejaVuSans-67" d="M 2906 1791 
Q 2906 2416 2648 2759 
Q 2391 3103 1925 3103 
Q 1463 3103 1205 2759 
Q 947 2416 947 1791 
Q 947 1169 1205 825 
Q 1463 481 1925 481 
Q 2391 481 2648 825 
Q 2906 1169 2906 1791 
z
M 3481 434 
Q 3481 -459 3084 -895 
Q 2688 -1331 1869 -1331 
Q 1566 -1331 1297 -1286 
Q 1028 -1241 775 -1147 
L 775 -588 
Q 1028 -725 1275 -790 
Q 1522 -856 1778 -856 
Q 2344 -856 2625 -561 
Q 2906 -266 2906 331 
L 2906 616 
Q 2728 306 2450 153 
Q 2172 0 1784 0 
Q 1141 0 747 490 
Q 353 981 353 1791 
Q 353 2603 747 3093 
Q 1141 3584 1784 3584 
Q 2172 3584 2450 3431 
Q 2728 3278 2906 2969 
L 2906 3500 
L 3481 3500 
L 3481 434 
z
" transform="scale(0.015625)"/>
      <path id="DejaVuSans-65" d="M 3597 1894 
L 3597 1613 
L 953 1613 
Q 991 1019 1311 708 
Q 1631 397 2203 397 
Q 2534 397 2845 478 
Q 3156 559 3463 722 
L 3463 178 
Q 3153 47 2828 -22 
Q 2503 -91 2169 -91 
Q 1331 -91 842 396 
Q 353 884 353 1716 
Q 353 2575 817 3079 
Q 1281 3584 2069 3584 
Q 2775 3584 3186 3129 
Q 3597 2675 3597 1894 
z
M 3022 2063 
Q 3016 2534 2758 2815 
Q 2500 3097 2075 3097 
Q 1594 3097 1305 2825 
Q 1016 2553 972 2059 
L 3022 2063 
z
" transform="scale(0.015625)"/>
      <path id="DejaVuSans-74" d="M 1172 4494 
L 1172 3500 
L 2356 3500 
L 2356 3053 
L 1172 3053 
L 1172 1153 
Q 1172 725 1289 603 
Q 1406 481 1766 481 
L 2356 481 
L 2356 0 
L 1766 0 
Q 1100 0 847 248 
Q 594 497 594 1153 
L 594 3053 
L 172 3053 
L 172 3500 
L 594 3500 
L 594 4494 
L 1172 4494 
z
" transform="scale(0.015625)"/>
      <path id="DejaVuSans-5f" d="M 3263 -1063 
L 3263 -1509 
L -63 -1509 
L -63 -1063 
L 3263 -1063 
z
" transform="scale(0.015625)"/>
      <path id="DejaVuSans-73" d="M 2834 3397 
L 2834 2853 
Q 2591 2978 2328 3040 
Q 2066 3103 1784 3103 
Q 1356 3103 1142 2972 
Q 928 2841 928 2578 
Q 928 2378 1081 2264 
Q 1234 2150 1697 2047 
L 1894 2003 
Q 2506 1872 2764 1633 
Q 3022 1394 3022 966 
Q 3022 478 2636 193 
Q 2250 -91 1575 -91 
Q 1294 -91 989 -36 
Q 684 19 347 128 
L 347 722 
Q 666 556 975 473 
Q 1284 391 1588 391 
Q 1994 391 2212 530 
Q 2431 669 2431 922 
Q 2431 1156 2273 1281 
Q 2116 1406 1581 1522 
L 1381 1569 
Q 847 1681 609 1914 
Q 372 2147 372 2553 
Q 372 3047 722 3315 
Q 1072 3584 1716 3584 
Q 2034 3584 2315 3537 
Q 2597 3491 2834 3397 
z
" transform="scale(0.015625)"/>
      <path id="DejaVuSans-75" d="M 544 1381 
L 544 3500 
L 1119 3500 
L 1119 1403 
Q 1119 906 1312 657 
Q 1506 409 1894 409 
Q 2359 409 2629 706 
Q 2900 1003 2900 1516 
L 2900 3500 
L 3475 3500 
L 3475 0 
L 2900 0 
L 2900 538 
Q 2691 219 2414 64 
Q 2138 -91 1772 -91 
Q 1169 -91 856 284 
Q 544 659 544 1381 
z
M 1991 3584 
L 1991 3584 
z
" transform="scale(0.015625)"/>
      <path id="DejaVuSans-62" d="M 3116 1747 
Q 3116 2381 2855 2742 
Q 2594 3103 2138 3103 
Q 1681 3103 1420 2742 
Q 1159 2381 1159 1747 
Q 1159 1113 1420 752 
Q 1681 391 2138 391 
Q 2594 391 2855 752 
Q 3116 1113 3116 1747 
z
M 1159 2969 
Q 1341 3281 1617 3432 
Q 1894 3584 2278 3584 
Q 2916 3584 3314 3078 
Q 3713 2572 3713 1747 
Q 3713 922 3314 415 
Q 2916 -91 2278 -91 
Q 1894 -91 1617 61 
Q 1341 213 1159 525 
L 1159 0 
L 581 0 
L 581 4863 
L 1159 4863 
L 1159 2969 
z
" transform="scale(0.015625)"/>
      <path id="DejaVuSans-63" d="M 3122 3366 
L 3122 2828 
Q 2878 2963 2633 3030 
Q 2388 3097 2138 3097 
Q 1578 3097 1268 2742 
Q 959 2388 959 1747 
Q 959 1106 1268 751 
Q 1578 397 2138 397 
Q 2388 397 2633 464 
Q 2878 531 3122 666 
L 3122 134 
Q 2881 22 2623 -34 
Q 2366 -91 2075 -91 
Q 1284 -91 818 406 
Q 353 903 353 1747 
Q 353 2603 823 3093 
Q 1294 3584 2113 3584 
Q 2378 3584 2631 3529 
Q 2884 3475 3122 3366 
z
" transform="scale(0.015625)"/>
      <path id="DejaVuSans-72" d="M 2631 2963 
Q 2534 3019 2420 3045 
Q 2306 3072 2169 3072 
Q 1681 3072 1420 2755 
Q 1159 2438 1159 1844 
L 1159 0 
L 581 0 
L 581 3500 
L 1159 3500 
L 1159 2956 
Q 1341 3275 1631 3429 
Q 1922 3584 2338 3584 
Q 2397 3584 2469 3576 
Q 2541 3569 2628 3553 
L 2631 2963 
z
" transform="scale(0.015625)"/>
      <path id="DejaVuSans-69" d="M 603 3500 
L 1178 3500 
L 1178 0 
L 603 0 
L 603 3500 
z
M 603 4863 
L 1178 4863 
L 1178 4134 
L 603 4134 
L 603 4863 
z
" transform="scale(0.015625)"/>
      <path id="DejaVuSans-20" transform="scale(0.015625)"/>
      <path id="DejaVuSans-68" d="M 3513 2113 
L 3513 0 
L 2938 0 
L 2938 2094 
Q 2938 2591 2744 2837 
Q 2550 3084 2163 3084 
Q 1697 3084 1428 2787 
Q 1159 2491 1159 1978 
L 1159 0 
L 581 0 
L 581 4863 
L 1159 4863 
L 1159 2956 
Q 1366 3272 1645 3428 
Q 1925 3584 2291 3584 
Q 2894 3584 3203 3211 
Q 3513 2838 3513 2113 
z
" transform="scale(0.015625)"/>
      <path id="DejaVuSans-6f" d="M 1959 3097 
Q 1497 3097 1228 2736 
Q 959 2375 959 1747 
Q 959 1119 1226 758 
Q 1494 397 1959 397 
Q 2419 397 2687 759 
Q 2956 1122 2956 1747 
Q 2956 2369 2687 2733 
Q 2419 3097 1959 3097 
z
M 1959 3584 
Q 2709 3584 3137 3096 
Q 3566 2609 3566 1747 
Q 3566 888 3137 398 
Q 2709 -91 1959 -91 
Q 1206 -91 779 398 
Q 353 888 353 1747 
Q 353 2609 779 3096 
Q 1206 3584 1959 3584 
z
" transform="scale(0.015625)"/>
      <path id="DejaVuSans-79" d="M 2059 -325 
Q 1816 -950 1584 -1140 
Q 1353 -1331 966 -1331 
L 506 -1331 
L 506 -850 
L 844 -850 
Q 1081 -850 1212 -737 
Q 1344 -625 1503 -206 
L 1606 56 
L 191 3500 
L 800 3500 
L 1894 763 
L 2988 3500 
L 3597 3500 
L 2059 -325 
z
" transform="scale(0.015625)"/>
     </defs>
     <use xlink:href="#DejaVuSans-67"/>
     <use xlink:href="#DejaVuSans-65" transform="translate(63.476562 0)"/>
     <use xlink:href="#DejaVuSans-74" transform="translate(125 0)"/>
     <use xlink:href="#DejaVuSans-5f" transform="translate(164.208984 0)"/>
     <use xlink:href="#DejaVuSans-73" transform="translate(214.208984 0)"/>
     <use xlink:href="#DejaVuSans-75" transform="translate(266.308594 0)"/>
     <use xlink:href="#DejaVuSans-62" transform="translate(329.6875 0)"/>
     <use xlink:href="#DejaVuSans-73" transform="translate(393.164062 0)"/>
     <use xlink:href="#DejaVuSans-63" transform="translate(445.263672 0)"/>
     <use xlink:href="#DejaVuSans-72" transform="translate(500.244141 0)"/>
     <use xlink:href="#DejaVuSans-69" transform="translate(541.357422 0)"/>
     <use xlink:href="#DejaVuSans-62" transform="translate(569.140625 0)"/>
     <use xlink:href="#DejaVuSans-65" transform="translate(632.617188 0)"/>
     <use xlink:href="#DejaVuSans-20" transform="translate(694.140625 0)"/>
     <use xlink:href="#DejaVuSans-68" transform="translate(725.927734 0)"/>
     <use xlink:href="#DejaVuSans-69" transform="translate(789.306641 0)"/>
     <use xlink:href="#DejaVuSans-73" transform="translate(817.089844 0)"/>
     <use xlink:href="#DejaVuSans-74" transform="translate(869.189453 0)"/>
     <use xlink:href="#DejaVuSans-6f" transform="translate(908.398438 0)"/>
     <use xlink:href="#DejaVuSans-72" transform="translate(969.580078 0)"/>
     <use xlink:href="#DejaVuSans-79" transform="translate(1010.693359 0)"/>
    </g>
   </g>
   <g id="legend_1">
    <g id="line2d_41">
     <path d="M 815.08 328.498438 
L 825.08 328.498438 
L 835.08 328.498438 
" style="fill: none; stroke: #1f77b4; stroke-width: 1.5; stroke-linecap: square"/>
    </g>
    <g id="text_21">
     <!-- star -->
     <g style="fill: #a9a9a9" transform="translate(843.08 331.998438) scale(0.1 -0.1)">
      <defs>
       <path id="DejaVuSans-61" d="M 2194 1759 
Q 1497 1759 1228 1600 
Q 959 1441 959 1056 
Q 959 750 1161 570 
Q 1363 391 1709 391 
Q 2188 391 2477 730 
Q 2766 1069 2766 1631 
L 2766 1759 
L 2194 1759 
z
M 3341 1997 
L 3341 0 
L 2766 0 
L 2766 531 
Q 2569 213 2275 61 
Q 1981 -91 1556 -91 
Q 1019 -91 701 211 
Q 384 513 384 1019 
Q 384 1609 779 1909 
Q 1175 2209 1959 2209 
L 2766 2209 
L 2766 2266 
Q 2766 2663 2505 2880 
Q 2244 3097 1772 3097 
Q 1472 3097 1187 3025 
Q 903 2953 641 2809 
L 641 3341 
Q 956 3463 1253 3523 
Q 1550 3584 1831 3584 
Q 2591 3584 2966 3190 
Q 3341 2797 3341 1997 
z
" transform="scale(0.015625)"/>
      </defs>
      <use xlink:href="#DejaVuSans-73"/>
      <use xlink:href="#DejaVuSans-74" transform="translate(52.099609 0)"/>
      <use xlink:href="#DejaVuSans-61" transform="translate(91.308594 0)"/>
      <use xlink:href="#DejaVuSans-72" transform="translate(152.587891 0)"/>
     </g>
    </g>
    <g id="line2d_42">
     <path d="M 815.08 343.176562 
L 825.08 343.176562 
L 835.08 343.176562 
" style="fill: none; stroke: #ff7f0e; stroke-width: 1.5; stroke-linecap: square"/>
    </g>
    <g id="text_22">
     <!-- fork -->
     <g style="fill: #a9a9a9" transform="translate(843.08 346.676562) scale(0.1 -0.1)">
      <defs>
       <path id="DejaVuSans-66" d="M 2375 4863 
L 2375 4384 
L 1825 4384 
Q 1516 4384 1395 4259 
Q 1275 4134 1275 3809 
L 1275 3500 
L 2222 3500 
L 2222 3053 
L 1275 3053 
L 1275 0 
L 697 0 
L 697 3053 
L 147 3053 
L 147 3500 
L 697 3500 
L 697 3744 
Q 697 4328 969 4595 
Q 1241 4863 1831 4863 
L 2375 4863 
z
" transform="scale(0.015625)"/>
       <path id="DejaVuSans-6b" d="M 581 4863 
L 1159 4863 
L 1159 1991 
L 2875 3500 
L 3609 3500 
L 1753 1863 
L 3688 0 
L 2938 0 
L 1159 1709 
L 1159 0 
L 581 0 
L 581 4863 
z
" transform="scale(0.015625)"/>
      </defs>
      <use xlink:href="#DejaVuSans-66"/>
      <use xlink:href="#DejaVuSans-6f" transform="translate(35.205078 0)"/>
      <use xlink:href="#DejaVuSans-72" transform="translate(96.386719 0)"/>
      <use xlink:href="#DejaVuSans-6b" transform="translate(137.5 0)"/>
     </g>
    </g>
   </g>
  </g>
 </g>
 <defs>
  <clipPath id="p766c475ca7">
   <rect x="108" y="43.2" width="669.6" height="277.2"/>
  </clipPath>
 </defs>
</svg>
