<?xml version="1.0" encoding="utf-8" standalone="no"?>
<!DOCTYPE svg PUBLIC "-//W3C//DTD SVG 1.1//EN"
  "http://www.w3.org/Graphics/SVG/1.1/DTD/svg11.dtd">
<svg xmlns:xlink="http://www.w3.org/1999/xlink" width="864pt" height="360pt" viewBox="0 0 864 360" xmlns="http://www.w3.org/2000/svg" version="1.1">
 <metadata>
  <rdf:RDF xmlns:dc="http://purl.org/dc/elements/1.1/" xmlns:cc="http://creativecommons.org/ns#" xmlns:rdf="http://www.w3.org/1999/02/22-rdf-syntax-ns#">
   <cc:Work>
    <dc:type rdf:resource="http://purl.org/dc/dcmitype/StillImage"/>
    <dc:date>2025-12-25T08:17:13.307095</dc:date>
    <dc:format>image/svg+xml</dc:format>
    <dc:creator>
     <cc:Agent>
      <dc:title>Matplotlib v3.10.8, https://matplotlib.org/</dc:title>
     </cc:Agent>
    </dc:creator>
   </cc:Work>
  </rdf:RDF>
 </metadata>
 <defs>
  <style type="text/css">*{stroke-linejoin: round; stroke-linecap: butt}</style>
 </defs>
 <g id="figure_1">
  <g id="patch_1">
   <path d="M 0 360 
L 864 360 
L 864 0 
L 0 0 
L 0 360 
z
" style="fill: none; opacity: 0"/>
  </g>
  <g id="axes_1">
   <g id="patch_2">
    <path d="M 108 320.4 
L 777.6 320.4 
L 777.6 43.2 
L 108 43.2 
L 108 320.4 
z
" style="fill: none; opacity: 0"/>
   </g>
   <g id="matplotlib.axis_1">
    <g id="xtick_1">
     <g id="line2d_1">
      <path d="M 129.767183 320.4 
L 129.767183 43.2 
" clip-path="url(#pdf7f695a71)" style="fill: none; stroke-dasharray: 5.12,1.28,0.8,1.28; stroke-dashoffset: 0; stroke: #b0b0b0; stroke-width: 0.8"/>
     </g>
     <g id="line2d_2">
      <defs>
       <path id="m5563c16b27" d="M 0 0 
L 0 3.5 
" style="stroke: #a9a9a9; stroke-width: 0.8"/>
      </defs>
      <g>
       <use xlink:href="#m5563c16b27" x="129.767183" y="320.4" style="fill: #a9a9a9; stroke: #a9a9a9; stroke-width: 0.8"/>
      </g>
     </g>
     <g id="text_1">
      <!-- 2021-07 -->
      <g style="fill: #a9a9a9" transform="translate(108.875776 334.998438) scale(0.1 -0.1)">
       <defs>
        <path id="DejaVuSans-32" d="M 1228 531 
L 3431 531 
L 3431 0 
L 469 0 
L 469 531 
Q 828 903 1448 1529 
Q 2069 2156 2228 2338 
Q 2531 2678 2651 2914 
Q 2772 3150 2772 3378 
Q 2772 3750 2511 3984 
Q 2250 4219 1831 4219 
Q 1534 4219 1204 4116 
Q 875 4013 500 3803 
L 500 4441 
Q 881 4594 1212 4672 
Q 1544 4750 1819 4750 
Q 2544 4750 2975 4387 
Q 3406 4025 3406 3419 
Q 3406 3131 3298 2873 
Q 3191 2616 2906 2266 
Q 2828 2175 2409 1742 
Q 1991 1309 1228 531 
z
" transform="scale(0.015625)"/>
        <path id="DejaVuSans-30" d="M 2034 4250 
Q 1547 4250 1301 3770 
Q 1056 3291 1056 2328 
Q 1056 1369 1301 889 
Q 1547 409 2034 409 
Q 2525 409 2770 889 
Q 3016 1369 3016 2328 
Q 3016 3291 2770 3770 
Q 2525 4250 2034 4250 
z
M 2034 4750 
Q 2819 4750 3233 4129 
Q 3647 3509 3647 2328 
Q 3647 1150 3233 529 
Q 2819 -91 2034 -91 
Q 1250 -91 836 529 
Q 422 1150 422 2328 
Q 422 3509 836 4129 
Q 1250 4750 2034 4750 
z
" transform="scale(0.015625)"/>
        <path id="DejaVuSans-31" d="M 794 531 
L 1825 531 
L 1825 4091 
L 703 3866 
L 703 4441 
L 1819 4666 
L 2450 4666 
L 2450 531 
L 3481 531 
L 3481 0 
L 794 0 
L 794 531 
z
" transform="scale(0.015625)"/>
        <path id="DejaVuSans-2d" d="M 313 2009 
L 1997 2009 
L 1997 1497 
L 313 1497 
L 313 2009 
z
" transform="scale(0.015625)"/>
        <path id="DejaVuSans-37" d="M 525 4666 
L 3525 4666 
L 3525 4397 
L 1831 0 
L 1172 0 
L 2766 4134 
L 525 4134 
L 525 4666 
z
" transform="scale(0.015625)"/>
       </defs>
       <use xlink:href="#DejaVuSans-32"/>
       <use xlink:href="#DejaVuSans-30" transform="translate(63.623047 0)"/>
       <use xlink:href="#DejaVuSans-32" transform="translate(127.246094 0)"/>
       <use xlink:href="#DejaVuSans-31" transform="translate(190.869141 0)"/>
       <use xlink:href="#DejaVuSans-2d" transform="translate(254.492188 0)"/>
       <use xlink:href="#DejaVuSans-30" transform="translate(290.576172 0)"/>
       <use xlink:href="#DejaVuSans-37" transform="translate(354.199219 0)"/>
      </g>
     </g>
    </g>
    <g id="xtick_2">
     <g id="line2d_3">
      <path d="M 199.12063 320.4 
L 199.12063 43.2 
" clip-path="url(#pdf7f695a71)" style="fill: none; stroke-dasharray: 5.12,1.28,0.8,1.28; stroke-dashoffset: 0; stroke: #b0b0b0; stroke-width: 0.8"/>
     </g>
     <g id="line2d_4">
      <g>
       <use xlink:href="#m5563c16b27" x="199.12063" y="320.4" style="fill: #a9a9a9; stroke: #a9a9a9; stroke-width: 0.8"/>
      </g>
     </g>
     <g id="text_2">
      <!-- 2022-01 -->
      <g style="fill: #a9a9a9" transform="translate(178.229224 334.998438) scale(0.1 -0.1)">
       <use xlink:href="#DejaVuSans-32"/>
       <use xlink:href="#DejaVuSans-30" transform="translate(63.623047 0)"/>
       <use xlink:href="#DejaVuSans-32" transform="translate(127.246094 0)"/>
       <use xlink:href="#DejaVuSans-32" transform="translate(190.869141 0)"/>
       <use xlink:href="#DejaVuSans-2d" transform="translate(254.492188 0)"/>
       <use xlink:href="#DejaVuSans-30" transform="translate(290.576172 0)"/>
       <use xlink:href="#DejaVuSans-31" transform="translate(354.199219 0)"/>
      </g>
     </g>
    </g>
    <g id="xtick_3">
     <g id="line2d_5">
      <path d="M 267.343316 320.4 
L 267.343316 43.2 
" clip-path="url(#pdf7f695a71)" style="fill: none; stroke-dasharray: 5.12,1.28,0.8,1.28; stroke-dashoffset: 0; stroke: #b0b0b0; stroke-width: 0.8"/>
     </g>
     <g id="line2d_6">
      <g>
       <use xlink:href="#m5563c16b27" x="267.343316" y="320.4" style="fill: #a9a9a9; stroke: #a9a9a9; stroke-width: 0.8"/>
      </g>
     </g>
     <g id="text_3">
      <!-- 2022-07 -->
      <g style="fill: #a9a9a9" transform="translate(246.451909 334.998438) scale(0.1 -0.1)">
       <use xlink:href="#DejaVuSans-32"/>
       <use xlink:href="#DejaVuSans-30" transform="translate(63.623047 0)"/>
       <use xlink:href="#DejaVuSans-32" transform="translate(127.246094 0)"/>
       <use xlink:href="#DejaVuSans-32" transform="translate(190.869141 0)"/>
       <use xlink:href="#DejaVuSans-2d" transform="translate(254.492188 0)"/>
       <use xlink:href="#DejaVuSans-30" transform="translate(290.576172 0)"/>
       <use xlink:href="#DejaVuSans-37" transform="translate(354.199219 0)"/>
      </g>
     </g>
    </g>
    <g id="xtick_4">
     <g id="line2d_7">
      <path d="M 336.696763 320.4 
L 336.696763 43.2 
" clip-path="url(#pdf7f695a71)" style="fill: none; stroke-dasharray: 5.12,1.28,0.8,1.28; stroke-dashoffset: 0; stroke: #b0b0b0; stroke-width: 0.8"/>
     </g>
     <g id="line2d_8">
      <g>
       <use xlink:href="#m5563c16b27" x="336.696763" y="320.4" style="fill: #a9a9a9; stroke: #a9a9a9; stroke-width: 0.8"/>
      </g>
     </g>
     <g id="text_4">
      <!-- 2023-01 -->
      <g style="fill: #a9a9a9" transform="translate(315.805357 334.998438) scale(0.1 -0.1)">
       <defs>
        <path id="DejaVuSans-33" d="M 2597 2516 
Q 3050 2419 3304 2112 
Q 3559 1806 3559 1356 
Q 3559 666 3084 287 
Q 2609 -91 1734 -91 
Q 1441 -91 1130 -33 
Q 819 25 488 141 
L 488 750 
Q 750 597 1062 519 
Q 1375 441 1716 441 
Q 2309 441 2620 675 
Q 2931 909 2931 1356 
Q 2931 1769 2642 2001 
Q 2353 2234 1838 2234 
L 1294 2234 
L 1294 2753 
L 1863 2753 
Q 2328 2753 2575 2939 
Q 2822 3125 2822 3475 
Q 2822 3834 2567 4026 
Q 2313 4219 1838 4219 
Q 1578 4219 1281 4162 
Q 984 4106 628 3988 
L 628 4550 
Q 988 4650 1302 4700 
Q 1616 4750 1894 4750 
Q 2613 4750 3031 4423 
Q 3450 4097 3450 3541 
Q 3450 3153 3228 2886 
Q 3006 2619 2597 2516 
z
" transform="scale(0.015625)"/>
       </defs>
       <use xlink:href="#DejaVuSans-32"/>
       <use xlink:href="#DejaVuSans-30" transform="translate(63.623047 0)"/>
       <use xlink:href="#DejaVuSans-32" transform="translate(127.246094 0)"/>
       <use xlink:href="#DejaVuSans-33" transform="translate(190.869141 0)"/>
       <use xlink:href="#DejaVuSans-2d" transform="translate(254.492188 0)"/>
       <use xlink:href="#DejaVuSans-30" transform="translate(290.576172 0)"/>
       <use xlink:href="#DejaVuSans-31" transform="translate(354.199219 0)"/>
      </g>
     </g>
    </g>
    <g id="xtick_5">
     <g id="line2d_9">
      <path d="M 404.919448 320.4 
L 404.919448 43.2 
" clip-path="url(#pdf7f695a71)" style="fill: none; stroke-dasharray: 5.12,1.28,0.8,1.28; stroke-dashoffset: 0; stroke: #b0b0b0; stroke-width: 0.8"/>
     </g>
     <g id="line2d_10">
      <g>
       <use xlink:href="#m5563c16b27" x="404.919448" y="320.4" style="fill: #a9a9a9; stroke: #a9a9a9; stroke-width: 0.8"/>
      </g>
     </g>
     <g id="text_5">
      <!-- 2023-07 -->
      <g style="fill: #a9a9a9" transform="translate(384.028042 334.998438) scale(0.1 -0.1)">
       <use xlink:href="#DejaVuSans-32"/>
       <use xlink:href="#DejaVuSans-30" transform="translate(63.623047 0)"/>
       <use xlink:href="#DejaVuSans-32" transform="translate(127.246094 0)"/>
       <use xlink:href="#DejaVuSans-33" transform="translate(190.869141 0)"/>
       <use xlink:href="#DejaVuSans-2d" transform="translate(254.492188 0)"/>
       <use xlink:href="#DejaVuSans-30" transform="translate(290.576172 0)"/>
       <use xlink:href="#DejaVuSans-37" transform="translate(354.199219 0)"/>
      </g>
     </g>
    </g>
    <g id="xtick_6">
     <g id="line2d_11">
      <path d="M 474.272896 320.4 
L 474.272896 43.2 
" clip-path="url(#pdf7f695a71)" style="fill: none; stroke-dasharray: 5.12,1.28,0.8,1.28; stroke-dashoffset: 0; stroke: #b0b0b0; stroke-width: 0.8"/>
     </g>
     <g id="line2d_12">
      <g>
       <use xlink:href="#m5563c16b27" x="474.272896" y="320.4" style="fill: #a9a9a9; stroke: #a9a9a9; stroke-width: 0.8"/>
      </g>
     </g>
     <g id="text_6">
      <!-- 2024-01 -->
      <g style="fill: #a9a9a9" transform="translate(453.38149 334.998438) scale(0.1 -0.1)">
       <defs>
        <path id="DejaVuSans-34" d="M 2419 4116 
L 825 1625 
L 2419 1625 
L 2419 4116 
z
M 2253 4666 
L 3047 4666 
L 3047 1625 
L 3713 1625 
L 3713 1100 
L 3047 1100 
L 3047 0 
L 2419 0 
L 2419 1100 
L 313 1100 
L 313 1709 
L 2253 4666 
z
" transform="scale(0.015625)"/>
       </defs>
       <use xlink:href="#DejaVuSans-32"/>
       <use xlink:href="#DejaVuSans-30" transform="translate(63.623047 0)"/>
       <use xlink:href="#DejaVuSans-32" transform="translate(127.246094 0)"/>
       <use xlink:href="#DejaVuSans-34" transform="translate(190.869141 0)"/>
       <use xlink:href="#DejaVuSans-2d" transform="translate(254.492188 0)"/>
       <use xlink:href="#DejaVuSans-30" transform="translate(290.576172 0)"/>
       <use xlink:href="#DejaVuSans-31" transform="translate(354.199219 0)"/>
      </g>
     </g>
    </g>
    <g id="xtick_7">
     <g id="line2d_13">
      <path d="M 542.872502 320.4 
L 542.872502 43.2 
" clip-path="url(#pdf7f695a71)" style="fill: none; stroke-dasharray: 5.12,1.28,0.8,1.28; stroke-dashoffset: 0; stroke: #b0b0b0; stroke-width: 0.8"/>
     </g>
     <g id="line2d_14">
      <g>
       <use xlink:href="#m5563c16b27" x="542.872502" y="320.4" style="fill: #a9a9a9; stroke: #a9a9a9; stroke-width: 0.8"/>
      </g>
     </g>
     <g id="text_7">
      <!-- 2024-07 -->
      <g style="fill: #a9a9a9" transform="translate(521.981096 334.998438) scale(0.1 -0.1)">
       <use xlink:href="#DejaVuSans-32"/>
       <use xlink:href="#DejaVuSans-30" transform="translate(63.623047 0)"/>
       <use xlink:href="#DejaVuSans-32" transform="translate(127.246094 0)"/>
       <use xlink:href="#DejaVuSans-34" transform="translate(190.869141 0)"/>
       <use xlink:href="#DejaVuSans-2d" transform="translate(254.492188 0)"/>
       <use xlink:href="#DejaVuSans-30" transform="translate(290.576172 0)"/>
       <use xlink:href="#DejaVuSans-37" transform="translate(354.199219 0)"/>
      </g>
     </g>
    </g>
    <g id="xtick_8">
     <g id="line2d_15">
      <path d="M 612.22595 320.4 
L 612.22595 43.2 
" clip-path="url(#pdf7f695a71)" style="fill: none; stroke-dasharray: 5.12,1.28,0.8,1.28; stroke-dashoffset: 0; stroke: #b0b0b0; stroke-width: 0.8"/>
     </g>
     <g id="line2d_16">
      <g>
       <use xlink:href="#m5563c16b27" x="612.22595" y="320.4" style="fill: #a9a9a9; stroke: #a9a9a9; stroke-width: 0.8"/>
      </g>
     </g>
     <g id="text_8">
      <!-- 2025-01 -->
      <g style="fill: #a9a9a9" transform="translate(591.334544 334.998438) scale(0.1 -0.1)">
       <defs>
        <path id="DejaVuSans-35" d="M 691 4666 
L 3169 4666 
L 3169 4134 
L 1269 4134 
L 1269 2991 
Q 1406 3038 1543 3061 
Q 1681 3084 1819 3084 
Q 2600 3084 3056 2656 
Q 3513 2228 3513 1497 
Q 3513 744 3044 326 
Q 2575 -91 1722 -91 
Q 1428 -91 1123 -41 
Q 819 9 494 109 
L 494 744 
Q 775 591 1075 516 
Q 1375 441 1709 441 
Q 2250 441 2565 725 
Q 2881 1009 2881 1497 
Q 2881 1984 2565 2268 
Q 2250 2553 1709 2553 
Q 1456 2553 1204 2497 
Q 953 2441 691 2322 
L 691 4666 
z
" transform="scale(0.015625)"/>
       </defs>
       <use xlink:href="#DejaVuSans-32"/>
       <use xlink:href="#DejaVuSans-30" transform="translate(63.623047 0)"/>
       <use xlink:href="#DejaVuSans-32" transform="translate(127.246094 0)"/>
       <use xlink:href="#DejaVuSans-35" transform="translate(190.869141 0)"/>
       <use xlink:href="#DejaVuSans-2d" transform="translate(254.492188 0)"/>
       <use xlink:href="#DejaVuSans-30" transform="translate(290.576172 0)"/>
       <use xlink:href="#DejaVuSans-31" transform="translate(354.199219 0)"/>
      </g>
     </g>
    </g>
    <g id="xtick_9">
     <g id="line2d_17">
      <path d="M 680.448635 320.4 
L 680.448635 43.2 
" clip-path="url(#pdf7f695a71)" style="fill: none; stroke-dasharray: 5.12,1.28,0.8,1.28; stroke-dashoffset: 0; stroke: #b0b0b0; stroke-width: 0.8"/>
     </g>
     <g id="line2d_18">
      <g>
       <use xlink:href="#m5563c16b27" x="680.448635" y="320.4" style="fill: #a9a9a9; stroke: #a9a9a9; stroke-width: 0.8"/>
      </g>
     </g>
     <g id="text_9">
      <!-- 2025-07 -->
      <g style="fill: #a9a9a9" transform="translate(659.557229 334.998438) scale(0.1 -0.1)">
       <use xlink:href="#DejaVuSans-32"/>
       <use xlink:href="#DejaVuSans-30" transform="translate(63.623047 0)"/>
       <use xlink:href="#DejaVuSans-32" transform="translate(127.246094 0)"/>
       <use xlink:href="#DejaVuSans-35" transform="translate(190.869141 0)"/>
       <use xlink:href="#DejaVuSans-2d" transform="translate(254.492188 0)"/>
       <use xlink:href="#DejaVuSans-30" transform="translate(290.576172 0)"/>
       <use xlink:href="#DejaVuSans-37" transform="translate(354.199219 0)"/>
      </g>
     </g>
    </g>
    <g id="xtick_10">
     <g id="line2d_19">
      <path d="M 749.802083 320.4 
L 749.802083 43.2 
" clip-path="url(#pdf7f695a71)" style="fill: none; stroke-dasharray: 5.12,1.28,0.8,1.28; stroke-dashoffset: 0; stroke: #b0b0b0; stroke-width: 0.8"/>
     </g>
     <g id="line2d_20">
      <g>
       <use xlink:href="#m5563c16b27" x="749.802083" y="320.4" style="fill: #a9a9a9; stroke: #a9a9a9; stroke-width: 0.8"/>
      </g>
     </g>
     <g id="text_10">
      <!-- 2026-01 -->
      <g style="fill: #a9a9a9" transform="translate(728.910676 334.998438) scale(0.1 -0.1)">
       <defs>
        <path id="DejaVuSans-36" d="M 2113 2584 
Q 1688 2584 1439 2293 
Q 1191 2003 1191 1497 
Q 1191 994 1439 701 
Q 1688 409 2113 409 
Q 2538 409 2786 701 
Q 3034 994 3034 1497 
Q 3034 2003 2786 2293 
Q 2538 2584 2113 2584 
z
M 3366 4563 
L 3366 3988 
Q 3128 4100 2886 4159 
Q 2644 4219 2406 4219 
Q 1781 4219 1451 3797 
Q 1122 3375 1075 2522 
Q 1259 2794 1537 2939 
Q 1816 3084 2150 3084 
Q 2853 3084 3261 2657 
Q 3669 2231 3669 1497 
Q 3669 778 3244 343 
Q 2819 -91 2113 -91 
Q 1303 -91 875 529 
Q 447 1150 447 2328 
Q 447 3434 972 4092 
Q 1497 4750 2381 4750 
Q 2619 4750 2861 4703 
Q 3103 4656 3366 4563 
z
" transform="scale(0.015625)"/>
       </defs>
       <use xlink:href="#DejaVuSans-32"/>
       <use xlink:href="#DejaVuSans-30" transform="translate(63.623047 0)"/>
       <use xlink:href="#DejaVuSans-32" transform="translate(127.246094 0)"/>
       <use xlink:href="#DejaVuSans-36" transform="translate(190.869141 0)"/>
       <use xlink:href="#DejaVuSans-2d" transform="translate(254.492188 0)"/>
       <use xlink:href="#DejaVuSans-30" transform="translate(290.576172 0)"/>
       <use xlink:href="#DejaVuSans-31" transform="translate(354.199219 0)"/>
      </g>
     </g>
    </g>
   </g>
   <g id="matplotlib.axis_2">
    <g id="ytick_1">
     <g id="line2d_21">
      <path d="M 108 307.829738 
L 777.6 307.829738 
" clip-path="url(#pdf7f695a71)" style="fill: none; stroke-dasharray: 5.12,1.28,0.8,1.28; stroke-dashoffset: 0; stroke: #b0b0b0; stroke-width: 0.8"/>
     </g>
     <g id="line2d_22">
      <defs>
       <path id="m318aa51b95" d="M 0 0 
L -3.5 0 
" style="stroke: #a9a9a9; stroke-width: 0.8"/>
      </defs>
      <g>
       <use xlink:href="#m318aa51b95" x="108" y="307.829738" style="fill: #a9a9a9; stroke: #a9a9a9; stroke-width: 0.8"/>
      </g>
     </g>
     <g id="text_11">
      <!-- 0 -->
      <g style="fill: #a9a9a9" transform="translate(94.6375 311.628957) scale(0.1 -0.1)">
       <use xlink:href="#DejaVuSans-30"/>
      </g>
     </g>
    </g>
    <g id="ytick_2">
     <g id="line2d_23">
      <path d="M 108 278.091716 
L 777.6 278.091716 
" clip-path="url(#pdf7f695a71)" style="fill: none; stroke-dasharray: 5.12,1.28,0.8,1.28; stroke-dashoffset: 0; stroke: #b0b0b0; stroke-width: 0.8"/>
     </g>
     <g id="line2d_24">
      <g>
       <use xlink:href="#m318aa51b95" x="108" y="278.091716" style="fill: #a9a9a9; stroke: #a9a9a9; stroke-width: 0.8"/>
      </g>
     </g>
     <g id="text_12">
      <!-- 1000 -->
      <g style="fill: #a9a9a9" transform="translate(75.55 281.890935) scale(0.1 -0.1)">
       <use xlink:href="#DejaVuSans-31"/>
       <use xlink:href="#DejaVuSans-30" transform="translate(63.623047 0)"/>
       <use xlink:href="#DejaVuSans-30" transform="translate(127.246094 0)"/>
       <use xlink:href="#DejaVuSans-30" transform="translate(190.869141 0)"/>
      </g>
     </g>
    </g>
    <g id="ytick_3">
     <g id="line2d_25">
      <path d="M 108 248.353694 
L 777.6 248.353694 
" clip-path="url(#pdf7f695a71)" style="fill: none; stroke-dasharray: 5.12,1.28,0.8,1.28; stroke-dashoffset: 0; stroke: #b0b0b0; stroke-width: 0.8"/>
     </g>
     <g id="line2d_26">
      <g>
       <use xlink:href="#m318aa51b95" x="108" y="248.353694" style="fill: #a9a9a9; stroke: #a9a9a9; stroke-width: 0.8"/>
      </g>
     </g>
     <g id="text_13">
      <!-- 2000 -->
      <g style="fill: #a9a9a9" transform="translate(75.55 252.152912) scale(0.1 -0.1)">
       <use xlink:href="#DejaVuSans-32"/>
       <use xlink:href="#DejaVuSans-30" transform="translate(63.623047 0)"/>
       <use xlink:href="#DejaVuSans-30" transform="translate(127.246094 0)"/>
       <use xlink:href="#DejaVuSans-30" transform="translate(190.869141 0)"/>
      </g>
     </g>
    </g>
    <g id="ytick_4">
     <g id="line2d_27">
      <path d="M 108 218.615671 
L 777.6 218.615671 
" clip-path="url(#pdf7f695a71)" style="fill: none; stroke-dasharray: 5.12,1.28,0.8,1.28; stroke-dashoffset: 0; stroke: #b0b0b0; stroke-width: 0.8"/>
     </g>
     <g id="line2d_28">
      <g>
       <use xlink:href="#m318aa51b95" x="108" y="218.615671" style="fill: #a9a9a9; stroke: #a9a9a9; stroke-width: 0.8"/>
      </g>
     </g>
     <g id="text_14">
      <!-- 3000 -->
      <g style="fill: #a9a9a9" transform="translate(75.55 222.41489) scale(0.1 -0.1)">
       <use xlink:href="#DejaVuSans-33"/>
       <use xlink:href="#DejaVuSans-30" transform="translate(63.623047 0)"/>
       <use xlink:href="#DejaVuSans-30" transform="translate(127.246094 0)"/>
       <use xlink:href="#DejaVuSans-30" transform="translate(190.869141 0)"/>
      </g>
     </g>
    </g>
    <g id="ytick_5">
     <g id="line2d_29">
      <path d="M 108 188.877649 
L 777.6 188.877649 
" clip-path="url(#pdf7f695a71)" style="fill: none; stroke-dasharray: 5.12,1.28,0.8,1.28; stroke-dashoffset: 0; stroke: #b0b0b0; stroke-width: 0.8"/>
     </g>
     <g id="line2d_30">
      <g>
       <use xlink:href="#m318aa51b95" x="108" y="188.877649" style="fill: #a9a9a9; stroke: #a9a9a9; stroke-width: 0.8"/>
      </g>
     </g>
     <g id="text_15">
      <!-- 4000 -->
      <g style="fill: #a9a9a9" transform="translate(75.55 192.676868) scale(0.1 -0.1)">
       <use xlink:href="#DejaVuSans-34"/>
       <use xlink:href="#DejaVuSans-30" transform="translate(63.623047 0)"/>
       <use xlink:href="#DejaVuSans-30" transform="translate(127.246094 0)"/>
       <use xlink:href="#DejaVuSans-30" transform="translate(190.869141 0)"/>
      </g>
     </g>
    </g>
    <g id="ytick_6">
     <g id="line2d_31">
      <path d="M 108 159.139627 
L 777.6 159.139627 
" clip-path="url(#pdf7f695a71)" style="fill: none; stroke-dasharray: 5.12,1.28,0.8,1.28; stroke-dashoffset: 0; stroke: #b0b0b0; stroke-width: 0.8"/>
     </g>
     <g id="line2d_32">
      <g>
       <use xlink:href="#m318aa51b95" x="108" y="159.139627" style="fill: #a9a9a9; stroke: #a9a9a9; stroke-width: 0.8"/>
      </g>
     </g>
     <g id="text_16">
      <!-- 5000 -->
      <g style="fill: #a9a9a9" transform="translate(75.55 162.938846) scale(0.1 -0.1)">
       <use xlink:href="#DejaVuSans-35"/>
       <use xlink:href="#DejaVuSans-30" transform="translate(63.623047 0)"/>
       <use xlink:href="#DejaVuSans-30" transform="translate(127.246094 0)"/>
       <use xlink:href="#DejaVuSans-30" transform="translate(190.869141 0)"/>
      </g>
     </g>
    </g>
    <g id="ytick_7">
     <g id="line2d_33">
      <path d="M 108 129.401605 
L 777.6 129.401605 
" clip-path="url(#pdf7f695a71)" style="fill: none; stroke-dasharray: 5.12,1.28,0.8,1.28; stroke-dashoffset: 0; stroke: #b0b0b0; stroke-width: 0.8"/>
     </g>
     <g id="line2d_34">
      <g>
       <use xlink:href="#m318aa51b95" x="108" y="129.401605" style="fill: #a9a9a9; stroke: #a9a9a9; stroke-width: 0.8"/>
      </g>
     </g>
     <g id="text_17">
      <!-- 6000 -->
      <g style="fill: #a9a9a9" transform="translate(75.55 133.200824) scale(0.1 -0.1)">
       <use xlink:href="#DejaVuSans-36"/>
       <use xlink:href="#DejaVuSans-30" transform="translate(63.623047 0)"/>
       <use xlink:href="#DejaVuSans-30" transform="translate(127.246094 0)"/>
       <use xlink:href="#DejaVuSans-30" transform="translate(190.869141 0)"/>
      </g>
     </g>
    </g>
    <g id="ytick_8">
     <g id="line2d_35">
      <path d="M 108 99.663583 
L 777.6 99.663583 
" clip-path="url(#pdf7f695a71)" style="fill: none; stroke-dasharray: 5.12,1.28,0.8,1.28; stroke-dashoffset: 0; stroke: #b0b0b0; stroke-width: 0.8"/>
     </g>
     <g id="line2d_36">
      <g>
       <use xlink:href="#m318aa51b95" x="108" y="99.663583" style="fill: #a9a9a9; stroke: #a9a9a9; stroke-width: 0.8"/>
      </g>
     </g>
     <g id="text_18">
      <!-- 7000 -->
      <g style="fill: #a9a9a9" transform="translate(75.55 103.462801) scale(0.1 -0.1)">
       <use xlink:href="#DejaVuSans-37"/>
       <use xlink:href="#DejaVuSans-30" transform="translate(63.623047 0)"/>
       <use xlink:href="#DejaVuSans-30" transform="translate(127.246094 0)"/>
       <use xlink:href="#DejaVuSans-30" transform="translate(190.869141 0)"/>
      </g>
     </g>
    </g>
    <g id="ytick_9">
     <g id="line2d_37">
      <path d="M 108 69.925561 
L 777.6 69.925561 
" clip-path="url(#pdf7f695a71)" style="fill: none; stroke-dasharray: 5.12,1.28,0.8,1.28; stroke-dashoffset: 0; stroke: #b0b0b0; stroke-width: 0.8"/>
     </g>
     <g id="line2d_38">
      <g>
       <use xlink:href="#m318aa51b95" x="108" y="69.925561" style="fill: #a9a9a9; stroke: #a9a9a9; stroke-width: 0.8"/>
      </g>
     </g>
     <g id="text_19">
      <!-- 8000 -->
      <g style="fill: #a9a9a9" transform="translate(75.55 73.724779) scale(0.1 -0.1)">
       <defs>
        <path id="DejaVuSans-38" d="M 2034 2216 
Q 1584 2216 1326 1975 
Q 1069 1734 1069 1313 
Q 1069 891 1326 650 
Q 1584 409 2034 409 
Q 2484 409 2743 651 
Q 3003 894 3003 1313 
Q 3003 1734 2745 1975 
Q 2488 2216 2034 2216 
z
M 1403 2484 
Q 997 2584 770 2862 
Q 544 3141 544 3541 
Q 544 4100 942 4425 
Q 1341 4750 2034 4750 
Q 2731 4750 3128 4425 
Q 3525 4100 3525 3541 
Q 3525 3141 3298 2862 
Q 3072 2584 2669 2484 
Q 3125 2378 3379 2068 
Q 3634 1759 3634 1313 
Q 3634 634 3220 271 
Q 2806 -91 2034 -91 
Q 1263 -91 848 271 
Q 434 634 434 1313 
Q 434 1759 690 2068 
Q 947 2378 1403 2484 
z
M 1172 3481 
Q 1172 3119 1398 2916 
Q 1625 2713 2034 2713 
Q 2441 2713 2670 2916 
Q 2900 3119 2900 3481 
Q 2900 3844 2670 4047 
Q 2441 4250 2034 4250 
Q 1625 4250 1398 4047 
Q 1172 3844 1172 3481 
z
" transform="scale(0.015625)"/>
       </defs>
       <use xlink:href="#DejaVuSans-38"/>
       <use xlink:href="#DejaVuSans-30" transform="translate(63.623047 0)"/>
       <use xlink:href="#DejaVuSans-30" transform="translate(127.246094 0)"/>
       <use xlink:href="#DejaVuSans-30" transform="translate(190.869141 0)"/>
      </g>
     </g>
    </g>
   </g>
   <g id="line2d_39">
    <path d="M 138.436364 307.740524 
L 140.697889 307.532358 
L 141.07481 307.35393 
L 142.582494 307.145764 
L 144.090177 306.818645 
L 144.844019 306.699693 
L 146.728624 306.521265 
L 147.482466 306.223885 
L 147.859386 305.6886 
L 148.236307 305.420958 
L 148.613228 304.528818 
L 148.990149 304.469342 
L 149.743991 303.993533 
L 150.497833 303.428511 
L 152.005516 302.298466 
L 152.382437 302.149776 
L 153.136279 301.673967 
L 154.267042 301.108945 
L 154.643963 300.454709 
L 155.397805 299.859948 
L 156.151646 299.622044 
L 157.282409 299.443616 
L 159.543935 299.086759 
L 159.920856 298.908331 
L 162.559302 298.670427 
L 164.066986 298.283833 
L 167.082353 297.837763 
L 167.459274 297.629596 
L 167.836195 297.57012 
L 168.590037 297.302478 
L 171.228483 296.82667 
L 171.982325 296.588766 
L 175.374613 295.994005 
L 176.128455 295.815577 
L 177.636138 295.607411 
L 178.38998 295.369507 
L 178.766901 294.804484 
L 179.897664 294.328676 
L 181.028427 294.001558 
L 181.405348 293.793392 
L 182.159189 293.644701 
L 183.666873 293.168893 
L 184.420715 293.109417 
L 185.174557 292.901251 
L 186.68224 292.484919 
L 187.059161 292.455181 
L 187.813003 292.068586 
L 188.189924 292.00911 
L 188.566845 291.800944 
L 192.712975 291.087232 
L 194.220659 290.611423 
L 194.59758 290.343781 
L 196.482184 289.689544 
L 197.236026 289.124522 
L 198.366789 288.886618 
L 203.26676 287.399717 
L 203.643681 287.340241 
L 205.151365 286.715742 
L 205.528286 286.656266 
L 206.282128 286.329148 
L 207.03597 286.29941 
L 208.166732 285.942554 
L 208.543653 285.942554 
L 208.920574 285.764126 
L 209.674416 285.674911 
L 210.051337 285.526221 
L 211.935941 285.437007 
L 212.312862 285.347793 
L 213.066704 284.931461 
L 214.197467 284.515129 
L 214.951309 284.098796 
L 216.082071 283.59325 
L 217.589755 282.820061 
L 217.966676 282.373991 
L 218.720518 281.124994 
L 219.097439 281.006042 
L 219.47436 281.006042 
L 220.982043 280.143639 
L 221.358964 280.054425 
L 221.735885 279.667831 
L 222.489727 279.340713 
L 223.243569 278.983857 
L 225.505094 276.277696 
L 225.882015 276.158744 
L 227.76662 274.850271 
L 228.520462 274.314987 
L 228.897382 273.749965 
L 229.274303 272.828086 
L 229.651224 272.233325 
L 230.028145 271.906207 
L 230.405066 271.727779 
L 234.928117 267.534718 
L 236.435801 266.553363 
L 237.189643 266.137031 
L 238.697326 265.274628 
L 240.581931 263.430871 
L 241.335773 263.103753 
L 242.089614 262.568468 
L 242.466535 262.330564 
L 242.843456 262.271088 
L 243.974219 261.587114 
L 244.35114 261.141043 
L 246.235744 260.040736 
L 246.612665 259.892046 
L 247.743428 259.059382 
L 253.397242 256.918244 
L 254.151084 256.174793 
L 255.281846 255.580033 
L 256.035688 255.074487 
L 256.78953 254.836582 
L 257.166451 254.56894 
L 257.543372 254.449988 
L 258.674135 253.647062 
L 260.558739 253.200991 
L 261.689502 252.487279 
L 262.820265 252.219637 
L 263.197185 252.130422 
L 264.327948 251.26802 
L 265.835632 250.821949 
L 266.212553 250.494831 
L 268.474078 249.662167 
L 269.22792 249.513477 
L 269.981762 249.186358 
L 272.620208 248.175266 
L 273.37405 248.086051 
L 274.504813 247.669719 
L 276.389417 246.688364 
L 278.650943 245.350153 
L 279.404785 245.141987 
L 280.535547 244.547227 
L 281.289389 244.398537 
L 282.043231 243.922728 
L 282.797073 243.714562 
L 283.927836 243.238754 
L 285.435519 243.030588 
L 286.189361 242.614255 
L 286.566282 242.257399 
L 286.943203 241.543687 
L 288.450887 241.097616 
L 289.95857 240.383904 
L 293.350858 238.807789 
L 294.1047 238.62936 
L 295.235463 238.0346 
L 295.612384 237.975124 
L 297.496988 236.993769 
L 298.25083 236.488223 
L 299.381593 236.250319 
L 302.020039 235.358178 
L 308.050774 232.47359 
L 308.427695 232.057257 
L 308.804616 231.819353 
L 309.181537 231.730139 
L 309.935379 231.075903 
L 310.312299 231.016427 
L 310.68922 230.36219 
L 311.066141 230.2135 
L 311.443062 229.886382 
L 311.819983 229.826906 
L 312.573825 229.321359 
L 313.327667 229.053717 
L 313.704588 228.756337 
L 314.458429 228.340005 
L 315.589192 227.626292 
L 316.719955 227.031532 
L 317.473797 226.823366 
L 318.227639 226.377295 
L 318.60456 225.693321 
L 319.358401 225.09856 
L 319.735322 225.009346 
L 321.996848 223.879301 
L 322.75069 223.552183 
L 323.504531 222.987161 
L 324.635294 221.886854 
L 325.389136 221.411046 
L 325.766057 220.964975 
L 327.273741 219.894406 
L 328.027582 219.09148 
L 329.158345 218.526457 
L 329.912187 218.080387 
L 330.289108 217.961435 
L 330.666029 217.664055 
L 331.04295 217.604579 
L 334.435238 215.820297 
L 335.18908 215.612131 
L 336.696763 215.076847 
L 337.073684 214.749729 
L 338.581368 214.12523 
L 338.958289 214.006278 
L 339.712131 213.500732 
L 340.465972 213.173613 
L 341.219814 212.608591 
L 341.973656 211.032476 
L 342.727498 210.140335 
L 343.858261 209.515837 
L 344.612102 209.188718 
L 344.989023 209.129242 
L 345.742865 208.772386 
L 347.250549 208.237102 
L 348.004391 207.791031 
L 348.758232 207.434175 
L 349.135153 207.315223 
L 351.396679 205.887798 
L 351.7736 205.441728 
L 352.904363 204.757753 
L 353.281283 204.609063 
L 354.035125 204.133255 
L 355.542809 203.270852 
L 355.91973 203.181638 
L 356.296651 202.85452 
L 358.935097 201.962379 
L 359.312018 201.694737 
L 360.06586 201.456833 
L 363.081227 199.969932 
L 363.835069 199.553599 
L 364.21199 199.375171 
L 364.965832 198.750673 
L 365.719674 198.542506 
L 366.096594 198.18565 
L 366.473515 198.126174 
L 367.227357 197.531414 
L 369.111962 196.371631 
L 369.865804 196.133727 
L 370.242724 195.895823 
L 370.619645 195.836346 
L 372.127329 195.092896 
L 373.258092 194.706302 
L 374.011934 194.58735 
L 375.519617 193.992589 
L 375.896538 193.962851 
L 377.781143 193.100448 
L 378.534985 192.565164 
L 379.288826 192.148832 
L 380.79651 191.405381 
L 381.927273 190.632193 
L 382.681115 190.453764 
L 383.811877 189.740052 
L 384.94264 189.32372 
L 385.696482 189.056077 
L 387.204165 188.520793 
L 387.958007 188.253151 
L 389.465691 187.926033 
L 390.219533 187.688128 
L 392.104137 187.033892 
L 393.2349 186.677036 
L 393.988742 186.498608 
L 396.250267 186.082275 
L 397.004109 185.933585 
L 398.134872 185.665943 
L 398.511793 185.487515 
L 399.265635 185.338825 
L 400.019476 185.130658 
L 400.773318 184.773802 
L 401.150239 184.625112 
L 401.52716 184.625112 
L 405.67329 183.286901 
L 406.050211 183.078735 
L 406.427132 183.078735 
L 407.180974 182.781355 
L 407.557895 182.365022 
L 409.81942 181.383668 
L 411.327104 180.848383 
L 411.704025 180.610479 
L 412.834788 180.253623 
L 413.588629 180.045457 
L 413.96555 179.777814 
L 414.342471 179.6886 
L 414.719392 179.361482 
L 415.850155 179.123578 
L 416.603997 178.766722 
L 416.980918 178.290913 
L 421.127048 177.339297 
L 421.503968 177.339297 
L 422.25781 177.101392 
L 425.650099 176.23899 
L 426.40394 176.060562 
L 430.173149 174.960255 
L 430.55007 174.871041 
L 430.926991 174.662875 
L 431.680833 174.454709 
L 432.434675 174.12759 
L 433.188517 173.83021 
L 433.565438 173.562568 
L 434.319279 173.324664 
L 437.334647 172.254095 
L 438.088489 172.194619 
L 439.596172 171.748549 
L 439.973093 171.510644 
L 440.726935 171.27274 
L 442.98846 170.321123 
L 447.511511 168.655794 
L 449.396116 168.001558 
L 450.149958 167.763654 
L 450.9038 167.555487 
L 452.411483 166.276752 
L 455.04993 165.11697 
L 457.688376 163.957187 
L 458.442218 163.749021 
L 461.834506 162.053953 
L 462.588348 161.607883 
L 465.980636 159.942554 
L 466.357557 159.645173 
L 470.880608 157.89063 
L 471.63445 157.771678 
L 472.011371 157.504036 
L 473.519054 157.206656 
L 474.272896 156.879537 
L 476.157501 155.957659 
L 481.057473 153.727307 
L 482.188235 153.340713 
L 482.565156 153.073071 
L 483.318998 152.983857 
L 483.695919 152.716214 
L 484.449761 152.597262 
L 489.349733 150.783243 
L 490.480495 150.515601 
L 491.988179 149.861364 
L 492.742021 149.445032 
L 494.249704 148.642105 
L 495.003546 148.463677 
L 495.380467 148.225773 
L 495.757388 148.136559 
L 497.641993 147.184942 
L 502.541965 145.311447 
L 502.918885 145.251971 
L 504.426569 144.50852 
L 505.180411 144.35983 
L 505.934253 143.91376 
L 507.441936 143.170309 
L 511.211146 141.623932 
L 511.964987 141.237338 
L 512.341908 141.148124 
L 513.09575 140.850743 
L 513.472671 140.850743 
L 514.226513 140.493887 
L 515.734196 139.185414 
L 516.111117 139.066462 
L 516.488038 138.828558 
L 517.618801 138.50144 
L 517.995722 138.204059 
L 518.749564 137.936417 
L 519.880326 137.163229 
L 520.634168 136.955063 
L 521.38801 136.53873 
L 522.518773 136.271088 
L 528.549507 133.773094 
L 530.434112 132.999906 
L 532.318717 132.405145 
L 533.449479 131.661695 
L 533.8264 131.572481 
L 534.580242 131.185886 
L 535.334084 130.947982 
L 535.711005 130.591126 
L 536.841768 130.145055 
L 537.218688 130.085579 
L 538.726372 129.371867 
L 539.857135 129.015011 
L 540.987898 128.598678 
L 542.11866 128.27156 
L 542.495581 128.212084 
L 543.249423 127.795752 
L 543.626344 127.647062 
L 544.003265 127.349681 
L 545.134028 127.052301 
L 545.887869 126.754921 
L 546.641711 126.427803 
L 548.149395 125.803304 
L 550.787841 125.089592 
L 551.541683 124.792211 
L 553.049367 124.494831 
L 553.803209 124.346141 
L 554.933971 123.900071 
L 556.064734 123.662167 
L 558.326259 122.294218 
L 559.457022 121.580505 
L 561.718548 120.866793 
L 562.095469 120.569412 
L 565.110836 119.469105 
L 566.241599 119.112249 
L 566.99544 118.695917 
L 567.749282 118.487751 
L 568.126203 118.279585 
L 568.880045 118.130895 
L 570.387729 117.536134 
L 571.141571 117.030588 
L 572.272333 116.733207 
L 573.403096 115.960019 
L 573.780017 115.900543 
L 575.287701 115.276044 
L 576.795384 114.88945 
L 577.172305 114.829974 
L 577.549226 114.651546 
L 577.926147 114.621808 
L 578.679989 114.354166 
L 579.05691 114.324428 
L 580.187672 113.878357 
L 581.695356 113.432287 
L 582.449198 112.837527 
L 583.956882 111.975124 
L 584.333802 111.88591 
L 584.710723 111.677744 
L 585.087644 111.618268 
L 588.479932 109.893462 
L 588.856853 109.536606 
L 590.741458 109.060798 
L 591.872221 108.525513 
L 592.626062 108.317347 
L 593.002983 108.138919 
L 593.379904 107.811801 
L 595.264509 107.127826 
L 600.164481 105.284069 
L 600.918323 105.135379 
L 602.802927 104.51088 
L 603.93369 104.005334 
L 606.572136 103.202407 
L 607.325978 102.756337 
L 620.141289 98.771442 
L 620.895131 98.563276 
L 622.025894 98.146944 
L 622.402815 98.146944 
L 623.533577 97.879301 
L 624.287419 97.730611 
L 625.041261 97.522445 
L 626.172024 96.897947 
L 627.302786 96.54109 
L 629.941233 95.619212 
L 631.448916 94.846023 
L 632.579679 94.578381 
L 633.333521 94.340477 
L 634.087363 93.953882 
L 634.464284 93.626764 
L 635.218126 93.38886 
L 635.595046 93.150956 
L 636.348888 93.061742 
L 638.987335 92.288553 
L 640.118097 92.050649 
L 641.24886 91.753269 
L 642.002702 91.574841 
L 643.133465 90.98008 
L 648.033437 89.106585 
L 648.787278 88.987633 
L 649.54112 88.838943 
L 649.918041 88.838943 
L 651.048804 88.482086 
L 652.179567 88.12523 
L 655.571855 87.143875 
L 656.325697 86.935709 
L 656.702618 86.846495 
L 657.079538 86.608591 
L 657.83338 86.459901 
L 658.587222 86.370687 
L 658.964143 86.162521 
L 659.341064 86.132783 
L 660.471827 85.597498 
L 661.602589 85.329856 
L 662.356431 85.002738 
L 664.617957 84.199811 
L 664.994878 84.140335 
L 665.748719 83.872693 
L 670.27177 82.71291 
L 672.533296 81.939722 
L 673.287138 81.880245 
L 675.548663 81.315223 
L 676.302505 80.988105 
L 676.679426 80.928629 
L 677.056347 80.750201 
L 677.810189 80.095964 
L 681.579398 78.698277 
L 683.840923 78.103517 
L 684.594765 77.687184 
L 684.971686 77.59797 
L 686.102449 76.973472 
L 686.47937 76.884258 
L 686.85629 76.586878 
L 687.987053 76.259759 
L 694.017788 73.523861 
L 694.394709 73.464385 
L 696.656234 72.304602 
L 697.033155 72.066698 
L 698.163918 71.73958 
L 699.671601 71.115081 
L 700.048522 71.085343 
L 701.933127 70.371631 
L 702.686969 70.222941 
L 703.440811 69.657918 
L 703.817731 69.657918 
L 705.325415 69.122634 
L 706.833099 68.825254 
L 708.340782 68.171017 
L 708.717703 68.171017 
L 709.848466 67.784423 
L 710.602308 67.665471 
L 711.733071 67.011234 
L 712.486912 66.62464 
L 714.371517 66.000142 
L 715.125359 65.673023 
L 717.009963 65.167477 
L 719.271489 64.542979 
L 723.79454 63.204768 
L 726.809907 62.431579 
L 728.317591 61.717866 
L 729.448354 61.36101 
L 732.0868 60.825726 
L 732.840642 60.706774 
L 735.479088 59.784895 
L 736.23293 59.546991 
L 736.986772 59.249611 
L 737.740614 59.190135 
L 738.117534 58.892754 
L 738.871376 58.65485 
L 739.248297 58.65485 
L 742.640585 57.524805 
L 744.148269 56.870569 
L 744.52519 56.811093 
L 745.279032 56.454236 
L 746.032874 56.127118 
L 746.786715 55.8 
L 747.163636 55.8 
L 747.163636 55.8 
" clip-path="url(#pdf7f695a71)" style="fill: none; stroke: #1f77b4; stroke-width: 1.5; stroke-linecap: square"/>
   </g>
   <g id="line2d_40">
    <path d="M 138.813285 307.8 
L 142.205573 307.710786 
L 145.22094 307.562096 
L 146.728624 307.562096 
L 147.105545 307.443144 
L 148.990149 307.35393 
L 151.251675 307.086287 
L 153.5132 306.997073 
L 154.267042 306.907859 
L 156.905488 306.788907 
L 159.543935 306.699693 
L 161.428539 306.640217 
L 166.328511 306.551003 
L 168.213116 306.491527 
L 171.605404 306.402313 
L 173.113088 306.372575 
L 176.882297 306.283361 
L 178.38998 306.134671 
L 179.897664 306.104933 
L 182.159189 306.015719 
L 183.666873 305.985981 
L 185.551478 305.926505 
L 187.059161 305.777814 
L 190.451449 305.6886 
L 191.205291 305.629124 
L 192.712975 305.53991 
L 194.9745 305.450696 
L 196.482184 305.361482 
L 203.26676 304.915412 
L 205.905207 304.826198 
L 207.03597 304.707246 
L 208.920574 304.618032 
L 212.689783 304.409865 
L 216.458992 304.350389 
L 217.966676 304.171961 
L 219.851281 304.082747 
L 223.62049 303.696153 
L 225.882015 303.398773 
L 227.389699 303.339297 
L 230.405066 302.922964 
L 232.666592 302.863488 
L 233.797354 302.744536 
L 234.928117 302.655322 
L 254.528005 301.198159 
L 257.166451 301.108945 
L 258.674135 300.930517 
L 260.558739 300.841303 
L 262.820265 300.752089 
L 264.704869 300.662875 
L 266.212553 300.633137 
L 268.097157 300.573661 
L 268.850999 300.484447 
L 274.127892 300.395232 
L 274.881734 300.306018 
L 279.404785 300.216804 
L 282.797073 300.038376 
L 285.435519 299.949162 
L 286.943203 299.770734 
L 289.581649 299.68152 
L 290.335491 299.562568 
L 292.220096 299.503092 
L 295.989305 299.443616 
L 297.496988 299.294926 
L 299.004672 299.265188 
L 300.135435 299.175974 
L 301.643118 299.027283 
L 305.412328 298.819117 
L 309.181537 298.729903 
L 312.573825 298.551475 
L 313.704588 298.521737 
L 314.458429 298.402785 
L 316.343034 298.313571 
L 317.096876 298.254095 
L 318.98148 298.164881 
L 320.489164 298.135143 
L 323.12761 298.045929 
L 332.927554 297.361954 
L 335.18908 297.27274 
L 337.073684 297.213264 
L 342.350577 297.12405 
L 343.104419 297.034836 
L 348.381312 296.945622 
L 352.150521 296.737456 
L 352.904363 296.707718 
L 353.658204 296.618504 
L 355.542809 296.52929 
L 357.427413 296.469814 
L 359.312018 296.380599 
L 361.196623 296.321123 
L 364.588911 296.231909 
L 366.850436 296.142695 
L 372.127329 296.053481 
L 376.273459 295.815577 
L 377.781143 295.756101 
L 378.911905 295.666887 
L 384.188798 295.577673 
L 386.450324 295.488459 
L 393.2349 295.399245 
L 394.742584 295.369507 
L 399.265635 295.310031 
L 400.019476 295.250555 
L 405.296369 295.161341 
L 406.804053 295.131603 
L 416.603997 295.042388 
L 418.865522 294.953174 
L 434.6962 294.86396 
L 436.580805 294.804484 
L 446.380749 294.745008 
L 447.13459 294.685532 
L 449.019195 294.626056 
L 450.149958 294.507104 
L 452.411483 294.41789 
L 455.04993 294.298938 
L 458.442218 294.209724 
L 460.326822 294.150248 
L 462.965269 294.061034 
L 465.980636 293.912344 
L 467.865241 293.82313 
L 469.372924 293.793392 
L 475.78058 293.704177 
L 478.042105 293.614963 
L 482.188235 293.525749 
L 484.826682 293.406797 
L 487.465128 293.347321 
L 488.21897 293.287845 
L 497.265072 293.198631 
L 501.034281 292.990465 
L 503.672727 292.901251 
L 507.818857 292.663347 
L 510.457304 292.574133 
L 511.964987 292.544395 
L 514.603434 292.455181 
L 516.488038 292.247014 
L 520.257247 292.1578 
L 521.011089 292.068586 
L 524.780298 291.979372 
L 526.664903 291.919896 
L 530.811033 291.890158 
L 531.564875 291.800944 
L 535.711005 291.71173 
L 536.464847 291.652254 
L 544.757107 291.56304 
L 547.018632 291.473826 
L 552.672446 291.384612 
L 554.180129 291.354874 
L 557.572418 291.295398 
L 558.326259 291.206184 
L 563.226231 291.11697 
L 565.110836 291.057494 
L 571.895412 290.968279 
L 573.026175 290.879065 
L 574.156938 290.789851 
L 575.287701 290.700637 
L 580.941514 290.611423 
L 583.20304 290.522209 
L 594.133746 290.432995 
L 597.526034 290.254567 
L 602.802927 290.165353 
L 604.310611 290.135615 
L 608.833662 290.046401 
L 610.718266 289.986925 
L 618.633605 289.897711 
L 621.272052 289.778759 
L 628.056628 289.689544 
L 629.564312 289.659806 
L 633.333521 289.570592 
L 635.971967 289.45164 
L 640.118097 289.362426 
L 642.756544 289.243474 
L 646.148832 289.183998 
L 646.902674 289.124522 
L 655.194934 289.035308 
L 657.456459 288.946094 
L 660.094906 288.85688 
L 661.97951 288.797404 
L 672.910217 288.70819 
L 675.171742 288.618976 
L 681.202477 288.529762 
L 683.464002 288.440548 
L 688.363974 288.351333 
L 690.6255 288.262119 
L 693.640867 288.172905 
L 695.902392 288.083691 
L 710.979229 287.994477 
L 713.994596 287.845787 
L 722.663777 287.756573 
L 724.171461 287.726835 
L 733.217563 287.637621 
L 735.102167 287.578145 
L 747.163636 287.488931 
L 747.163636 287.488931 
" clip-path="url(#pdf7f695a71)" style="fill: none; stroke: #ff7f0e; stroke-width: 1.5; stroke-linecap: square"/>
   </g>
   <g id="patch_3">
    <path d="M 108 320.4 
L 108 43.2 
" style="fill: none; stroke: #a9a9a9; stroke-width: 0.8; stroke-linejoin: miter; stroke-linecap: square"/>
   </g>
   <g id="patch_4">
    <path d="M 777.6 320.4 
L 777.6 43.2 
" style="fill: none"/>
   </g>
   <g id="patch_5">
    <path d="M 108 320.4 
L 777.6 320.4 
" style="fill: none; stroke: #a9a9a9; stroke-width: 0.8; stroke-linejoin: miter; stroke-linecap: square"/>
   </g>
   <g id="patch_6">
    <path d="M 108 43.2 
L 777.6 43.2 
" style="fill: none"/>
   </g>
   <g id="text_20">
    <!-- get_subscribe history -->
    <g style="fill: #a9a9a9" transform="translate(378.6075 37.2) scale(0.12 -0.12)">
     <defs>
      <path id="DejaVuSans-67" d="M 2906 1791 
Q 2906 2416 2648 2759 
Q 2391 3103 1925 3103 
Q 1463 3103 1205 2759 
Q 947 2416 947 1791 
Q 947 1169 1205 825 
Q 1463 481 1925 481 
Q 2391 481 2648 825 
Q 2906 1169 2906 1791 
z
M 3481 434 
Q 3481 -459 3084 -895 
Q 2688 -1331 1869 -1331 
Q 1566 -1331 1297 -1286 
Q 1028 -1241 775 -1147 
L 775 -588 
Q 1028 -725 1275 -790 
Q 1522 -856 1778 -856 
Q 2344 -856 2625 -561 
Q 2906 -266 2906 331 
L 2906 616 
Q 2728 306 2450 153 
Q 2172 0 1784 0 
Q 1141 0 747 490 
Q 353 981 353 1791 
Q 353 2603 747 3093 
Q 1141 3584 1784 3584 
Q 2172 3584 2450 3431 
Q 2728 3278 2906 2969 
L 2906 3500 
L 3481 3500 
L 3481 434 
z
" transform="scale(0.015625)"/>
      <path id="DejaVuSans-65" d="M 3597 1894 
L 3597 1613 
L 953 1613 
Q 991 1019 1311 708 
Q 1631 397 2203 397 
Q 2534 397 2845 478 
Q 3156 559 3463 722 
L 3463 178 
Q 3153 47 2828 -22 
Q 2503 -91 2169 -91 
Q 1331 -91 842 396 
Q 353 884 353 1716 
Q 353 2575 817 3079 
Q 1281 3584 2069 3584 
Q 2775 3584 3186 3129 
Q 3597 2675 3597 1894 
z
M 3022 2063 
Q 3016 2534 2758 2815 
Q 2500 3097 2075 3097 
Q 1594 3097 1305 2825 
Q 1016 2553 972 2059 
L 3022 2063 
z
" transform="scale(0.015625)"/>
      <path id="DejaVuSans-74" d="M 1172 4494 
L 1172 3500 
L 2356 3500 
L 2356 3053 
L 1172 3053 
L 1172 1153 
Q 1172 725 1289 603 
Q 1406 481 1766 481 
L 2356 481 
L 2356 0 
L 1766 0 
Q 1100 0 847 248 
Q 594 497 594 1153 
L 594 3053 
L 172 3053 
L 172 3500 
L 594 3500 
L 594 4494 
L 1172 4494 
z
" transform="scale(0.015625)"/>
      <path id="DejaVuSans-5f" d="M 3263 -1063 
L 3263 -1509 
L -63 -1509 
L -63 -1063 
L 3263 -1063 
z
" transform="scale(0.015625)"/>
      <path id="DejaVuSans-73" d="M 2834 3397 
L 2834 2853 
Q 2591 2978 2328 3040 
Q 2066 3103 1784 3103 
Q 1356 3103 1142 2972 
Q 928 2841 928 2578 
Q 928 2378 1081 2264 
Q 1234 2150 1697 2047 
L 1894 2003 
Q 2506 1872 2764 1633 
Q 3022 1394 3022 966 
Q 3022 478 2636 193 
Q 2250 -91 1575 -91 
Q 1294 -91 989 -36 
Q 684 19 347 128 
L 347 722 
Q 666 556 975 473 
Q 1284 391 1588 391 
Q 1994 391 2212 530 
Q 2431 669 2431 922 
Q 2431 1156 2273 1281 
Q 2116 1406 1581 1522 
L 1381 1569 
Q 847 1681 609 1914 
Q 372 2147 372 2553 
Q 372 3047 722 3315 
Q 1072 3584 1716 3584 
Q 2034 3584 2315 3537 
Q 2597 3491 2834 3397 
z
" transform="scale(0.015625)"/>
      <path id="DejaVuSans-75" d="M 544 1381 
L 544 3500 
L 1119 3500 
L 1119 1403 
Q 1119 906 1312 657 
Q 1506 409 1894 409 
Q 2359 409 2629 706 
Q 2900 1003 2900 1516 
L 2900 3500 
L 3475 3500 
L 3475 0 
L 2900 0 
L 2900 538 
Q 2691 219 2414 64 
Q 2138 -91 1772 -91 
Q 1169 -91 856 284 
Q 544 659 544 1381 
z
M 1991 3584 
L 1991 3584 
z
" transform="scale(0.015625)"/>
      <path id="DejaVuSans-62" d="M 3116 1747 
Q 3116 2381 2855 2742 
Q 2594 3103 2138 3103 
Q 1681 3103 1420 2742 
Q 1159 2381 1159 1747 
Q 1159 1113 1420 752 
Q 1681 391 2138 391 
Q 2594 391 2855 752 
Q 3116 1113 3116 1747 
z
M 1159 2969 
Q 1341 3281 1617 3432 
Q 1894 3584 2278 3584 
Q 2916 3584 3314 3078 
Q 3713 2572 3713 1747 
Q 3713 922 3314 415 
Q 2916 -91 2278 -91 
Q 1894 -91 1617 61 
Q 1341 213 1159 525 
L 1159 0 
L 581 0 
L 581 4863 
L 1159 4863 
L 1159 2969 
z
" transform="scale(0.015625)"/>
      <path id="DejaVuSans-63" d="M 3122 3366 
L 3122 2828 
Q 2878 2963 2633 3030 
Q 2388 3097 2138 3097 
Q 1578 3097 1268 2742 
Q 959 2388 959 1747 
Q 959 1106 1268 751 
Q 1578 397 2138 397 
Q 2388 397 2633 464 
Q 2878 531 3122 666 
L 3122 134 
Q 2881 22 2623 -34 
Q 2366 -91 2075 -91 
Q 1284 -91 818 406 
Q 353 903 353 1747 
Q 353 2603 823 3093 
Q 1294 3584 2113 3584 
Q 2378 3584 2631 3529 
Q 2884 3475 3122 3366 
z
" transform="scale(0.015625)"/>
      <path id="DejaVuSans-72" d="M 2631 2963 
Q 2534 3019 2420 3045 
Q 2306 3072 2169 3072 
Q 1681 3072 1420 2755 
Q 1159 2438 1159 1844 
L 1159 0 
L 581 0 
L 581 3500 
L 1159 3500 
L 1159 2956 
Q 1341 3275 1631 3429 
Q 1922 3584 2338 3584 
Q 2397 3584 2469 3576 
Q 2541 3569 2628 3553 
L 2631 2963 
z
" transform="scale(0.015625)"/>
      <path id="DejaVuSans-69" d="M 603 3500 
L 1178 3500 
L 1178 0 
L 603 0 
L 603 3500 
z
M 603 4863 
L 1178 4863 
L 1178 4134 
L 603 4134 
L 603 4863 
z
" transform="scale(0.015625)"/>
      <path id="DejaVuSans-20" transform="scale(0.015625)"/>
      <path id="DejaVuSans-68" d="M 3513 2113 
L 3513 0 
L 2938 0 
L 2938 2094 
Q 2938 2591 2744 2837 
Q 2550 3084 2163 3084 
Q 1697 3084 1428 2787 
Q 1159 2491 1159 1978 
L 1159 0 
L 581 0 
L 581 4863 
L 1159 4863 
L 1159 2956 
Q 1366 3272 1645 3428 
Q 1925 3584 2291 3584 
Q 2894 3584 3203 3211 
Q 3513 2838 3513 2113 
z
" transform="scale(0.015625)"/>
      <path id="DejaVuSans-6f" d="M 1959 3097 
Q 1497 3097 1228 2736 
Q 959 2375 959 1747 
Q 959 1119 1226 758 
Q 1494 397 1959 397 
Q 2419 397 2687 759 
Q 2956 1122 2956 1747 
Q 2956 2369 2687 2733 
Q 2419 3097 1959 3097 
z
M 1959 3584 
Q 2709 3584 3137 3096 
Q 3566 2609 3566 1747 
Q 3566 888 3137 398 
Q 2709 -91 1959 -91 
Q 1206 -91 779 398 
Q 353 888 353 1747 
Q 353 2609 779 3096 
Q 1206 3584 1959 3584 
z
" transform="scale(0.015625)"/>
      <path id="DejaVuSans-79" d="M 2059 -325 
Q 1816 -950 1584 -1140 
Q 1353 -1331 966 -1331 
L 506 -1331 
L 506 -850 
L 844 -850 
Q 1081 -850 1212 -737 
Q 1344 -625 1503 -206 
L 1606 56 
L 191 3500 
L 800 3500 
L 1894 763 
L 2988 3500 
L 3597 3500 
L 2059 -325 
z
" transform="scale(0.015625)"/>
     </defs>
     <use xlink:href="#DejaVuSans-67"/>
     <use xlink:href="#DejaVuSans-65" transform="translate(63.476562 0)"/>
     <use xlink:href="#DejaVuSans-74" transform="translate(125 0)"/>
     <use xlink:href="#DejaVuSans-5f" transform="translate(164.208984 0)"/>
     <use xlink:href="#DejaVuSans-73" transform="translate(214.208984 0)"/>
     <use xlink:href="#DejaVuSans-75" transform="translate(266.308594 0)"/>
     <use xlink:href="#DejaVuSans-62" transform="translate(329.6875 0)"/>
     <use xlink:href="#DejaVuSans-73" transform="translate(393.164062 0)"/>
     <use xlink:href="#DejaVuSans-63" transform="translate(445.263672 0)"/>
     <use xlink:href="#DejaVuSans-72" transform="translate(500.244141 0)"/>
     <use xlink:href="#DejaVuSans-69" transform="translate(541.357422 0)"/>
     <use xlink:href="#DejaVuSans-62" transform="translate(569.140625 0)"/>
     <use xlink:href="#DejaVuSans-65" transform="translate(632.617188 0)"/>
     <use xlink:href="#DejaVuSans-20" transform="translate(694.140625 0)"/>
     <use xlink:href="#DejaVuSans-68" transform="translate(725.927734 0)"/>
     <use xlink:href="#DejaVuSans-69" transform="translate(789.306641 0)"/>
     <use xlink:href="#DejaVuSans-73" transform="translate(817.089844 0)"/>
     <use xlink:href="#DejaVuSans-74" transform="translate(869.189453 0)"/>
     <use xlink:href="#DejaVuSans-6f" transform="translate(908.398438 0)"/>
     <use xlink:href="#DejaVuSans-72" transform="translate(969.580078 0)"/>
     <use xlink:href="#DejaVuSans-79" transform="translate(1010.693359 0)"/>
    </g>
   </g>
   <g id="legend_1">
    <g id="line2d_41">
     <path d="M 815.08 328.498438 
L 825.08 328.498438 
L 835.08 328.498438 
" style="fill: none; stroke: #1f77b4; stroke-width: 1.5; stroke-linecap: square"/>
    </g>
    <g id="text_21">
     <!-- star -->
     <g style="fill: #a9a9a9" transform="translate(843.08 331.998438) scale(0.1 -0.1)">
      <defs>
       <path id="DejaVuSans-61" d="M 2194 1759 
Q 1497 1759 1228 1600 
Q 959 1441 959 1056 
Q 959 750 1161 570 
Q 1363 391 1709 391 
Q 2188 391 2477 730 
Q 2766 1069 2766 1631 
L 2766 1759 
L 2194 1759 
z
M 3341 1997 
L 3341 0 
L 2766 0 
L 2766 531 
Q 2569 213 2275 61 
Q 1981 -91 1556 -91 
Q 1019 -91 701 211 
Q 384 513 384 1019 
Q 384 1609 779 1909 
Q 1175 2209 1959 2209 
L 2766 2209 
L 2766 2266 
Q 2766 2663 2505 2880 
Q 2244 3097 1772 3097 
Q 1472 3097 1187 3025 
Q 903 2953 641 2809 
L 641 3341 
Q 956 3463 1253 3523 
Q 1550 3584 1831 3584 
Q 2591 3584 2966 3190 
Q 3341 2797 3341 1997 
z
" transform="scale(0.015625)"/>
      </defs>
      <use xlink:href="#DejaVuSans-73"/>
      <use xlink:href="#DejaVuSans-74" transform="translate(52.099609 0)"/>
      <use xlink:href="#DejaVuSans-61" transform="translate(91.308594 0)"/>
      <use xlink:href="#DejaVuSans-72" transform="translate(152.587891 0)"/>
     </g>
    </g>
    <g id="line2d_42">
     <path d="M 815.08 343.176562 
L 825.08 343.176562 
L 835.08 343.176562 
" style="fill: none; stroke: #ff7f0e; stroke-width: 1.5; stroke-linecap: square"/>
    </g>
    <g id="text_22">
     <!-- fork -->
     <g style="fill: #a9a9a9" transform="translate(843.08 346.676562) scale(0.1 -0.1)">
      <defs>
       <path id="DejaVuSans-66" d="M 2375 4863 
L 2375 4384 
L 1825 4384 
Q 1516 4384 1395 4259 
Q 1275 4134 1275 3809 
L 1275 3500 
L 2222 3500 
L 2222 3053 
L 1275 3053 
L 1275 0 
L 697 0 
L 697 3053 
L 147 3053 
L 147 3500 
L 697 3500 
L 697 3744 
Q 697 4328 969 4595 
Q 1241 4863 1831 4863 
L 2375 4863 
z
" transform="scale(0.015625)"/>
       <path id="DejaVuSans-6b" d="M 581 4863 
L 1159 4863 
L 1159 1991 
L 2875 3500 
L 3609 3500 
L 1753 1863 
L 3688 0 
L 2938 0 
L 1159 1709 
L 1159 0 
L 581 0 
L 581 4863 
z
" transform="scale(0.015625)"/>
      </defs>
      <use xlink:href="#DejaVuSans-66"/>
      <use xlink:href="#DejaVuSans-6f" transform="translate(35.205078 0)"/>
      <use xlink:href="#DejaVuSans-72" transform="translate(96.386719 0)"/>
      <use xlink:href="#DejaVuSans-6b" transform="translate(137.5 0)"/>
     </g>
    </g>
   </g>
  </g>
 </g>
 <defs>
  <clipPath id="pdf7f695a71">
   <rect x="108" y="43.2" width="669.6" height="277.2"/>
  </clipPath>
 </defs>
</svg>
