<?xml version="1.0" encoding="utf-8" standalone="no"?>
<!DOCTYPE svg PUBLIC "-//W3C//DTD SVG 1.1//EN"
  "http://www.w3.org/Graphics/SVG/1.1/DTD/svg11.dtd">
<svg xmlns:xlink="http://www.w3.org/1999/xlink" width="864pt" height="360pt" viewBox="0 0 864 360" xmlns="http://www.w3.org/2000/svg" version="1.1">
 <metadata>
  <rdf:RDF xmlns:dc="http://purl.org/dc/elements/1.1/" xmlns:cc="http://creativecommons.org/ns#" xmlns:rdf="http://www.w3.org/1999/02/22-rdf-syntax-ns#">
   <cc:Work>
    <dc:type rdf:resource="http://purl.org/dc/dcmitype/StillImage"/>
    <dc:date>2025-12-24T08:17:07.083884</dc:date>
    <dc:format>image/svg+xml</dc:format>
    <dc:creator>
     <cc:Agent>
      <dc:title>Matplotlib v3.10.8, https://matplotlib.org/</dc:title>
     </cc:Agent>
    </dc:creator>
   </cc:Work>
  </rdf:RDF>
 </metadata>
 <defs>
  <style type="text/css">*{stroke-linejoin: round; stroke-linecap: butt}</style>
 </defs>
 <g id="figure_1">
  <g id="patch_1">
   <path d="M 0 360 
L 864 360 
L 864 0 
L 0 0 
L 0 360 
z
" style="fill: none; opacity: 0"/>
  </g>
  <g id="axes_1">
   <g id="patch_2">
    <path d="M 108 320.4 
L 777.6 320.4 
L 777.6 43.2 
L 108 43.2 
L 108 320.4 
z
" style="fill: none; opacity: 0"/>
   </g>
   <g id="matplotlib.axis_1">
    <g id="xtick_1">
     <g id="line2d_1">
      <path d="M 129.761811 320.4 
L 129.761811 43.2 
" clip-path="url(#p392f37d3f6)" style="fill: none; stroke-dasharray: 5.12,1.28,0.8,1.28; stroke-dashoffset: 0; stroke: #b0b0b0; stroke-width: 0.8"/>
     </g>
     <g id="line2d_2">
      <defs>
       <path id="m7617f69a89" d="M 0 0 
L 0 3.5 
" style="stroke: #a9a9a9; stroke-width: 0.8"/>
      </defs>
      <g>
       <use xlink:href="#m7617f69a89" x="129.761811" y="320.4" style="fill: #a9a9a9; stroke: #a9a9a9; stroke-width: 0.8"/>
      </g>
     </g>
     <g id="text_1">
      <!-- 2021-07 -->
      <g style="fill: #a9a9a9" transform="translate(108.870405 334.998438) scale(0.1 -0.1)">
       <defs>
        <path id="DejaVuSans-32" d="M 1228 531 
L 3431 531 
L 3431 0 
L 469 0 
L 469 531 
Q 828 903 1448 1529 
Q 2069 2156 2228 2338 
Q 2531 2678 2651 2914 
Q 2772 3150 2772 3378 
Q 2772 3750 2511 3984 
Q 2250 4219 1831 4219 
Q 1534 4219 1204 4116 
Q 875 4013 500 3803 
L 500 4441 
Q 881 4594 1212 4672 
Q 1544 4750 1819 4750 
Q 2544 4750 2975 4387 
Q 3406 4025 3406 3419 
Q 3406 3131 3298 2873 
Q 3191 2616 2906 2266 
Q 2828 2175 2409 1742 
Q 1991 1309 1228 531 
z
" transform="scale(0.015625)"/>
        <path id="DejaVuSans-30" d="M 2034 4250 
Q 1547 4250 1301 3770 
Q 1056 3291 1056 2328 
Q 1056 1369 1301 889 
Q 1547 409 2034 409 
Q 2525 409 2770 889 
Q 3016 1369 3016 2328 
Q 3016 3291 2770 3770 
Q 2525 4250 2034 4250 
z
M 2034 4750 
Q 2819 4750 3233 4129 
Q 3647 3509 3647 2328 
Q 3647 1150 3233 529 
Q 2819 -91 2034 -91 
Q 1250 -91 836 529 
Q 422 1150 422 2328 
Q 422 3509 836 4129 
Q 1250 4750 2034 4750 
z
" transform="scale(0.015625)"/>
        <path id="DejaVuSans-31" d="M 794 531 
L 1825 531 
L 1825 4091 
L 703 3866 
L 703 4441 
L 1819 4666 
L 2450 4666 
L 2450 531 
L 3481 531 
L 3481 0 
L 794 0 
L 794 531 
z
" transform="scale(0.015625)"/>
        <path id="DejaVuSans-2d" d="M 313 2009 
L 1997 2009 
L 1997 1497 
L 313 1497 
L 313 2009 
z
" transform="scale(0.015625)"/>
        <path id="DejaVuSans-37" d="M 525 4666 
L 3525 4666 
L 3525 4397 
L 1831 0 
L 1172 0 
L 2766 4134 
L 525 4134 
L 525 4666 
z
" transform="scale(0.015625)"/>
       </defs>
       <use xlink:href="#DejaVuSans-32"/>
       <use xlink:href="#DejaVuSans-30" transform="translate(63.623047 0)"/>
       <use xlink:href="#DejaVuSans-32" transform="translate(127.246094 0)"/>
       <use xlink:href="#DejaVuSans-31" transform="translate(190.869141 0)"/>
       <use xlink:href="#DejaVuSans-2d" transform="translate(254.492188 0)"/>
       <use xlink:href="#DejaVuSans-30" transform="translate(290.576172 0)"/>
       <use xlink:href="#DejaVuSans-37" transform="translate(354.199219 0)"/>
      </g>
     </g>
    </g>
    <g id="xtick_2">
     <g id="line2d_3">
      <path d="M 199.158229 320.4 
L 199.158229 43.2 
" clip-path="url(#p392f37d3f6)" style="fill: none; stroke-dasharray: 5.12,1.28,0.8,1.28; stroke-dashoffset: 0; stroke: #b0b0b0; stroke-width: 0.8"/>
     </g>
     <g id="line2d_4">
      <g>
       <use xlink:href="#m7617f69a89" x="199.158229" y="320.4" style="fill: #a9a9a9; stroke: #a9a9a9; stroke-width: 0.8"/>
      </g>
     </g>
     <g id="text_2">
      <!-- 2022-01 -->
      <g style="fill: #a9a9a9" transform="translate(178.266823 334.998438) scale(0.1 -0.1)">
       <use xlink:href="#DejaVuSans-32"/>
       <use xlink:href="#DejaVuSans-30" transform="translate(63.623047 0)"/>
       <use xlink:href="#DejaVuSans-32" transform="translate(127.246094 0)"/>
       <use xlink:href="#DejaVuSans-32" transform="translate(190.869141 0)"/>
       <use xlink:href="#DejaVuSans-2d" transform="translate(254.492188 0)"/>
       <use xlink:href="#DejaVuSans-30" transform="translate(290.576172 0)"/>
       <use xlink:href="#DejaVuSans-31" transform="translate(354.199219 0)"/>
      </g>
     </g>
    </g>
    <g id="xtick_3">
     <g id="line2d_5">
      <path d="M 267.423184 320.4 
L 267.423184 43.2 
" clip-path="url(#p392f37d3f6)" style="fill: none; stroke-dasharray: 5.12,1.28,0.8,1.28; stroke-dashoffset: 0; stroke: #b0b0b0; stroke-width: 0.8"/>
     </g>
     <g id="line2d_6">
      <g>
       <use xlink:href="#m7617f69a89" x="267.423184" y="320.4" style="fill: #a9a9a9; stroke: #a9a9a9; stroke-width: 0.8"/>
      </g>
     </g>
     <g id="text_3">
      <!-- 2022-07 -->
      <g style="fill: #a9a9a9" transform="translate(246.531777 334.998438) scale(0.1 -0.1)">
       <use xlink:href="#DejaVuSans-32"/>
       <use xlink:href="#DejaVuSans-30" transform="translate(63.623047 0)"/>
       <use xlink:href="#DejaVuSans-32" transform="translate(127.246094 0)"/>
       <use xlink:href="#DejaVuSans-32" transform="translate(190.869141 0)"/>
       <use xlink:href="#DejaVuSans-2d" transform="translate(254.492188 0)"/>
       <use xlink:href="#DejaVuSans-30" transform="translate(290.576172 0)"/>
       <use xlink:href="#DejaVuSans-37" transform="translate(354.199219 0)"/>
      </g>
     </g>
    </g>
    <g id="xtick_4">
     <g id="line2d_7">
      <path d="M 336.819601 320.4 
L 336.819601 43.2 
" clip-path="url(#p392f37d3f6)" style="fill: none; stroke-dasharray: 5.12,1.28,0.8,1.28; stroke-dashoffset: 0; stroke: #b0b0b0; stroke-width: 0.8"/>
     </g>
     <g id="line2d_8">
      <g>
       <use xlink:href="#m7617f69a89" x="336.819601" y="320.4" style="fill: #a9a9a9; stroke: #a9a9a9; stroke-width: 0.8"/>
      </g>
     </g>
     <g id="text_4">
      <!-- 2023-01 -->
      <g style="fill: #a9a9a9" transform="translate(315.928195 334.998438) scale(0.1 -0.1)">
       <defs>
        <path id="DejaVuSans-33" d="M 2597 2516 
Q 3050 2419 3304 2112 
Q 3559 1806 3559 1356 
Q 3559 666 3084 287 
Q 2609 -91 1734 -91 
Q 1441 -91 1130 -33 
Q 819 25 488 141 
L 488 750 
Q 750 597 1062 519 
Q 1375 441 1716 441 
Q 2309 441 2620 675 
Q 2931 909 2931 1356 
Q 2931 1769 2642 2001 
Q 2353 2234 1838 2234 
L 1294 2234 
L 1294 2753 
L 1863 2753 
Q 2328 2753 2575 2939 
Q 2822 3125 2822 3475 
Q 2822 3834 2567 4026 
Q 2313 4219 1838 4219 
Q 1578 4219 1281 4162 
Q 984 4106 628 3988 
L 628 4550 
Q 988 4650 1302 4700 
Q 1616 4750 1894 4750 
Q 2613 4750 3031 4423 
Q 3450 4097 3450 3541 
Q 3450 3153 3228 2886 
Q 3006 2619 2597 2516 
z
" transform="scale(0.015625)"/>
       </defs>
       <use xlink:href="#DejaVuSans-32"/>
       <use xlink:href="#DejaVuSans-30" transform="translate(63.623047 0)"/>
       <use xlink:href="#DejaVuSans-32" transform="translate(127.246094 0)"/>
       <use xlink:href="#DejaVuSans-33" transform="translate(190.869141 0)"/>
       <use xlink:href="#DejaVuSans-2d" transform="translate(254.492188 0)"/>
       <use xlink:href="#DejaVuSans-30" transform="translate(290.576172 0)"/>
       <use xlink:href="#DejaVuSans-31" transform="translate(354.199219 0)"/>
      </g>
     </g>
    </g>
    <g id="xtick_5">
     <g id="line2d_9">
      <path d="M 405.084556 320.4 
L 405.084556 43.2 
" clip-path="url(#p392f37d3f6)" style="fill: none; stroke-dasharray: 5.12,1.28,0.8,1.28; stroke-dashoffset: 0; stroke: #b0b0b0; stroke-width: 0.8"/>
     </g>
     <g id="line2d_10">
      <g>
       <use xlink:href="#m7617f69a89" x="405.084556" y="320.4" style="fill: #a9a9a9; stroke: #a9a9a9; stroke-width: 0.8"/>
      </g>
     </g>
     <g id="text_5">
      <!-- 2023-07 -->
      <g style="fill: #a9a9a9" transform="translate(384.193149 334.998438) scale(0.1 -0.1)">
       <use xlink:href="#DejaVuSans-32"/>
       <use xlink:href="#DejaVuSans-30" transform="translate(63.623047 0)"/>
       <use xlink:href="#DejaVuSans-32" transform="translate(127.246094 0)"/>
       <use xlink:href="#DejaVuSans-33" transform="translate(190.869141 0)"/>
       <use xlink:href="#DejaVuSans-2d" transform="translate(254.492188 0)"/>
       <use xlink:href="#DejaVuSans-30" transform="translate(290.576172 0)"/>
       <use xlink:href="#DejaVuSans-37" transform="translate(354.199219 0)"/>
      </g>
     </g>
    </g>
    <g id="xtick_6">
     <g id="line2d_11">
      <path d="M 474.480973 320.4 
L 474.480973 43.2 
" clip-path="url(#p392f37d3f6)" style="fill: none; stroke-dasharray: 5.12,1.28,0.8,1.28; stroke-dashoffset: 0; stroke: #b0b0b0; stroke-width: 0.8"/>
     </g>
     <g id="line2d_12">
      <g>
       <use xlink:href="#m7617f69a89" x="474.480973" y="320.4" style="fill: #a9a9a9; stroke: #a9a9a9; stroke-width: 0.8"/>
      </g>
     </g>
     <g id="text_6">
      <!-- 2024-01 -->
      <g style="fill: #a9a9a9" transform="translate(453.589567 334.998438) scale(0.1 -0.1)">
       <defs>
        <path id="DejaVuSans-34" d="M 2419 4116 
L 825 1625 
L 2419 1625 
L 2419 4116 
z
M 2253 4666 
L 3047 4666 
L 3047 1625 
L 3713 1625 
L 3713 1100 
L 3047 1100 
L 3047 0 
L 2419 0 
L 2419 1100 
L 313 1100 
L 313 1709 
L 2253 4666 
z
" transform="scale(0.015625)"/>
       </defs>
       <use xlink:href="#DejaVuSans-32"/>
       <use xlink:href="#DejaVuSans-30" transform="translate(63.623047 0)"/>
       <use xlink:href="#DejaVuSans-32" transform="translate(127.246094 0)"/>
       <use xlink:href="#DejaVuSans-34" transform="translate(190.869141 0)"/>
       <use xlink:href="#DejaVuSans-2d" transform="translate(254.492188 0)"/>
       <use xlink:href="#DejaVuSans-30" transform="translate(290.576172 0)"/>
       <use xlink:href="#DejaVuSans-31" transform="translate(354.199219 0)"/>
      </g>
     </g>
    </g>
    <g id="xtick_7">
     <g id="line2d_13">
      <path d="M 543.123082 320.4 
L 543.123082 43.2 
" clip-path="url(#p392f37d3f6)" style="fill: none; stroke-dasharray: 5.12,1.28,0.8,1.28; stroke-dashoffset: 0; stroke: #b0b0b0; stroke-width: 0.8"/>
     </g>
     <g id="line2d_14">
      <g>
       <use xlink:href="#m7617f69a89" x="543.123082" y="320.4" style="fill: #a9a9a9; stroke: #a9a9a9; stroke-width: 0.8"/>
      </g>
     </g>
     <g id="text_7">
      <!-- 2024-07 -->
      <g style="fill: #a9a9a9" transform="translate(522.231676 334.998438) scale(0.1 -0.1)">
       <use xlink:href="#DejaVuSans-32"/>
       <use xlink:href="#DejaVuSans-30" transform="translate(63.623047 0)"/>
       <use xlink:href="#DejaVuSans-32" transform="translate(127.246094 0)"/>
       <use xlink:href="#DejaVuSans-34" transform="translate(190.869141 0)"/>
       <use xlink:href="#DejaVuSans-2d" transform="translate(254.492188 0)"/>
       <use xlink:href="#DejaVuSans-30" transform="translate(290.576172 0)"/>
       <use xlink:href="#DejaVuSans-37" transform="translate(354.199219 0)"/>
      </g>
     </g>
    </g>
    <g id="xtick_8">
     <g id="line2d_15">
      <path d="M 612.5195 320.4 
L 612.5195 43.2 
" clip-path="url(#p392f37d3f6)" style="fill: none; stroke-dasharray: 5.12,1.28,0.8,1.28; stroke-dashoffset: 0; stroke: #b0b0b0; stroke-width: 0.8"/>
     </g>
     <g id="line2d_16">
      <g>
       <use xlink:href="#m7617f69a89" x="612.5195" y="320.4" style="fill: #a9a9a9; stroke: #a9a9a9; stroke-width: 0.8"/>
      </g>
     </g>
     <g id="text_8">
      <!-- 2025-01 -->
      <g style="fill: #a9a9a9" transform="translate(591.628094 334.998438) scale(0.1 -0.1)">
       <defs>
        <path id="DejaVuSans-35" d="M 691 4666 
L 3169 4666 
L 3169 4134 
L 1269 4134 
L 1269 2991 
Q 1406 3038 1543 3061 
Q 1681 3084 1819 3084 
Q 2600 3084 3056 2656 
Q 3513 2228 3513 1497 
Q 3513 744 3044 326 
Q 2575 -91 1722 -91 
Q 1428 -91 1123 -41 
Q 819 9 494 109 
L 494 744 
Q 775 591 1075 516 
Q 1375 441 1709 441 
Q 2250 441 2565 725 
Q 2881 1009 2881 1497 
Q 2881 1984 2565 2268 
Q 2250 2553 1709 2553 
Q 1456 2553 1204 2497 
Q 953 2441 691 2322 
L 691 4666 
z
" transform="scale(0.015625)"/>
       </defs>
       <use xlink:href="#DejaVuSans-32"/>
       <use xlink:href="#DejaVuSans-30" transform="translate(63.623047 0)"/>
       <use xlink:href="#DejaVuSans-32" transform="translate(127.246094 0)"/>
       <use xlink:href="#DejaVuSans-35" transform="translate(190.869141 0)"/>
       <use xlink:href="#DejaVuSans-2d" transform="translate(254.492188 0)"/>
       <use xlink:href="#DejaVuSans-30" transform="translate(290.576172 0)"/>
       <use xlink:href="#DejaVuSans-31" transform="translate(354.199219 0)"/>
      </g>
     </g>
    </g>
    <g id="xtick_9">
     <g id="line2d_17">
      <path d="M 680.784454 320.4 
L 680.784454 43.2 
" clip-path="url(#p392f37d3f6)" style="fill: none; stroke-dasharray: 5.12,1.28,0.8,1.28; stroke-dashoffset: 0; stroke: #b0b0b0; stroke-width: 0.8"/>
     </g>
     <g id="line2d_18">
      <g>
       <use xlink:href="#m7617f69a89" x="680.784454" y="320.4" style="fill: #a9a9a9; stroke: #a9a9a9; stroke-width: 0.8"/>
      </g>
     </g>
     <g id="text_9">
      <!-- 2025-07 -->
      <g style="fill: #a9a9a9" transform="translate(659.893048 334.998438) scale(0.1 -0.1)">
       <use xlink:href="#DejaVuSans-32"/>
       <use xlink:href="#DejaVuSans-30" transform="translate(63.623047 0)"/>
       <use xlink:href="#DejaVuSans-32" transform="translate(127.246094 0)"/>
       <use xlink:href="#DejaVuSans-35" transform="translate(190.869141 0)"/>
       <use xlink:href="#DejaVuSans-2d" transform="translate(254.492188 0)"/>
       <use xlink:href="#DejaVuSans-30" transform="translate(290.576172 0)"/>
       <use xlink:href="#DejaVuSans-37" transform="translate(354.199219 0)"/>
      </g>
     </g>
    </g>
    <g id="xtick_10">
     <g id="line2d_19">
      <path d="M 750.180872 320.4 
L 750.180872 43.2 
" clip-path="url(#p392f37d3f6)" style="fill: none; stroke-dasharray: 5.12,1.28,0.8,1.28; stroke-dashoffset: 0; stroke: #b0b0b0; stroke-width: 0.8"/>
     </g>
     <g id="line2d_20">
      <g>
       <use xlink:href="#m7617f69a89" x="750.180872" y="320.4" style="fill: #a9a9a9; stroke: #a9a9a9; stroke-width: 0.8"/>
      </g>
     </g>
     <g id="text_10">
      <!-- 2026-01 -->
      <g style="fill: #a9a9a9" transform="translate(729.289466 334.998438) scale(0.1 -0.1)">
       <defs>
        <path id="DejaVuSans-36" d="M 2113 2584 
Q 1688 2584 1439 2293 
Q 1191 2003 1191 1497 
Q 1191 994 1439 701 
Q 1688 409 2113 409 
Q 2538 409 2786 701 
Q 3034 994 3034 1497 
Q 3034 2003 2786 2293 
Q 2538 2584 2113 2584 
z
M 3366 4563 
L 3366 3988 
Q 3128 4100 2886 4159 
Q 2644 4219 2406 4219 
Q 1781 4219 1451 3797 
Q 1122 3375 1075 2522 
Q 1259 2794 1537 2939 
Q 1816 3084 2150 3084 
Q 2853 3084 3261 2657 
Q 3669 2231 3669 1497 
Q 3669 778 3244 343 
Q 2819 -91 2113 -91 
Q 1303 -91 875 529 
Q 447 1150 447 2328 
Q 447 3434 972 4092 
Q 1497 4750 2381 4750 
Q 2619 4750 2861 4703 
Q 3103 4656 3366 4563 
z
" transform="scale(0.015625)"/>
       </defs>
       <use xlink:href="#DejaVuSans-32"/>
       <use xlink:href="#DejaVuSans-30" transform="translate(63.623047 0)"/>
       <use xlink:href="#DejaVuSans-32" transform="translate(127.246094 0)"/>
       <use xlink:href="#DejaVuSans-36" transform="translate(190.869141 0)"/>
       <use xlink:href="#DejaVuSans-2d" transform="translate(254.492188 0)"/>
       <use xlink:href="#DejaVuSans-30" transform="translate(290.576172 0)"/>
       <use xlink:href="#DejaVuSans-31" transform="translate(354.199219 0)"/>
      </g>
     </g>
    </g>
   </g>
   <g id="matplotlib.axis_2">
    <g id="ytick_1">
     <g id="line2d_21">
      <path d="M 108 307.829749 
L 777.6 307.829749 
" clip-path="url(#p392f37d3f6)" style="fill: none; stroke-dasharray: 5.12,1.28,0.8,1.28; stroke-dashoffset: 0; stroke: #b0b0b0; stroke-width: 0.8"/>
     </g>
     <g id="line2d_22">
      <defs>
       <path id="mc43e257147" d="M 0 0 
L -3.5 0 
" style="stroke: #a9a9a9; stroke-width: 0.8"/>
      </defs>
      <g>
       <use xlink:href="#mc43e257147" x="108" y="307.829749" style="fill: #a9a9a9; stroke: #a9a9a9; stroke-width: 0.8"/>
      </g>
     </g>
     <g id="text_11">
      <!-- 0 -->
      <g style="fill: #a9a9a9" transform="translate(94.6375 311.628967) scale(0.1 -0.1)">
       <use xlink:href="#DejaVuSans-30"/>
      </g>
     </g>
    </g>
    <g id="ytick_2">
     <g id="line2d_23">
      <path d="M 108 278.081195 
L 777.6 278.081195 
" clip-path="url(#p392f37d3f6)" style="fill: none; stroke-dasharray: 5.12,1.28,0.8,1.28; stroke-dashoffset: 0; stroke: #b0b0b0; stroke-width: 0.8"/>
     </g>
     <g id="line2d_24">
      <g>
       <use xlink:href="#mc43e257147" x="108" y="278.081195" style="fill: #a9a9a9; stroke: #a9a9a9; stroke-width: 0.8"/>
      </g>
     </g>
     <g id="text_12">
      <!-- 1000 -->
      <g style="fill: #a9a9a9" transform="translate(75.55 281.880413) scale(0.1 -0.1)">
       <use xlink:href="#DejaVuSans-31"/>
       <use xlink:href="#DejaVuSans-30" transform="translate(63.623047 0)"/>
       <use xlink:href="#DejaVuSans-30" transform="translate(127.246094 0)"/>
       <use xlink:href="#DejaVuSans-30" transform="translate(190.869141 0)"/>
      </g>
     </g>
    </g>
    <g id="ytick_3">
     <g id="line2d_25">
      <path d="M 108 248.332641 
L 777.6 248.332641 
" clip-path="url(#p392f37d3f6)" style="fill: none; stroke-dasharray: 5.12,1.28,0.8,1.28; stroke-dashoffset: 0; stroke: #b0b0b0; stroke-width: 0.8"/>
     </g>
     <g id="line2d_26">
      <g>
       <use xlink:href="#mc43e257147" x="108" y="248.332641" style="fill: #a9a9a9; stroke: #a9a9a9; stroke-width: 0.8"/>
      </g>
     </g>
     <g id="text_13">
      <!-- 2000 -->
      <g style="fill: #a9a9a9" transform="translate(75.55 252.13186) scale(0.1 -0.1)">
       <use xlink:href="#DejaVuSans-32"/>
       <use xlink:href="#DejaVuSans-30" transform="translate(63.623047 0)"/>
       <use xlink:href="#DejaVuSans-30" transform="translate(127.246094 0)"/>
       <use xlink:href="#DejaVuSans-30" transform="translate(190.869141 0)"/>
      </g>
     </g>
    </g>
    <g id="ytick_4">
     <g id="line2d_27">
      <path d="M 108 218.584087 
L 777.6 218.584087 
" clip-path="url(#p392f37d3f6)" style="fill: none; stroke-dasharray: 5.12,1.28,0.8,1.28; stroke-dashoffset: 0; stroke: #b0b0b0; stroke-width: 0.8"/>
     </g>
     <g id="line2d_28">
      <g>
       <use xlink:href="#mc43e257147" x="108" y="218.584087" style="fill: #a9a9a9; stroke: #a9a9a9; stroke-width: 0.8"/>
      </g>
     </g>
     <g id="text_14">
      <!-- 3000 -->
      <g style="fill: #a9a9a9" transform="translate(75.55 222.383306) scale(0.1 -0.1)">
       <use xlink:href="#DejaVuSans-33"/>
       <use xlink:href="#DejaVuSans-30" transform="translate(63.623047 0)"/>
       <use xlink:href="#DejaVuSans-30" transform="translate(127.246094 0)"/>
       <use xlink:href="#DejaVuSans-30" transform="translate(190.869141 0)"/>
      </g>
     </g>
    </g>
    <g id="ytick_5">
     <g id="line2d_29">
      <path d="M 108 188.835533 
L 777.6 188.835533 
" clip-path="url(#p392f37d3f6)" style="fill: none; stroke-dasharray: 5.12,1.28,0.8,1.28; stroke-dashoffset: 0; stroke: #b0b0b0; stroke-width: 0.8"/>
     </g>
     <g id="line2d_30">
      <g>
       <use xlink:href="#mc43e257147" x="108" y="188.835533" style="fill: #a9a9a9; stroke: #a9a9a9; stroke-width: 0.8"/>
      </g>
     </g>
     <g id="text_15">
      <!-- 4000 -->
      <g style="fill: #a9a9a9" transform="translate(75.55 192.634752) scale(0.1 -0.1)">
       <use xlink:href="#DejaVuSans-34"/>
       <use xlink:href="#DejaVuSans-30" transform="translate(63.623047 0)"/>
       <use xlink:href="#DejaVuSans-30" transform="translate(127.246094 0)"/>
       <use xlink:href="#DejaVuSans-30" transform="translate(190.869141 0)"/>
      </g>
     </g>
    </g>
    <g id="ytick_6">
     <g id="line2d_31">
      <path d="M 108 159.086979 
L 777.6 159.086979 
" clip-path="url(#p392f37d3f6)" style="fill: none; stroke-dasharray: 5.12,1.28,0.8,1.28; stroke-dashoffset: 0; stroke: #b0b0b0; stroke-width: 0.8"/>
     </g>
     <g id="line2d_32">
      <g>
       <use xlink:href="#mc43e257147" x="108" y="159.086979" style="fill: #a9a9a9; stroke: #a9a9a9; stroke-width: 0.8"/>
      </g>
     </g>
     <g id="text_16">
      <!-- 5000 -->
      <g style="fill: #a9a9a9" transform="translate(75.55 162.886198) scale(0.1 -0.1)">
       <use xlink:href="#DejaVuSans-35"/>
       <use xlink:href="#DejaVuSans-30" transform="translate(63.623047 0)"/>
       <use xlink:href="#DejaVuSans-30" transform="translate(127.246094 0)"/>
       <use xlink:href="#DejaVuSans-30" transform="translate(190.869141 0)"/>
      </g>
     </g>
    </g>
    <g id="ytick_7">
     <g id="line2d_33">
      <path d="M 108 129.338425 
L 777.6 129.338425 
" clip-path="url(#p392f37d3f6)" style="fill: none; stroke-dasharray: 5.12,1.28,0.8,1.28; stroke-dashoffset: 0; stroke: #b0b0b0; stroke-width: 0.8"/>
     </g>
     <g id="line2d_34">
      <g>
       <use xlink:href="#mc43e257147" x="108" y="129.338425" style="fill: #a9a9a9; stroke: #a9a9a9; stroke-width: 0.8"/>
      </g>
     </g>
     <g id="text_17">
      <!-- 6000 -->
      <g style="fill: #a9a9a9" transform="translate(75.55 133.137644) scale(0.1 -0.1)">
       <use xlink:href="#DejaVuSans-36"/>
       <use xlink:href="#DejaVuSans-30" transform="translate(63.623047 0)"/>
       <use xlink:href="#DejaVuSans-30" transform="translate(127.246094 0)"/>
       <use xlink:href="#DejaVuSans-30" transform="translate(190.869141 0)"/>
      </g>
     </g>
    </g>
    <g id="ytick_8">
     <g id="line2d_35">
      <path d="M 108 99.589871 
L 777.6 99.589871 
" clip-path="url(#p392f37d3f6)" style="fill: none; stroke-dasharray: 5.12,1.28,0.8,1.28; stroke-dashoffset: 0; stroke: #b0b0b0; stroke-width: 0.8"/>
     </g>
     <g id="line2d_36">
      <g>
       <use xlink:href="#mc43e257147" x="108" y="99.589871" style="fill: #a9a9a9; stroke: #a9a9a9; stroke-width: 0.8"/>
      </g>
     </g>
     <g id="text_18">
      <!-- 7000 -->
      <g style="fill: #a9a9a9" transform="translate(75.55 103.38909) scale(0.1 -0.1)">
       <use xlink:href="#DejaVuSans-37"/>
       <use xlink:href="#DejaVuSans-30" transform="translate(63.623047 0)"/>
       <use xlink:href="#DejaVuSans-30" transform="translate(127.246094 0)"/>
       <use xlink:href="#DejaVuSans-30" transform="translate(190.869141 0)"/>
      </g>
     </g>
    </g>
    <g id="ytick_9">
     <g id="line2d_37">
      <path d="M 108 69.841317 
L 777.6 69.841317 
" clip-path="url(#p392f37d3f6)" style="fill: none; stroke-dasharray: 5.12,1.28,0.8,1.28; stroke-dashoffset: 0; stroke: #b0b0b0; stroke-width: 0.8"/>
     </g>
     <g id="line2d_38">
      <g>
       <use xlink:href="#mc43e257147" x="108" y="69.841317" style="fill: #a9a9a9; stroke: #a9a9a9; stroke-width: 0.8"/>
      </g>
     </g>
     <g id="text_19">
      <!-- 8000 -->
      <g style="fill: #a9a9a9" transform="translate(75.55 73.640536) scale(0.1 -0.1)">
       <defs>
        <path id="DejaVuSans-38" d="M 2034 2216 
Q 1584 2216 1326 1975 
Q 1069 1734 1069 1313 
Q 1069 891 1326 650 
Q 1584 409 2034 409 
Q 2484 409 2743 651 
Q 3003 894 3003 1313 
Q 3003 1734 2745 1975 
Q 2488 2216 2034 2216 
z
M 1403 2484 
Q 997 2584 770 2862 
Q 544 3141 544 3541 
Q 544 4100 942 4425 
Q 1341 4750 2034 4750 
Q 2731 4750 3128 4425 
Q 3525 4100 3525 3541 
Q 3525 3141 3298 2862 
Q 3072 2584 2669 2484 
Q 3125 2378 3379 2068 
Q 3634 1759 3634 1313 
Q 3634 634 3220 271 
Q 2806 -91 2034 -91 
Q 1263 -91 848 271 
Q 434 634 434 1313 
Q 434 1759 690 2068 
Q 947 2378 1403 2484 
z
M 1172 3481 
Q 1172 3119 1398 2916 
Q 1625 2713 2034 2713 
Q 2441 2713 2670 2916 
Q 2900 3119 2900 3481 
Q 2900 3844 2670 4047 
Q 2441 4250 2034 4250 
Q 1625 4250 1398 4047 
Q 1172 3844 1172 3481 
z
" transform="scale(0.015625)"/>
       </defs>
       <use xlink:href="#DejaVuSans-38"/>
       <use xlink:href="#DejaVuSans-30" transform="translate(63.623047 0)"/>
       <use xlink:href="#DejaVuSans-30" transform="translate(127.246094 0)"/>
       <use xlink:href="#DejaVuSans-30" transform="translate(190.869141 0)"/>
      </g>
     </g>
    </g>
   </g>
   <g id="line2d_39">
    <path d="M 138.436364 307.740503 
L 140.69929 307.532263 
L 141.076445 307.353772 
L 142.585063 307.145532 
L 144.09368 306.818298 
L 144.847989 306.699304 
L 146.733761 306.520812 
L 147.48807 306.223327 
L 147.865225 305.687853 
L 148.242379 305.420116 
L 148.619534 304.527659 
L 148.996688 304.468162 
L 149.750997 303.992185 
L 150.505306 303.426963 
L 152.013924 302.296518 
L 152.391078 302.147775 
L 153.145387 301.671798 
L 154.27685 301.106575 
L 154.654005 300.452107 
L 155.408314 299.857136 
L 156.162623 299.619148 
L 157.294086 299.440656 
L 159.557013 299.083674 
L 159.934167 298.905182 
L 162.574248 298.667194 
L 164.082866 298.280463 
L 167.100101 297.834234 
L 167.477256 297.625995 
L 167.85441 297.566497 
L 168.608719 297.29876 
L 171.2488 296.822784 
L 172.003109 296.584795 
L 175.397499 295.989824 
L 176.151808 295.811333 
L 177.660426 295.603093 
L 178.414735 295.365104 
L 178.791889 294.799882 
L 179.923352 294.323905 
L 181.054816 293.996671 
L 181.43197 293.788431 
L 182.186279 293.639688 
L 183.694897 293.163711 
L 184.449206 293.104214 
L 185.203515 292.895975 
L 186.712132 292.479495 
L 187.089287 292.449746 
L 187.843596 292.063015 
L 188.22075 292.003518 
L 188.597905 291.795278 
L 192.746604 291.081313 
L 194.255221 290.605336 
L 194.632376 290.337599 
L 196.518148 289.683131 
L 197.272457 289.117908 
L 198.40392 288.87992 
L 203.306928 287.392492 
L 203.684082 287.332995 
L 205.1927 286.708275 
L 205.569855 286.648778 
L 206.324164 286.321544 
L 207.078472 286.291796 
L 208.209936 285.934813 
L 208.58709 285.934813 
L 208.964245 285.756322 
L 209.718554 285.667076 
L 210.095708 285.518333 
L 211.98148 285.429087 
L 212.358635 285.339842 
L 213.112944 284.923362 
L 214.244407 284.506882 
L 214.998716 284.090403 
L 216.130179 283.584677 
L 217.638797 282.811215 
L 218.015951 282.364986 
L 218.77026 281.115547 
L 219.147415 280.996553 
L 219.524569 280.996553 
L 221.033187 280.133845 
L 221.410341 280.044599 
L 221.787496 279.657868 
L 222.541805 279.330634 
L 223.296114 278.973651 
L 225.55904 276.266533 
L 225.936195 276.147539 
L 227.821967 274.838602 
L 228.576276 274.303128 
L 228.95343 273.737906 
L 229.330585 272.815701 
L 229.707739 272.22073 
L 230.084894 271.893495 
L 230.462048 271.715004 
L 234.987901 267.520458 
L 236.496519 266.538756 
L 237.250828 266.122276 
L 238.759446 265.259568 
L 240.645218 263.415158 
L 241.399527 263.087924 
L 242.153836 262.55245 
L 242.53099 262.314461 
L 242.908145 262.254964 
L 244.039608 261.570747 
L 244.416762 261.124519 
L 246.302535 260.023822 
L 246.679689 259.87508 
L 247.811152 259.04212 
L 253.468469 256.900224 
L 254.222778 256.15651 
L 255.354241 255.561539 
L 256.10855 255.055814 
L 256.862859 254.817826 
L 257.240014 254.550089 
L 257.617168 254.431094 
L 258.748631 253.627883 
L 260.634404 253.181655 
L 261.765867 252.46769 
L 262.89733 252.199953 
L 263.274485 252.110707 
L 264.405948 251.247999 
L 265.914566 250.801771 
L 266.29172 250.474537 
L 268.554647 249.641577 
L 269.308956 249.492834 
L 270.063265 249.1656 
L 272.703346 248.154149 
L 273.457655 248.064904 
L 274.589118 247.648424 
L 276.47489 246.666722 
L 278.737817 245.328037 
L 279.492126 245.119797 
L 280.623589 244.524826 
L 281.377898 244.376083 
L 282.132207 243.900106 
L 282.886516 243.691866 
L 284.017979 243.21589 
L 285.526597 243.00765 
L 286.280906 242.59117 
L 286.65806 242.234187 
L 287.035215 241.520222 
L 288.543832 241.073994 
L 290.05245 240.360028 
L 293.44684 238.783355 
L 294.201149 238.604864 
L 295.332612 238.009893 
L 295.709767 237.950395 
L 297.595539 236.968693 
L 298.349848 236.462968 
L 299.481311 236.224979 
L 302.121392 235.332523 
L 308.155863 232.446913 
L 308.533018 232.030433 
L 308.910172 231.792445 
L 309.287327 231.703199 
L 310.041636 231.048731 
L 310.41879 230.989234 
L 310.795945 230.334766 
L 311.173099 230.186023 
L 311.550253 229.858789 
L 311.927408 229.799292 
L 312.681717 229.293566 
L 313.436026 229.025829 
L 313.81318 228.728344 
L 314.567489 228.311864 
L 315.698952 227.597899 
L 316.830416 227.002928 
L 317.584725 226.794688 
L 318.339033 226.348459 
L 318.716188 225.664243 
L 319.470497 225.069272 
L 319.847651 224.980026 
L 322.110578 223.849581 
L 322.864887 223.522347 
L 323.619196 222.957124 
L 324.750659 221.856428 
L 325.504968 221.380451 
L 325.882122 220.934223 
L 327.39074 219.863275 
L 328.145049 219.060064 
L 329.276512 218.494841 
L 330.030821 218.048613 
L 330.407976 217.929619 
L 330.78513 217.632133 
L 331.162285 217.572636 
L 334.556675 215.787723 
L 335.310983 215.579483 
L 336.819601 215.044009 
L 337.196756 214.716775 
L 338.705373 214.092055 
L 339.082528 213.973061 
L 339.836837 213.467336 
L 340.591146 213.140102 
L 341.345455 212.574879 
L 342.099763 210.998206 
L 342.854072 210.105749 
L 343.985536 209.481029 
L 344.739845 209.153795 
L 345.116999 209.094298 
L 345.871308 208.737316 
L 347.379926 208.201842 
L 348.134235 207.755613 
L 348.888543 207.398631 
L 349.265698 207.279636 
L 351.528625 205.851706 
L 351.905779 205.405478 
L 353.037242 204.721261 
L 353.414397 204.572518 
L 354.168706 204.096541 
L 355.677323 203.233833 
L 356.054478 203.144587 
L 356.431632 202.817353 
L 359.071713 201.924897 
L 359.448868 201.65716 
L 360.203177 201.419171 
L 363.220412 199.931744 
L 363.974721 199.515264 
L 364.351876 199.336773 
L 365.106185 198.712053 
L 365.860493 198.503813 
L 366.237648 198.14683 
L 366.614802 198.087333 
L 367.369111 197.492362 
L 369.254883 196.332169 
L 370.009192 196.09418 
L 370.386347 195.856192 
L 370.763501 195.796695 
L 372.272119 195.052981 
L 373.403582 194.66625 
L 374.157891 194.547255 
L 375.666509 193.952284 
L 376.043663 193.922536 
L 377.929436 193.059828 
L 378.683745 192.524354 
L 379.438053 192.107874 
L 380.946671 191.36416 
L 382.078135 190.590698 
L 382.832443 190.412206 
L 383.963907 189.698241 
L 385.09537 189.281761 
L 385.849679 189.014024 
L 387.358297 188.47855 
L 388.112606 188.210813 
L 389.621223 187.883579 
L 390.375532 187.645591 
L 392.261304 186.991123 
L 393.392768 186.63414 
L 394.147077 186.455649 
L 396.410003 186.039169 
L 397.164312 185.890426 
L 398.295776 185.622689 
L 398.67293 185.444198 
L 399.427239 185.295455 
L 400.181548 185.087215 
L 400.935857 184.730233 
L 401.313011 184.58149 
L 401.690166 184.58149 
L 405.838864 183.242805 
L 406.216019 183.034565 
L 406.593173 183.034565 
L 407.347482 182.737079 
L 407.724637 182.3206 
L 409.987563 181.338897 
L 411.496181 180.803423 
L 411.873336 180.565435 
L 413.004799 180.208452 
L 413.759108 180.000212 
L 414.136262 179.732476 
L 414.513417 179.64323 
L 414.890571 179.315996 
L 416.022034 179.078007 
L 416.776343 178.721025 
L 417.153498 178.245048 
L 421.302197 177.293094 
L 421.679351 177.293094 
L 422.43366 177.055106 
L 425.82805 176.192398 
L 426.582359 176.013906 
L 430.353903 174.91321 
L 430.731058 174.823964 
L 431.108212 174.615724 
L 431.862521 174.407484 
L 432.61683 174.08025 
L 433.371139 173.782765 
L 433.748293 173.515028 
L 434.502602 173.277039 
L 437.519838 172.206091 
L 438.274147 172.146594 
L 439.782764 171.700366 
L 440.159919 171.462378 
L 440.914228 171.224389 
L 443.177154 170.272435 
L 447.703008 168.606516 
L 449.58878 167.952048 
L 450.343089 167.71406 
L 451.097398 167.50582 
L 452.606016 166.226632 
L 455.246097 165.066438 
L 457.886178 163.906245 
L 458.640487 163.698005 
L 462.034877 162.002337 
L 462.789186 161.556109 
L 466.183576 159.89019 
L 466.56073 159.592705 
L 471.086583 157.83754 
L 471.840892 157.718546 
L 472.218047 157.450809 
L 473.726664 157.153323 
L 474.480973 156.826089 
L 476.366746 155.903884 
L 481.269753 153.672742 
L 482.401217 153.286011 
L 482.778371 153.018274 
L 483.53268 152.929028 
L 483.909834 152.661291 
L 484.664143 152.542297 
L 489.567151 150.727635 
L 490.698614 150.459898 
L 492.207232 149.80543 
L 492.961541 149.388951 
L 494.470159 148.58574 
L 495.224468 148.407248 
L 495.601622 148.16926 
L 495.978777 148.080014 
L 497.864549 147.12806 
L 502.767557 145.253902 
L 503.144711 145.194404 
L 504.653329 144.450691 
L 505.407638 144.301948 
L 506.161947 143.85572 
L 507.670564 143.112006 
L 511.442109 141.565081 
L 512.196418 141.17835 
L 512.573572 141.089104 
L 513.327881 140.791618 
L 513.705035 140.791618 
L 514.459344 140.434636 
L 515.967962 139.125699 
L 516.345117 139.006705 
L 516.722271 138.768717 
L 517.853734 138.441483 
L 518.230889 138.143997 
L 518.985198 137.87626 
L 520.116661 137.102798 
L 520.87097 136.894558 
L 521.625279 136.478078 
L 522.756742 136.210341 
L 528.791213 133.711463 
L 530.676985 132.938 
L 532.562758 132.343029 
L 533.694221 131.599315 
L 534.071375 131.51007 
L 534.825684 131.123338 
L 535.579993 130.88535 
L 535.957148 130.528367 
L 537.088611 130.082139 
L 537.465765 130.022642 
L 538.974383 129.308677 
L 540.105847 128.951694 
L 541.23731 128.535214 
L 542.368773 128.20798 
L 542.745928 128.148483 
L 543.500237 127.732003 
L 543.877391 127.583261 
L 544.254545 127.285775 
L 545.386009 126.988289 
L 546.140318 126.690804 
L 546.894627 126.36357 
L 548.403244 125.73885 
L 551.043325 125.024885 
L 551.797634 124.727399 
L 553.306252 124.429914 
L 554.060561 124.281171 
L 555.192024 123.834943 
L 556.323488 123.596954 
L 558.586414 122.228521 
L 559.717878 121.514556 
L 561.980804 120.80059 
L 562.357959 120.503105 
L 565.375194 119.402408 
L 566.506658 119.045426 
L 567.260967 118.628946 
L 568.015275 118.420706 
L 568.39243 118.212466 
L 569.146739 118.063723 
L 570.655357 117.468752 
L 571.409665 116.963027 
L 572.541129 116.665541 
L 573.672592 115.892079 
L 574.049747 115.832582 
L 575.558364 115.207862 
L 577.066982 114.821131 
L 577.444137 114.761634 
L 577.821291 114.583142 
L 578.198445 114.553394 
L 578.952754 114.285657 
L 579.329909 114.255908 
L 580.461372 113.80968 
L 581.96999 113.363452 
L 582.724299 112.768481 
L 584.232917 111.905773 
L 584.610071 111.816527 
L 584.987225 111.608287 
L 585.36438 111.54879 
L 588.75877 109.823374 
L 589.135924 109.466391 
L 591.021697 108.990414 
L 592.15316 108.45494 
L 592.907469 108.246701 
L 593.284623 108.068209 
L 593.661778 107.740975 
L 595.54755 107.056758 
L 600.450558 105.212348 
L 601.204867 105.063605 
L 603.090639 104.438886 
L 604.222102 103.93316 
L 606.862183 103.129949 
L 607.616492 102.683721 
L 620.439743 98.697415 
L 621.194052 98.489175 
L 622.325515 98.072695 
L 622.70267 98.072695 
L 623.834133 97.804958 
L 624.588442 97.656215 
L 625.342751 97.447975 
L 626.474214 96.823256 
L 627.605678 96.466273 
L 630.245759 95.544068 
L 631.754376 94.770606 
L 632.88584 94.502869 
L 633.640149 94.26488 
L 634.394458 93.878149 
L 634.771612 93.550915 
L 635.525921 93.312926 
L 635.903075 93.074938 
L 636.657384 92.985692 
L 639.297465 92.21223 
L 640.428929 91.974242 
L 641.560392 91.676756 
L 642.314701 91.498265 
L 643.446164 90.903294 
L 648.349172 89.029135 
L 649.103481 88.91014 
L 649.85779 88.761398 
L 650.234944 88.761398 
L 651.366408 88.404415 
L 652.497871 88.047432 
L 655.892261 87.06573 
L 656.64657 86.85749 
L 657.023724 86.768245 
L 657.400879 86.530256 
L 658.155188 86.381513 
L 658.909496 86.292268 
L 659.286651 86.084028 
L 659.663805 86.054279 
L 660.795269 85.518805 
L 661.926732 85.251068 
L 662.681041 84.923834 
L 664.943968 84.120623 
L 665.321122 84.061126 
L 666.075431 83.793389 
L 670.601284 82.633196 
L 672.864211 81.859733 
L 673.61852 81.800236 
L 675.881446 81.235014 
L 676.635755 80.907779 
L 677.01291 80.848282 
L 677.390064 80.669791 
L 678.144373 80.015323 
L 681.915918 78.617141 
L 684.178844 78.02217 
L 684.933153 77.60569 
L 685.310308 77.516444 
L 686.441771 76.891725 
L 686.818925 76.802479 
L 687.19608 76.504994 
L 688.327543 76.177759 
L 694.362014 73.440892 
L 694.739169 73.381395 
L 697.002095 72.221202 
L 697.37925 71.983213 
L 698.510713 71.655979 
L 700.019331 71.03126 
L 700.396485 71.001511 
L 702.282258 70.287546 
L 703.036566 70.138803 
L 703.790875 69.57358 
L 704.16803 69.57358 
L 705.676648 69.038106 
L 707.185265 68.740621 
L 708.693883 68.086153 
L 709.071038 68.086153 
L 710.202501 67.699422 
L 710.95681 67.580427 
L 712.088273 66.925959 
L 712.842582 66.539228 
L 714.728354 65.914508 
L 715.482663 65.587274 
L 717.368435 65.081549 
L 719.631362 64.456829 
L 724.157215 63.118144 
L 727.174451 62.344682 
L 728.683069 61.630717 
L 729.814532 61.273734 
L 732.454613 60.73826 
L 733.208922 60.619266 
L 735.849003 59.697061 
L 736.603312 59.459072 
L 737.357621 59.161587 
L 738.11193 59.102089 
L 738.489084 58.804604 
L 739.243393 58.566616 
L 739.620547 58.566616 
L 740.752011 58.179884 
L 741.50632 57.882399 
L 742.260629 57.733656 
L 744.523555 56.751954 
L 744.90071 56.692457 
L 745.655019 56.335474 
L 746.409327 56.00824 
L 746.786482 55.8 
L 747.163636 55.8 
L 747.163636 55.8 
" clip-path="url(#p392f37d3f6)" style="fill: none; stroke: #1f77b4; stroke-width: 1.5; stroke-linecap: square"/>
   </g>
   <g id="line2d_40">
    <path d="M 138.813518 307.8 
L 142.207908 307.710754 
L 145.225144 307.562012 
L 146.733761 307.562012 
L 147.110916 307.443017 
L 148.996688 307.353772 
L 151.259615 307.086035 
L 153.522541 306.996789 
L 154.27685 306.907543 
L 156.916931 306.788549 
L 159.557013 306.699304 
L 161.442785 306.639806 
L 166.345792 306.550561 
L 168.231565 306.491064 
L 171.625955 306.401818 
L 173.134572 306.372069 
L 176.906117 306.282824 
L 178.414735 306.134081 
L 179.923352 306.104332 
L 182.186279 306.015087 
L 183.694897 305.985338 
L 185.580669 305.925841 
L 187.089287 305.777098 
L 190.483677 305.687853 
L 191.237986 305.628356 
L 192.746604 305.53911 
L 195.00953 305.449864 
L 196.518148 305.360619 
L 203.306928 304.91439 
L 205.947009 304.825145 
L 207.078472 304.70615 
L 208.964245 304.616905 
L 212.735789 304.408665 
L 216.507334 304.349168 
L 218.015951 304.170676 
L 219.901724 304.081431 
L 223.673268 303.6947 
L 225.936195 303.397214 
L 227.444812 303.337717 
L 230.462048 302.921237 
L 232.724975 302.86174 
L 233.856438 302.742746 
L 234.987901 302.6535 
L 254.599932 301.195821 
L 257.240014 301.106575 
L 258.748631 300.928084 
L 260.634404 300.838838 
L 262.89733 300.749593 
L 264.783102 300.660347 
L 266.29172 300.630599 
L 268.177492 300.571101 
L 268.931801 300.481856 
L 274.211964 300.39261 
L 274.966272 300.303364 
L 279.492126 300.214119 
L 282.886516 300.035627 
L 285.526597 299.946382 
L 287.035215 299.76789 
L 289.675296 299.678645 
L 290.429605 299.559651 
L 292.315377 299.500153 
L 296.086921 299.440656 
L 297.595539 299.291914 
L 299.104157 299.262165 
L 300.23562 299.172919 
L 301.744238 299.024177 
L 305.515782 298.815937 
L 309.287327 298.726691 
L 312.681717 298.5482 
L 313.81318 298.518451 
L 314.567489 298.399457 
L 316.453261 298.310211 
L 317.20757 298.250714 
L 319.093342 298.161469 
L 320.60196 298.13172 
L 323.242041 298.042474 
L 333.048057 297.358258 
L 335.310983 297.269012 
L 337.196756 297.209515 
L 342.476918 297.120269 
L 343.231227 297.031023 
L 348.511389 296.941778 
L 352.282933 296.733538 
L 353.037242 296.703789 
L 353.791551 296.614544 
L 355.677323 296.525298 
L 357.563096 296.465801 
L 359.448868 296.376555 
L 361.33464 296.317058 
L 364.72903 296.227813 
L 366.991957 296.138567 
L 372.272119 296.049321 
L 376.420818 295.811333 
L 377.929436 295.751836 
L 379.060899 295.66259 
L 384.341061 295.573344 
L 386.603988 295.484099 
L 393.392768 295.394853 
L 394.901386 295.365104 
L 399.427239 295.305607 
L 400.181548 295.24611 
L 405.46171 295.156865 
L 406.970328 295.127116 
L 416.776343 295.03787 
L 419.03927 294.948625 
L 434.879757 294.859379 
L 436.765529 294.799882 
L 446.571544 294.740385 
L 447.325853 294.680888 
L 449.211626 294.621391 
L 450.343089 294.502396 
L 452.606016 294.413151 
L 455.246097 294.294157 
L 458.640487 294.204911 
L 460.526259 294.145414 
L 463.16634 294.056168 
L 466.183576 293.907425 
L 468.069348 293.81818 
L 469.577966 293.788431 
L 475.989591 293.699185 
L 478.252518 293.60994 
L 482.401217 293.520694 
L 485.041298 293.4017 
L 487.681379 293.342203 
L 488.435688 293.282706 
L 497.487394 293.19346 
L 501.258939 292.98522 
L 503.89902 292.895975 
L 508.047719 292.657986 
L 510.6878 292.56874 
L 512.196418 292.538992 
L 514.836499 292.449746 
L 516.722271 292.241506 
L 520.493815 292.152261 
L 521.248124 292.063015 
L 525.019669 291.973769 
L 526.905441 291.914272 
L 531.05414 291.884524 
L 531.808449 291.795278 
L 535.957148 291.706032 
L 536.711457 291.646535 
L 545.008854 291.55729 
L 547.271781 291.468044 
L 552.929098 291.378798 
L 554.437715 291.34905 
L 557.832105 291.289553 
L 558.586414 291.200307 
L 563.489422 291.111061 
L 565.375194 291.051564 
L 572.163974 290.962318 
L 573.295438 290.873073 
L 574.426901 290.783827 
L 575.558364 290.694582 
L 581.215681 290.605336 
L 583.478608 290.51609 
L 594.416087 290.426845 
L 597.810477 290.248353 
L 603.090639 290.159108 
L 604.599257 290.129359 
L 609.12511 290.040113 
L 611.010882 289.980616 
L 618.931125 289.891371 
L 621.571206 289.772376 
L 628.359986 289.683131 
L 629.868604 289.653382 
L 633.640149 289.564136 
L 636.28023 289.445142 
L 640.428929 289.355897 
L 643.06901 289.236902 
L 646.4634 289.177405 
L 647.217709 289.117908 
L 655.515106 289.028662 
L 657.778033 288.939417 
L 660.418114 288.850171 
L 662.303886 288.790674 
L 673.241365 288.701428 
L 675.504292 288.612183 
L 681.538763 288.522937 
L 683.80169 288.433691 
L 688.704698 288.344446 
L 690.967624 288.2552 
L 693.98486 288.165954 
L 696.247786 288.076709 
L 711.333964 287.987463 
L 714.3512 287.83872 
L 723.025752 287.749475 
L 724.53437 287.719726 
L 733.586076 287.63048 
L 735.471849 287.570983 
L 747.163636 287.481738 
L 747.163636 287.481738 
" clip-path="url(#p392f37d3f6)" style="fill: none; stroke: #ff7f0e; stroke-width: 1.5; stroke-linecap: square"/>
   </g>
   <g id="patch_3">
    <path d="M 108 320.4 
L 108 43.2 
" style="fill: none; stroke: #a9a9a9; stroke-width: 0.8; stroke-linejoin: miter; stroke-linecap: square"/>
   </g>
   <g id="patch_4">
    <path d="M 777.6 320.4 
L 777.6 43.2 
" style="fill: none"/>
   </g>
   <g id="patch_5">
    <path d="M 108 320.4 
L 777.6 320.4 
" style="fill: none; stroke: #a9a9a9; stroke-width: 0.8; stroke-linejoin: miter; stroke-linecap: square"/>
   </g>
   <g id="patch_6">
    <path d="M 108 43.2 
L 777.6 43.2 
" style="fill: none"/>
   </g>
   <g id="text_20">
    <!-- get_subscribe history -->
    <g style="fill: #a9a9a9" transform="translate(378.6075 37.2) scale(0.12 -0.12)">
     <defs>
      <path id="DejaVuSans-67" d="M 2906 1791 
Q 2906 2416 2648 2759 
Q 2391 3103 1925 3103 
Q 1463 3103 1205 2759 
Q 947 2416 947 1791 
Q 947 1169 1205 825 
Q 1463 481 1925 481 
Q 2391 481 2648 825 
Q 2906 1169 2906 1791 
z
M 3481 434 
Q 3481 -459 3084 -895 
Q 2688 -1331 1869 -1331 
Q 1566 -1331 1297 -1286 
Q 1028 -1241 775 -1147 
L 775 -588 
Q 1028 -725 1275 -790 
Q 1522 -856 1778 -856 
Q 2344 -856 2625 -561 
Q 2906 -266 2906 331 
L 2906 616 
Q 2728 306 2450 153 
Q 2172 0 1784 0 
Q 1141 0 747 490 
Q 353 981 353 1791 
Q 353 2603 747 3093 
Q 1141 3584 1784 3584 
Q 2172 3584 2450 3431 
Q 2728 3278 2906 2969 
L 2906 3500 
L 3481 3500 
L 3481 434 
z
" transform="scale(0.015625)"/>
      <path id="DejaVuSans-65" d="M 3597 1894 
L 3597 1613 
L 953 1613 
Q 991 1019 1311 708 
Q 1631 397 2203 397 
Q 2534 397 2845 478 
Q 3156 559 3463 722 
L 3463 178 
Q 3153 47 2828 -22 
Q 2503 -91 2169 -91 
Q 1331 -91 842 396 
Q 353 884 353 1716 
Q 353 2575 817 3079 
Q 1281 3584 2069 3584 
Q 2775 3584 3186 3129 
Q 3597 2675 3597 1894 
z
M 3022 2063 
Q 3016 2534 2758 2815 
Q 2500 3097 2075 3097 
Q 1594 3097 1305 2825 
Q 1016 2553 972 2059 
L 3022 2063 
z
" transform="scale(0.015625)"/>
      <path id="DejaVuSans-74" d="M 1172 4494 
L 1172 3500 
L 2356 3500 
L 2356 3053 
L 1172 3053 
L 1172 1153 
Q 1172 725 1289 603 
Q 1406 481 1766 481 
L 2356 481 
L 2356 0 
L 1766 0 
Q 1100 0 847 248 
Q 594 497 594 1153 
L 594 3053 
L 172 3053 
L 172 3500 
L 594 3500 
L 594 4494 
L 1172 4494 
z
" transform="scale(0.015625)"/>
      <path id="DejaVuSans-5f" d="M 3263 -1063 
L 3263 -1509 
L -63 -1509 
L -63 -1063 
L 3263 -1063 
z
" transform="scale(0.015625)"/>
      <path id="DejaVuSans-73" d="M 2834 3397 
L 2834 2853 
Q 2591 2978 2328 3040 
Q 2066 3103 1784 3103 
Q 1356 3103 1142 2972 
Q 928 2841 928 2578 
Q 928 2378 1081 2264 
Q 1234 2150 1697 2047 
L 1894 2003 
Q 2506 1872 2764 1633 
Q 3022 1394 3022 966 
Q 3022 478 2636 193 
Q 2250 -91 1575 -91 
Q 1294 -91 989 -36 
Q 684 19 347 128 
L 347 722 
Q 666 556 975 473 
Q 1284 391 1588 391 
Q 1994 391 2212 530 
Q 2431 669 2431 922 
Q 2431 1156 2273 1281 
Q 2116 1406 1581 1522 
L 1381 1569 
Q 847 1681 609 1914 
Q 372 2147 372 2553 
Q 372 3047 722 3315 
Q 1072 3584 1716 3584 
Q 2034 3584 2315 3537 
Q 2597 3491 2834 3397 
z
" transform="scale(0.015625)"/>
      <path id="DejaVuSans-75" d="M 544 1381 
L 544 3500 
L 1119 3500 
L 1119 1403 
Q 1119 906 1312 657 
Q 1506 409 1894 409 
Q 2359 409 2629 706 
Q 2900 1003 2900 1516 
L 2900 3500 
L 3475 3500 
L 3475 0 
L 2900 0 
L 2900 538 
Q 2691 219 2414 64 
Q 2138 -91 1772 -91 
Q 1169 -91 856 284 
Q 544 659 544 1381 
z
M 1991 3584 
L 1991 3584 
z
" transform="scale(0.015625)"/>
      <path id="DejaVuSans-62" d="M 3116 1747 
Q 3116 2381 2855 2742 
Q 2594 3103 2138 3103 
Q 1681 3103 1420 2742 
Q 1159 2381 1159 1747 
Q 1159 1113 1420 752 
Q 1681 391 2138 391 
Q 2594 391 2855 752 
Q 3116 1113 3116 1747 
z
M 1159 2969 
Q 1341 3281 1617 3432 
Q 1894 3584 2278 3584 
Q 2916 3584 3314 3078 
Q 3713 2572 3713 1747 
Q 3713 922 3314 415 
Q 2916 -91 2278 -91 
Q 1894 -91 1617 61 
Q 1341 213 1159 525 
L 1159 0 
L 581 0 
L 581 4863 
L 1159 4863 
L 1159 2969 
z
" transform="scale(0.015625)"/>
      <path id="DejaVuSans-63" d="M 3122 3366 
L 3122 2828 
Q 2878 2963 2633 3030 
Q 2388 3097 2138 3097 
Q 1578 3097 1268 2742 
Q 959 2388 959 1747 
Q 959 1106 1268 751 
Q 1578 397 2138 397 
Q 2388 397 2633 464 
Q 2878 531 3122 666 
L 3122 134 
Q 2881 22 2623 -34 
Q 2366 -91 2075 -91 
Q 1284 -91 818 406 
Q 353 903 353 1747 
Q 353 2603 823 3093 
Q 1294 3584 2113 3584 
Q 2378 3584 2631 3529 
Q 2884 3475 3122 3366 
z
" transform="scale(0.015625)"/>
      <path id="DejaVuSans-72" d="M 2631 2963 
Q 2534 3019 2420 3045 
Q 2306 3072 2169 3072 
Q 1681 3072 1420 2755 
Q 1159 2438 1159 1844 
L 1159 0 
L 581 0 
L 581 3500 
L 1159 3500 
L 1159 2956 
Q 1341 3275 1631 3429 
Q 1922 3584 2338 3584 
Q 2397 3584 2469 3576 
Q 2541 3569 2628 3553 
L 2631 2963 
z
" transform="scale(0.015625)"/>
      <path id="DejaVuSans-69" d="M 603 3500 
L 1178 3500 
L 1178 0 
L 603 0 
L 603 3500 
z
M 603 4863 
L 1178 4863 
L 1178 4134 
L 603 4134 
L 603 4863 
z
" transform="scale(0.015625)"/>
      <path id="DejaVuSans-20" transform="scale(0.015625)"/>
      <path id="DejaVuSans-68" d="M 3513 2113 
L 3513 0 
L 2938 0 
L 2938 2094 
Q 2938 2591 2744 2837 
Q 2550 3084 2163 3084 
Q 1697 3084 1428 2787 
Q 1159 2491 1159 1978 
L 1159 0 
L 581 0 
L 581 4863 
L 1159 4863 
L 1159 2956 
Q 1366 3272 1645 3428 
Q 1925 3584 2291 3584 
Q 2894 3584 3203 3211 
Q 3513 2838 3513 2113 
z
" transform="scale(0.015625)"/>
      <path id="DejaVuSans-6f" d="M 1959 3097 
Q 1497 3097 1228 2736 
Q 959 2375 959 1747 
Q 959 1119 1226 758 
Q 1494 397 1959 397 
Q 2419 397 2687 759 
Q 2956 1122 2956 1747 
Q 2956 2369 2687 2733 
Q 2419 3097 1959 3097 
z
M 1959 3584 
Q 2709 3584 3137 3096 
Q 3566 2609 3566 1747 
Q 3566 888 3137 398 
Q 2709 -91 1959 -91 
Q 1206 -91 779 398 
Q 353 888 353 1747 
Q 353 2609 779 3096 
Q 1206 3584 1959 3584 
z
" transform="scale(0.015625)"/>
      <path id="DejaVuSans-79" d="M 2059 -325 
Q 1816 -950 1584 -1140 
Q 1353 -1331 966 -1331 
L 506 -1331 
L 506 -850 
L 844 -850 
Q 1081 -850 1212 -737 
Q 1344 -625 1503 -206 
L 1606 56 
L 191 3500 
L 800 3500 
L 1894 763 
L 2988 3500 
L 3597 3500 
L 2059 -325 
z
" transform="scale(0.015625)"/>
     </defs>
     <use xlink:href="#DejaVuSans-67"/>
     <use xlink:href="#DejaVuSans-65" transform="translate(63.476562 0)"/>
     <use xlink:href="#DejaVuSans-74" transform="translate(125 0)"/>
     <use xlink:href="#DejaVuSans-5f" transform="translate(164.208984 0)"/>
     <use xlink:href="#DejaVuSans-73" transform="translate(214.208984 0)"/>
     <use xlink:href="#DejaVuSans-75" transform="translate(266.308594 0)"/>
     <use xlink:href="#DejaVuSans-62" transform="translate(329.6875 0)"/>
     <use xlink:href="#DejaVuSans-73" transform="translate(393.164062 0)"/>
     <use xlink:href="#DejaVuSans-63" transform="translate(445.263672 0)"/>
     <use xlink:href="#DejaVuSans-72" transform="translate(500.244141 0)"/>
     <use xlink:href="#DejaVuSans-69" transform="translate(541.357422 0)"/>
     <use xlink:href="#DejaVuSans-62" transform="translate(569.140625 0)"/>
     <use xlink:href="#DejaVuSans-65" transform="translate(632.617188 0)"/>
     <use xlink:href="#DejaVuSans-20" transform="translate(694.140625 0)"/>
     <use xlink:href="#DejaVuSans-68" transform="translate(725.927734 0)"/>
     <use xlink:href="#DejaVuSans-69" transform="translate(789.306641 0)"/>
     <use xlink:href="#DejaVuSans-73" transform="translate(817.089844 0)"/>
     <use xlink:href="#DejaVuSans-74" transform="translate(869.189453 0)"/>
     <use xlink:href="#DejaVuSans-6f" transform="translate(908.398438 0)"/>
     <use xlink:href="#DejaVuSans-72" transform="translate(969.580078 0)"/>
     <use xlink:href="#DejaVuSans-79" transform="translate(1010.693359 0)"/>
    </g>
   </g>
   <g id="legend_1">
    <g id="line2d_41">
     <path d="M 815.08 328.498438 
L 825.08 328.498438 
L 835.08 328.498438 
" style="fill: none; stroke: #1f77b4; stroke-width: 1.5; stroke-linecap: square"/>
    </g>
    <g id="text_21">
     <!-- star -->
     <g style="fill: #a9a9a9" transform="translate(843.08 331.998438) scale(0.1 -0.1)">
      <defs>
       <path id="DejaVuSans-61" d="M 2194 1759 
Q 1497 1759 1228 1600 
Q 959 1441 959 1056 
Q 959 750 1161 570 
Q 1363 391 1709 391 
Q 2188 391 2477 730 
Q 2766 1069 2766 1631 
L 2766 1759 
L 2194 1759 
z
M 3341 1997 
L 3341 0 
L 2766 0 
L 2766 531 
Q 2569 213 2275 61 
Q 1981 -91 1556 -91 
Q 1019 -91 701 211 
Q 384 513 384 1019 
Q 384 1609 779 1909 
Q 1175 2209 1959 2209 
L 2766 2209 
L 2766 2266 
Q 2766 2663 2505 2880 
Q 2244 3097 1772 3097 
Q 1472 3097 1187 3025 
Q 903 2953 641 2809 
L 641 3341 
Q 956 3463 1253 3523 
Q 1550 3584 1831 3584 
Q 2591 3584 2966 3190 
Q 3341 2797 3341 1997 
z
" transform="scale(0.015625)"/>
      </defs>
      <use xlink:href="#DejaVuSans-73"/>
      <use xlink:href="#DejaVuSans-74" transform="translate(52.099609 0)"/>
      <use xlink:href="#DejaVuSans-61" transform="translate(91.308594 0)"/>
      <use xlink:href="#DejaVuSans-72" transform="translate(152.587891 0)"/>
     </g>
    </g>
    <g id="line2d_42">
     <path d="M 815.08 343.176562 
L 825.08 343.176562 
L 835.08 343.176562 
" style="fill: none; stroke: #ff7f0e; stroke-width: 1.5; stroke-linecap: square"/>
    </g>
    <g id="text_22">
     <!-- fork -->
     <g style="fill: #a9a9a9" transform="translate(843.08 346.676562) scale(0.1 -0.1)">
      <defs>
       <path id="DejaVuSans-66" d="M 2375 4863 
L 2375 4384 
L 1825 4384 
Q 1516 4384 1395 4259 
Q 1275 4134 1275 3809 
L 1275 3500 
L 2222 3500 
L 2222 3053 
L 1275 3053 
L 1275 0 
L 697 0 
L 697 3053 
L 147 3053 
L 147 3500 
L 697 3500 
L 697 3744 
Q 697 4328 969 4595 
Q 1241 4863 1831 4863 
L 2375 4863 
z
" transform="scale(0.015625)"/>
       <path id="DejaVuSans-6b" d="M 581 4863 
L 1159 4863 
L 1159 1991 
L 2875 3500 
L 3609 3500 
L 1753 1863 
L 3688 0 
L 2938 0 
L 1159 1709 
L 1159 0 
L 581 0 
L 581 4863 
z
" transform="scale(0.015625)"/>
      </defs>
      <use xlink:href="#DejaVuSans-66"/>
      <use xlink:href="#DejaVuSans-6f" transform="translate(35.205078 0)"/>
      <use xlink:href="#DejaVuSans-72" transform="translate(96.386719 0)"/>
      <use xlink:href="#DejaVuSans-6b" transform="translate(137.5 0)"/>
     </g>
    </g>
   </g>
  </g>
 </g>
 <defs>
  <clipPath id="p392f37d3f6">
   <rect x="108" y="43.2" width="669.6" height="277.2"/>
  </clipPath>
 </defs>
</svg>
