<?xml version="1.0" encoding="utf-8" standalone="no"?>
<!DOCTYPE svg PUBLIC "-//W3C//DTD SVG 1.1//EN"
  "http://www.w3.org/Graphics/SVG/1.1/DTD/svg11.dtd">
<svg xmlns:xlink="http://www.w3.org/1999/xlink" width="864pt" height="360pt" viewBox="0 0 864 360" xmlns="http://www.w3.org/2000/svg" version="1.1">
 <metadata>
  <rdf:RDF xmlns:dc="http://purl.org/dc/elements/1.1/" xmlns:cc="http://creativecommons.org/ns#" xmlns:rdf="http://www.w3.org/1999/02/22-rdf-syntax-ns#">
   <cc:Work>
    <dc:type rdf:resource="http://purl.org/dc/dcmitype/StillImage"/>
    <dc:date>2025-12-23T20:07:48.116636</dc:date>
    <dc:format>image/svg+xml</dc:format>
    <dc:creator>
     <cc:Agent>
      <dc:title>Matplotlib v3.10.8, https://matplotlib.org/</dc:title>
     </cc:Agent>
    </dc:creator>
   </cc:Work>
  </rdf:RDF>
 </metadata>
 <defs>
  <style type="text/css">*{stroke-linejoin: round; stroke-linecap: butt}</style>
 </defs>
 <g id="figure_1">
  <g id="patch_1">
   <path d="M 0 360 
L 864 360 
L 864 0 
L 0 0 
L 0 360 
z
" style="fill: none; opacity: 0"/>
  </g>
  <g id="axes_1">
   <g id="patch_2">
    <path d="M 108 320.4 
L 777.6 320.4 
L 777.6 43.2 
L 108 43.2 
L 108 320.4 
z
" style="fill: none; opacity: 0"/>
   </g>
   <g id="matplotlib.axis_1">
    <g id="xtick_1">
     <g id="line2d_1">
      <path d="M 129.756434 320.4 
L 129.756434 43.2 
" clip-path="url(#pd7a563a30a)" style="fill: none; stroke-dasharray: 5.12,1.28,0.8,1.28; stroke-dashoffset: 0; stroke: #b0b0b0; stroke-width: 0.8"/>
     </g>
     <g id="line2d_2">
      <defs>
       <path id="m1ea3d89ff4" d="M 0 0 
L 0 3.5 
" style="stroke: #a9a9a9; stroke-width: 0.8"/>
      </defs>
      <g>
       <use xlink:href="#m1ea3d89ff4" x="129.756434" y="320.4" style="fill: #a9a9a9; stroke: #a9a9a9; stroke-width: 0.8"/>
      </g>
     </g>
     <g id="text_1">
      <!-- 2021-07 -->
      <g style="fill: #a9a9a9" transform="translate(108.865027 334.998438) scale(0.1 -0.1)">
       <defs>
        <path id="DejaVuSans-32" d="M 1228 531 
L 3431 531 
L 3431 0 
L 469 0 
L 469 531 
Q 828 903 1448 1529 
Q 2069 2156 2228 2338 
Q 2531 2678 2651 2914 
Q 2772 3150 2772 3378 
Q 2772 3750 2511 3984 
Q 2250 4219 1831 4219 
Q 1534 4219 1204 4116 
Q 875 4013 500 3803 
L 500 4441 
Q 881 4594 1212 4672 
Q 1544 4750 1819 4750 
Q 2544 4750 2975 4387 
Q 3406 4025 3406 3419 
Q 3406 3131 3298 2873 
Q 3191 2616 2906 2266 
Q 2828 2175 2409 1742 
Q 1991 1309 1228 531 
z
" transform="scale(0.015625)"/>
        <path id="DejaVuSans-30" d="M 2034 4250 
Q 1547 4250 1301 3770 
Q 1056 3291 1056 2328 
Q 1056 1369 1301 889 
Q 1547 409 2034 409 
Q 2525 409 2770 889 
Q 3016 1369 3016 2328 
Q 3016 3291 2770 3770 
Q 2525 4250 2034 4250 
z
M 2034 4750 
Q 2819 4750 3233 4129 
Q 3647 3509 3647 2328 
Q 3647 1150 3233 529 
Q 2819 -91 2034 -91 
Q 1250 -91 836 529 
Q 422 1150 422 2328 
Q 422 3509 836 4129 
Q 1250 4750 2034 4750 
z
" transform="scale(0.015625)"/>
        <path id="DejaVuSans-31" d="M 794 531 
L 1825 531 
L 1825 4091 
L 703 3866 
L 703 4441 
L 1819 4666 
L 2450 4666 
L 2450 531 
L 3481 531 
L 3481 0 
L 794 0 
L 794 531 
z
" transform="scale(0.015625)"/>
        <path id="DejaVuSans-2d" d="M 313 2009 
L 1997 2009 
L 1997 1497 
L 313 1497 
L 313 2009 
z
" transform="scale(0.015625)"/>
        <path id="DejaVuSans-37" d="M 525 4666 
L 3525 4666 
L 3525 4397 
L 1831 0 
L 1172 0 
L 2766 4134 
L 525 4134 
L 525 4666 
z
" transform="scale(0.015625)"/>
       </defs>
       <use xlink:href="#DejaVuSans-32"/>
       <use xlink:href="#DejaVuSans-30" transform="translate(63.623047 0)"/>
       <use xlink:href="#DejaVuSans-32" transform="translate(127.246094 0)"/>
       <use xlink:href="#DejaVuSans-31" transform="translate(190.869141 0)"/>
       <use xlink:href="#DejaVuSans-2d" transform="translate(254.492188 0)"/>
       <use xlink:href="#DejaVuSans-30" transform="translate(290.576172 0)"/>
       <use xlink:href="#DejaVuSans-37" transform="translate(354.199219 0)"/>
      </g>
     </g>
    </g>
    <g id="xtick_2">
     <g id="line2d_3">
      <path d="M 199.195874 320.4 
L 199.195874 43.2 
" clip-path="url(#pd7a563a30a)" style="fill: none; stroke-dasharray: 5.12,1.28,0.8,1.28; stroke-dashoffset: 0; stroke: #b0b0b0; stroke-width: 0.8"/>
     </g>
     <g id="line2d_4">
      <g>
       <use xlink:href="#m1ea3d89ff4" x="199.195874" y="320.4" style="fill: #a9a9a9; stroke: #a9a9a9; stroke-width: 0.8"/>
      </g>
     </g>
     <g id="text_2">
      <!-- 2022-01 -->
      <g style="fill: #a9a9a9" transform="translate(178.304468 334.998438) scale(0.1 -0.1)">
       <use xlink:href="#DejaVuSans-32"/>
       <use xlink:href="#DejaVuSans-30" transform="translate(63.623047 0)"/>
       <use xlink:href="#DejaVuSans-32" transform="translate(127.246094 0)"/>
       <use xlink:href="#DejaVuSans-32" transform="translate(190.869141 0)"/>
       <use xlink:href="#DejaVuSans-2d" transform="translate(254.492188 0)"/>
       <use xlink:href="#DejaVuSans-30" transform="translate(290.576172 0)"/>
       <use xlink:href="#DejaVuSans-31" transform="translate(354.199219 0)"/>
      </g>
     </g>
    </g>
    <g id="xtick_3">
     <g id="line2d_5">
      <path d="M 267.503151 320.4 
L 267.503151 43.2 
" clip-path="url(#pd7a563a30a)" style="fill: none; stroke-dasharray: 5.12,1.28,0.8,1.28; stroke-dashoffset: 0; stroke: #b0b0b0; stroke-width: 0.8"/>
     </g>
     <g id="line2d_6">
      <g>
       <use xlink:href="#m1ea3d89ff4" x="267.503151" y="320.4" style="fill: #a9a9a9; stroke: #a9a9a9; stroke-width: 0.8"/>
      </g>
     </g>
     <g id="text_3">
      <!-- 2022-07 -->
      <g style="fill: #a9a9a9" transform="translate(246.611744 334.998438) scale(0.1 -0.1)">
       <use xlink:href="#DejaVuSans-32"/>
       <use xlink:href="#DejaVuSans-30" transform="translate(63.623047 0)"/>
       <use xlink:href="#DejaVuSans-32" transform="translate(127.246094 0)"/>
       <use xlink:href="#DejaVuSans-32" transform="translate(190.869141 0)"/>
       <use xlink:href="#DejaVuSans-2d" transform="translate(254.492188 0)"/>
       <use xlink:href="#DejaVuSans-30" transform="translate(290.576172 0)"/>
       <use xlink:href="#DejaVuSans-37" transform="translate(354.199219 0)"/>
      </g>
     </g>
    </g>
    <g id="xtick_4">
     <g id="line2d_7">
      <path d="M 336.942591 320.4 
L 336.942591 43.2 
" clip-path="url(#pd7a563a30a)" style="fill: none; stroke-dasharray: 5.12,1.28,0.8,1.28; stroke-dashoffset: 0; stroke: #b0b0b0; stroke-width: 0.8"/>
     </g>
     <g id="line2d_8">
      <g>
       <use xlink:href="#m1ea3d89ff4" x="336.942591" y="320.4" style="fill: #a9a9a9; stroke: #a9a9a9; stroke-width: 0.8"/>
      </g>
     </g>
     <g id="text_4">
      <!-- 2023-01 -->
      <g style="fill: #a9a9a9" transform="translate(316.051185 334.998438) scale(0.1 -0.1)">
       <defs>
        <path id="DejaVuSans-33" d="M 2597 2516 
Q 3050 2419 3304 2112 
Q 3559 1806 3559 1356 
Q 3559 666 3084 287 
Q 2609 -91 1734 -91 
Q 1441 -91 1130 -33 
Q 819 25 488 141 
L 488 750 
Q 750 597 1062 519 
Q 1375 441 1716 441 
Q 2309 441 2620 675 
Q 2931 909 2931 1356 
Q 2931 1769 2642 2001 
Q 2353 2234 1838 2234 
L 1294 2234 
L 1294 2753 
L 1863 2753 
Q 2328 2753 2575 2939 
Q 2822 3125 2822 3475 
Q 2822 3834 2567 4026 
Q 2313 4219 1838 4219 
Q 1578 4219 1281 4162 
Q 984 4106 628 3988 
L 628 4550 
Q 988 4650 1302 4700 
Q 1616 4750 1894 4750 
Q 2613 4750 3031 4423 
Q 3450 4097 3450 3541 
Q 3450 3153 3228 2886 
Q 3006 2619 2597 2516 
z
" transform="scale(0.015625)"/>
       </defs>
       <use xlink:href="#DejaVuSans-32"/>
       <use xlink:href="#DejaVuSans-30" transform="translate(63.623047 0)"/>
       <use xlink:href="#DejaVuSans-32" transform="translate(127.246094 0)"/>
       <use xlink:href="#DejaVuSans-33" transform="translate(190.869141 0)"/>
       <use xlink:href="#DejaVuSans-2d" transform="translate(254.492188 0)"/>
       <use xlink:href="#DejaVuSans-30" transform="translate(290.576172 0)"/>
       <use xlink:href="#DejaVuSans-31" transform="translate(354.199219 0)"/>
      </g>
     </g>
    </g>
    <g id="xtick_5">
     <g id="line2d_9">
      <path d="M 405.249868 320.4 
L 405.249868 43.2 
" clip-path="url(#pd7a563a30a)" style="fill: none; stroke-dasharray: 5.12,1.28,0.8,1.28; stroke-dashoffset: 0; stroke: #b0b0b0; stroke-width: 0.8"/>
     </g>
     <g id="line2d_10">
      <g>
       <use xlink:href="#m1ea3d89ff4" x="405.249868" y="320.4" style="fill: #a9a9a9; stroke: #a9a9a9; stroke-width: 0.8"/>
      </g>
     </g>
     <g id="text_5">
      <!-- 2023-07 -->
      <g style="fill: #a9a9a9" transform="translate(384.358461 334.998438) scale(0.1 -0.1)">
       <use xlink:href="#DejaVuSans-32"/>
       <use xlink:href="#DejaVuSans-30" transform="translate(63.623047 0)"/>
       <use xlink:href="#DejaVuSans-32" transform="translate(127.246094 0)"/>
       <use xlink:href="#DejaVuSans-33" transform="translate(190.869141 0)"/>
       <use xlink:href="#DejaVuSans-2d" transform="translate(254.492188 0)"/>
       <use xlink:href="#DejaVuSans-30" transform="translate(290.576172 0)"/>
       <use xlink:href="#DejaVuSans-37" transform="translate(354.199219 0)"/>
      </g>
     </g>
    </g>
    <g id="xtick_6">
     <g id="line2d_11">
      <path d="M 474.689308 320.4 
L 474.689308 43.2 
" clip-path="url(#pd7a563a30a)" style="fill: none; stroke-dasharray: 5.12,1.28,0.8,1.28; stroke-dashoffset: 0; stroke: #b0b0b0; stroke-width: 0.8"/>
     </g>
     <g id="line2d_12">
      <g>
       <use xlink:href="#m1ea3d89ff4" x="474.689308" y="320.4" style="fill: #a9a9a9; stroke: #a9a9a9; stroke-width: 0.8"/>
      </g>
     </g>
     <g id="text_6">
      <!-- 2024-01 -->
      <g style="fill: #a9a9a9" transform="translate(453.797902 334.998438) scale(0.1 -0.1)">
       <defs>
        <path id="DejaVuSans-34" d="M 2419 4116 
L 825 1625 
L 2419 1625 
L 2419 4116 
z
M 2253 4666 
L 3047 4666 
L 3047 1625 
L 3713 1625 
L 3713 1100 
L 3047 1100 
L 3047 0 
L 2419 0 
L 2419 1100 
L 313 1100 
L 313 1709 
L 2253 4666 
z
" transform="scale(0.015625)"/>
       </defs>
       <use xlink:href="#DejaVuSans-32"/>
       <use xlink:href="#DejaVuSans-30" transform="translate(63.623047 0)"/>
       <use xlink:href="#DejaVuSans-32" transform="translate(127.246094 0)"/>
       <use xlink:href="#DejaVuSans-34" transform="translate(190.869141 0)"/>
       <use xlink:href="#DejaVuSans-2d" transform="translate(254.492188 0)"/>
       <use xlink:href="#DejaVuSans-30" transform="translate(290.576172 0)"/>
       <use xlink:href="#DejaVuSans-31" transform="translate(354.199219 0)"/>
      </g>
     </g>
    </g>
    <g id="xtick_7">
     <g id="line2d_13">
      <path d="M 543.373973 320.4 
L 543.373973 43.2 
" clip-path="url(#pd7a563a30a)" style="fill: none; stroke-dasharray: 5.12,1.28,0.8,1.28; stroke-dashoffset: 0; stroke: #b0b0b0; stroke-width: 0.8"/>
     </g>
     <g id="line2d_14">
      <g>
       <use xlink:href="#m1ea3d89ff4" x="543.373973" y="320.4" style="fill: #a9a9a9; stroke: #a9a9a9; stroke-width: 0.8"/>
      </g>
     </g>
     <g id="text_7">
      <!-- 2024-07 -->
      <g style="fill: #a9a9a9" transform="translate(522.482567 334.998438) scale(0.1 -0.1)">
       <use xlink:href="#DejaVuSans-32"/>
       <use xlink:href="#DejaVuSans-30" transform="translate(63.623047 0)"/>
       <use xlink:href="#DejaVuSans-32" transform="translate(127.246094 0)"/>
       <use xlink:href="#DejaVuSans-34" transform="translate(190.869141 0)"/>
       <use xlink:href="#DejaVuSans-2d" transform="translate(254.492188 0)"/>
       <use xlink:href="#DejaVuSans-30" transform="translate(290.576172 0)"/>
       <use xlink:href="#DejaVuSans-37" transform="translate(354.199219 0)"/>
      </g>
     </g>
    </g>
    <g id="xtick_8">
     <g id="line2d_15">
      <path d="M 612.813414 320.4 
L 612.813414 43.2 
" clip-path="url(#pd7a563a30a)" style="fill: none; stroke-dasharray: 5.12,1.28,0.8,1.28; stroke-dashoffset: 0; stroke: #b0b0b0; stroke-width: 0.8"/>
     </g>
     <g id="line2d_16">
      <g>
       <use xlink:href="#m1ea3d89ff4" x="612.813414" y="320.4" style="fill: #a9a9a9; stroke: #a9a9a9; stroke-width: 0.8"/>
      </g>
     </g>
     <g id="text_8">
      <!-- 2025-01 -->
      <g style="fill: #a9a9a9" transform="translate(591.922007 334.998438) scale(0.1 -0.1)">
       <defs>
        <path id="DejaVuSans-35" d="M 691 4666 
L 3169 4666 
L 3169 4134 
L 1269 4134 
L 1269 2991 
Q 1406 3038 1543 3061 
Q 1681 3084 1819 3084 
Q 2600 3084 3056 2656 
Q 3513 2228 3513 1497 
Q 3513 744 3044 326 
Q 2575 -91 1722 -91 
Q 1428 -91 1123 -41 
Q 819 9 494 109 
L 494 744 
Q 775 591 1075 516 
Q 1375 441 1709 441 
Q 2250 441 2565 725 
Q 2881 1009 2881 1497 
Q 2881 1984 2565 2268 
Q 2250 2553 1709 2553 
Q 1456 2553 1204 2497 
Q 953 2441 691 2322 
L 691 4666 
z
" transform="scale(0.015625)"/>
       </defs>
       <use xlink:href="#DejaVuSans-32"/>
       <use xlink:href="#DejaVuSans-30" transform="translate(63.623047 0)"/>
       <use xlink:href="#DejaVuSans-32" transform="translate(127.246094 0)"/>
       <use xlink:href="#DejaVuSans-35" transform="translate(190.869141 0)"/>
       <use xlink:href="#DejaVuSans-2d" transform="translate(254.492188 0)"/>
       <use xlink:href="#DejaVuSans-30" transform="translate(290.576172 0)"/>
       <use xlink:href="#DejaVuSans-31" transform="translate(354.199219 0)"/>
      </g>
     </g>
    </g>
    <g id="xtick_9">
     <g id="line2d_17">
      <path d="M 681.12069 320.4 
L 681.12069 43.2 
" clip-path="url(#pd7a563a30a)" style="fill: none; stroke-dasharray: 5.12,1.28,0.8,1.28; stroke-dashoffset: 0; stroke: #b0b0b0; stroke-width: 0.8"/>
     </g>
     <g id="line2d_18">
      <g>
       <use xlink:href="#m1ea3d89ff4" x="681.12069" y="320.4" style="fill: #a9a9a9; stroke: #a9a9a9; stroke-width: 0.8"/>
      </g>
     </g>
     <g id="text_9">
      <!-- 2025-07 -->
      <g style="fill: #a9a9a9" transform="translate(660.229284 334.998438) scale(0.1 -0.1)">
       <use xlink:href="#DejaVuSans-32"/>
       <use xlink:href="#DejaVuSans-30" transform="translate(63.623047 0)"/>
       <use xlink:href="#DejaVuSans-32" transform="translate(127.246094 0)"/>
       <use xlink:href="#DejaVuSans-35" transform="translate(190.869141 0)"/>
       <use xlink:href="#DejaVuSans-2d" transform="translate(254.492188 0)"/>
       <use xlink:href="#DejaVuSans-30" transform="translate(290.576172 0)"/>
       <use xlink:href="#DejaVuSans-37" transform="translate(354.199219 0)"/>
      </g>
     </g>
    </g>
    <g id="xtick_10">
     <g id="line2d_19">
      <path d="M 750.560131 320.4 
L 750.560131 43.2 
" clip-path="url(#pd7a563a30a)" style="fill: none; stroke-dasharray: 5.12,1.28,0.8,1.28; stroke-dashoffset: 0; stroke: #b0b0b0; stroke-width: 0.8"/>
     </g>
     <g id="line2d_20">
      <g>
       <use xlink:href="#m1ea3d89ff4" x="750.560131" y="320.4" style="fill: #a9a9a9; stroke: #a9a9a9; stroke-width: 0.8"/>
      </g>
     </g>
     <g id="text_10">
      <!-- 2026-01 -->
      <g style="fill: #a9a9a9" transform="translate(729.668725 334.998438) scale(0.1 -0.1)">
       <defs>
        <path id="DejaVuSans-36" d="M 2113 2584 
Q 1688 2584 1439 2293 
Q 1191 2003 1191 1497 
Q 1191 994 1439 701 
Q 1688 409 2113 409 
Q 2538 409 2786 701 
Q 3034 994 3034 1497 
Q 3034 2003 2786 2293 
Q 2538 2584 2113 2584 
z
M 3366 4563 
L 3366 3988 
Q 3128 4100 2886 4159 
Q 2644 4219 2406 4219 
Q 1781 4219 1451 3797 
Q 1122 3375 1075 2522 
Q 1259 2794 1537 2939 
Q 1816 3084 2150 3084 
Q 2853 3084 3261 2657 
Q 3669 2231 3669 1497 
Q 3669 778 3244 343 
Q 2819 -91 2113 -91 
Q 1303 -91 875 529 
Q 447 1150 447 2328 
Q 447 3434 972 4092 
Q 1497 4750 2381 4750 
Q 2619 4750 2861 4703 
Q 3103 4656 3366 4563 
z
" transform="scale(0.015625)"/>
       </defs>
       <use xlink:href="#DejaVuSans-32"/>
       <use xlink:href="#DejaVuSans-30" transform="translate(63.623047 0)"/>
       <use xlink:href="#DejaVuSans-32" transform="translate(127.246094 0)"/>
       <use xlink:href="#DejaVuSans-36" transform="translate(190.869141 0)"/>
       <use xlink:href="#DejaVuSans-2d" transform="translate(254.492188 0)"/>
       <use xlink:href="#DejaVuSans-30" transform="translate(290.576172 0)"/>
       <use xlink:href="#DejaVuSans-31" transform="translate(354.199219 0)"/>
      </g>
     </g>
    </g>
   </g>
   <g id="matplotlib.axis_2">
    <g id="ytick_1">
     <g id="line2d_21">
      <path d="M 108 307.829749 
L 777.6 307.829749 
" clip-path="url(#pd7a563a30a)" style="fill: none; stroke-dasharray: 5.12,1.28,0.8,1.28; stroke-dashoffset: 0; stroke: #b0b0b0; stroke-width: 0.8"/>
     </g>
     <g id="line2d_22">
      <defs>
       <path id="m6430c63198" d="M 0 0 
L -3.5 0 
" style="stroke: #a9a9a9; stroke-width: 0.8"/>
      </defs>
      <g>
       <use xlink:href="#m6430c63198" x="108" y="307.829749" style="fill: #a9a9a9; stroke: #a9a9a9; stroke-width: 0.8"/>
      </g>
     </g>
     <g id="text_11">
      <!-- 0 -->
      <g style="fill: #a9a9a9" transform="translate(94.6375 311.628967) scale(0.1 -0.1)">
       <use xlink:href="#DejaVuSans-30"/>
      </g>
     </g>
    </g>
    <g id="ytick_2">
     <g id="line2d_23">
      <path d="M 108 278.081195 
L 777.6 278.081195 
" clip-path="url(#pd7a563a30a)" style="fill: none; stroke-dasharray: 5.12,1.28,0.8,1.28; stroke-dashoffset: 0; stroke: #b0b0b0; stroke-width: 0.8"/>
     </g>
     <g id="line2d_24">
      <g>
       <use xlink:href="#m6430c63198" x="108" y="278.081195" style="fill: #a9a9a9; stroke: #a9a9a9; stroke-width: 0.8"/>
      </g>
     </g>
     <g id="text_12">
      <!-- 1000 -->
      <g style="fill: #a9a9a9" transform="translate(75.55 281.880413) scale(0.1 -0.1)">
       <use xlink:href="#DejaVuSans-31"/>
       <use xlink:href="#DejaVuSans-30" transform="translate(63.623047 0)"/>
       <use xlink:href="#DejaVuSans-30" transform="translate(127.246094 0)"/>
       <use xlink:href="#DejaVuSans-30" transform="translate(190.869141 0)"/>
      </g>
     </g>
    </g>
    <g id="ytick_3">
     <g id="line2d_25">
      <path d="M 108 248.332641 
L 777.6 248.332641 
" clip-path="url(#pd7a563a30a)" style="fill: none; stroke-dasharray: 5.12,1.28,0.8,1.28; stroke-dashoffset: 0; stroke: #b0b0b0; stroke-width: 0.8"/>
     </g>
     <g id="line2d_26">
      <g>
       <use xlink:href="#m6430c63198" x="108" y="248.332641" style="fill: #a9a9a9; stroke: #a9a9a9; stroke-width: 0.8"/>
      </g>
     </g>
     <g id="text_13">
      <!-- 2000 -->
      <g style="fill: #a9a9a9" transform="translate(75.55 252.13186) scale(0.1 -0.1)">
       <use xlink:href="#DejaVuSans-32"/>
       <use xlink:href="#DejaVuSans-30" transform="translate(63.623047 0)"/>
       <use xlink:href="#DejaVuSans-30" transform="translate(127.246094 0)"/>
       <use xlink:href="#DejaVuSans-30" transform="translate(190.869141 0)"/>
      </g>
     </g>
    </g>
    <g id="ytick_4">
     <g id="line2d_27">
      <path d="M 108 218.584087 
L 777.6 218.584087 
" clip-path="url(#pd7a563a30a)" style="fill: none; stroke-dasharray: 5.12,1.28,0.8,1.28; stroke-dashoffset: 0; stroke: #b0b0b0; stroke-width: 0.8"/>
     </g>
     <g id="line2d_28">
      <g>
       <use xlink:href="#m6430c63198" x="108" y="218.584087" style="fill: #a9a9a9; stroke: #a9a9a9; stroke-width: 0.8"/>
      </g>
     </g>
     <g id="text_14">
      <!-- 3000 -->
      <g style="fill: #a9a9a9" transform="translate(75.55 222.383306) scale(0.1 -0.1)">
       <use xlink:href="#DejaVuSans-33"/>
       <use xlink:href="#DejaVuSans-30" transform="translate(63.623047 0)"/>
       <use xlink:href="#DejaVuSans-30" transform="translate(127.246094 0)"/>
       <use xlink:href="#DejaVuSans-30" transform="translate(190.869141 0)"/>
      </g>
     </g>
    </g>
    <g id="ytick_5">
     <g id="line2d_29">
      <path d="M 108 188.835533 
L 777.6 188.835533 
" clip-path="url(#pd7a563a30a)" style="fill: none; stroke-dasharray: 5.12,1.28,0.8,1.28; stroke-dashoffset: 0; stroke: #b0b0b0; stroke-width: 0.8"/>
     </g>
     <g id="line2d_30">
      <g>
       <use xlink:href="#m6430c63198" x="108" y="188.835533" style="fill: #a9a9a9; stroke: #a9a9a9; stroke-width: 0.8"/>
      </g>
     </g>
     <g id="text_15">
      <!-- 4000 -->
      <g style="fill: #a9a9a9" transform="translate(75.55 192.634752) scale(0.1 -0.1)">
       <use xlink:href="#DejaVuSans-34"/>
       <use xlink:href="#DejaVuSans-30" transform="translate(63.623047 0)"/>
       <use xlink:href="#DejaVuSans-30" transform="translate(127.246094 0)"/>
       <use xlink:href="#DejaVuSans-30" transform="translate(190.869141 0)"/>
      </g>
     </g>
    </g>
    <g id="ytick_6">
     <g id="line2d_31">
      <path d="M 108 159.086979 
L 777.6 159.086979 
" clip-path="url(#pd7a563a30a)" style="fill: none; stroke-dasharray: 5.12,1.28,0.8,1.28; stroke-dashoffset: 0; stroke: #b0b0b0; stroke-width: 0.8"/>
     </g>
     <g id="line2d_32">
      <g>
       <use xlink:href="#m6430c63198" x="108" y="159.086979" style="fill: #a9a9a9; stroke: #a9a9a9; stroke-width: 0.8"/>
      </g>
     </g>
     <g id="text_16">
      <!-- 5000 -->
      <g style="fill: #a9a9a9" transform="translate(75.55 162.886198) scale(0.1 -0.1)">
       <use xlink:href="#DejaVuSans-35"/>
       <use xlink:href="#DejaVuSans-30" transform="translate(63.623047 0)"/>
       <use xlink:href="#DejaVuSans-30" transform="translate(127.246094 0)"/>
       <use xlink:href="#DejaVuSans-30" transform="translate(190.869141 0)"/>
      </g>
     </g>
    </g>
    <g id="ytick_7">
     <g id="line2d_33">
      <path d="M 108 129.338425 
L 777.6 129.338425 
" clip-path="url(#pd7a563a30a)" style="fill: none; stroke-dasharray: 5.12,1.28,0.8,1.28; stroke-dashoffset: 0; stroke: #b0b0b0; stroke-width: 0.8"/>
     </g>
     <g id="line2d_34">
      <g>
       <use xlink:href="#m6430c63198" x="108" y="129.338425" style="fill: #a9a9a9; stroke: #a9a9a9; stroke-width: 0.8"/>
      </g>
     </g>
     <g id="text_17">
      <!-- 6000 -->
      <g style="fill: #a9a9a9" transform="translate(75.55 133.137644) scale(0.1 -0.1)">
       <use xlink:href="#DejaVuSans-36"/>
       <use xlink:href="#DejaVuSans-30" transform="translate(63.623047 0)"/>
       <use xlink:href="#DejaVuSans-30" transform="translate(127.246094 0)"/>
       <use xlink:href="#DejaVuSans-30" transform="translate(190.869141 0)"/>
      </g>
     </g>
    </g>
    <g id="ytick_8">
     <g id="line2d_35">
      <path d="M 108 99.589871 
L 777.6 99.589871 
" clip-path="url(#pd7a563a30a)" style="fill: none; stroke-dasharray: 5.12,1.28,0.8,1.28; stroke-dashoffset: 0; stroke: #b0b0b0; stroke-width: 0.8"/>
     </g>
     <g id="line2d_36">
      <g>
       <use xlink:href="#m6430c63198" x="108" y="99.589871" style="fill: #a9a9a9; stroke: #a9a9a9; stroke-width: 0.8"/>
      </g>
     </g>
     <g id="text_18">
      <!-- 7000 -->
      <g style="fill: #a9a9a9" transform="translate(75.55 103.38909) scale(0.1 -0.1)">
       <use xlink:href="#DejaVuSans-37"/>
       <use xlink:href="#DejaVuSans-30" transform="translate(63.623047 0)"/>
       <use xlink:href="#DejaVuSans-30" transform="translate(127.246094 0)"/>
       <use xlink:href="#DejaVuSans-30" transform="translate(190.869141 0)"/>
      </g>
     </g>
    </g>
    <g id="ytick_9">
     <g id="line2d_37">
      <path d="M 108 69.841317 
L 777.6 69.841317 
" clip-path="url(#pd7a563a30a)" style="fill: none; stroke-dasharray: 5.12,1.28,0.8,1.28; stroke-dashoffset: 0; stroke: #b0b0b0; stroke-width: 0.8"/>
     </g>
     <g id="line2d_38">
      <g>
       <use xlink:href="#m6430c63198" x="108" y="69.841317" style="fill: #a9a9a9; stroke: #a9a9a9; stroke-width: 0.8"/>
      </g>
     </g>
     <g id="text_19">
      <!-- 8000 -->
      <g style="fill: #a9a9a9" transform="translate(75.55 73.640536) scale(0.1 -0.1)">
       <defs>
        <path id="DejaVuSans-38" d="M 2034 2216 
Q 1584 2216 1326 1975 
Q 1069 1734 1069 1313 
Q 1069 891 1326 650 
Q 1584 409 2034 409 
Q 2484 409 2743 651 
Q 3003 894 3003 1313 
Q 3003 1734 2745 1975 
Q 2488 2216 2034 2216 
z
M 1403 2484 
Q 997 2584 770 2862 
Q 544 3141 544 3541 
Q 544 4100 942 4425 
Q 1341 4750 2034 4750 
Q 2731 4750 3128 4425 
Q 3525 4100 3525 3541 
Q 3525 3141 3298 2862 
Q 3072 2584 2669 2484 
Q 3125 2378 3379 2068 
Q 3634 1759 3634 1313 
Q 3634 634 3220 271 
Q 2806 -91 2034 -91 
Q 1263 -91 848 271 
Q 434 634 434 1313 
Q 434 1759 690 2068 
Q 947 2378 1403 2484 
z
M 1172 3481 
Q 1172 3119 1398 2916 
Q 1625 2713 2034 2713 
Q 2441 2713 2670 2916 
Q 2900 3119 2900 3481 
Q 2900 3844 2670 4047 
Q 2441 4250 2034 4250 
Q 1625 4250 1398 4047 
Q 1172 3844 1172 3481 
z
" transform="scale(0.015625)"/>
       </defs>
       <use xlink:href="#DejaVuSans-38"/>
       <use xlink:href="#DejaVuSans-30" transform="translate(63.623047 0)"/>
       <use xlink:href="#DejaVuSans-30" transform="translate(127.246094 0)"/>
       <use xlink:href="#DejaVuSans-30" transform="translate(190.869141 0)"/>
      </g>
     </g>
    </g>
   </g>
   <g id="line2d_39">
    <path d="M 138.436364 307.740503 
L 140.700693 307.532263 
L 141.078081 307.353772 
L 142.587635 307.145532 
L 144.097188 306.818298 
L 144.851964 306.699304 
L 146.738905 306.520812 
L 147.493682 306.223327 
L 147.87107 305.687853 
L 148.248459 305.420116 
L 148.625847 304.527659 
L 149.003235 304.468162 
L 149.758012 303.992185 
L 150.512788 303.426963 
L 152.022341 302.296518 
L 152.399729 302.147775 
L 153.154506 301.671798 
L 154.286671 301.106575 
L 154.664059 300.452107 
L 155.418836 299.857136 
L 156.173612 299.619148 
L 157.305777 299.440656 
L 159.570107 299.083674 
L 159.947495 298.905182 
L 162.589213 298.667194 
L 164.098766 298.280463 
L 167.117872 297.834234 
L 167.49526 297.625995 
L 167.872648 297.566497 
L 168.627425 297.29876 
L 171.269143 296.822784 
L 172.023919 296.584795 
L 175.420414 295.989824 
L 176.17519 295.811333 
L 177.684743 295.603093 
L 178.43952 295.365104 
L 178.816908 294.799882 
L 179.949073 294.323905 
L 181.081238 293.996671 
L 181.458626 293.788431 
L 182.213402 293.639688 
L 183.722956 293.163711 
L 184.477732 293.104214 
L 185.232509 292.895975 
L 186.742062 292.479495 
L 187.11945 292.449746 
L 187.874226 292.063015 
L 188.251615 292.003518 
L 188.629003 291.795278 
L 192.780274 291.081313 
L 194.289827 290.605336 
L 194.667215 290.337599 
L 196.554157 289.683131 
L 197.308933 289.117908 
L 198.441098 288.87992 
L 203.347145 287.392492 
L 203.724534 287.332995 
L 205.234087 286.708275 
L 205.611475 286.648778 
L 206.366251 286.321544 
L 207.121028 286.291796 
L 208.253193 285.934813 
L 208.630581 285.934813 
L 209.007969 285.756322 
L 209.762746 285.667076 
L 210.140134 285.518333 
L 212.027075 285.429087 
L 212.404464 285.339842 
L 213.15924 284.923362 
L 214.291405 284.506882 
L 215.046182 284.090403 
L 216.178346 283.584677 
L 217.687899 282.811215 
L 218.065288 282.364986 
L 218.820064 281.115547 
L 219.197453 280.996553 
L 219.574841 280.996553 
L 221.084394 280.133845 
L 221.461782 280.044599 
L 221.83917 279.657868 
L 222.593947 279.330634 
L 223.348723 278.973651 
L 225.613053 276.266533 
L 225.990441 276.147539 
L 227.877383 274.838602 
L 228.632159 274.303128 
L 229.009547 273.737906 
L 229.386936 272.815701 
L 229.764324 272.22073 
L 230.141712 271.893495 
L 230.5191 271.715004 
L 235.04776 267.520458 
L 236.557313 266.538756 
L 237.312089 266.122276 
L 238.821642 265.259568 
L 240.708584 263.415158 
L 241.46336 263.087924 
L 242.218137 262.55245 
L 242.595525 262.314461 
L 242.972913 262.254964 
L 244.105078 261.570747 
L 244.482466 261.124519 
L 246.369408 260.023822 
L 246.746796 259.87508 
L 247.878961 259.04212 
L 253.539785 256.900224 
L 254.294561 256.15651 
L 255.426726 255.561539 
L 256.181503 255.055814 
L 256.936279 254.817826 
L 257.313667 254.550089 
L 257.691056 254.431094 
L 258.82322 253.627883 
L 260.710162 253.181655 
L 261.842327 252.46769 
L 262.974491 252.199953 
L 263.35188 252.110707 
L 264.484044 251.247999 
L 265.993597 250.801771 
L 266.370986 250.474537 
L 268.635315 249.641577 
L 269.390092 249.492834 
L 270.144868 249.1656 
L 272.786586 248.154149 
L 273.541363 248.064904 
L 274.673528 247.648424 
L 276.560469 246.666722 
L 278.824799 245.328037 
L 279.579575 245.119797 
L 280.71174 244.524826 
L 281.466516 244.376083 
L 282.221293 243.900106 
L 282.976069 243.691866 
L 284.108234 243.21589 
L 285.617787 243.00765 
L 286.372564 242.59117 
L 286.749952 242.234187 
L 287.12734 241.520222 
L 288.636893 241.073994 
L 290.146446 240.360028 
L 293.542941 238.783355 
L 294.297717 238.604864 
L 295.429882 238.009893 
L 295.80727 237.950395 
L 297.694212 236.968693 
L 298.448988 236.462968 
L 299.581153 236.224979 
L 302.222871 235.332523 
L 308.261083 232.446913 
L 308.638472 232.030433 
L 309.01586 231.792445 
L 309.393248 231.703199 
L 310.148025 231.048731 
L 310.525413 230.989234 
L 310.902801 230.334766 
L 311.280189 230.186023 
L 311.657578 229.858789 
L 312.034966 229.799292 
L 312.789742 229.293566 
L 313.544519 229.025829 
L 313.921907 228.728344 
L 314.676684 228.311864 
L 315.808849 227.597899 
L 316.941013 227.002928 
L 317.69579 226.794688 
L 318.450566 226.348459 
L 318.827955 225.664243 
L 319.582731 225.069272 
L 319.960119 224.980026 
L 322.224449 223.849581 
L 322.979226 223.522347 
L 323.734002 222.957124 
L 324.866167 221.856428 
L 325.620943 221.380451 
L 325.998332 220.934223 
L 327.507885 219.863275 
L 328.262661 219.060064 
L 329.394826 218.494841 
L 330.149603 218.048613 
L 330.526991 217.929619 
L 330.904379 217.632133 
L 331.281767 217.572636 
L 334.678262 215.787723 
L 335.433038 215.579483 
L 336.942591 215.044009 
L 337.31998 214.716775 
L 338.829533 214.092055 
L 339.206921 213.973061 
L 339.961698 213.467336 
L 340.716474 213.140102 
L 341.471251 212.574879 
L 342.226027 210.998206 
L 342.980804 210.105749 
L 344.112968 209.481029 
L 344.867745 209.153795 
L 345.245133 209.094298 
L 345.99991 208.737316 
L 347.509463 208.201842 
L 348.264239 207.755613 
L 349.019016 207.398631 
L 349.396404 207.279636 
L 351.660734 205.851706 
L 352.038122 205.405478 
L 353.170287 204.721261 
L 353.547675 204.572518 
L 354.302452 204.096541 
L 355.812005 203.233833 
L 356.189393 203.144587 
L 356.566781 202.817353 
L 359.208499 201.924897 
L 359.585887 201.65716 
L 360.340664 201.419171 
L 363.35977 199.931744 
L 364.114547 199.515264 
L 364.491935 199.336773 
L 365.246711 198.712053 
L 366.001488 198.503813 
L 366.378876 198.14683 
L 366.756264 198.087333 
L 367.511041 197.492362 
L 369.397982 196.332169 
L 370.152759 196.09418 
L 370.530147 195.856192 
L 370.907535 195.796695 
L 372.417088 195.052981 
L 373.549253 194.66625 
L 374.30403 194.547255 
L 375.813583 193.952284 
L 376.190971 193.922536 
L 378.077912 193.059828 
L 378.832689 192.524354 
L 379.587465 192.107874 
L 381.097019 191.36416 
L 382.229183 190.590698 
L 382.98396 190.412206 
L 384.116125 189.698241 
L 385.248289 189.281761 
L 386.003066 189.014024 
L 387.512619 188.47855 
L 388.267396 188.210813 
L 389.776949 187.883579 
L 390.531725 187.645591 
L 392.418667 186.991123 
L 393.550831 186.63414 
L 394.305608 186.455649 
L 396.569937 186.039169 
L 397.324714 185.890426 
L 398.456879 185.622689 
L 398.834267 185.444198 
L 399.589044 185.295455 
L 400.34382 185.087215 
L 401.098597 184.730233 
L 401.475985 184.58149 
L 401.853373 184.58149 
L 406.004644 183.242805 
L 406.382032 183.034565 
L 406.759421 183.034565 
L 407.514197 182.737079 
L 407.891585 182.3206 
L 410.155915 181.338897 
L 411.665468 180.803423 
L 412.042856 180.565435 
L 413.175021 180.208452 
L 413.929798 180.000212 
L 414.307186 179.732476 
L 414.684574 179.64323 
L 415.061962 179.315996 
L 416.194127 179.078007 
L 416.948904 178.721025 
L 417.326292 178.245048 
L 421.477563 177.293094 
L 421.854951 177.293094 
L 422.609728 177.055106 
L 426.006222 176.192398 
L 426.760999 176.013906 
L 430.534881 174.91321 
L 430.91227 174.823964 
L 431.289658 174.615724 
L 432.044434 174.407484 
L 432.799211 174.08025 
L 433.553987 173.782765 
L 433.931376 173.515028 
L 434.686152 173.277039 
L 437.705258 172.206091 
L 438.460035 172.146594 
L 439.969588 171.700366 
L 440.346976 171.462378 
L 441.101753 171.224389 
L 443.366082 170.272435 
L 447.894742 168.606516 
L 449.781683 167.952048 
L 450.536459 167.71406 
L 451.291236 167.50582 
L 452.800789 166.226632 
L 455.442507 165.066438 
L 458.084225 163.906245 
L 458.839001 163.698005 
L 462.235496 162.002337 
L 462.990272 161.556109 
L 466.386767 159.89019 
L 466.764155 159.592705 
L 471.292814 157.83754 
L 472.047591 157.718546 
L 472.424979 157.450809 
L 473.934532 157.153323 
L 474.689308 156.826089 
L 476.57625 155.903884 
L 481.482297 153.672742 
L 482.614462 153.286011 
L 482.99185 153.018274 
L 483.746627 152.929028 
L 484.124015 152.661291 
L 484.878792 152.542297 
L 489.784839 150.727635 
L 490.917004 150.459898 
L 492.426557 149.80543 
L 493.181333 149.388951 
L 494.690887 148.58574 
L 495.445663 148.407248 
L 495.823051 148.16926 
L 496.20044 148.080014 
L 498.087381 147.12806 
L 502.993428 145.253902 
L 503.370817 145.194404 
L 504.88037 144.450691 
L 505.635146 144.301948 
L 506.389923 143.85572 
L 507.899476 143.112006 
L 511.673359 141.565081 
L 512.428135 141.17835 
L 512.805523 141.089104 
L 513.5603 140.791618 
L 513.937688 140.791618 
L 514.692465 140.434636 
L 516.202018 139.125699 
L 516.579406 139.006705 
L 516.956794 138.768717 
L 518.088959 138.441483 
L 518.466347 138.143997 
L 519.221124 137.87626 
L 520.353289 137.102798 
L 521.108065 136.894558 
L 521.862842 136.478078 
L 522.995006 136.210341 
L 529.033219 133.711463 
L 530.92016 132.938 
L 532.807101 132.343029 
L 533.939266 131.599315 
L 534.316654 131.51007 
L 535.071431 131.123338 
L 535.826208 130.88535 
L 536.203596 130.528367 
L 537.335761 130.082139 
L 537.713149 130.022642 
L 539.222702 129.308677 
L 540.354867 128.951694 
L 541.487032 128.535214 
L 542.619196 128.20798 
L 542.996585 128.148483 
L 543.751361 127.732003 
L 544.128749 127.583261 
L 544.506138 127.285775 
L 545.638302 126.988289 
L 546.393079 126.690804 
L 547.147855 126.36357 
L 548.657409 125.73885 
L 551.299126 125.024885 
L 552.053903 124.727399 
L 553.563456 124.429914 
L 554.318233 124.281171 
L 555.450397 123.834943 
L 556.582562 123.596954 
L 558.846892 122.228521 
L 559.979057 121.514556 
L 562.243386 120.80059 
L 562.620774 120.503105 
L 565.639881 119.402408 
L 566.772045 119.045426 
L 567.526822 118.628946 
L 568.281598 118.420706 
L 568.658987 118.212466 
L 569.413763 118.063723 
L 570.923316 117.468752 
L 571.678093 116.963027 
L 572.810258 116.665541 
L 573.942422 115.892079 
L 574.319811 115.832582 
L 575.829364 115.207862 
L 577.338917 114.821131 
L 577.716305 114.761634 
L 578.093693 114.583142 
L 578.471082 114.553394 
L 579.225858 114.285657 
L 579.603246 114.255908 
L 580.735411 113.80968 
L 582.244964 113.363452 
L 582.999741 112.768481 
L 584.509294 111.905773 
L 584.886682 111.816527 
L 585.26407 111.608287 
L 585.641459 111.54879 
L 589.037953 109.823374 
L 589.415341 109.466391 
L 591.302283 108.990414 
L 592.434447 108.45494 
L 593.189224 108.246701 
L 593.566612 108.068209 
L 593.944 107.740975 
L 595.830942 107.056758 
L 600.736989 105.212348 
L 601.491766 105.063605 
L 603.378707 104.438886 
L 604.510872 103.93316 
L 607.15259 103.129949 
L 607.907366 102.683721 
L 620.738567 98.697415 
L 621.493344 98.489175 
L 622.625509 98.072695 
L 623.002897 98.072695 
L 624.135062 97.804958 
L 624.889838 97.656215 
L 625.644615 97.447975 
L 626.77678 96.823256 
L 627.908944 96.466273 
L 630.550662 95.544068 
L 632.060215 94.770606 
L 633.19238 94.502869 
L 633.947157 94.26488 
L 634.701933 93.878149 
L 635.079321 93.550915 
L 635.834098 93.312926 
L 636.211486 93.074938 
L 636.966263 92.985692 
L 639.607981 92.21223 
L 640.740145 91.974242 
L 641.87231 91.676756 
L 642.627087 91.498265 
L 643.759252 90.903294 
L 648.665299 89.029135 
L 649.420076 88.91014 
L 650.174852 88.761398 
L 650.55224 88.761398 
L 651.684405 88.404415 
L 652.81657 88.047432 
L 656.213064 87.06573 
L 656.967841 86.85749 
L 657.345229 86.768245 
L 657.722617 86.530256 
L 658.477394 86.381513 
L 659.23217 86.292268 
L 659.609559 86.084028 
L 659.986947 86.054279 
L 661.119112 85.518805 
L 662.251277 85.251068 
L 663.006053 84.923834 
L 665.270383 84.120623 
L 665.647771 84.061126 
L 666.402547 83.793389 
L 670.931207 82.633196 
L 673.195536 81.859733 
L 673.950313 81.800236 
L 676.214642 81.235014 
L 676.969419 80.907779 
L 677.346807 80.848282 
L 677.724195 80.669791 
L 678.478972 80.015323 
L 682.252855 78.617141 
L 684.517184 78.02217 
L 685.271961 77.60569 
L 685.649349 77.516444 
L 686.781514 76.891725 
L 687.158902 76.802479 
L 687.53629 76.504994 
L 688.668455 76.177759 
L 694.706667 73.440892 
L 695.084056 73.381395 
L 697.348385 72.221202 
L 697.725774 71.983213 
L 698.857938 71.655979 
L 700.367491 71.03126 
L 700.74488 71.001511 
L 702.631821 70.287546 
L 703.386598 70.138803 
L 704.141374 69.57358 
L 704.518762 69.57358 
L 706.028315 69.038106 
L 707.537868 68.740621 
L 709.047422 68.086153 
L 709.42481 68.086153 
L 710.556975 67.699422 
L 711.311751 67.580427 
L 712.443916 66.925959 
L 713.198692 66.539228 
L 715.085634 65.914508 
L 715.84041 65.587274 
L 717.727352 65.081549 
L 719.991681 64.456829 
L 724.52034 63.118144 
L 727.539447 62.344682 
L 729.049 61.630717 
L 730.181164 61.273734 
L 732.822882 60.73826 
L 733.577659 60.619266 
L 736.219377 59.697061 
L 736.974153 59.459072 
L 737.72893 59.161587 
L 738.483706 59.102089 
L 738.861095 58.804604 
L 739.615871 58.566616 
L 739.993259 58.566616 
L 741.125424 58.179884 
L 741.880201 57.882399 
L 742.634977 57.733656 
L 744.899307 56.751954 
L 745.276695 56.692457 
L 746.031472 56.335474 
L 746.786248 56.00824 
L 747.163636 55.8 
L 747.163636 55.8 
" clip-path="url(#pd7a563a30a)" style="fill: none; stroke: #1f77b4; stroke-width: 1.5; stroke-linecap: square"/>
   </g>
   <g id="line2d_40">
    <path d="M 138.813752 307.8 
L 142.210246 307.710754 
L 145.229352 307.562012 
L 146.738905 307.562012 
L 147.116294 307.443017 
L 149.003235 307.353772 
L 151.267565 307.086035 
L 153.531894 306.996789 
L 154.286671 306.907543 
L 156.928389 306.788549 
L 159.570107 306.699304 
L 161.457048 306.639806 
L 166.363095 306.550561 
L 168.250037 306.491064 
L 171.646531 306.401818 
L 173.156084 306.372069 
L 176.929967 306.282824 
L 178.43952 306.134081 
L 179.949073 306.104332 
L 182.213402 306.015087 
L 183.722956 305.985338 
L 185.609897 305.925841 
L 187.11945 305.777098 
L 190.515944 305.687853 
L 191.270721 305.628356 
L 192.780274 305.53911 
L 195.044604 305.449864 
L 196.554157 305.360619 
L 203.347145 304.91439 
L 205.988863 304.825145 
L 207.121028 304.70615 
L 209.007969 304.616905 
L 212.781852 304.408665 
L 216.555735 304.349168 
L 218.065288 304.170676 
L 219.952229 304.081431 
L 223.726112 303.6947 
L 225.990441 303.397214 
L 227.499994 303.337717 
L 230.5191 302.921237 
L 232.78343 302.86174 
L 233.915595 302.742746 
L 235.04776 302.6535 
L 254.67195 301.195821 
L 257.313667 301.106575 
L 258.82322 300.928084 
L 260.710162 300.838838 
L 262.974491 300.749593 
L 264.861433 300.660347 
L 266.370986 300.630599 
L 268.257927 300.571101 
L 269.012704 300.481856 
L 274.296139 300.39261 
L 275.050916 300.303364 
L 279.579575 300.214119 
L 282.976069 300.035627 
L 285.617787 299.946382 
L 287.12734 299.76789 
L 289.769058 299.678645 
L 290.523835 299.559651 
L 292.410776 299.500153 
L 296.184659 299.440656 
L 297.694212 299.291914 
L 299.203765 299.262165 
L 300.33593 299.172919 
L 301.845483 299.024177 
L 305.619365 298.815937 
L 309.393248 298.726691 
L 312.789742 298.5482 
L 313.921907 298.518451 
L 314.676684 298.399457 
L 316.563625 298.310211 
L 317.318402 298.250714 
L 319.205343 298.161469 
L 320.714896 298.13172 
L 323.356614 298.042474 
L 333.168709 297.358258 
L 335.433038 297.269012 
L 337.31998 297.209515 
L 342.603415 297.120269 
L 343.358192 297.031023 
L 348.641628 296.941778 
L 352.41551 296.733538 
L 353.170287 296.703789 
L 353.925063 296.614544 
L 355.812005 296.525298 
L 357.698946 296.465801 
L 359.585887 296.376555 
L 361.472829 296.317058 
L 364.869323 296.227813 
L 367.133653 296.138567 
L 372.417088 296.049321 
L 376.568359 295.811333 
L 378.077912 295.751836 
L 379.210077 295.66259 
L 384.493513 295.573344 
L 386.757843 295.484099 
L 393.550831 295.394853 
L 395.060384 295.365104 
L 399.589044 295.305607 
L 400.34382 295.24611 
L 405.627256 295.156865 
L 407.136809 295.127116 
L 416.948904 295.03787 
L 419.213233 294.948625 
L 435.063541 294.859379 
L 436.950482 294.799882 
L 446.762577 294.740385 
L 447.517353 294.680888 
L 449.404295 294.621391 
L 450.536459 294.502396 
L 452.800789 294.413151 
L 455.442507 294.294157 
L 458.839001 294.204911 
L 460.725943 294.145414 
L 463.36766 294.056168 
L 466.386767 293.907425 
L 468.273708 293.81818 
L 469.783261 293.788431 
L 476.198862 293.699185 
L 478.463191 293.60994 
L 482.614462 293.520694 
L 485.25618 293.4017 
L 487.897898 293.342203 
L 488.652674 293.282706 
L 497.709993 293.19346 
L 501.483875 292.98522 
L 504.125593 292.895975 
L 508.276864 292.657986 
L 510.918582 292.56874 
L 512.428135 292.538992 
L 515.069853 292.449746 
L 516.956794 292.241506 
L 520.730677 292.152261 
L 521.485453 292.063015 
L 525.259336 291.973769 
L 527.146277 291.914272 
L 531.297548 291.884524 
L 532.052325 291.795278 
L 536.203596 291.706032 
L 536.958372 291.646535 
L 545.260914 291.55729 
L 547.525244 291.468044 
L 553.186068 291.378798 
L 554.695621 291.34905 
L 558.092115 291.289553 
L 558.846892 291.200307 
L 563.752939 291.111061 
L 565.639881 291.051564 
L 572.432869 290.962318 
L 573.565034 290.873073 
L 574.697199 290.783827 
L 575.829364 290.694582 
L 581.490188 290.605336 
L 583.754517 290.51609 
L 594.698777 290.426845 
L 598.095271 290.248353 
L 603.378707 290.159108 
L 604.88826 290.129359 
L 609.416919 290.040113 
L 611.303861 289.980616 
L 619.229014 289.891371 
L 621.870732 289.772376 
L 628.663721 289.683131 
L 630.173274 289.653382 
L 633.947157 289.564136 
L 636.588874 289.445142 
L 640.740145 289.355897 
L 643.381863 289.236902 
L 646.778358 289.177405 
L 647.533134 289.117908 
L 655.835676 289.028662 
L 658.100006 288.939417 
L 660.741723 288.850171 
L 662.628665 288.790674 
L 673.572925 288.701428 
L 675.837254 288.612183 
L 681.875466 288.522937 
L 684.139796 288.433691 
L 689.045843 288.344446 
L 691.310173 288.2552 
L 694.329279 288.165954 
L 696.593609 288.076709 
L 711.689139 287.987463 
L 714.708246 287.83872 
L 723.388176 287.749475 
L 724.897729 287.719726 
L 733.955047 287.63048 
L 735.841988 287.570983 
L 747.163636 287.481738 
L 747.163636 287.481738 
" clip-path="url(#pd7a563a30a)" style="fill: none; stroke: #ff7f0e; stroke-width: 1.5; stroke-linecap: square"/>
   </g>
   <g id="patch_3">
    <path d="M 108 320.4 
L 108 43.2 
" style="fill: none; stroke: #a9a9a9; stroke-width: 0.8; stroke-linejoin: miter; stroke-linecap: square"/>
   </g>
   <g id="patch_4">
    <path d="M 777.6 320.4 
L 777.6 43.2 
" style="fill: none"/>
   </g>
   <g id="patch_5">
    <path d="M 108 320.4 
L 777.6 320.4 
" style="fill: none; stroke: #a9a9a9; stroke-width: 0.8; stroke-linejoin: miter; stroke-linecap: square"/>
   </g>
   <g id="patch_6">
    <path d="M 108 43.2 
L 777.6 43.2 
" style="fill: none"/>
   </g>
   <g id="text_20">
    <!-- get_subscribe history -->
    <g style="fill: #a9a9a9" transform="translate(378.6075 37.2) scale(0.12 -0.12)">
     <defs>
      <path id="DejaVuSans-67" d="M 2906 1791 
Q 2906 2416 2648 2759 
Q 2391 3103 1925 3103 
Q 1463 3103 1205 2759 
Q 947 2416 947 1791 
Q 947 1169 1205 825 
Q 1463 481 1925 481 
Q 2391 481 2648 825 
Q 2906 1169 2906 1791 
z
M 3481 434 
Q 3481 -459 3084 -895 
Q 2688 -1331 1869 -1331 
Q 1566 -1331 1297 -1286 
Q 1028 -1241 775 -1147 
L 775 -588 
Q 1028 -725 1275 -790 
Q 1522 -856 1778 -856 
Q 2344 -856 2625 -561 
Q 2906 -266 2906 331 
L 2906 616 
Q 2728 306 2450 153 
Q 2172 0 1784 0 
Q 1141 0 747 490 
Q 353 981 353 1791 
Q 353 2603 747 3093 
Q 1141 3584 1784 3584 
Q 2172 3584 2450 3431 
Q 2728 3278 2906 2969 
L 2906 3500 
L 3481 3500 
L 3481 434 
z
" transform="scale(0.015625)"/>
      <path id="DejaVuSans-65" d="M 3597 1894 
L 3597 1613 
L 953 1613 
Q 991 1019 1311 708 
Q 1631 397 2203 397 
Q 2534 397 2845 478 
Q 3156 559 3463 722 
L 3463 178 
Q 3153 47 2828 -22 
Q 2503 -91 2169 -91 
Q 1331 -91 842 396 
Q 353 884 353 1716 
Q 353 2575 817 3079 
Q 1281 3584 2069 3584 
Q 2775 3584 3186 3129 
Q 3597 2675 3597 1894 
z
M 3022 2063 
Q 3016 2534 2758 2815 
Q 2500 3097 2075 3097 
Q 1594 3097 1305 2825 
Q 1016 2553 972 2059 
L 3022 2063 
z
" transform="scale(0.015625)"/>
      <path id="DejaVuSans-74" d="M 1172 4494 
L 1172 3500 
L 2356 3500 
L 2356 3053 
L 1172 3053 
L 1172 1153 
Q 1172 725 1289 603 
Q 1406 481 1766 481 
L 2356 481 
L 2356 0 
L 1766 0 
Q 1100 0 847 248 
Q 594 497 594 1153 
L 594 3053 
L 172 3053 
L 172 3500 
L 594 3500 
L 594 4494 
L 1172 4494 
z
" transform="scale(0.015625)"/>
      <path id="DejaVuSans-5f" d="M 3263 -1063 
L 3263 -1509 
L -63 -1509 
L -63 -1063 
L 3263 -1063 
z
" transform="scale(0.015625)"/>
      <path id="DejaVuSans-73" d="M 2834 3397 
L 2834 2853 
Q 2591 2978 2328 3040 
Q 2066 3103 1784 3103 
Q 1356 3103 1142 2972 
Q 928 2841 928 2578 
Q 928 2378 1081 2264 
Q 1234 2150 1697 2047 
L 1894 2003 
Q 2506 1872 2764 1633 
Q 3022 1394 3022 966 
Q 3022 478 2636 193 
Q 2250 -91 1575 -91 
Q 1294 -91 989 -36 
Q 684 19 347 128 
L 347 722 
Q 666 556 975 473 
Q 1284 391 1588 391 
Q 1994 391 2212 530 
Q 2431 669 2431 922 
Q 2431 1156 2273 1281 
Q 2116 1406 1581 1522 
L 1381 1569 
Q 847 1681 609 1914 
Q 372 2147 372 2553 
Q 372 3047 722 3315 
Q 1072 3584 1716 3584 
Q 2034 3584 2315 3537 
Q 2597 3491 2834 3397 
z
" transform="scale(0.015625)"/>
      <path id="DejaVuSans-75" d="M 544 1381 
L 544 3500 
L 1119 3500 
L 1119 1403 
Q 1119 906 1312 657 
Q 1506 409 1894 409 
Q 2359 409 2629 706 
Q 2900 1003 2900 1516 
L 2900 3500 
L 3475 3500 
L 3475 0 
L 2900 0 
L 2900 538 
Q 2691 219 2414 64 
Q 2138 -91 1772 -91 
Q 1169 -91 856 284 
Q 544 659 544 1381 
z
M 1991 3584 
L 1991 3584 
z
" transform="scale(0.015625)"/>
      <path id="DejaVuSans-62" d="M 3116 1747 
Q 3116 2381 2855 2742 
Q 2594 3103 2138 3103 
Q 1681 3103 1420 2742 
Q 1159 2381 1159 1747 
Q 1159 1113 1420 752 
Q 1681 391 2138 391 
Q 2594 391 2855 752 
Q 3116 1113 3116 1747 
z
M 1159 2969 
Q 1341 3281 1617 3432 
Q 1894 3584 2278 3584 
Q 2916 3584 3314 3078 
Q 3713 2572 3713 1747 
Q 3713 922 3314 415 
Q 2916 -91 2278 -91 
Q 1894 -91 1617 61 
Q 1341 213 1159 525 
L 1159 0 
L 581 0 
L 581 4863 
L 1159 4863 
L 1159 2969 
z
" transform="scale(0.015625)"/>
      <path id="DejaVuSans-63" d="M 3122 3366 
L 3122 2828 
Q 2878 2963 2633 3030 
Q 2388 3097 2138 3097 
Q 1578 3097 1268 2742 
Q 959 2388 959 1747 
Q 959 1106 1268 751 
Q 1578 397 2138 397 
Q 2388 397 2633 464 
Q 2878 531 3122 666 
L 3122 134 
Q 2881 22 2623 -34 
Q 2366 -91 2075 -91 
Q 1284 -91 818 406 
Q 353 903 353 1747 
Q 353 2603 823 3093 
Q 1294 3584 2113 3584 
Q 2378 3584 2631 3529 
Q 2884 3475 3122 3366 
z
" transform="scale(0.015625)"/>
      <path id="DejaVuSans-72" d="M 2631 2963 
Q 2534 3019 2420 3045 
Q 2306 3072 2169 3072 
Q 1681 3072 1420 2755 
Q 1159 2438 1159 1844 
L 1159 0 
L 581 0 
L 581 3500 
L 1159 3500 
L 1159 2956 
Q 1341 3275 1631 3429 
Q 1922 3584 2338 3584 
Q 2397 3584 2469 3576 
Q 2541 3569 2628 3553 
L 2631 2963 
z
" transform="scale(0.015625)"/>
      <path id="DejaVuSans-69" d="M 603 3500 
L 1178 3500 
L 1178 0 
L 603 0 
L 603 3500 
z
M 603 4863 
L 1178 4863 
L 1178 4134 
L 603 4134 
L 603 4863 
z
" transform="scale(0.015625)"/>
      <path id="DejaVuSans-20" transform="scale(0.015625)"/>
      <path id="DejaVuSans-68" d="M 3513 2113 
L 3513 0 
L 2938 0 
L 2938 2094 
Q 2938 2591 2744 2837 
Q 2550 3084 2163 3084 
Q 1697 3084 1428 2787 
Q 1159 2491 1159 1978 
L 1159 0 
L 581 0 
L 581 4863 
L 1159 4863 
L 1159 2956 
Q 1366 3272 1645 3428 
Q 1925 3584 2291 3584 
Q 2894 3584 3203 3211 
Q 3513 2838 3513 2113 
z
" transform="scale(0.015625)"/>
      <path id="DejaVuSans-6f" d="M 1959 3097 
Q 1497 3097 1228 2736 
Q 959 2375 959 1747 
Q 959 1119 1226 758 
Q 1494 397 1959 397 
Q 2419 397 2687 759 
Q 2956 1122 2956 1747 
Q 2956 2369 2687 2733 
Q 2419 3097 1959 3097 
z
M 1959 3584 
Q 2709 3584 3137 3096 
Q 3566 2609 3566 1747 
Q 3566 888 3137 398 
Q 2709 -91 1959 -91 
Q 1206 -91 779 398 
Q 353 888 353 1747 
Q 353 2609 779 3096 
Q 1206 3584 1959 3584 
z
" transform="scale(0.015625)"/>
      <path id="DejaVuSans-79" d="M 2059 -325 
Q 1816 -950 1584 -1140 
Q 1353 -1331 966 -1331 
L 506 -1331 
L 506 -850 
L 844 -850 
Q 1081 -850 1212 -737 
Q 1344 -625 1503 -206 
L 1606 56 
L 191 3500 
L 800 3500 
L 1894 763 
L 2988 3500 
L 3597 3500 
L 2059 -325 
z
" transform="scale(0.015625)"/>
     </defs>
     <use xlink:href="#DejaVuSans-67"/>
     <use xlink:href="#DejaVuSans-65" transform="translate(63.476562 0)"/>
     <use xlink:href="#DejaVuSans-74" transform="translate(125 0)"/>
     <use xlink:href="#DejaVuSans-5f" transform="translate(164.208984 0)"/>
     <use xlink:href="#DejaVuSans-73" transform="translate(214.208984 0)"/>
     <use xlink:href="#DejaVuSans-75" transform="translate(266.308594 0)"/>
     <use xlink:href="#DejaVuSans-62" transform="translate(329.6875 0)"/>
     <use xlink:href="#DejaVuSans-73" transform="translate(393.164062 0)"/>
     <use xlink:href="#DejaVuSans-63" transform="translate(445.263672 0)"/>
     <use xlink:href="#DejaVuSans-72" transform="translate(500.244141 0)"/>
     <use xlink:href="#DejaVuSans-69" transform="translate(541.357422 0)"/>
     <use xlink:href="#DejaVuSans-62" transform="translate(569.140625 0)"/>
     <use xlink:href="#DejaVuSans-65" transform="translate(632.617188 0)"/>
     <use xlink:href="#DejaVuSans-20" transform="translate(694.140625 0)"/>
     <use xlink:href="#DejaVuSans-68" transform="translate(725.927734 0)"/>
     <use xlink:href="#DejaVuSans-69" transform="translate(789.306641 0)"/>
     <use xlink:href="#DejaVuSans-73" transform="translate(817.089844 0)"/>
     <use xlink:href="#DejaVuSans-74" transform="translate(869.189453 0)"/>
     <use xlink:href="#DejaVuSans-6f" transform="translate(908.398438 0)"/>
     <use xlink:href="#DejaVuSans-72" transform="translate(969.580078 0)"/>
     <use xlink:href="#DejaVuSans-79" transform="translate(1010.693359 0)"/>
    </g>
   </g>
   <g id="legend_1">
    <g id="line2d_41">
     <path d="M 815.08 328.498438 
L 825.08 328.498438 
L 835.08 328.498438 
" style="fill: none; stroke: #1f77b4; stroke-width: 1.5; stroke-linecap: square"/>
    </g>
    <g id="text_21">
     <!-- star -->
     <g style="fill: #a9a9a9" transform="translate(843.08 331.998438) scale(0.1 -0.1)">
      <defs>
       <path id="DejaVuSans-61" d="M 2194 1759 
Q 1497 1759 1228 1600 
Q 959 1441 959 1056 
Q 959 750 1161 570 
Q 1363 391 1709 391 
Q 2188 391 2477 730 
Q 2766 1069 2766 1631 
L 2766 1759 
L 2194 1759 
z
M 3341 1997 
L 3341 0 
L 2766 0 
L 2766 531 
Q 2569 213 2275 61 
Q 1981 -91 1556 -91 
Q 1019 -91 701 211 
Q 384 513 384 1019 
Q 384 1609 779 1909 
Q 1175 2209 1959 2209 
L 2766 2209 
L 2766 2266 
Q 2766 2663 2505 2880 
Q 2244 3097 1772 3097 
Q 1472 3097 1187 3025 
Q 903 2953 641 2809 
L 641 3341 
Q 956 3463 1253 3523 
Q 1550 3584 1831 3584 
Q 2591 3584 2966 3190 
Q 3341 2797 3341 1997 
z
" transform="scale(0.015625)"/>
      </defs>
      <use xlink:href="#DejaVuSans-73"/>
      <use xlink:href="#DejaVuSans-74" transform="translate(52.099609 0)"/>
      <use xlink:href="#DejaVuSans-61" transform="translate(91.308594 0)"/>
      <use xlink:href="#DejaVuSans-72" transform="translate(152.587891 0)"/>
     </g>
    </g>
    <g id="line2d_42">
     <path d="M 815.08 343.176562 
L 825.08 343.176562 
L 835.08 343.176562 
" style="fill: none; stroke: #ff7f0e; stroke-width: 1.5; stroke-linecap: square"/>
    </g>
    <g id="text_22">
     <!-- fork -->
     <g style="fill: #a9a9a9" transform="translate(843.08 346.676562) scale(0.1 -0.1)">
      <defs>
       <path id="DejaVuSans-66" d="M 2375 4863 
L 2375 4384 
L 1825 4384 
Q 1516 4384 1395 4259 
Q 1275 4134 1275 3809 
L 1275 3500 
L 2222 3500 
L 2222 3053 
L 1275 3053 
L 1275 0 
L 697 0 
L 697 3053 
L 147 3053 
L 147 3500 
L 697 3500 
L 697 3744 
Q 697 4328 969 4595 
Q 1241 4863 1831 4863 
L 2375 4863 
z
" transform="scale(0.015625)"/>
       <path id="DejaVuSans-6b" d="M 581 4863 
L 1159 4863 
L 1159 1991 
L 2875 3500 
L 3609 3500 
L 1753 1863 
L 3688 0 
L 2938 0 
L 1159 1709 
L 1159 0 
L 581 0 
L 581 4863 
z
" transform="scale(0.015625)"/>
      </defs>
      <use xlink:href="#DejaVuSans-66"/>
      <use xlink:href="#DejaVuSans-6f" transform="translate(35.205078 0)"/>
      <use xlink:href="#DejaVuSans-72" transform="translate(96.386719 0)"/>
      <use xlink:href="#DejaVuSans-6b" transform="translate(137.5 0)"/>
     </g>
    </g>
   </g>
  </g>
 </g>
 <defs>
  <clipPath id="pd7a563a30a">
   <rect x="108" y="43.2" width="669.6" height="277.2"/>
  </clipPath>
 </defs>
</svg>
